<svg xmlns="http://www.w3.org/2000/svg" width="108.276" height="120" viewBox="0 0 108.276 120">
  <g id="plan" transform="translate(-0.5)">
    <path id="Trazado_145558" data-name="Trazado 145558" d="M146.012,9.844V123.985h57.778a14.636,14.636,0,0,0,14.636-14.636V9.844A2.344,2.344,0,0,0,216.081,7.5H148.355A2.344,2.344,0,0,0,146.012,9.844Zm0,0" transform="translate(-111.407 -5.742)" fill="#90d1ff"/>
    <path id="Trazado_145560" data-name="Trazado 145560" d="M87.212,416.645a2.344,2.344,0,0,1,2.344,2.344V422.6a14.635,14.635,0,0,0,14.635,14.635H31.772A14.636,14.636,0,0,1,17.137,422.6v-3.612a2.344,2.344,0,0,1,2.344-2.344Zm0,0" transform="translate(-12.738 -318.993)" fill="#4182af"/>
    <g id="Grupo_84468" data-name="Grupo 84468" transform="translate(46.323 37.056)">
      <path id="Trazado_145561" data-name="Trazado 145561" d="M204.525,162.363a4.257,4.257,0,1,1-4.257-4.257A4.257,4.257,0,0,1,204.525,162.363Zm0,0" transform="translate(-196.012 -158.105)" fill="#8ad24a"/>
      <path id="Trazado_145562" data-name="Trazado 145562" d="M204.525,241.589a4.257,4.257,0,1,1-4.257-4.257A4.257,4.257,0,0,1,204.525,241.589Zm0,0" transform="translate(-196.012 -218.763)" fill="#8ad24a"/>
      <path id="Trazado_145563" data-name="Trazado 145563" d="M204.525,320.816a4.257,4.257,0,1,1-4.257-4.257A4.257,4.257,0,0,1,204.525,320.816Zm0,0" transform="translate(-196.012 -279.421)" fill="#8ad24a"/>
    </g>
    <path id="Trazado_145564" data-name="Trazado 145564" d="M199.258,54.785h47.455V64.98H199.258Zm0,0" transform="translate(-152.174 -41.945)" fill="#3ca8f4"/>
    <path id="Trazado_145565" data-name="Trazado 145565" d="M146.043,268.928l7.548,3.752a1.039,1.039,0,0,0,1.436-1.29l-2.924-7.906Zm0,0" transform="translate(-111.431 -201.73)" fill="#93ff33"/>
    <path id="Trazado_145566" data-name="Trazado 145566" d="M38.724,151,8.433,117.281a1.729,1.729,0,0,1,.131-2.444l4.82-4.33a1.73,1.73,0,0,1,2.444.131l30.29,33.721a1.729,1.729,0,0,1-.131,2.444l-4.82,4.33A1.73,1.73,0,0,1,38.724,151Zm0,0" transform="translate(-5.734 -84.268)" fill="#fde947"/>
    <path id="Trazado_145567" data-name="Trazado 145567" d="M38.724,159.522,8.433,125.8a1.729,1.729,0,0,1,.131-2.444l2.41-2.165,32.6,36.3-2.411,2.165A1.73,1.73,0,0,1,38.724,159.522Zm0,0" transform="translate(-5.734 -92.787)" fill="#fde947"/>
    <path id="Trazado_145568" data-name="Trazado 145568" d="M11.717,120.934l-3.281-3.653a1.73,1.73,0,0,1,.131-2.444l4.82-4.33a1.729,1.729,0,0,1,2.444.131l3.281,3.652Zm0,0" transform="translate(-5.737 -84.268)" fill="#8ad24a"/>
    <path id="Trazado_145569" data-name="Trazado 145569" d="M104.674,0H36.948a4.107,4.107,0,0,0-4.1,4.1V49.069L11.4,25.2a3.49,3.49,0,0,0-4.926-.264l-4.821,4.33a3.493,3.493,0,0,0-.264,4.926L31.682,67.91a3.476,3.476,0,0,0,1.165.85V95.893H26.014a1.758,1.758,0,1,0,0,3.516H74.475a.586.586,0,0,1,.586.586v3.614a16.373,16.373,0,0,0,6.259,12.876H19.035A12.892,12.892,0,0,1,6.157,103.607V99.995a.586.586,0,0,1,.586-.586H18.359a1.758,1.758,0,1,0,0-3.516H6.743a4.107,4.107,0,0,0-4.1,4.1v3.613A16.412,16.412,0,0,0,19.035,120H92.382a16.412,16.412,0,0,0,16.394-16.393V55.773a1.758,1.758,0,1,0-3.516,0v47.835a12.893,12.893,0,0,1-12.878,12.878h-.929a12.891,12.891,0,0,1-12.877-12.877V100a4.106,4.106,0,0,0-4.1-4.1H36.362V70.031l5.015,2.493a2.8,2.8,0,0,0,3.866-3.474l-2.7-7.289c.016-.108.027-.216.033-.326a3.464,3.464,0,0,0-.888-2.518l-5.331-5.934V4.1a.586.586,0,0,1,.586-.586h67.726a.586.586,0,0,1,.586.586V27.025a1.758,1.758,0,1,0,3.516,0V4.1A4.107,4.107,0,0,0,104.674,0ZM8.805,27.565l2.087,2.325-4.78,4.295L4.024,31.86ZM8.461,36.8l1.083-.973L35.361,64.568l-1.082.973ZM38,66.921l2.03-1.824,1.284,3.471Zm-.027-4.7L12.16,33.477l1.082-.972L39.059,61.247Zm0,0" transform="translate(0)"/>
    <path id="Trazado_145570" data-name="Trazado 145570" d="M449.23,140.469a1.758,1.758,0,0,0-1.758,1.758v13.437a1.758,1.758,0,0,0,3.516,0V142.227A1.757,1.757,0,0,0,449.23,140.469Zm0,0" transform="translate(-342.213 -107.546)"/>
    <path id="Trazado_145571" data-name="Trazado 145571" d="M194.526,150.605a6.015,6.015,0,1,0,6.015,6.015A6.021,6.021,0,0,0,194.526,150.605Zm0,8.514a2.5,2.5,0,1,1,2.5-2.5A2.5,2.5,0,0,1,194.526,159.119Zm0,0" transform="translate(-143.946 -115.307)"/>
    <path id="Trazado_145572" data-name="Trazado 145572" d="M256.656,173.895h8.613a1.758,1.758,0,1,0,0-3.516h-8.613a1.758,1.758,0,1,0,0,3.516Zm0,0" transform="translate(-194.774 -130.446)"/>
    <path id="Trazado_145573" data-name="Trazado 145573" d="M286.681,188.355H256.656a1.758,1.758,0,1,0,0,3.516h30.025a1.758,1.758,0,0,0,0-3.516Zm0,0" transform="translate(-194.774 -144.209)"/>
    <path id="Trazado_145574" data-name="Trazado 145574" d="M256.668,152.7h.012a1.758,1.758,0,0,0-.011-3.516h-.029a1.758,1.758,0,0,0,.028,3.516Zm0,0" transform="translate(-194.777 -114.218)"/>
    <path id="Trazado_145575" data-name="Trazado 145575" d="M194.526,229.832a6.015,6.015,0,1,0,6.015,6.015A6.021,6.021,0,0,0,194.526,229.832Zm0,8.514a2.5,2.5,0,1,1,2.5-2.5A2.5,2.5,0,0,1,194.526,238.346Zm0,0" transform="translate(-143.946 -175.965)"/>
    <path id="Trazado_145576" data-name="Trazado 145576" d="M256.656,253.121h8.613a1.758,1.758,0,1,0,0-3.516h-8.613a1.758,1.758,0,1,0,0,3.516Zm0,0" transform="translate(-194.774 -191.104)"/>
    <path id="Trazado_145577" data-name="Trazado 145577" d="M286.681,267.582H256.656a1.758,1.758,0,1,0,0,3.516h30.025a1.758,1.758,0,0,0,0-3.516Zm0,0" transform="translate(-194.774 -204.867)"/>
    <path id="Trazado_145578" data-name="Trazado 145578" d="M256.668,231.922h.012a1.758,1.758,0,0,0-.011-3.516h-.029a1.758,1.758,0,0,0,.028,3.516Zm0,0" transform="translate(-194.777 -174.873)"/>
    <path id="Trazado_145579" data-name="Trazado 145579" d="M194.526,309.059a6.015,6.015,0,1,0,6.015,6.015A6.021,6.021,0,0,0,194.526,309.059Zm0,8.514a2.5,2.5,0,1,1,2.5-2.5A2.5,2.5,0,0,1,194.526,317.572Zm0,0" transform="translate(-143.946 -236.622)"/>
    <path id="Trazado_145580" data-name="Trazado 145580" d="M256.656,332.348h8.613a1.758,1.758,0,1,0,0-3.516h-8.613a1.758,1.758,0,1,0,0,3.516Zm0,0" transform="translate(-194.774 -251.761)"/>
    <path id="Trazado_145581" data-name="Trazado 145581" d="M256.656,350.324h30.025a1.758,1.758,0,1,0,0-3.516H256.656a1.758,1.758,0,1,0,0,3.516Zm0,0" transform="translate(-194.774 -265.525)"/>
    <path id="Trazado_145582" data-name="Trazado 145582" d="M256.668,311.152h.012a1.758,1.758,0,0,0-.011-3.516h-.029a1.758,1.758,0,0,0,.028,3.516Zm0,0" transform="translate(-194.777 -235.534)"/>
    <path id="Trazado_145583" data-name="Trazado 145583" d="M242.728,59.237V49.043a1.758,1.758,0,0,0-1.758-1.758H193.516a1.757,1.757,0,0,0-1.758,1.758V59.237A1.757,1.757,0,0,0,193.516,61h47.455A1.758,1.758,0,0,0,242.728,59.237Zm-3.516-1.758H195.273V50.8h43.939Zm0,0" transform="translate(-146.432 -36.203)"/>
  </g>
</svg>
