<svg xmlns="http://www.w3.org/2000/svg" width="100" height="100" viewBox="0 0 100 100">
  <g id="Grupo_96864" data-name="Grupo 96864" transform="translate(-370 -4139)">
    <g id="Grupo_89084" data-name="Grupo 89084" transform="translate(-195.715 -26.803)">
      <path id="Rectángulo_34471" data-name="Rectángulo 34471" d="M50,0h0a50,50,0,0,1,50,50v0a50,50,0,0,1-50,50h0A50,50,0,0,1,0,50v0A50,50,0,0,1,50,0Z" transform="translate(565.715 4265.803) rotate(-90)" fill="#fb0"/>
      <path id="Trazado_151041" data-name="Trazado 151041" d="M40.358,0A40.358,40.358,0,1,1,0,40.358,40.358,40.358,0,0,1,40.358,0Z" transform="translate(575.383 4175.977)" fill="#fff"/>
    </g>
    <g id="gobierno" transform="translate(391.76 4155.82)">
      <path id="Trazado_151354" data-name="Trazado 151354" d="M73.766,211.945h5.483v22.28H73.766Zm0,0" transform="translate(-65.628 -188.121)" fill="#cfcfcf"/>
      <path id="Trazado_151356" data-name="Trazado 151356" d="M88.152,25.6,64.771,9.415a.662.662,0,0,0-.753,0L40.637,25.6v1.827H88.152Zm0,0" transform="translate(-36.154 -7.827)" fill="#cfcfcf"/>
      <path id="Trazado_151358" data-name="Trazado 151358" d="M243.089,92.66a1.827,1.827,0,1,1-1.827-1.828A1.827,1.827,0,0,1,243.089,92.66Zm0,0" transform="translate(-213.021 -80.368)" fill="#feda43"/>
      <path id="Trazado_151359" data-name="Trazado 151359" d="M65.675,184.29H57.861a.662.662,0,0,1-.662-.662v-4.183h9.138v4.183A.662.662,0,0,1,65.675,184.29Zm0,0" transform="translate(-50.889 -159.206)" fill="#93999a"/>
      <path id="Trazado_151361" data-name="Trazado 151361" d="M65.675,402.5H57.861a.662.662,0,0,0-.662.662v4.183h9.138v-4.183A.662.662,0,0,0,65.675,402.5Zm0,0" transform="translate(-50.889 -357.651)" fill="#93999a"/>
      <path id="Trazado_151363" data-name="Trazado 151363" d="M231.148,211.945h5.483v22.28h-5.483Zm0,0" transform="translate(-205.65 -188.121)" fill="#cfcfcf"/>
      <path id="Trazado_151365" data-name="Trazado 151365" d="M223.062,184.29h-7.814a.662.662,0,0,1-.662-.662v-4.183h9.137v4.183A.662.662,0,0,1,223.062,184.29Zm0,0" transform="translate(-190.914 -159.206)" fill="#93999a"/>
      <path id="Trazado_151367" data-name="Trazado 151367" d="M223.062,402.5h-7.814a.661.661,0,0,0-.662.662v4.183h9.137v-4.183A.662.662,0,0,0,223.062,402.5Zm0,0" transform="translate(-190.914 -357.651)" fill="#93999a"/>
      <path id="Trazado_151369" data-name="Trazado 151369" d="M388.531,211.945h5.483v22.28h-5.483Zm0,0" transform="translate(-345.671 -188.121)" fill="#cfcfcf"/>
      <path id="Trazado_151371" data-name="Trazado 151371" d="M380.441,184.29h-7.814a.662.662,0,0,1-.662-.662v-4.183H381.1v4.183A.662.662,0,0,1,380.441,184.29Zm0,0" transform="translate(-330.932 -159.206)" fill="#93999a"/>
      <path id="Trazado_151373" data-name="Trazado 151373" d="M380.441,402.5h-7.814a.662.662,0,0,0-.662.662v4.183H381.1v-4.183A.662.662,0,0,0,380.441,402.5Zm0,0" transform="translate(-330.932 -357.651)" fill="#93999a"/>
      <path id="Trazado_151375" data-name="Trazado 151375" d="M74.575,160.757H24.728a.662.662,0,0,1-.662-.662v-2.331a.662.662,0,0,1,.662-.662H74.575a.662.662,0,0,1,.662.662v2.331A.662.662,0,0,1,74.575,160.757Zm0,0" transform="translate(-21.412 -139.327)" fill="#93999a"/>
      <path id="Trazado_151377" data-name="Trazado 151377" d="M75.237,441.111H24.066v-4.821a.662.662,0,0,1,.662-.662H74.575a.662.662,0,0,1,.662.662Zm0,0" transform="translate(-21.412 -387.129)" fill="#cfcfcf"/>
      <path id="Trazado_151379" data-name="Trazado 151379" d="M61.664,472.417H8.162a.662.662,0,0,1-.662-.662v-2.331a.662.662,0,0,1,.662-.662h53.5a.662.662,0,0,1,.662.662v2.331A.662.662,0,0,1,61.664,472.417Zm0,0" transform="translate(-6.673 -416.607)" fill="#cfcfcf"/>
      <path id="Trazado_151381" data-name="Trazado 151381" d="M234.588,88.642a2.655,2.655,0,1,0-2.655-2.655A2.658,2.658,0,0,0,234.588,88.642Zm0-3.655a1,1,0,1,1-1,1A1,1,0,0,1,234.588,84.987Zm0,0" transform="translate(-206.348 -73.695)"/>
      <path id="Trazado_151382" data-name="Trazado 151382" d="M55.653,51.327h-1V48.5a.828.828,0,0,0-.827-.827H51V44.845a.827.827,0,0,0-.827-.827h-1V25.912h1A.827.827,0,0,0,51,25.084V22.257h2.828a.827.827,0,0,0,.827-.827V17.774a.827.827,0,0,0-.827-.827H52.257L28.711.646a.828.828,0,0,0-.942,0L4.224,16.947H2.655a.827.827,0,0,0-.827.827v3.655a.828.828,0,0,0,.827.827H5.482v2.828a.828.828,0,0,0,.827.827h1V44.017h-1a.827.827,0,0,0-.827.827v2.828H2.655a.828.828,0,0,0-.827.827v2.828h-1A.827.827,0,0,0,0,52.155v3.655a.827.827,0,0,0,.827.827H55.653a.827.827,0,0,0,.827-.827V52.155A.827.827,0,0,0,55.653,51.327Zm-6.31-3.655H41.86v-2h7.483Zm-5.656-3.655V25.912h3.828V44.017Zm5.656-19.76H41.86v-2h7.483Zm-8.31,1.655h1V44.017h-1a.827.827,0,0,0-.827.827v2.828H33.637V44.845a.827.827,0,0,0-.827-.827h-1V25.912h1a.828.828,0,0,0,.827-.827V22.257h6.569v2.828A.827.827,0,0,0,41.033,25.912ZM24.5,22.257h7.483v2H24.5Zm1.827,3.655h3.828V44.017H26.326Zm5.656,19.76v2H24.5v-2ZM3.482,18.6H17.92a.827.827,0,0,0,0-1.655H7.131L28.24,2.333,49.35,16.947H21.23a.827.827,0,1,0,0,1.655H53v2H3.482Zm3.655,3.655H14.62v2H7.137Zm5.656,3.655V44.017H8.965V25.912ZM7.137,45.672H14.62v2H7.137Zm8.311-1.655h-1V25.912h1a.828.828,0,0,0,.827-.827V22.257h6.569v2.828a.827.827,0,0,0,.827.827h1V44.017h-1a.827.827,0,0,0-.827.827v2.828H16.275V44.845A.827.827,0,0,0,15.448,44.017ZM3.482,49.327H53v2H3.482Zm51.344,5.655H1.655v-2H54.826Zm0,0"/>
    </g>
  </g>
</svg>
