<svg xmlns="http://www.w3.org/2000/svg" width="100" height="100" viewBox="0 0 100 100">
  <g id="Grupo_96865" data-name="Grupo 96865" transform="translate(-395 -4279.301)">
    <g id="Grupo_89085" data-name="Grupo 89085" transform="translate(-170.715 113.498)">
      <path id="Rectángulo_34471" data-name="Rectángulo 34471" d="M50,0h0a50,50,0,0,1,50,50v0a50,50,0,0,1-50,50h0A50,50,0,0,1,0,50v0A50,50,0,0,1,50,0Z" transform="translate(565.715 4265.803) rotate(-90)" fill="#fb0"/>
      <path id="Trazado_151041" data-name="Trazado 151041" d="M40.358,0A40.358,40.358,0,1,1,0,40.358,40.358,40.358,0,0,1,40.358,0Z" transform="translate(575.383 4175.977)" fill="#fff"/>
    </g>
    <g id="parque-natural" transform="translate(417.725 4301.025)">
      <g id="Grupo_89091" data-name="Grupo 89091" transform="translate(1.026 1.026)">
        <path id="Trazado_151394" data-name="Trazado 151394" d="M227.407,322v6.158H196V322Z" transform="translate(-176.909 -289.977)" fill="#3ca8f4"/>
        <path id="Trazado_151402" data-name="Trazado 151402" d="M3.122,0A3.122,3.122,0,1,1,0,3.122,3.122,3.122,0,0,1,3.122,0Z" transform="translate(43.98 0.276)" fill="#3ca8f4"/>
        <path id="Trazado_151395" data-name="Trazado 151395" d="M364.317,133.079a3.079,3.079,0,1,1,0,6.158h-9.237a3.079,3.079,0,1,1,0-6.158,3.079,3.079,0,1,1,6.158,0Z" transform="translate(-316.898 -117.683)" fill="#eefaff"/>
        <path id="Trazado_151396" data-name="Trazado 151396" d="M244.317,13.079a3.079,3.079,0,1,1,0,6.158h-9.237a3.079,3.079,0,1,1,0-6.158h3.079a3.079,3.079,0,1,1,6.158,0Z" transform="translate(-209.214 -10)" fill="#eefaff"/>
        <path id="Trazado_151397" data-name="Trazado 151397" d="M19.237,37.712c-5.1,0-9.237-3.124-9.237-10.777S14.135,10,19.237,10s9.237,9.283,9.237,16.935S24.34,37.712,19.237,37.712Z" transform="translate(-10 -10)" fill="#29b39d"/>
      </g>
      <g id="Grupo_89092" data-name="Grupo 89092" transform="translate(0 0)">
        <path id="Trazado_151398" data-name="Trazado 151398" d="M51.524,32.023H20.117a1.026,1.026,0,0,0-1.026,1.026v6.158a1.026,1.026,0,0,0,1.026,1.026H22.17V44.34H20.117a1.026,1.026,0,1,0,0,2.053H22.17V50.5H11.29V29.724c6.343-.506,9.237-5.426,9.237-11.762C20.528,11.188,16.8,0,10.264,0,3.761,0,0,11.109,0,17.962,0,24.3,2.9,29.218,9.237,29.724V50.5H1.026a1.026,1.026,0,1,0,0,2.053h50.5a1.026,1.026,0,0,0,0-2.053H49.472V46.392h2.053a1.026,1.026,0,1,0,0-2.053H49.472V40.234h2.053a1.026,1.026,0,0,0,1.026-1.026V33.05A1.026,1.026,0,0,0,51.524,32.023ZM2.053,17.962c0-5.349,3.077-15.909,8.211-15.909,5.119,0,8.211,10.522,8.211,15.909,0,5.869-2.541,9.275-7.185,9.7V19.926l2.779-2.779A1.026,1.026,0,0,0,12.617,15.7L10.264,18.05,7.91,15.7a1.026,1.026,0,1,0-1.452,1.452l2.779,2.779v7.739c-4.644-.428-7.185-3.835-7.185-9.7ZM47.419,44.34H40.44a1.026,1.026,0,1,0,0,2.053h6.979V50.5h-23.2V46.392H31.2a1.026,1.026,0,1,0,0-2.053H24.223V40.234h23.2ZM50.5,38.181H21.143V34.076H50.5Z" transform="translate(0 0)"/>
        <path id="Trazado_151399" data-name="Trazado 151399" d="M436.106,0a4.106,4.106,0,1,0,4.106,4.106A4.11,4.11,0,0,0,436.106,0Zm0,6.158a2.053,2.053,0,1,1,2.053-2.053A2.055,2.055,0,0,1,436.106,6.158Z" transform="translate(-387.66 0)"/>
        <path id="Trazado_151400" data-name="Trazado 151400" d="M355.343,123.079H353.16a4.106,4.106,0,0,0-7.977.1,4.106,4.106,0,0,0,.922,8.107h9.237a4.106,4.106,0,1,0,0-8.211Zm0,6.158h-9.237a2.053,2.053,0,1,1,0-4.106,1.026,1.026,0,0,0,1.026-1.026,2.053,2.053,0,0,1,4.106,0,1.026,1.026,0,0,0,1.026,1.026h3.079a2.053,2.053,0,0,1,0,4.106Z" transform="translate(-306.898 -107.683)"/>
        <path id="Trazado_151401" data-name="Trazado 151401" d="M235.343,11.29a4.106,4.106,0,0,0,.922-8.107,4.106,4.106,0,0,0-7.977-.1h-2.183a4.106,4.106,0,0,0,0,8.211Zm-11.29-4.106a2.055,2.055,0,0,1,2.053-2.053h3.079a1.026,1.026,0,0,0,1.026-1.026,2.053,2.053,0,0,1,4.106,0,1.026,1.026,0,0,0,1.026,1.026,2.053,2.053,0,0,1,0,4.106h-9.237A2.055,2.055,0,0,1,224.053,7.185Z" transform="translate(-199.214 0)"/>
        <circle id="Elipse_4584" data-name="Elipse 4584" cx="1.171" cy="1.171" r="1.171" transform="translate(34.859 44.225)"/>
      </g>
    </g>
  </g>
</svg>
