<svg xmlns="http://www.w3.org/2000/svg" width="120.003" height="120" viewBox="0 0 120.003 120">
  <g id="conocimiento" transform="translate(0.001 -0.007)">
    <path id="Trazado_150729" data-name="Trazado 150729" d="M0,0H60V98H0Z" transform="translate(57.998 12.006)" fill="#81c9be"/>
    <path id="Trazado_150725" data-name="Trazado 150725" d="M293.478,141.215h-46v-90h52v84A6,6,0,0,1,293.478,141.215Z" transform="translate(-189.475 -39.207)" fill="#fff"/>
    <path id="Trazado_150726" data-name="Trazado 150726" d="M430.137,102.55h0a6,6,0,0,0-6-6h-6v-88h6a6,6,0,0,1,6,6Z" transform="translate(-320.134 -6.542)" fill="#a8fff1"/>
    <path id="Trazado_150727" data-name="Trazado 150727" d="M64.508,114.55a10,10,0,0,1-20,0v-.142a14.01,14.01,0,0,1-16-13.858,14,14,0,0,1-10.84-22.857,14,14,0,0,1-1.932-25.4,14,14,0,0,1,12.77-19.742,14.246,14.246,0,0,1,1.98.138l.02-.138a14,14,0,0,1,14-14,10,10,0,1,1,20,0v96h0Z" transform="translate(-6.504 -6.542)" fill="#f2c09a"/>
    <path id="Trazado_150728" data-name="Trazado 150728" d="M118,8.01h-6a8,8,0,0,0-8-8H98a2,2,0,0,0-2,2v8H59.823a11.984,11.984,0,0,0-23.656.114,16.014,16.014,0,0,0-14.026,13.9c-.046,0-.092-.01-.138-.01A16,16,0,0,0,6.784,44.955a15.978,15.978,0,0,0,1.4,27.016,15.956,15.956,0,0,0,11.94,23.918A16.017,16.017,0,0,0,36,110.008c.06,0,.12-.012.178-.012A11.984,11.984,0,0,0,59.3,112.008H118a2,2,0,0,0,2-2v-100A2,2,0,0,0,118,8.01ZM56,49.829a12,12,0,0,1-4.182-22.107L49.758,24.3a15.985,15.985,0,0,0-6.45,20.028A12.014,12.014,0,0,0,34,56.009h4a7.987,7.987,0,0,1,7.562-7.956A15.989,15.989,0,0,0,56,53.871V76.009H52a11.969,11.969,0,0,0-2,.18v-.18a10.011,10.011,0,0,0-10-10v4a6,6,0,0,1,6,6v1.624a12,12,0,0,0-6,10.376h4a8,8,0,0,1,8-8h4v28a8,8,0,1,1-12.8-6.4l-2.4-3.2a11.883,11.883,0,0,0-4.612,7.586c-.062,0-.124.014-.186.014A12,12,0,0,1,24.162,95.853a15.785,15.785,0,0,0,2.416-.508l-1.144-3.834A12,12,0,1,1,27.15,69.163l1.716-3.612a15.991,15.991,0,0,0-18.2,3.176,11.98,11.98,0,0,1,5.34-22.718v-4a15.9,15.9,0,0,0-5.6,1.03,11.956,11.956,0,0,1,11.6-15.03h.128a15.894,15.894,0,0,0,7.472,11.624l2.1-3.4a12,12,0,0,1,4.5-22.076,12.018,12.018,0,0,0,3.8,6.79l2.67-2.98a8,8,0,1,1,13.33-5.958V49.829h0ZM100,4.01h4a4,4,0,0,1,4,4V89.083a7.936,7.936,0,0,0-4-1.074h-4Zm-40,10H96v76a2,2,0,0,0,2,2h6a4,4,0,0,1,0,8H60v-86Zm56,94H60v-4h44a8,8,0,0,0,8-8v-84h4Z" transform="translate(0 0)"/>
    <rect id="Rectángulo_34570" data-name="Rectángulo 34570" width="4" height="4" transform="translate(69.997 20.006)"/>
    <rect id="Rectángulo_34571" data-name="Rectángulo 34571" width="12" height="4" transform="translate(77.997 20.006)"/>
    <rect id="Rectángulo_34572" data-name="Rectángulo 34572" width="24" height="4" transform="translate(65.998 28.006)"/>
    <rect id="Rectángulo_34573" data-name="Rectángulo 34573" width="24" height="4" transform="translate(65.998 36.006)"/>
    <rect id="Rectángulo_34574" data-name="Rectángulo 34574" width="16" height="4" transform="translate(65.998 44.005)"/>
    <rect id="Rectángulo_34575" data-name="Rectángulo 34575" width="4" height="4" transform="translate(69.997 66.005)"/>
    <rect id="Rectángulo_34576" data-name="Rectángulo 34576" width="12" height="4" transform="translate(77.997 66.005)"/>
    <rect id="Rectángulo_34577" data-name="Rectángulo 34577" width="24" height="4" transform="translate(65.998 74.005)"/>
    <rect id="Rectángulo_34578" data-name="Rectángulo 34578" width="24" height="4" transform="translate(65.998 82.005)"/>
    <rect id="Rectángulo_34579" data-name="Rectángulo 34579" width="16" height="4" transform="translate(65.998 90.004)"/>
    <rect id="Rectángulo_34580" data-name="Rectángulo 34580" width="30" height="4" transform="translate(75.997 116.004)"/>
    <rect id="Rectángulo_34581" data-name="Rectángulo 34581" width="4" height="4" transform="translate(109.997 116.004)"/>
  </g>
</svg>
