<svg xmlns="http://www.w3.org/2000/svg" width="85.491" height="85.491" viewBox="0 0 85.491 85.491">
  <g id="diagnostico" transform="translate(-1 -1)">
    <g id="Grupo_88951" data-name="Grupo 88951" transform="translate(2.379 2.379)">
      <g id="Grupo_88941" data-name="Grupo 88941" transform="translate(16.547 63.429)">
        <path id="Trazado_151090" data-name="Trazado 151090" d="M22.273,48a2.766,2.766,0,0,1,2.758,2.758V61.789a5.516,5.516,0,1,1-11.031,0V50.758A2.766,2.766,0,0,1,16.758,48h5.516Z" transform="translate(-14 -48)" fill="#fde947"/>
      </g>
      <g id="Grupo_88942" data-name="Grupo 88942" transform="translate(17.926 54.77)">
        <path id="Trazado_151091" data-name="Trazado 151091" d="M23.273,41.72v5.9a2.766,2.766,0,0,1-2.758,2.758H17.758A2.766,2.766,0,0,1,15,47.622v-5.9a22.354,22.354,0,0,0,8.273,0Z" transform="translate(-15 -41.72)" fill="#ccd1d9"/>
      </g>
      <g id="Grupo_88943" data-name="Grupo 88943" transform="translate(0 11.031)">
        <ellipse id="Elipse_4566" data-name="Elipse 4566" cx="22" cy="22.5" rx="22" ry="22.5" transform="translate(0.112 -0.41)" fill="#e6e9ed"/>
      </g>
      <g id="Grupo_88944" data-name="Grupo 88944" transform="translate(5.516 16.547)">
        <circle id="Elipse_4567" data-name="Elipse 4567" cx="16.5" cy="16.5" r="16.5" transform="translate(-0.403 0.074)" fill="#3ca8f4"/>
      </g>
      <g id="Grupo_88945" data-name="Grupo 88945" transform="translate(24.82)">
        <path id="Trazado_151092" data-name="Trazado 151092" d="M77.913,4.758V35.093a2.766,2.766,0,0,1-2.758,2.758h-52.4A2.766,2.766,0,0,1,20,35.093V4.758A2.766,2.766,0,0,1,22.758,2h52.4a2.766,2.766,0,0,1,2.758,2.758Z" transform="translate(-20 -2)" fill="#fff5a2"/>
      </g>
      <g id="Grupo_88946" data-name="Grupo 88946" transform="translate(38.609 35.851)">
        <path id="Trazado_151093" data-name="Trazado 151093" d="M74.125,50.062V54.2l-3.5,1.117a20.034,20.034,0,0,1-1.71,4.164l1.682,3.254-5.86,5.86L61.48,66.912a20.034,20.034,0,0,1-4.164,1.71l-1.117,3.5H47.926l-1.117-3.5a20.034,20.034,0,0,1-4.164-1.71L39.39,68.595l-5.86-5.86,1.682-3.254a20.034,20.034,0,0,1-1.71-4.164L30,54.2V45.926l3.5-1.117a20.034,20.034,0,0,1,1.71-4.164L33.53,37.39l5.86-5.846,3.254,1.668a20.034,20.034,0,0,1,4.164-1.71L47.926,28H56.2l1.117,3.5a20.034,20.034,0,0,1,4.164,1.71l3.254-1.682,5.846,5.86-1.668,3.254a20.034,20.034,0,0,1,1.71,4.164l3.5,1.117Zm-8.273,0A13.789,13.789,0,1,0,52.062,63.851,13.794,13.794,0,0,0,65.851,50.062Z" transform="translate(-30 -28)" fill="#4182af"/>
      </g>
      <g id="Grupo_88947" data-name="Grupo 88947" transform="translate(66.187 5.516)">
        <path id="Trazado_151094" data-name="Trazado 151094" d="M55.516,6A5.511,5.511,0,1,1,50,11.516,5.514,5.514,0,0,1,55.516,6Z" transform="translate(-50 -6)" fill="#3ca8f4"/>
      </g>
      <g id="Grupo_88948" data-name="Grupo 88948" transform="translate(51.019 16.547)">
        <path id="Trazado_151095" data-name="Trazado 151095" d="M46.708,16.055A4.136,4.136,0,1,1,39,18.137a4,4,0,0,1,.8-2.427A4.08,4.08,0,0,1,43.137,14,4.125,4.125,0,0,1,46.708,16.055Z" transform="translate(-39 -14)" fill="#3ca8f4"/>
      </g>
      <g id="Grupo_88949" data-name="Grupo 88949" transform="translate(35.851 5.516)">
        <path id="Trazado_151096" data-name="Trazado 151096" d="M35.474,12.564a4.08,4.08,0,0,1-3.337,1.71,4.137,4.137,0,1,1,4.137-4.137A4,4,0,0,1,35.474,12.564Z" transform="translate(-28 -6)" fill="#3ca8f4"/>
      </g>
      <g id="Grupo_88950" data-name="Grupo 88950" transform="translate(30.336 24.82)">
        <path id="Trazado_151097" data-name="Trazado 151097" d="M27.751,20.193A2.74,2.74,0,1,1,26.758,20,2.653,2.653,0,0,1,27.751,20.193Z" transform="translate(-24 -20)" fill="#3ca8f4"/>
      </g>
    </g>
    <g id="Grupo_88952" data-name="Grupo 88952" transform="translate(1 1)">
      <path id="Trazado_151098" data-name="Trazado 151098" d="M86.491,35.472V5.137A4.142,4.142,0,0,0,82.355,1h-52.4A4.142,4.142,0,0,0,25.82,5.137v6.943c-.478-.032-.932-.048-1.379-.048a23.427,23.427,0,0,0-5.516,46.2V63.05a4.091,4.091,0,0,0,.553,2.028,4.128,4.128,0,0,0-1.932,3.487V79.6a6.894,6.894,0,0,0,13.789,0V68.566A4.128,4.128,0,0,0,29.4,65.078a4.091,4.091,0,0,0,.553-2.028V58.231a23.488,23.488,0,0,0,13.669-9.347l1.022,1.986a20.705,20.705,0,0,0-1.267,3.074L39.609,55.15V65.436l3.77,1.208a20.584,20.584,0,0,0,1.267,3.074l-1.809,3.515L50.109,80.5l3.515-1.809A20.706,20.706,0,0,0,56.7,79.962l1.211,3.771H68.193l1.208-3.77A20.645,20.645,0,0,0,72.475,78.7l3.515,1.809,7.271-7.272-1.808-3.515a20.644,20.644,0,0,0,1.267-3.074l3.771-1.211V55.149l-3.77-1.208a20.706,20.706,0,0,0-1.267-3.074l1.808-3.515-7.271-7.272L72.476,41.89A20.68,20.68,0,0,0,69.4,40.622l-.327-1.013H82.355a4.142,4.142,0,0,0,4.137-4.137ZM29.957,39.609H39.01A15.158,15.158,0,1,1,24.441,20.3a13.782,13.782,0,0,1,1.379.079V35.472A4.142,4.142,0,0,0,29.957,39.609ZM28.578,79.6a4.137,4.137,0,1,1-8.273,0V68.566a1.379,1.379,0,0,1,1.379-1.379H27.2a1.379,1.379,0,0,1,1.379,1.379ZM27.2,63.05a1.379,1.379,0,0,1-1.379,1.379H23.062a1.379,1.379,0,0,1-1.379-1.379V58.737a23.631,23.631,0,0,0,2.758.176,23.37,23.37,0,0,0,2.758-.182Zm-2.758-6.894a20.683,20.683,0,1,1,0-41.367c.437,0,.9.022,1.379.059v2.761c-.472-.039-.931-.062-1.379-.062A17.926,17.926,0,1,0,41.854,39.609h2.823A20.687,20.687,0,0,1,24.441,56.156Zm23.03-16.547h9.552L56.7,40.621a20.619,20.619,0,0,0-3.074,1.267l-3.515-1.809-3.842,3.842A23.122,23.122,0,0,0,47.471,39.609ZM67.22,42.858l.713.2a17.8,17.8,0,0,1,3.857,1.59l.645.361,3.027-1.557,4.428,4.428-1.557,3.025.361.647a17.774,17.774,0,0,1,1.59,3.857l.2.713,3.249,1.038v6.262l-3.249,1.04-.2.713a17.892,17.892,0,0,1-1.588,3.857l-.363.645L79.889,72.7l-4.428,4.429-3.025-1.558-.647.361a17.887,17.887,0,0,1-3.857,1.591l-.713.2-1.038,3.247H59.92l-1.04-3.249-.713-.2a17.892,17.892,0,0,1-3.857-1.588l-.645-.363-3.027,1.558L46.21,72.7l1.558-3.027-.363-.645a17.907,17.907,0,0,1-1.59-3.857l-.2-.713-3.247-1.038V57.162l3.249-1.04.2-.713a17.892,17.892,0,0,1,1.588-3.857l.363-.645L46.21,47.881l4.429-4.428,3.027,1.557.645-.361a17.734,17.734,0,0,1,3.857-1.59l.713-.2,1.038-3.249H66.18Zm-9.312-6.006H29.957a1.38,1.38,0,0,1-1.379-1.379V5.137a1.38,1.38,0,0,1,1.379-1.379h52.4a1.38,1.38,0,0,1,1.379,1.379V35.472a1.38,1.38,0,0,1-1.379,1.379H57.908Z" transform="translate(-1 -1)"/>
      <path id="Trazado_151099" data-name="Trazado 151099" d="M65.746,5a6.9,6.9,0,0,0-6.894,6.894,6.83,6.83,0,0,0,.392,2.2l-6.131,3.577a5.45,5.45,0,0,0-7.4-.36l-6.562-4.772a5.513,5.513,0,1,0-8.319,2.456l-3.586,9.324c-.037,0-.072-.011-.109-.011a4.186,4.186,0,1,0,2.679,1.011l3.6-9.347a5.09,5.09,0,0,0,.619.063,5.46,5.46,0,0,0,3.486-1.277l6.562,4.772a5.527,5.527,0,1,0,10.406.532l6.146-3.585A6.882,6.882,0,1,0,65.746,5ZM27.137,29.82a1.379,1.379,0,1,1,1.379-1.379A1.38,1.38,0,0,1,27.137,29.82Zm6.894-16.547a2.758,2.758,0,1,1,2.758-2.758A2.761,2.761,0,0,1,34.031,13.273ZM49.2,24.3a2.758,2.758,0,1,1,2.758-2.758A2.761,2.761,0,0,1,49.2,24.3Zm16.547-8.273a4.137,4.137,0,1,1,4.137-4.137A4.142,4.142,0,0,1,65.746,16.031Z" transform="translate(7.336 0.516)"/>
      <path id="Trazado_151100" data-name="Trazado 151100" d="M57,23h2.758v2.758H57Z" transform="translate(20.218 7.336)"/>
      <path id="Trazado_151101" data-name="Trazado 151101" d="M49,23h2.758v2.758H49Z" transform="translate(17.187 7.336)"/>
      <path id="Trazado_151102" data-name="Trazado 151102" d="M53,23h2.758v2.758H53Z" transform="translate(18.702 7.336)"/>
      <path id="Trazado_151103" data-name="Trazado 151103" d="M49,19H62.789v2.758H49Z" transform="translate(17.187 5.82)"/>
      <path id="Trazado_151104" data-name="Trazado 151104" d="M11.758,26H9A12.424,12.424,0,0,0,21.41,38.41V35.652A9.664,9.664,0,0,1,11.758,26Z" transform="translate(2.031 8.472)"/>
      <path id="Trazado_151105" data-name="Trazado 151105" d="M55.652,44H52.894A6.9,6.9,0,0,1,46,50.894v2.758A9.665,9.665,0,0,0,55.652,44Z" transform="translate(16.05 15.292)"/>
      <path id="Trazado_151106" data-name="Trazado 151106" d="M35,48.168A15.168,15.168,0,1,0,50.168,33,15.186,15.186,0,0,0,35,48.168Zm15.168-12.41a12.41,12.41,0,1,1-12.41,12.41A12.423,12.423,0,0,1,50.168,35.758Z" transform="translate(11.882 11.124)"/>
    </g>
  </g>
</svg>
