<svg xmlns="http://www.w3.org/2000/svg" width="77.263" height="84.026" viewBox="0 0 77.263 84.026">
  <g id="portapapeles" transform="translate(-20.591)">
    <g id="Grupo_89008" data-name="Grupo 89008" transform="translate(21.822 1.232)">
      <path id="Trazado_151201" data-name="Trazado 151201" d="M98.593,43.8H32.38A4.294,4.294,0,0,0,28.086,48.1v67.012a4.3,4.3,0,0,0,4.294,4.294H98.593a4.3,4.3,0,0,0,4.294-4.294V48.1A4.294,4.294,0,0,0,98.593,43.8Z" transform="translate(-28.086 -37.843)" fill="#6bd9e7"/>
      <path id="Trazado_151202" data-name="Trazado 151202" d="M98.593,43.8H32.38A4.294,4.294,0,0,0,28.086,48.1v67.012a4.3,4.3,0,0,0,4.294,4.294H98.593a4.3,4.3,0,0,0,4.294-4.294V48.1A4.294,4.294,0,0,0,98.593,43.8Z" transform="translate(-28.086 -37.843)" fill="#3ca8f4"/>
      <path id="Trazado_151204" data-name="Trazado 151204" d="M165.476,43.8v8.535a5.258,5.258,0,0,0,5.252,5.252h19.336a5.258,5.258,0,0,0,5.252-5.252V43.8Z" transform="translate(-142.913 -37.843)" fill="#2ed1e2"/>
      <path id="Trazado_151205" data-name="Trazado 151205" d="M57.891,75.076v64.757a.5.5,0,0,0,.5.5h63.957a.5.5,0,0,0,.5-.5V75.076a.5.5,0,0,0-.5-.5H58.386a.5.5,0,0,0-.5.5Z" transform="translate(-52.996 -63.565)" fill="#fff"/>
      <path id="Trazado_151207" data-name="Trazado 151207" d="M165.476,73.8v3.608a5.258,5.258,0,0,0,5.252,5.252h19.336a5.258,5.258,0,0,0,5.252-5.252V73.8Z" transform="translate(-142.913 -62.916)" fill="#fef1da"/>
      <g id="Grupo_89006" data-name="Grupo 89006" transform="translate(21.671 22.67)">
        <g id="XMLID_103_">
          <g id="Grupo_89005" data-name="Grupo 89005">
            <path id="Trazado_151208" data-name="Trazado 151208" d="M270.4,145.544a1.157,1.157,0,0,1,1.158,1.158,9.7,9.7,0,0,1-9.7,9.7h-6.027v-1.159a9.7,9.7,0,0,1,9.7-9.7Z" transform="translate(-240.097 -145.544)" fill="#8ad24a"/>
            <path id="Trazado_151209" data-name="Trazado 151209" d="M175.775,155.245V156.4h-6.027a9.7,9.7,0,0,1-9.7-9.7,1.157,1.157,0,0,1,1.158-1.158h4.869A9.7,9.7,0,0,1,175.775,155.245Z" transform="translate(-160.046 -145.544)" fill="#8ad24a"/>
            <path id="Trazado_151211" data-name="Trazado 151211" d="M191.5,260.26H160.046l14.818-6.665a2.223,2.223,0,0,1,1.823,0Z" transform="translate(-160.046 -235.687)" fill="#cbba34"/>
          </g>
        </g>
      </g>
      <path id="Trazado_151212" data-name="Trazado 151212" d="M206.779,10.283h-5.488a4.657,4.657,0,0,0-8.523,0h-5.324a1.966,1.966,0,0,0-1.967,1.966V22a1.967,1.967,0,0,0,1.967,1.967h19.336A1.967,1.967,0,0,0,208.747,22V12.248A1.966,1.966,0,0,0,206.779,10.283Z" transform="translate(-159.629 -7.504)" fill="#cbc4cc"/>
      <g id="Grupo_89007" data-name="Grupo 89007" transform="translate(25.848 0)">
        <path id="Trazado_151213" data-name="Trazado 151213" d="M192.818,17.736a5.4,5.4,0,0,1,5.4-5.4h.171a3.265,3.265,0,0,0,2.461-1.162,4.7,4.7,0,0,1,1.037-.894h-.591a4.657,4.657,0,0,0-8.523,0h-5.324a1.967,1.967,0,0,0-1.967,1.967V22a1.967,1.967,0,0,0,1.967,1.967h5.373V17.736Z" transform="translate(-185.477 -7.505)" fill="#b5adb6"/>
      </g>
    </g>
    <g id="Grupo_89009" data-name="Grupo 89009" transform="translate(20.591 0)">
      <path id="Trazado_151214" data-name="Trazado 151214" d="M92.328,114.366H26.117a5.532,5.532,0,0,1-5.526-5.526V41.828A5.532,5.532,0,0,1,26.117,36.3H42.743a1.232,1.232,0,1,1,0,2.463H26.117a3.066,3.066,0,0,0-3.062,3.062v67.013a3.066,3.066,0,0,0,3.062,3.062H92.328a3.066,3.066,0,0,0,3.062-3.062V41.828a3.066,3.066,0,0,0-3.062-3.062H75.867a1.232,1.232,0,0,1,0-2.463H92.328a5.532,5.532,0,0,1,5.526,5.526v67.013A5.532,5.532,0,0,1,92.328,114.366Z" transform="translate(-20.591 -30.34)"/>
      <path id="Trazado_151215" data-name="Trazado 151215" d="M70.117,134.513h-18.3a1.232,1.232,0,0,1-1.232-1.232V67.534A1.232,1.232,0,0,1,51.822,66.3H67.815a1.232,1.232,0,0,1,0,2.463H53.053V132.05H70.117a1.232,1.232,0,1,1,0,2.463Z" transform="translate(-45.663 -55.414)"/>
      <path id="Trazado_151216" data-name="Trazado 151216" d="M236.591,276.453h-41.4a1.232,1.232,0,1,1,0-2.463h40.17V237.365a1.232,1.232,0,0,1,2.463,0v37.857A1.232,1.232,0,0,1,236.591,276.453Z" transform="translate(-165.487 -197.354)"/>
      <path id="Trazado_151217" data-name="Trazado 151217" d="M366.736,91.407a1.232,1.232,0,0,1-1.232-1.232V68.765h-14.6a1.232,1.232,0,0,1,0-2.463h15.829a1.232,1.232,0,0,1,1.232,1.232V90.175A1.232,1.232,0,0,1,366.736,91.407Z" transform="translate(-295.631 -55.414)"/>
      <path id="Trazado_151218" data-name="Trazado 151218" d="M200.512,18.927H181.174a3.2,3.2,0,0,1-3.2-3.2V5.977a3.2,3.2,0,0,1,3.2-3.2h4.586a5.888,5.888,0,0,1,10,0h4.75a3.2,3.2,0,0,1,3.2,3.2v9.751A3.2,3.2,0,0,1,200.512,18.927ZM181.174,5.243a.736.736,0,0,0-.735.735v9.751a.736.736,0,0,0,.735.735h19.338a.736.736,0,0,0,.735-.735V5.977a.736.736,0,0,0-.735-.735h-5.489a1.232,1.232,0,0,1-1.127-.735,3.425,3.425,0,0,0-6.269,0,1.232,1.232,0,0,1-1.127.735h-5.325Z" transform="translate(-152.129 0)"/>
      <path id="Trazado_151219" data-name="Trazado 151219" d="M212.882,61.145h-1.03a1.232,1.232,0,0,1,0-2.463h1.03a1.232,1.232,0,1,1,0,2.463Z" transform="translate(-179.413 -49.045)"/>
      <path id="Trazado_151220" data-name="Trazado 151220" d="M282.021,61.145h-1.03a1.232,1.232,0,0,1,0-2.463h1.03a1.232,1.232,0,0,1,0,2.463Z" transform="translate(-237.198 -49.045)"/>
      <path id="Trazado_151221" data-name="Trazado 151221" d="M176.42,162.614h-2.657L159,155.975v-4.61h4.8a10.946,10.946,0,0,0,10.934-10.934,2.393,2.393,0,0,0-2.39-2.39h-4.869a10.942,10.942,0,0,0-9.7,5.9,10.942,10.942,0,0,0-9.7-5.9H143.2a2.393,2.393,0,0,0-2.39,2.39,10.9,10.9,0,0,0,3.977,8.436,1.232,1.232,0,1,0,1.568-1.9,8.449,8.449,0,0,1-3.082-6.462h4.8a8.48,8.48,0,0,1,8.47,8.4h-4.8a8.576,8.576,0,0,1-1.193-.086,1.232,1.232,0,1,0-.344,2.439,11.079,11.079,0,0,0,1.537.11h4.8v4.61l-14.761,6.639h-2.042a1.232,1.232,0,0,0,0,2.463H176.42a1.232,1.232,0,0,0,0-2.463ZM167.472,140.5h4.8a8.48,8.48,0,0,1-8.47,8.4H159A8.48,8.48,0,0,1,167.472,140.5Zm-19.69,22.109,9.988-4.492,9.988,4.492Z" transform="translate(-119.139 -115.371)"/>
      <path id="Trazado_151222" data-name="Trazado 151222" d="M147.521,331.71h-50a1.232,1.232,0,1,1,0-2.463h50a1.232,1.232,0,1,1,0,2.463Z" transform="translate(-83.856 -275.176)"/>
      <path id="Trazado_151223" data-name="Trazado 151223" d="M147.521,373.287h-50a1.232,1.232,0,1,1,0-2.463h50a1.232,1.232,0,1,1,0,2.463Z" transform="translate(-83.856 -309.925)"/>
      <path id="Trazado_151224" data-name="Trazado 151224" d="M147.521,414.864h-50a1.232,1.232,0,1,1,0-2.463h50a1.232,1.232,0,1,1,0,2.463Z" transform="translate(-83.856 -344.674)"/>
    </g>
  </g>
</svg>
