<svg xmlns="http://www.w3.org/2000/svg" width="85" height="61.612" viewBox="0 0 85 61.612">
  <g id="honestidad" transform="translate(0 -70.297)">
    <g id="Grupo_84502" data-name="Grupo 84502" transform="translate(1.661 70.741)">
      <path id="Trazado_145687" data-name="Trazado 145687" d="M261.464,206.742v1.149l.346,5.04-4.211,4.115s-20-22.675-19.689-22.727,8.247-2.371,8.247-2.371Z" transform="translate(-199.991 -172.156)" fill="#fff5a2"/>
      <g id="Grupo_84501" data-name="Grupo 84501" transform="translate(0 0)">
        <path id="Trazado_145688" data-name="Trazado 145688" d="M93.731,137.023,78.384,121.676,67.873,110.85a7.218,7.218,0,0,0-2.534-1.641l-3.574-1.362-2.354-2.354L55.728,100.7,39.314,117.157l5.063,5.363,5.036,5.036v3.254a4.442,4.442,0,0,0,1.3,3.141l5.863,5.527L71.719,151.11l3.962,3.962a3.191,3.191,0,0,0,4.511-4.513,3.191,3.191,0,0,0,4.513-4.511,3.191,3.191,0,0,0,4.511-4.513,3.191,3.191,0,1,0,4.513-4.512Z" transform="translate(-34.435 -96.086)" fill="#fff5a2"/>
        <g id="XMLID_442_" transform="translate(15.318 36.805)">
          <g id="Grupo_84497" data-name="Grupo 84497">
            <path id="Trazado_145689" data-name="Trazado 145689" d="M190.876,371.29a3.137,3.137,0,0,1,0,4.438l-3.352,3.352a3.141,3.141,0,0,1-4.438,0l-.075-.075a3.141,3.141,0,0,1,0-4.438l2.976-2.976.378-.376a3.136,3.136,0,0,1,4.437,0Z" transform="translate(-168.78 -357.639)" fill="#fff5a2"/>
            <path id="Trazado_145690" data-name="Trazado 145690" d="M163.748,346.8a3.136,3.136,0,0,1,0,4.437l-2.976,2.976a3.137,3.137,0,0,1-4.437-4.437l2.976-2.976a3.135,3.135,0,0,1,4.437,0Z" transform="translate(-146.541 -337.288)" fill="#fff5a2"/>
            <path id="Trazado_145691" data-name="Trazado 145691" d="M138.473,311.733a3.139,3.139,0,0,1,0,4.437l-1.4,1.4-2.976,2.976a3.138,3.138,0,0,1-4.438-4.438l2.7-2.7,1.677-1.675a3.137,3.137,0,0,1,4.438,0Z" transform="translate(-124.305 -308.052)" fill="#fff5a2"/>
            <path id="Trazado_145692" data-name="Trazado 145692" d="M110.118,295.133a3.136,3.136,0,0,1,0,4.437l-2.7,2.7a3.137,3.137,0,0,1-4.437-4.437l2.7-2.7a3.135,3.135,0,0,1,4.437,0Z" transform="translate(-102.065 -294.213)" fill="#fff5a2"/>
          </g>
        </g>
        <g id="XMLID_438_" transform="translate(15.318 36.805)">
          <g id="Grupo_84498" data-name="Grupo 84498">
            <path id="Trazado_145693" data-name="Trazado 145693" d="M185.122,376.679,188.1,373.7l.378-.376a3.136,3.136,0,0,1,3.173-.768,3.138,3.138,0,0,0-.773-1.269l-.075-.075a3.136,3.136,0,0,0-4.437,0l-.378.376-2.976,2.976a3.141,3.141,0,0,0,0,4.438l.075.075a3.132,3.132,0,0,0,1.269.772A3.143,3.143,0,0,1,185.122,376.679Z" transform="translate(-168.779 -357.64)" fill="#fff5a2"/>
            <path id="Trazado_145694" data-name="Trazado 145694" d="M158.446,351.89l2.976-2.976a3.138,3.138,0,0,1,3.114-.79,3.137,3.137,0,0,0-5.226-1.322l-2.976,2.976a3.14,3.14,0,0,0,1.322,5.226A3.135,3.135,0,0,1,158.446,351.89Z" transform="translate(-146.54 -337.288)" fill="#fff5a2"/>
            <path id="Trazado_145695" data-name="Trazado 145695" d="M131.773,318.217l2.7-2.7,1.677-1.675a3.138,3.138,0,0,1,3.115-.79,3.137,3.137,0,0,0-5.226-1.322l-1.677,1.675-2.7,2.7a3.138,3.138,0,0,0,1.323,5.226A3.14,3.14,0,0,1,131.773,318.217Z" transform="translate(-124.305 -308.052)" fill="#fff5a2"/>
            <path id="Trazado_145696" data-name="Trazado 145696" d="M105.1,299.942l2.7-2.7a3.137,3.137,0,0,1,3.114-.79,3.137,3.137,0,0,0-5.225-1.322l-2.7,2.7a3.139,3.139,0,0,0,1.322,5.226A3.137,3.137,0,0,1,105.1,299.942Z" transform="translate(-102.064 -294.214)" fill="#fff5a2"/>
          </g>
        </g>
        <g id="XMLID_440_" transform="translate(27.33 10.603)">
          <g id="Grupo_84499" data-name="Grupo 84499">
            <path id="Trazado_145697" data-name="Trazado 145697" d="M209.035,136.7l14.779,14.933-2.066,2.254-12.985,12.985-18.354-17.051h-6.087l-3.936,3.236a3.738,3.738,0,0,1-5.017-5.531l4.744-4.744a2.187,2.187,0,0,1,1.547-.642h12.528a2.469,2.469,0,0,1,1.2.314l4.674,2.607a.561.561,0,0,0,.665-.088l4.655-4.545Z" transform="translate(-174.273 -136.703)" fill="#fff5a2"/>
          </g>
        </g>
        <path id="Trazado_145699" data-name="Trazado 145699" d="M384.266,106.21l-3.858,3.858a1.417,1.417,0,0,1-1.98.023L361.9,94.3a1.417,1.417,0,0,1-.023-2.026l8.432-8.432a1.5,1.5,0,0,1,2.351.3L384.5,104.4A1.5,1.5,0,0,1,384.266,106.21Z" transform="translate(-302.992 -81.669)" fill="#3ca8f4"/>
        <path id="Trazado_145700" data-name="Trazado 145700" d="M10.279,90.738a.979.979,0,0,0-.008,1.392l5.72,5.72a2.218,2.218,0,0,0,3.137,0L35.069,81.91a2.218,2.218,0,0,0,0-3.137L29.545,73.25a.979.979,0,0,0-1.377-.008Z" transform="translate(-9.985 -72.963)" fill="#8ad24a"/>
      </g>
    </g>
    <g id="Grupo_84503" data-name="Grupo 84503" transform="translate(0 70.297)">
      <path id="Trazado_145701" data-name="Trazado 145701" d="M68.948,192.8l-6.824,6.825c-.089-.108-.184-.213-.285-.314L53.025,190.5a1.248,1.248,0,0,0-1.764,1.764l8.814,8.814a1.943,1.943,0,1,1-2.748,2.748l-4.9-4.9a1.248,1.248,0,1,0-1.764,1.764l4.9,4.9h0a1.943,1.943,0,0,1-2.748,2.747l-4.9-4.9a1.248,1.248,0,0,0-1.764,1.764l4.9,4.9A1.943,1.943,0,0,1,48.3,212.85l-4.9-4.9a1.248,1.248,0,0,0-1.764,1.764l4.9,4.9a1.943,1.943,0,1,1-2.748,2.748l-3.173-3.173a4.392,4.392,0,0,0-.659-5.357l-.075-.075a4.379,4.379,0,0,0-3.54-1.26,4.379,4.379,0,0,0-3.322-3.956,4.388,4.388,0,0,0-5.989-5.534,4.382,4.382,0,0,0-7.318-1.906l-.515.515-.375-.375a3.173,3.173,0,0,1-.936-2.259v-3.254a1.248,1.248,0,0,0-.365-.882L12.2,184.52l1.5-1.5a1.248,1.248,0,0,0-1.764-1.764l-2.006,2.006a.972.972,0,0,1-1.372,0l-6.42-6.42a1.248,1.248,0,0,0-1.764,1.764l6.42,6.421a3.444,3.444,0,0,0,3.295.905l5.311,5.311v2.737A5.652,5.652,0,0,0,17.059,198l.375.375-.418.418a4.383,4.383,0,0,0,3.1,7.484h.053c0,.018,0,.037,0,.055a4.385,4.385,0,0,0,4.385,4.385h.055a4.377,4.377,0,0,0,4.382,4.437h.055a4.372,4.372,0,0,0,1.281,3.156l.075.075a4.385,4.385,0,0,0,6.2,0l2.34-2.34,3.08,3.08a4.435,4.435,0,0,0,7.573-3.214l.078,0A4.433,4.433,0,0,0,54.11,211.4l.078,0a4.435,4.435,0,0,0,4.438-4.436c0-.026,0-.052,0-.078l.076,0a4.43,4.43,0,0,0,4.425-4.734l7.587-7.587a1.248,1.248,0,0,0-1.765-1.765ZM18.78,203.235a1.89,1.89,0,0,1,0-2.673l2.7-2.7a1.89,1.89,0,1,1,2.673,2.673l-2.7,2.7A1.892,1.892,0,0,1,18.78,203.235Zm5.774,4.991A1.89,1.89,0,0,1,23.218,205l2.7-2.7,1.676-1.676a1.89,1.89,0,0,1,2.673,2.673l-4.373,4.373a1.878,1.878,0,0,1-1.336.553Zm3.1,3.884a1.892,1.892,0,0,1,0-2.673l2.976-2.976a1.89,1.89,0,0,1,2.673,2.672l-2.977,2.977A1.892,1.892,0,0,1,27.655,212.11Zm7.185,4.512a1.89,1.89,0,0,1-2.673,0l-.075-.075a1.892,1.892,0,0,1,0-2.673l2.976-2.976,0,0,.373-.374a1.892,1.892,0,0,1,2.673,0l.075.075a1.892,1.892,0,0,1,0,2.673Z" transform="translate(0 -158.815)"/>
      <path id="Trazado_145702" data-name="Trazado 145702" d="M161.426,93.583a1.248,1.248,0,0,0-1.764,0l-4.675,4.675a.17.17,0,0,1-.236,0L138.221,82.472a.169.169,0,0,1,0-.242l9.8-9.8a1.248,1.248,0,0,0-1.765-1.764l-9.8,9.8a2.659,2.659,0,0,0-.231,3.5l-4.487,4.4-4.227-2.358a3.726,3.726,0,0,0-1.811-.471H113.687l-.914-.914A8.411,8.411,0,0,0,109.8,82.7l-3.325-1.267L104.94,79.9a3.469,3.469,0,0,0-.521-4.226l-5.006-5.006a1.248,1.248,0,0,0-1.764,1.764l5.006,5.006a.972.972,0,0,1,0,1.372L92.48,88.98a1.248,1.248,0,0,0,1.765,1.764l9.008-9.008,1.648,1.648a1.25,1.25,0,0,0,.438.284l3.574,1.362a5.93,5.93,0,0,1,2.048,1.313c-.076.064-.15.13-.221.2L106,91.289a4.985,4.985,0,0,0,6.691,7.377l3.591-2.952h3.74l4.274,4.274a1.248,1.248,0,0,0,1.765-1.764l-3.088-3.088a1.246,1.246,0,0,0-1.051-1.917H115.83a1.247,1.247,0,0,0-.792.284L111.1,96.738a2.49,2.49,0,0,1-3.342-3.684l4.745-4.745a.934.934,0,0,1,.665-.275H125.7a1.225,1.225,0,0,1,.6.155l4.675,2.607a1.82,1.82,0,0,0,2.147-.287L138,85.715l13.455,12.852-1.959,1.959a1.248,1.248,0,0,0,1.765,1.764l2.015-2.015a2.678,2.678,0,0,0,3.472-.252l4.676-4.675A1.248,1.248,0,0,0,161.426,93.583Z" transform="translate(-76.791 -70.297)"/>
    </g>
  </g>
</svg>
