<svg id="Grupo_88865" data-name="Grupo 88865" xmlns="http://www.w3.org/2000/svg" width="199.947" height="174.379" viewBox="0 0 199.947 174.379">
  <g id="Grupo_88864" data-name="Grupo 88864">
    <path id="Trazado_150785" data-name="Trazado 150785" d="M605.907,318.951,584.7,306.706a4.362,4.362,0,0,1-2.178-3.776V239.9a4.36,4.36,0,0,0-4.359-4.359H412.5a4.359,4.359,0,0,0-4.359,4.359v165.66a4.359,4.359,0,0,0,4.359,4.359H578.16a4.36,4.36,0,0,0,4.359-4.359V342.523a4.363,4.363,0,0,1,2.178-3.776L605.907,326.5A4.36,4.36,0,0,0,605.907,318.951Z" transform="translate(-408.141 -235.537)" fill="#fb0"/>
    <path id="Trazado_150786" data-name="Trazado 150786" d="M603,323.57l-21.209,12.239a4.367,4.367,0,0,0-2.18,3.781v63.038a4.366,4.366,0,0,1-4.359,4.359H435.021l-14.485-14.561a5.417,5.417,0,0,0,3.052.926H560.355A5.444,5.444,0,0,0,565.8,387.9V251.137a5.408,5.408,0,0,0-1-3.138l14.812,14.811V300a4.367,4.367,0,0,0,2.18,3.781L603,316.017A4.366,4.366,0,0,1,603,323.57Z" transform="translate(-405.229 -232.609)" fill="#fb0" opacity="0.44" style="mix-blend-mode: multiply;isolation: isolate"/>
  </g>
  <path id="Trazado_150787" data-name="Trazado 150787" d="M565.974,251.577V388.344a5.444,5.444,0,0,1-5.45,5.449H423.758a5.461,5.461,0,0,1-5.45-5.449V251.577a5.451,5.451,0,0,1,5.45-5.449H560.524A5.472,5.472,0,0,1,565.974,251.577Z" transform="translate(-405.752 -233.049)" fill="#fff"/>
</svg>
