<svg xmlns="http://www.w3.org/2000/svg" width="101.449" height="120" viewBox="0 0 101.449 120">
  <g id="Grupo_89151" data-name="Grupo 89151" transform="translate(-324.616 -1111.344)">
    <g id="conciencia" transform="translate(285.041 1111.344)">
      <g id="Grupo_88846" data-name="Grupo 88846" transform="translate(41.442 1.875)">
        <path id="Trazado_150713" data-name="Trazado 150713" d="M131.971,124.25h-47.9l-3.177-17.923S66.248,109.9,62.57,100.186c-2.213-5.842-5.282-22.241-5.282-22.241H50.3a2.757,2.757,0,0,1-2.547-3.814c3.2-7.709,10.262-24.789,11.755-29.269C61.458,39.024,66.067,8,100.262,8s65.968,31.361,27.261,87.46Z" transform="translate(-47.543 -8)" fill="#ffc89f"/>
        <g id="Grupo_88842" data-name="Grupo 88842" transform="translate(50.663 0)">
          <path id="Trazado_150714" data-name="Trazado 150714" d="M265.759,8c-.7,0-1.382.018-2.056.043,33.343,1.294,62.988,32.5,25.1,87.417l4.448,28.79h4.219L293.02,95.46C331.727,39.361,299.954,8,265.759,8Z" transform="translate(-263.703 -8)" fill="#f7bc94"/>
        </g>
        <path id="Trazado_150724" data-name="Trazado 150724" d="M31.812,0A31.812,31.812,0,1,1,0,31.812,31.812,31.812,0,0,1,31.812,0Z" transform="translate(22.769 12.334)" fill="#3ca8f4"/>
        <path id="Trazado_150715" data-name="Trazado 150715" d="M273.531,60.625c-.709,0-1.412.026-2.109.071a31.811,31.811,0,0,1,0,63.482c.7.046,1.4.071,2.109.071a31.812,31.812,0,1,0,0-63.624Z" transform="translate(-218.95 -48.291)" fill="#71bff4"/>
        <path id="Trazado_150716" data-name="Trazado 150716" d="M182.081,267.838a7.538,7.538,0,0,1,2.9-2.854c4-2.035,6.926-5.385,9.857-3.177s-.978,6.337,2.175,8.468c2.293,1.55,4.814,4.577,3.667,7.139A31.737,31.737,0,0,1,182.081,267.838Z" transform="translate(-150.549 -201.766)" fill="#8ad24a"/>
        <path id="Trazado_150717" data-name="Trazado 150717" d="M302.635,209.383c2.9,1.408,6.513-3.063,11.938-4.047a7.933,7.933,0,0,1,8.042,3.065,31.854,31.854,0,0,1-18.841,23.96c-3.536-.136-6.139-5.029-3.638-8.9s-5.245-5-5.567-10.163S299.731,207.975,302.635,209.383Z" transform="translate(-236.661 -158.967)" fill="#8ad24a"/>
        <path id="Trazado_150718" data-name="Trazado 150718" d="M341.139,206.874a31.823,31.823,0,0,1-17.331,25.914,4.214,4.214,0,0,0,2.362.868,31.854,31.854,0,0,0,18.841-23.96A7.846,7.846,0,0,0,341.139,206.874Z" transform="translate(-259.058 -160.263)" fill="#98db7c"/>
        <path id="Trazado_150719" data-name="Trazado 150719" d="M196.308,60.625a31.69,31.69,0,0,1,13.372,2.941c-.168.014-10.608.906-10.74,3.152-.133,2.264,12.521,5.328,10.744,9.324-1.478,3.325-10.676-4.418-13.307-2.942s4.695,4.215.965,9.106-7.723,6.922-8.59,12.3-6.127,7.376-8.592,3.647c-1.458-2.205-.267-12.521-4.8-17.049a24.2,24.2,0,0,1-4.8-7.347A31.767,31.767,0,0,1,196.308,60.625Z" transform="translate(-141.727 -48.291)" fill="#8ad24a"/>
        <g id="Grupo_88845" data-name="Grupo 88845" transform="translate(52.467 12.334)">
          <g id="Grupo_88844" data-name="Grupo 88844">
            <g id="Grupo_88843" data-name="Grupo 88843">
              <path id="Trazado_150720" data-name="Trazado 150720" d="M286.888,63.566a31.69,31.69,0,0,0-13.372-2.941c-.711,0-1.415.025-2.114.071a31.622,31.622,0,0,1,12.1,3.273C285.347,63.7,286.825,63.571,286.888,63.566Z" transform="translate(-271.402 -60.625)" fill="#98db7c"/>
            </g>
          </g>
        </g>
      </g>
      <g id="Grupo_88847" data-name="Grupo 88847" transform="translate(39.575)">
        <path id="Trazado_150721" data-name="Trazado 150721" d="M188.606,22.953C181.174,8.795,164.989,0,146.369,0,135.85,0,127,2.866,120.064,8.518A42.679,42.679,0,0,0,107.9,25.492a1.761,1.761,0,1,0,3.251,1.357c6.464-15.478,18.315-23.326,35.221-23.326,17.307,0,32.3,8.073,39.118,21.068,3.992,7.605,5.158,16.545,3.464,26.57-1.931,11.426-7.556,23.953-16.717,37.231a1.761,1.761,0,0,0-.291,1.269l1.384,8.958a1.761,1.761,0,0,0,3.481-.538l-1.277-8.268c9.222-13.492,14.9-26.3,16.894-38.066,1.825-10.8.541-20.491-3.818-28.795Z" transform="translate(-91.78)"/>
        <path id="Trazado_150722" data-name="Trazado 150722" d="M125.678,206.532a1.761,1.761,0,1,0-3.481.538l1.684,10.9H79.419l-2.925-16.5a1.763,1.763,0,0,0-2.149-1.4,26.257,26.257,0,0,1-7.324.522c-4.7-.385-7.717-2.264-8.975-5.587-2.137-5.641-5.178-21.822-5.208-21.984a1.761,1.761,0,0,0-1.731-1.437h-7c-.811-.144-1.077-.472-.926-1.385,3.784-9.1,10.352-25.034,11.822-29.445.206-.616,1.272-4.619,1.658-5.922a1.761,1.761,0,1,0-3.378-1c-.4,1.35-1.451,5.295-1.622,5.809-1.489,4.467-8.7,21.913-11.734,29.207a4.558,4.558,0,0,0,4.179,6.259H49.65c.81,4.174,3.221,16.181,5.1,21.147,1.766,4.662,5.94,7.379,12.072,7.857a29.339,29.339,0,0,0,6.511-.271l2.873,16.209a1.761,1.761,0,0,0,1.734,1.454h47.993a1.8,1.8,0,0,0,1.741-2.03Z" transform="translate(-39.575 -101.49)"/>
        <path id="Trazado_150723" data-name="Trazado 150723" d="M194.425,67.977a1.761,1.761,0,1,0,2.788-2.153,33.508,33.508,0,1,0,3.865,6.348,1.761,1.761,0,1,0-3.193,1.488,29.855,29.855,0,0,1,2.8,12.7c0,.574-.018,1.143-.049,1.709a9.737,9.737,0,0,0-7-1.215,22.392,22.392,0,0,0-6.876,2.792c-1.731.959-3.224,1.788-4,1.411-2.222-1.077-5.735-1.484-8.2.169a5.8,5.8,0,0,0-2.409,5.449c.2,3.207,2.522,5.166,4.218,6.6,2.114,1.785,2,1.955,1.639,2.52a7.811,7.811,0,0,0-.385,7.927,7.448,7.448,0,0,0,1.141,1.623,30.036,30.036,0,0,1-8.187,1.131q-1.22,0-2.415-.1c-.11-2.716-2.281-5.411-4.728-7.065-.586-.4-.65-.807-.4-2.589.227-1.646.57-4.132-1.7-5.843-3.139-2.365-6.207-.4-8.914,1.341-.9.58-1.84,1.18-2.821,1.68a8.207,8.207,0,0,0-2.2,1.662,30.054,30.054,0,0,1-2.82-34.38,23.347,23.347,0,0,0,3.768,5.067c2.483,2.483,3,7.527,3.37,11.21.263,2.584.453,4.451,1.21,5.6a5.683,5.683,0,0,0,4.776,2.708,5.848,5.848,0,0,0,1.232-.133c2.954-.636,5.234-3.352,5.809-6.919.5-3.11,2.2-4.882,4.559-7.334a47.684,47.684,0,0,0,3.709-4.2c2.8-3.668.868-6.717-.346-8.362,1.095.381,2.564,1.086,3.5,1.535,3.025,1.453,5.637,2.707,7.658,1.965a3.05,3.05,0,0,0,1.765-1.666c.572-1.286.684-3.269-2.029-5.41a32.562,32.562,0,0,0-5.159-3.029c-.84-.428-1.961-1-2.732-1.471a37.021,37.021,0,0,1,8.016-1.51A30.109,30.109,0,0,1,194.425,67.977ZM180.747,112.1a4.327,4.327,0,0,1,.218-4.391c2.158-3.34-.54-5.617-2.325-7.124-1.475-1.245-2.867-2.42-2.974-4.125-.1-1.66.619-2.144.856-2.3,1.178-.79,3.357-.576,4.7.075,2.422,1.175,4.766-.124,7.247-1.5a19.275,19.275,0,0,1,5.8-2.407,6.256,6.256,0,0,1,5.866,1.813,30.219,30.219,0,0,1-17.291,21.727A3.245,3.245,0,0,1,180.747,112.1Zm-29.557-5.056c1.137-.579,2.193-1.256,3.124-1.854,2.877-1.845,3.867-2.265,4.893-1.492.541.408.557.91.331,2.549-.236,1.708-.591,4.29,1.921,5.988a7.9,7.9,0,0,1,3.065,3.633,30.073,30.073,0,0,1-14.722-7.72A4.825,4.825,0,0,1,151.189,107.042ZM171.453,60.49c-.122,2.076,2.171,3.244,5.346,4.861a30.285,30.285,0,0,1,4.575,2.655,3.508,3.508,0,0,1,.959,1.011,21.377,21.377,0,0,1-4.646-1.839c-3.175-1.525-5.917-2.842-7.906-1.725a2.717,2.717,0,0,0-1.432,1.822c-.274,1.3.5,2.336,1.256,3.335,1.264,1.68,1.915,2.715.6,4.435a44.188,44.188,0,0,1-3.448,3.9c-2.479,2.58-4.821,5.017-5.5,9.214-.389,2.415-1.824,3.767-3.073,4.036a2.132,2.132,0,0,1-2.326-1.07,18.091,18.091,0,0,1-.647-4.015c-.428-4.21-1.014-9.975-4.384-13.345a21.385,21.385,0,0,1-4.013-5.886,30.077,30.077,0,0,1,23.753-11.625,30.482,30.482,0,0,1,5.9.575C173.774,57.481,171.571,58.477,171.453,60.49Z" transform="translate(-114.119 -40.37)"/>
      </g>
    </g>
  </g>
</svg>
