<svg xmlns="http://www.w3.org/2000/svg" width="400" height="295" viewBox="0 0 400 295">
  <g id="Grupo_96855" data-name="Grupo 96855" transform="translate(-599.668 -3434)">
    <path id="Trazado_155912" data-name="Trazado 155912" d="M20,0H380a20,20,0,0,1,20,20V275a20,20,0,0,1-20,20H20A20,20,0,0,1,0,275V20A20,20,0,0,1,20,0Z" transform="translate(599.668 3434)" fill="#7ae582"/>
    <path id="Trazado_155915" data-name="Trazado 155915" d="M52.756,18.646h6.221V21h-9.15V6.781h2.93ZM63.449,21H60.617V6h2.832ZM72.1,19.926a3.539,3.539,0,0,1-2.891,1.27,3.338,3.338,0,0,1-2.593-.977,4.169,4.169,0,0,1-.913-2.861V10.434h2.822V17.26q0,1.65,1.5,1.65a2.038,2.038,0,0,0,1.973-1v-7.48h2.832V21H72.18Zm8.818-2.373,1.963-7.119h2.949L82.268,21h-2.7L76.008,10.434h2.949ZM90.051,21H87.219V10.434h2.832Zm-3-13.3a1.39,1.39,0,0,1,.425-1.045,1.831,1.831,0,0,1,2.31,0,1.382,1.382,0,0,1,.43,1.045,1.386,1.386,0,0,1-.435,1.055,1.81,1.81,0,0,1-2.295,0A1.386,1.386,0,0,1,87.053,7.7ZM98.5,21a3.134,3.134,0,0,1-.283-.947A3.415,3.415,0,0,1,95.549,21.2a3.752,3.752,0,0,1-2.573-.9,2.89,2.89,0,0,1-1.021-2.266A2.986,2.986,0,0,1,93.2,15.453a6.144,6.144,0,0,1,3.6-.908h1.3v-.605a1.741,1.741,0,0,0-.376-1.172,1.479,1.479,0,0,0-1.187-.439,1.682,1.682,0,0,0-1.118.342,1.161,1.161,0,0,0-.405.938H92.189a2.835,2.835,0,0,1,.566-1.7,3.744,3.744,0,0,1,1.6-1.226,5.837,5.837,0,0,1,2.324-.444,4.611,4.611,0,0,1,3.1.981,3.433,3.433,0,0,1,1.147,2.759v4.58a5.052,5.052,0,0,0,.42,2.275V21Zm-2.334-1.963a2.431,2.431,0,0,0,1.152-.278,1.828,1.828,0,0,0,.781-.747V16.2H97.043q-2.119,0-2.256,1.465l-.01.166a1.13,1.13,0,0,0,.371.869A1.441,1.441,0,0,0,96.164,19.037Zm11.475-3.4a6.368,6.368,0,0,1,1.108-3.936,3.6,3.6,0,0,1,3.032-1.465,3.236,3.236,0,0,1,2.549,1.152V6h2.832V21h-2.549l-.137-1.123A3.321,3.321,0,0,1,111.76,21.2a3.587,3.587,0,0,1-2.993-1.47A6.573,6.573,0,0,1,107.639,15.639Zm2.822.205a4.16,4.16,0,0,0,.518,2.275,1.687,1.687,0,0,0,1.5.791,1.889,1.889,0,0,0,1.846-1.1v-4.17a1.862,1.862,0,0,0-1.826-1.1Q110.461,12.533,110.461,15.844Zm13.75,5.352a5.187,5.187,0,0,1-3.784-1.426,5.068,5.068,0,0,1-1.46-3.8V15.7a6.383,6.383,0,0,1,.615-2.847,4.515,4.515,0,0,1,1.743-1.934,4.893,4.893,0,0,1,2.573-.679,4.385,4.385,0,0,1,3.413,1.367,5.555,5.555,0,0,1,1.245,3.877v1.152h-6.729a2.622,2.622,0,0,0,.825,1.66,2.5,2.5,0,0,0,1.743.625,3.046,3.046,0,0,0,2.549-1.182l1.387,1.553a4.237,4.237,0,0,1-1.719,1.4A5.639,5.639,0,0,1,124.211,21.2Zm-.322-8.672a1.767,1.767,0,0,0-1.362.566,2.926,2.926,0,0,0-.669,1.621h3.926v-.225a2.086,2.086,0,0,0-.508-1.45A1.824,1.824,0,0,0,123.889,12.523ZM138.117,21h-2.832V10.434h2.832Zm-3-13.3a1.39,1.39,0,0,1,.425-1.045,1.831,1.831,0,0,1,2.31,0,1.382,1.382,0,0,1,.43,1.045,1.386,1.386,0,0,1-.435,1.055,1.81,1.81,0,0,1-2.295,0A1.386,1.386,0,0,1,135.119,7.7ZM140,15.639A6.368,6.368,0,0,1,141.11,11.7a3.6,3.6,0,0,1,3.032-1.465,3.236,3.236,0,0,1,2.549,1.152V6h2.832V21h-2.549l-.137-1.123a3.321,3.321,0,0,1-2.715,1.318,3.587,3.587,0,0,1-2.993-1.47A6.573,6.573,0,0,1,140,15.639Zm2.822.205a4.16,4.16,0,0,0,.518,2.275,1.687,1.687,0,0,0,1.5.791,1.889,1.889,0,0,0,1.846-1.1v-4.17a1.862,1.862,0,0,0-1.826-1.1Q142.824,12.533,142.824,15.844Zm13.75,5.352a5.187,5.187,0,0,1-3.784-1.426,5.068,5.068,0,0,1-1.46-3.8V15.7a6.383,6.383,0,0,1,.615-2.847,4.515,4.515,0,0,1,1.743-1.934,4.893,4.893,0,0,1,2.573-.679,4.385,4.385,0,0,1,3.413,1.367,5.555,5.555,0,0,1,1.245,3.877v1.152h-6.729a2.622,2.622,0,0,0,.825,1.66,2.5,2.5,0,0,0,1.743.625,3.046,3.046,0,0,0,2.549-1.182l1.387,1.553a4.237,4.237,0,0,1-1.719,1.4A5.639,5.639,0,0,1,156.574,21.2Zm-.322-8.672a1.767,1.767,0,0,0-1.362.566,2.926,2.926,0,0,0-.669,1.621h3.926v-.225a2.086,2.086,0,0,0-.508-1.45A1.824,1.824,0,0,0,156.252,12.523ZM168.645,21a3.134,3.134,0,0,1-.283-.947A3.415,3.415,0,0,1,165.7,21.2a3.752,3.752,0,0,1-2.573-.9,2.889,2.889,0,0,1-1.021-2.266,2.986,2.986,0,0,1,1.245-2.578,6.144,6.144,0,0,1,3.6-.908h1.3v-.605a1.741,1.741,0,0,0-.376-1.172,1.479,1.479,0,0,0-1.187-.439,1.682,1.682,0,0,0-1.118.342,1.161,1.161,0,0,0-.405.938h-2.822a2.835,2.835,0,0,1,.566-1.7,3.744,3.744,0,0,1,1.6-1.226,5.837,5.837,0,0,1,2.324-.444,4.611,4.611,0,0,1,3.1.981,3.433,3.433,0,0,1,1.147,2.759v4.58a5.052,5.052,0,0,0,.42,2.275V21Zm-2.334-1.963a2.431,2.431,0,0,0,1.152-.278,1.828,1.828,0,0,0,.781-.747V16.2h-1.055q-2.119,0-2.256,1.465l-.01.166a1.13,1.13,0,0,0,.371.869A1.441,1.441,0,0,0,166.311,19.037Zm12.656-.957a.909.909,0,0,0-.513-.815,5.824,5.824,0,0,0-1.646-.532q-3.77-.791-3.77-3.2a2.9,2.9,0,0,1,1.167-2.349,4.707,4.707,0,0,1,3.052-.942,5.067,5.067,0,0,1,3.218.947,2.985,2.985,0,0,1,1.206,2.461h-2.822a1.366,1.366,0,0,0-.391-1,1.653,1.653,0,0,0-1.221-.4,1.689,1.689,0,0,0-1.1.322,1.017,1.017,0,0,0-.391.82.87.87,0,0,0,.444.757,4.571,4.571,0,0,0,1.5.5,12.244,12.244,0,0,1,1.777.474,2.92,2.92,0,0,1,2.236,2.842,2.756,2.756,0,0,1-1.24,2.339,5.35,5.35,0,0,1-3.2.894,5.588,5.588,0,0,1-2.358-.474,3.957,3.957,0,0,1-1.616-1.3,3.018,3.018,0,0,1-.586-1.782h2.676a1.473,1.473,0,0,0,.557,1.152,2.208,2.208,0,0,0,1.387.4,2.044,2.044,0,0,0,1.226-.308A.957.957,0,0,0,178.967,18.08Z" transform="translate(684.668 3641)" fill="#12263f"/>
    <g id="ideas" transform="translate(709.055 3499)">
      <path id="Trazado_150910" data-name="Trazado 150910" d="M131.712,123.991H83.72l-3.183-17.958s-14.676,3.576-18.361-6.153C59.959,94.027,56.884,77.6,56.884,77.6h-7a2.762,2.762,0,0,1-2.552-3.822c3.211-7.724,10.282-24.838,11.778-29.326C61.062,38.6,65.68,7.514,99.942,7.514s66.1,31.422,27.314,87.631Z" transform="translate(-5.748 -5.753)" fill="#fff5a2"/>
      <path id="Trazado_150913" data-name="Trazado 150913" d="M227.5,169.606h0a21,21,0,1,0-35.221,0h0l.008.011c.064.1.126.2.191.291,7.521,11.468,10.095,18.683,10.095,18.683h14.635s2.574-7.216,10.095-18.683c.065-.1.128-.194.191-.291Z" transform="translate(-114.288 -104.918)" fill="#ffcf4d"/>
      <path id="Trazado_150915" data-name="Trazado 150915" d="M254.632,370.178h0a7.3,7.3,0,0,1-7.3-7.3v-5.84h14.609v5.84A7.3,7.3,0,0,1,254.632,370.178Z" transform="translate(-159.032 -273.354)" fill="#3ca8f4"/>
      <path id="Trazado_150917" data-name="Trazado 150917" d="M311.708,245.932a1.76,1.76,0,0,0-2.192,1.183c-2.769,9.265-7.782,19.194-14.9,29.511a1.762,1.762,0,0,0-.291,1.269l4.143,26.816h-29.1a1.761,1.761,0,1,0,0,3.523h31.155a1.761,1.761,0,0,0,1.74-2.03l-4.35-28.157c7.118-10.415,12.156-20.48,14.979-29.924A1.762,1.762,0,0,0,311.708,245.932Z" transform="translate(-174.558 -188.235)"/>
      <path id="Trazado_150918" data-name="Trazado 150918" d="M131.97,16.268A43.045,43.045,0,0,0,115.2,4.1,54.851,54.851,0,0,0,94.194,0c-13.8,0-24.62,4.883-32.157,14.512-6.088,7.778-8.445,16.626-9.711,21.379-.248.93-.462,1.733-.633,2.247C50.2,42.6,42.992,60.052,39.96,67.345A4.523,4.523,0,0,0,44.138,73.6h5.541c.81,4.174,3.221,16.181,5.1,21.147,1.766,4.662,5.94,7.379,12.073,7.857a29.342,29.342,0,0,0,6.511-.271l2.873,16.209A1.761,1.761,0,0,0,77.972,120h9.792a1.761,1.761,0,0,0,0-3.523H79.449l-2.926-16.5a1.761,1.761,0,0,0-2.151-1.4c-.132.032-13.2,3.112-16.3-5.066-2.137-5.641-5.178-21.821-5.208-21.984a1.761,1.761,0,0,0-1.731-1.437h-7a1,1,0,0,1-.926-1.385C47,59.593,53.565,43.663,55.035,39.252c.206-.616.421-1.427.7-2.454,2.424-9.1,8.865-33.276,38.464-33.276a51.3,51.3,0,0,1,19.646,3.83A39.574,39.574,0,0,1,129.26,18.517c7.284,8.778,9.818,20.429,7.329,33.694a1.761,1.761,0,1,0,3.462.649C142.739,38.532,139.945,25.879,131.97,16.268Z" transform="translate(0)"/>
      <path id="Trazado_150919" data-name="Trazado 150919" d="M194.656,186.944a1.761,1.761,0,0,0,0,3.523h.592a9.066,9.066,0,0,0,17.778,0h.592a1.761,1.761,0,1,0,0-3.523H213.2V183.2c.508-1.316,3.263-8.077,9.807-18.055.064-.095.126-.191.189-.286l.014-.022.013-.02a22.763,22.763,0,1,0-38.169.011l.006.009.019.03c.06.093.121.186.171.26q.578.881,1.116,1.728a1.761,1.761,0,1,0,2.972-1.891c-.368-.578-.748-1.167-1.155-1.786-.051-.075-.1-.151-.149-.228l-.025-.039-.012-.017a19.24,19.24,0,1,1,32.263.017l-.02.03c-.051.079-.1.158-.167.254a111.264,111.264,0,0,0-9.823,17.888h-2.31c.048-2.07.175-5.691.509-9.412.1-1.151.215-2.191.333-3.13,3.087-.818,5.309-2.5,6.229-4.844a5.52,5.52,0,0,0-1.3-6.112,3.524,3.524,0,0,0-3.967-.963c-2.232.967-3.4,4.6-4.1,8.895q-.689.057-1.464.058c-.551,0-1.07-.023-1.557-.065-.7-4.294-1.87-7.922-4.1-8.888a3.524,3.524,0,0,0-3.967.963,5.505,5.505,0,0,0-1.3,6.1c.918,2.333,3.137,4.02,6.225,4.845.117.938.229,1.976.333,3.124.335,3.724.463,7.357.511,9.432H198.02a92.23,92.23,0,0,0-5.013-10.034,1.761,1.761,0,1,0-3.064,1.738,82.539,82.539,0,0,1,5.128,10.412v3.749h-.415Zm16.394-27a2.125,2.125,0,0,1,.266.215,1.972,1.972,0,0,1,.422,2.244,4.378,4.378,0,0,1-2.323,2.189C210.089,161.262,210.78,160.234,211.049,159.945Zm-14.513,2.443a1.958,1.958,0,0,1,.42-2.227,2.21,2.21,0,0,1,.266-.215c.269.289.958,1.313,1.632,4.629A4.383,4.383,0,0,1,196.536,162.388Zm7.6,31.842a5.552,5.552,0,0,1-5.248-3.763h10.5A5.551,5.551,0,0,1,204.137,194.229Zm1.034-25.158c-.073.662-.138,1.325-.2,1.986-.371,4.009-.5,7.867-.552,10.022h-.568c-.048-2.155-.181-6.012-.552-10.022-.061-.662-.127-1.327-.2-1.991C203.777,169.1,204.492,169.1,205.171,169.071Zm-6.577,15.536H209.68v2.336H198.594v-2.336Z" transform="translate(-108.537 -99.167)"/>
      <path id="Trazado_150920" data-name="Trazado 150920" d="M274.5,67.291v-7.1a1.761,1.761,0,0,0-3.523,0v7.1a1.761,1.761,0,0,0,3.523,0Z" transform="translate(-177.139 -44.733)"/>
      <path id="Trazado_150921" data-name="Trazado 150921" d="M331.39,83.4a1.762,1.762,0,0,0,1.68-1.234l2.127-6.776a1.761,1.761,0,0,0-3.361-1.055l-2.127,6.776A1.762,1.762,0,0,0,331.39,83.4Z" transform="translate(-222.043 -55.97)"/>
      <path id="Trazado_150922" data-name="Trazado 150922" d="M371.1,121.262a1.753,1.753,0,0,0,1.079-.37l5.611-4.355a1.761,1.761,0,1,0-2.16-2.783l-5.611,4.355a1.761,1.761,0,0,0,1.081,3.153Z" transform="translate(-252.444 -86.81)"/>
      <path id="Trazado_150923" data-name="Trazado 150923" d="M207.139,83.4a1.763,1.763,0,0,0,1.681-2.289l-2.127-6.776a1.761,1.761,0,1,0-3.361,1.055l2.127,6.776A1.762,1.762,0,0,0,207.139,83.4Z" transform="translate(-125.285 -55.97)"/>
      <path id="Trazado_150924" data-name="Trazado 150924" d="M157.133,118.11l-5.611-4.355a1.761,1.761,0,1,0-2.16,2.783l5.611,4.355a1.761,1.761,0,0,0,2.16-2.783Z" transform="translate(-83.505 -86.811)"/>
    </g>
  </g>
</svg>
