<svg xmlns="http://www.w3.org/2000/svg" width="85" height="85" viewBox="0 0 85 85">
  <g id="demografia" transform="translate(-8.931 -8.931)">
    <g id="Grupo_89002" data-name="Grupo 89002" transform="translate(10.359 10.359)">
      <path id="Trazado_151149" data-name="Trazado 151149" d="M54,12.931V54H12.931A41.073,41.073,0,0,1,54,12.931Z" transform="translate(-12.931 -12.931)" fill="#93ff33"/>
      <path id="Trazado_151150" data-name="Trazado 151150" d="M169.072,54a40.865,40.865,0,0,1-3.75,17.163L128,54V12.931A41.073,41.073,0,0,1,169.072,54Z" transform="translate(-86.928 -12.931)" fill="#3ca8f4"/>
      <path id="Trazado_151151" data-name="Trazado 151151" d="M91.326,145.164A41.077,41.077,0,0,1,12.931,128H54Z" transform="translate(-12.931 -86.928)" fill="#fde947"/>
      <g id="Grupo_88999" data-name="Grupo 88999" transform="translate(54.618 14.548)">
        <circle id="Elipse_4569" data-name="Elipse 4569" cx="5.407" cy="5.407" r="5.407" transform="translate(0.875)" fill="#fff5a2"/>
        <path id="Trazado_151156" data-name="Trazado 151156" d="M178.513,100.027H165.95V90.269a6.281,6.281,0,1,1,12.563,0Z" transform="translate(-165.95 -73.174)" fill="#fde947"/>
      </g>
      <g id="Grupo_89000" data-name="Grupo 89000" transform="translate(24.255 46.784)">
        <path id="Trazado_151171" data-name="Trazado 151171" d="M5.407,0A5.407,5.407,0,1,1,0,5.407,5.407,5.407,0,0,1,5.407,0Z" transform="translate(0.874 0)" fill="#fff5a2"/>
        <path id="Trazado_151159" data-name="Trazado 151159" d="M93.447,190.338H80.884V180.58a6.281,6.281,0,0,1,12.563,0Z" transform="translate(-80.884 -163.485)" fill="#70bc2d"/>
      </g>
      <g id="Grupo_89001" data-name="Grupo 89001" transform="translate(19.724 9.505)">
        <circle id="Elipse_4571" data-name="Elipse 4571" cx="5.407" cy="5.407" r="5.407" transform="translate(0.874)" fill="#fff5a2"/>
        <path id="Trazado_151162" data-name="Trazado 151162" d="M80.754,85.9H68.191V76.14a6.281,6.281,0,0,1,12.563,0Z" transform="translate(-68.191 -59.045)" fill="#3ca8f4"/>
      </g>
    </g>
    <g id="Grupo_89003" data-name="Grupo 89003" transform="translate(8.931 8.931)">
      <path id="Trazado_151165" data-name="Trazado 151165" d="M173.97,61.824a6.835,6.835,0,1,0-8.618,0,7.707,7.707,0,0,0-3.4,6.389v9.758A1.428,1.428,0,0,0,163.38,79.4h12.563a1.428,1.428,0,0,0,1.428-1.428V68.213A7.709,7.709,0,0,0,173.97,61.824Zm-4.309-9.279a3.98,3.98,0,1,1-3.979,3.98A3.984,3.984,0,0,1,169.66,52.544Zm4.854,24h-9.707v-8.33a4.854,4.854,0,0,1,9.707,0Z" transform="translate(-107.333 -35.141)"/>
      <path id="Trazado_151166" data-name="Trazado 151166" d="M88.9,152.135a6.832,6.832,0,1,0-8.619,0,7.707,7.707,0,0,0-3.4,6.389v9.758a1.428,1.428,0,0,0,1.428,1.428H90.875a1.428,1.428,0,0,0,1.428-1.428v-9.758A7.707,7.707,0,0,0,88.9,152.135Zm-4.309-9.279a3.979,3.979,0,1,1-3.979,3.979A3.984,3.984,0,0,1,84.593,142.855Zm4.854,24H79.74v-8.33a4.854,4.854,0,0,1,9.707,0Z" transform="translate(-52.629 -93.217)"/>
      <path id="Trazado_151167" data-name="Trazado 151167" d="M76.21,47.7a6.835,6.835,0,1,0-8.618,0,7.707,7.707,0,0,0-3.4,6.389v9.758A1.428,1.428,0,0,0,65.62,65.27H78.183a1.428,1.428,0,0,0,1.428-1.428V54.085A7.708,7.708,0,0,0,76.21,47.7ZM71.9,38.416A3.979,3.979,0,1,1,67.921,42.4,3.984,3.984,0,0,1,71.9,38.416Zm4.854,24H67.047v-8.33a4.854,4.854,0,1,1,9.707,0Z" transform="translate(-44.467 -26.056)"/>
      <path id="Trazado_151168" data-name="Trazado 151168" d="M51.431,8.931a42.5,42.5,0,1,0,42.5,42.5A42.548,42.548,0,0,0,51.431,8.931ZM50,11.812V50H11.812A39.7,39.7,0,0,1,50,11.812Zm1.428,79.264a39.693,39.693,0,0,1-39.62-38.217H51.118l29.3,13.476,6.413,2.949a39.783,39.783,0,0,1-35.4,21.792Zm1.428-40.56v-38.7a39.693,39.693,0,0,1,38.217,39.62A39.278,39.278,0,0,1,88.032,66.69Z" transform="translate(-8.931 -8.931)"/>
      <path id="Trazado_151169" data-name="Trazado 151169" d="M153.958,199.722c-6.658,5.061-12.037,5.347-12.117,5.35a1.428,1.428,0,0,0,.1,2.854c.253-.008,6.292-.262,13.749-5.932a1.428,1.428,0,1,0-1.728-2.273Z" transform="translate(-93.515 -131.434)"/>
      <path id="Trazado_151170" data-name="Trazado 151170" d="M190.932,182.04c-.826.976-1.685,1.911-2.552,2.776a1.428,1.428,0,0,0,2.017,2.021c.924-.922,1.837-1.916,2.715-2.953a1.428,1.428,0,0,0-2.18-1.844Z" transform="translate(-124.058 -119.926)"/>
    </g>
  </g>
</svg>
