<svg xmlns="http://www.w3.org/2000/svg" width="400" height="295" viewBox="0 0 400 295">
  <g id="Grupo_89155" data-name="Grupo 89155" transform="translate(-599.668 -3115)">
    <path id="Trazado_151537" data-name="Trazado 151537" d="M20,0H380a20,20,0,0,1,20,20V275a20,20,0,0,1-20,20H20A20,20,0,0,1,0,275V20A20,20,0,0,1,20,0Z" transform="translate(599.668 3115)" fill="#8ad24a"/>
    <path id="Trazado_151545" data-name="Trazado 151545" d="M57.9,19h-2.93V4.781H57.9ZM63.029,8.434l.088,1.221a3.689,3.689,0,0,1,3.037-1.416,3.066,3.066,0,0,1,2.5.986,4.6,4.6,0,0,1,.84,2.949V19H66.672V12.227a1.838,1.838,0,0,0-.391-1.307,1.746,1.746,0,0,0-1.3-.406A1.941,1.941,0,0,0,63.2,11.532V19H60.373V8.434Zm11.982-2.6v2.6h1.807V10.5H75.012v5.273a1.259,1.259,0,0,0,.225.84,1.128,1.128,0,0,0,.859.254,4.5,4.5,0,0,0,.83-.068v2.139a5.81,5.81,0,0,1-1.709.254q-2.969,0-3.027-3V10.5H70.646V8.434h1.543v-2.6ZM83.254,19.2A5.187,5.187,0,0,1,79.47,17.77a5.068,5.068,0,0,1-1.46-3.8V13.7a6.383,6.383,0,0,1,.615-2.847,4.515,4.515,0,0,1,1.743-1.934,4.893,4.893,0,0,1,2.573-.679,4.385,4.385,0,0,1,3.413,1.367A5.555,5.555,0,0,1,87.6,13.482v1.152H80.871a2.622,2.622,0,0,0,.825,1.66,2.5,2.5,0,0,0,1.743.625,3.046,3.046,0,0,0,2.549-1.182l1.387,1.553a4.237,4.237,0,0,1-1.719,1.4A5.639,5.639,0,0,1,83.254,19.2Zm-.322-8.682a1.764,1.764,0,0,0-1.362.569,2.946,2.946,0,0,0-.669,1.628h3.926v-.226a2.1,2.1,0,0,0-.508-1.457A1.819,1.819,0,0,0,82.932,10.514Zm12.207.566A7.667,7.667,0,0,0,94.123,11a2.067,2.067,0,0,0-2.1,1.084V19H89.2V8.434h2.666l.078,1.26A2.615,2.615,0,0,1,94.3,8.238a2.957,2.957,0,0,1,.879.127Zm7.295,0A7.667,7.667,0,0,0,101.418,11a2.067,2.067,0,0,0-2.1,1.084V19H96.5V8.434h2.666l.078,1.26a2.615,2.615,0,0,1,2.354-1.455,2.957,2.957,0,0,1,.879.127ZM103,13.619a6.266,6.266,0,0,1,.605-2.8,4.432,4.432,0,0,1,1.743-1.9,5.086,5.086,0,0,1,2.642-.674,4.812,4.812,0,0,1,3.491,1.309A5.252,5.252,0,0,1,112.99,13.1l.02.723a5.523,5.523,0,0,1-1.357,3.9,5.261,5.261,0,0,1-7.29,0A5.62,5.62,0,0,1,103,13.746Zm2.822.2a3.95,3.95,0,0,0,.566,2.3,2.035,2.035,0,0,0,3.223.01,4.322,4.322,0,0,0,.576-2.518,3.91,3.91,0,0,0-.576-2.289,1.873,1.873,0,0,0-1.621-.812,1.842,1.842,0,0,0-1.6.807A4.395,4.395,0,0,0,105.822,13.819Zm8.516-.181A6.193,6.193,0,0,1,115.5,9.723a3.75,3.75,0,0,1,3.12-1.484A3.289,3.289,0,0,1,121.32,9.43l.117-1H124V18.648a4.516,4.516,0,0,1-.63,2.412,4.045,4.045,0,0,1-1.772,1.563,6.231,6.231,0,0,1-2.676.537,5.794,5.794,0,0,1-2.266-.464,4.021,4.021,0,0,1-1.67-1.2l1.25-1.719a3.306,3.306,0,0,0,2.559,1.182,2.42,2.42,0,0,0,1.748-.6,2.253,2.253,0,0,0,.625-1.7v-.566a3.264,3.264,0,0,1-2.568,1.1,3.74,3.74,0,0,1-3.081-1.489,6.191,6.191,0,0,1-1.177-3.95Zm2.822.2a3.877,3.877,0,0,0,.576,2.261,1.831,1.831,0,0,0,1.582.819,1.958,1.958,0,0,0,1.846-.971V11.485a1.954,1.954,0,0,0-1.826-.971,1.843,1.843,0,0,0-1.6.834A4.37,4.37,0,0,0,117.16,13.839ZM132.287,19a3.134,3.134,0,0,1-.283-.947,3.415,3.415,0,0,1-2.666,1.143,3.752,3.752,0,0,1-2.573-.9,2.89,2.89,0,0,1-1.021-2.266,2.986,2.986,0,0,1,1.245-2.578,6.144,6.144,0,0,1,3.6-.908h1.3v-.605a1.741,1.741,0,0,0-.376-1.172,1.479,1.479,0,0,0-1.187-.439,1.682,1.682,0,0,0-1.118.342,1.161,1.161,0,0,0-.405.938h-2.822a2.835,2.835,0,0,1,.566-1.7,3.744,3.744,0,0,1,1.6-1.226,5.837,5.837,0,0,1,2.324-.444,4.611,4.611,0,0,1,3.1.981,3.433,3.433,0,0,1,1.147,2.759v4.58a5.052,5.052,0,0,0,.42,2.275V19Zm-2.334-1.963a2.431,2.431,0,0,0,1.152-.278,1.828,1.828,0,0,0,.781-.747V14.2h-1.055q-2.119,0-2.256,1.465l-.01.166a1.13,1.13,0,0,0,.371.869A1.441,1.441,0,0,0,129.953,17.037Zm10.313-11.2v2.6h1.807V10.5h-1.807v5.273a1.259,1.259,0,0,0,.225.84,1.128,1.128,0,0,0,.859.254,4.5,4.5,0,0,0,.83-.068v2.139a5.81,5.81,0,0,1-1.709.254q-2.969,0-3.027-3V10.5H135.9V8.434h1.543v-2.6Zm2.646,7.783a6.267,6.267,0,0,1,.605-2.8,4.432,4.432,0,0,1,1.743-1.9,5.086,5.086,0,0,1,2.642-.674,4.812,4.812,0,0,1,3.491,1.309A5.252,5.252,0,0,1,152.9,13.1l.02.723a5.523,5.523,0,0,1-1.357,3.9,5.261,5.261,0,0,1-7.29,0,5.62,5.62,0,0,1-1.362-3.984Zm2.822.2a3.95,3.95,0,0,0,.566,2.3,2.035,2.035,0,0,0,3.223.01,4.322,4.322,0,0,0,.576-2.518,3.91,3.91,0,0,0-.576-2.289,1.873,1.873,0,0,0-1.621-.812,1.842,1.842,0,0,0-1.6.807A4.395,4.395,0,0,0,145.734,13.819ZM160.6,11.08A7.667,7.667,0,0,0,159.582,11a2.067,2.067,0,0,0-2.1,1.084V19H154.66V8.434h2.666l.078,1.26a2.615,2.615,0,0,1,2.354-1.455,2.957,2.957,0,0,1,.879.127ZM164.934,19H162.1V8.434h2.832Zm-3-13.3a1.39,1.39,0,0,1,.425-1.045,1.831,1.831,0,0,1,2.31,0A1.382,1.382,0,0,1,165.1,5.7a1.386,1.386,0,0,1-.435,1.055,1.81,1.81,0,0,1-2.295,0A1.386,1.386,0,0,1,161.936,5.7Zm4.883,7.92a6.267,6.267,0,0,1,.605-2.8,4.432,4.432,0,0,1,1.743-1.9,5.086,5.086,0,0,1,2.642-.674A4.812,4.812,0,0,1,175.3,9.547a5.252,5.252,0,0,1,1.509,3.555l.02.723a5.523,5.523,0,0,1-1.357,3.9,5.261,5.261,0,0,1-7.29,0,5.62,5.62,0,0,1-1.362-3.984Zm2.822.2a3.95,3.95,0,0,0,.566,2.3,2.035,2.035,0,0,0,3.223.01,4.322,4.322,0,0,0,.576-2.518,3.91,3.91,0,0,0-.576-2.289,1.873,1.873,0,0,0-1.621-.812,1.842,1.842,0,0,0-1.6.807A4.395,4.395,0,0,0,169.641,13.819Z" transform="translate(684.668 3322)" fill="#12263f"/>
    <g id="pregunta" transform="translate(739.668 3178.652)">
      <g id="Grupo_88875" data-name="Grupo 88875" transform="translate(2.404 4.887)">
        <path id="Trazado_150889" data-name="Trazado 150889" d="M10.255,105.689c9.256,1.647,21.414-.591,29.409-4.628a45.948,45.948,0,0,0,32.291.1V88.251A2.358,2.358,0,0,1,74.3,85.9H92.413A45.74,45.74,0,1,0,10.255,55.913V60.6a46.085,46.085,0,0,0,7.118,22.311,51.33,51.33,0,0,1-7.118,22.663Zm39.31-47.073a5.169,5.169,0,0,1,5.159-5.16,9.942,9.942,0,1,0-9.841-11.335,5.162,5.162,0,0,1-10.226-1.428A20.266,20.266,0,1,1,59.89,63.111v4.263a5.163,5.163,0,0,1-10.325,0Zm0,28.673a5.163,5.163,0,1,1,5.159,5.16A5.162,5.162,0,0,1,49.565,87.288Z" transform="translate(-10.255 -12.562)" fill="#fde947" fill-rule="evenodd"/>
      </g>
      <g id="Grupo_88876" data-name="Grupo 88876" transform="translate(26.757 15.578)">
        <path id="Trazado_150890" data-name="Trazado 150890" d="M129.118,102.3a5.163,5.163,0,0,0,10.325,0V98.033A20.264,20.264,0,1,0,114.21,75.616a5.162,5.162,0,0,0,10.226,1.428,9.94,9.94,0,1,1,9.841,11.335,5.169,5.169,0,0,0-5.159,5.16Z" transform="translate(-114.161 -58.174)" fill="#8ad24a" fill-rule="evenodd"/>
      </g>
      <g id="Grupo_88877" data-name="Grupo 88877" transform="translate(41.713 74.448)">
        <path id="Trazado_150891" data-name="Trazado 150891" d="M177.976,314.52a5.163,5.163,0,1,0,5.159-5.166A5.161,5.161,0,0,0,177.976,314.52Z" transform="translate(-177.976 -309.354)" fill="#8ad24a" fill-rule="evenodd"/>
      </g>
      <g id="Grupo_88878" data-name="Grupo 88878" transform="translate(64.104 78.226)">
        <path id="Trazado_150892" data-name="Trazado 150892" d="M275.853,357.128h30.113l12.311,9.124v-9.124h6.434a2.359,2.359,0,0,0,2.351-2.351V327.824a2.359,2.359,0,0,0-2.351-2.351H275.853a2.358,2.358,0,0,0-2.344,2.351v26.953A2.358,2.358,0,0,0,275.853,357.128Z" transform="translate(-273.509 -325.473)" fill="#3ca8f4" fill-rule="evenodd"/>
      </g>
      <g id="Grupo_88879" data-name="Grupo 88879" transform="translate(0 2.538)">
        <path id="Trazado_150893" data-name="Trazado 150893" d="M175.478,299.353a7.507,7.507,0,1,0,7.51,7.5,7.512,7.512,0,0,0-7.51-7.5Zm0,10.326a2.819,2.819,0,1,1,2.822-2.822,2.822,2.822,0,0,1-2.822,2.822Z" transform="translate(-128.606 -229.787)"/>
        <path id="Trazado_150894" data-name="Trazado 150894" d="M134.128,92.1a22.607,22.607,0,1,0-29.9-24.468A7.506,7.506,0,0,0,119.1,69.707a7.591,7.591,0,0,1,7.53-6.526l.154,0a7.7,7.7,0,0,1,7.422,7.183,7.622,7.622,0,0,1-7.586,8.011,7.512,7.512,0,0,0-7.5,7.5v8.759a7.507,7.507,0,0,0,15.013,0Zm-2.943-3.993a2.344,2.344,0,0,0-1.744,2.266v4.263a2.819,2.819,0,0,1-5.638,0V85.88a2.819,2.819,0,0,1,2.816-2.816,12.162,12.162,0,0,0,8.9-3.833A12.274,12.274,0,0,0,126.878,58.5l-.248,0a12.28,12.28,0,0,0-12.173,10.569,2.819,2.819,0,0,1-5.583-.781A17.922,17.922,0,1,1,131.185,88.11Z" transform="translate(-79.746 -37.477)"/>
        <path id="Trazado_150895" data-name="Trazado 150895" d="M115.306,75.883H89A48.085,48.085,0,0,0,22.441,9.954a2.344,2.344,0,0,0,2.5,3.964A43.4,43.4,0,0,1,83.377,75.882H66.448a4.7,4.7,0,0,0-4.688,4.694V91.822a43.816,43.816,0,0,1-5.729,1.471,43.29,43.29,0,0,1-23.383-2.1,2.342,2.342,0,0,0-1.894.1A51.107,51.107,0,0,1,6.052,96.1a53.66,53.66,0,0,0,5.8-20.642,2.344,2.344,0,0,0-.358-1.481,43.453,43.453,0,0,1-.479-45.9,2.344,2.344,0,0,0-4-2.438,48.145,48.145,0,0,0,.1,50.166A48.583,48.583,0,0,1,.318,96.823a2.344,2.344,0,0,0,1.611,3.485,40.36,40.36,0,0,0,7.093.587,56.21,56.21,0,0,0,22.919-4.963A47.977,47.977,0,0,0,56.888,97.9a48.481,48.481,0,0,0,4.872-1.169v10.8a4.7,4.7,0,0,0,4.688,4.694H95.787l11.689,8.663A2.344,2.344,0,0,0,111.215,119v-6.78h4.091A4.7,4.7,0,0,0,120,107.53V80.577a4.7,4.7,0,0,0-4.694-4.695Zm0,31.654h-6.434a2.344,2.344,0,0,0-2.344,2.344v4.47L97.956,108a2.345,2.345,0,0,0-1.4-.461l-30.113-.007V80.57h48.858l.007.007Z" transform="translate(0 -2.538)"/>
        <path id="Trazado_150896" data-name="Trazado 150896" d="M438.079,382.99a2.347,2.347,0,1,0,2.344,2.35v-.013A2.338,2.338,0,0,0,438.079,382.99Z" transform="translate(-333.61 -293.822)"/>
        <path id="Trazado_150897" data-name="Trazado 150897" d="M380.084,382.99a2.347,2.347,0,1,0,2.344,2.35v-.013A2.338,2.338,0,0,0,380.084,382.99Z" transform="translate(-289.207 -293.822)"/>
        <path id="Trazado_150898" data-name="Trazado 150898" d="M322.119,382.99a2.347,2.347,0,1,0,2.344,2.35v-.013A2.338,2.338,0,0,0,322.119,382.99Z" transform="translate(-244.828 -293.822)"/>
        <path id="Trazado_150899" data-name="Trazado 150899" d="M58.3,65.653a2.333,2.333,0,0,0,1.046-.248l.013-.007a2.343,2.343,0,1,0-1.06.255Z" transform="translate(-42.839 -47.27)"/>
      </g>
    </g>
  </g>
</svg>
