<svg xmlns="http://www.w3.org/2000/svg" width="82.623" height="120" viewBox="0 0 82.623 120">
  <g id="bombilla" transform="translate(-32.427)">
    <path id="Trazado_150742" data-name="Trazado 150742" d="M114.528,42.758A39.344,39.344,0,1,0,59.447,78.806V95.872H90.922V78.806A39.337,39.337,0,0,0,114.528,42.758Z" transform="translate(-1.446 -1.446)" fill="#ffd666"/>
    <path id="Trazado_150743" data-name="Trazado 150743" d="M89.476,96.393H58a1.966,1.966,0,0,1-1.967-1.967v-15.8a41.312,41.312,0,1,1,35.41,0v15.8A1.967,1.967,0,0,1,89.476,96.393ZM59.968,92.459H87.509v-15.1a1.967,1.967,0,0,1,1.179-1.8,37.377,37.377,0,1,0-29.9,0,1.965,1.965,0,0,1,1.179,1.8Z"/>
    <path id="Trazado_150744" data-name="Trazado 150744" d="M107.754,57.336c0-7.605-13.77-33.443-13.77-33.443S80.213,49.731,80.213,57.336a13.771,13.771,0,0,0,27.541,0Z" transform="translate(-20.245 -10.123)" fill="#7ae582"/>
    <path id="Trazado_150745" data-name="Trazado 150745" d="M92.538,71.688A15.756,15.756,0,0,1,76.8,55.95c0-7.871,12.568-31.679,14-34.368a2.051,2.051,0,0,1,3.473,0c1.434,2.689,14,26.5,14,34.368A15.756,15.756,0,0,1,92.538,71.688Zm0-44.926c-4.4,8.6-11.8,24.11-11.8,29.188a11.8,11.8,0,1,0,23.607,0C104.341,50.873,96.941,35.359,92.538,26.762Z" transform="translate(-18.799 -8.737)"/>
    <path id="Trazado_150746" data-name="Trazado 150746" d="M102.661,122.307a1.966,1.966,0,0,1-1.967-1.967V77.061a1.967,1.967,0,0,1,3.934,0V120.34A1.966,1.966,0,0,1,102.661,122.307Z" transform="translate(-28.922 -31.815)"/>
    <path id="Trazado_150747" data-name="Trazado 150747" d="M102.662,135.681a2.173,2.173,0,0,1-.22-.012A1.969,1.969,0,0,1,100.7,133.5c.78-7.008,3.128-12.04,6.979-14.952a12.647,12.647,0,0,1,9.07-2.509,1.968,1.968,0,0,1,1.618,2.263,1.948,1.948,0,0,1-2.249,1.619A8.666,8.666,0,0,0,110,121.73c-2.922,2.245-4.732,6.351-5.381,12.2A1.967,1.967,0,0,1,102.662,135.681Z" transform="translate(-28.921 -49.123)"/>
    <path id="Trazado_150748" data-name="Trazado 150748" d="M92.536,135.681a1.966,1.966,0,0,1-1.953-1.75c-.655-5.892-2.483-10.013-5.441-12.249a8.751,8.751,0,0,0-6.051-1.765,1.967,1.967,0,0,1-.645-3.881,12.63,12.63,0,0,1,9.07,2.509c3.852,2.912,6.2,7.944,6.979,14.952a1.969,1.969,0,0,1-1.739,2.173C92.682,135.677,92.607,135.681,92.536,135.681Z" transform="translate(-18.8 -49.123)"/>
    <path id="Trazado_150749" data-name="Trazado 150749" d="M105.9,171.708H70.495a3.935,3.935,0,0,1-3.935-3.935h0a3.935,3.935,0,0,1,3.935-3.935H105.9a3.935,3.935,0,0,1,3.935,3.935h0A3.935,3.935,0,0,1,105.9,171.708Z" transform="translate(-14.461 -69.413)" fill="#e8e8e8"/>
    <path id="Trazado_150750" data-name="Trazado 150750" d="M104.459,172.23H69.049a5.9,5.9,0,1,1,0-11.8h35.41a5.9,5.9,0,1,1,0,11.8Zm-35.41-7.869a1.967,1.967,0,1,0,0,3.934h35.41a1.967,1.967,0,1,0,0-3.934Z" transform="translate(-13.015 -67.968)"/>
    <path id="Trazado_150751" data-name="Trazado 150751" d="M105.9,185.362H70.495a3.935,3.935,0,0,1-3.935-3.935h0a3.935,3.935,0,0,1,3.935-3.935H105.9a3.935,3.935,0,0,1,3.935,3.935h0A3.935,3.935,0,0,1,105.9,185.362Z" transform="translate(-14.461 -75.198)" fill="#e8e8e8"/>
    <path id="Trazado_150752" data-name="Trazado 150752" d="M104.459,185.883H69.049a5.9,5.9,0,0,1,0-11.8h35.41a5.9,5.9,0,0,1,0,11.8Zm-35.41-7.869a1.967,1.967,0,0,0,0,3.934h35.41a1.967,1.967,0,0,0,0-3.934Z" transform="translate(-13.015 -73.752)"/>
    <path id="Trazado_150753" data-name="Trazado 150753" d="M105.9,199.015H70.495a3.935,3.935,0,0,1-3.935-3.935h0a3.935,3.935,0,0,1,3.935-3.935H105.9a3.935,3.935,0,0,1,3.935,3.935h0A3.935,3.935,0,0,1,105.9,199.015Z" transform="translate(-14.461 -80.982)" fill="#e8e8e8"/>
    <path id="Trazado_150754" data-name="Trazado 150754" d="M104.459,199.536H69.049a5.9,5.9,0,0,1,0-11.8h35.41a5.9,5.9,0,0,1,0,11.8Zm-35.41-7.869a1.967,1.967,0,0,0,0,3.934h35.41a1.967,1.967,0,0,0,0-3.934Z" transform="translate(-13.015 -79.536)"/>
  </g>
</svg>
