<svg xmlns="http://www.w3.org/2000/svg" width="400" height="295" viewBox="0 0 400 295">
  <g id="Grupo_89152" data-name="Grupo 89152" transform="translate(-179.668 -3753)">
    <path id="Trazado_151535" data-name="Trazado 151535" d="M20,0H380a20,20,0,0,1,20,20V275a20,20,0,0,1-20,20H20A20,20,0,0,1,0,275V20A20,20,0,0,1,20,0Z" transform="translate(179.668 3753)" fill="#8ad24a"/>
    <path id="Trazado_151548" data-name="Trazado 151548" d="M81.955,15.27A1.5,1.5,0,0,0,81.369,14a7.685,7.685,0,0,0-2.109-.937,14.953,14.953,0,0,1-2.412-.972,3.941,3.941,0,0,1-2.422-3.525A3.434,3.434,0,0,1,75.075,6.5,4.236,4.236,0,0,1,76.94,5.094a7.02,7.02,0,0,1,2.729-.508,6.39,6.39,0,0,1,2.715.552A4.323,4.323,0,0,1,84.235,6.7a4.076,4.076,0,0,1,.659,2.285h-2.93a1.917,1.917,0,0,0-.615-1.519,2.529,2.529,0,0,0-1.729-.542,2.7,2.7,0,0,0-1.67.454,1.432,1.432,0,0,0-.6,1.2,1.372,1.372,0,0,0,.7,1.162,7.889,7.889,0,0,0,2.056.879,8.882,8.882,0,0,1,3.643,1.865,3.715,3.715,0,0,1,1.143,2.773,3.422,3.422,0,0,1-1.4,2.9,6.113,6.113,0,0,1-3.76,1.05,7.26,7.26,0,0,1-2.988-.6,4.729,4.729,0,0,1-2.056-1.646,4.214,4.214,0,0,1-.708-2.422h2.939q0,2.354,2.813,2.354a2.736,2.736,0,0,0,1.631-.425A1.382,1.382,0,0,0,81.955,15.27ZM89.67,19H86.838V8.434H89.67Zm-3-13.3A1.39,1.39,0,0,1,87.1,4.654a1.831,1.831,0,0,1,2.31,0,1.382,1.382,0,0,1,.43,1.045A1.386,1.386,0,0,1,89.4,6.754a1.81,1.81,0,0,1-2.295,0A1.386,1.386,0,0,1,86.672,5.7Zm7.969,2.734.088,1.182a3.713,3.713,0,0,1,3.037-1.377,2.818,2.818,0,0,1,2.8,1.611,3.628,3.628,0,0,1,3.174-1.611,3.152,3.152,0,0,1,2.559,1,4.6,4.6,0,0,1,.84,3.013V19h-2.832V12.246a2.02,2.02,0,0,0-.352-1.316,1.556,1.556,0,0,0-1.24-.416,1.762,1.762,0,0,0-1.758,1.214l.01,7.273H98.146V12.256a2,2,0,0,0-.361-1.331,1.571,1.571,0,0,0-1.23-.411,1.828,1.828,0,0,0-1.738,1V19H91.994V8.434Zm24.18,5.381a6.337,6.337,0,0,1-1.108,3.911,3.554,3.554,0,0,1-2.993,1.47,3.292,3.292,0,0,1-2.588-1.113v4.98h-2.822V8.434h2.617l.1,1.035a3.317,3.317,0,0,1,2.676-1.23,3.578,3.578,0,0,1,3.037,1.445,6.509,6.509,0,0,1,1.084,3.984ZM116,13.6a4.182,4.182,0,0,0-.522-2.282,1.7,1.7,0,0,0-1.519-.8,1.847,1.847,0,0,0-1.826,1.019v4.339a1.879,1.879,0,0,0,1.846,1.048Q116,16.92,116,13.6Zm4.131.02a6.266,6.266,0,0,1,.605-2.8,4.432,4.432,0,0,1,1.743-1.9,5.086,5.086,0,0,1,2.642-.674,4.812,4.812,0,0,1,3.491,1.309,5.252,5.252,0,0,1,1.509,3.555l.02.723a5.523,5.523,0,0,1-1.357,3.9,5.261,5.261,0,0,1-7.29,0,5.62,5.62,0,0,1-1.362-3.984Zm2.822.2a3.95,3.95,0,0,0,.566,2.3,2.035,2.035,0,0,0,3.223.01,4.322,4.322,0,0,0,.576-2.518,3.91,3.91,0,0,0-.576-2.289,1.873,1.873,0,0,0-1.621-.812,1.842,1.842,0,0,0-1.6.807A4.395,4.395,0,0,0,122.951,13.819ZM137.6,16.08a.909.909,0,0,0-.513-.815,5.824,5.824,0,0,0-1.646-.532q-3.77-.791-3.77-3.2a2.9,2.9,0,0,1,1.167-2.349,4.708,4.708,0,0,1,3.052-.942,5.067,5.067,0,0,1,3.218.947,2.985,2.985,0,0,1,1.206,2.461h-2.822a1.366,1.366,0,0,0-.391-1,1.653,1.653,0,0,0-1.221-.4,1.689,1.689,0,0,0-1.1.322,1.017,1.017,0,0,0-.391.82.87.87,0,0,0,.444.757,4.571,4.571,0,0,0,1.5.5,12.244,12.244,0,0,1,1.777.474,2.92,2.92,0,0,1,2.236,2.842A2.756,2.756,0,0,1,139.1,18.3a5.35,5.35,0,0,1-3.2.894,5.588,5.588,0,0,1-2.358-.474,3.957,3.957,0,0,1-1.616-1.3,3.018,3.018,0,0,1-.586-1.782h2.676a1.473,1.473,0,0,0,.557,1.152,2.208,2.208,0,0,0,1.387.4,2.044,2.044,0,0,0,1.226-.308A.957.957,0,0,0,137.6,16.08ZM145.139,19h-2.832V8.434h2.832Zm-3-13.3a1.39,1.39,0,0,1,.425-1.045,1.831,1.831,0,0,1,2.31,0A1.382,1.382,0,0,1,145.3,5.7a1.386,1.386,0,0,1-.435,1.055,1.81,1.81,0,0,1-2.295,0A1.386,1.386,0,0,1,142.141,5.7Zm4.883,7.92a6.267,6.267,0,0,1,.605-2.8,4.432,4.432,0,0,1,1.743-1.9,5.086,5.086,0,0,1,2.642-.674A4.812,4.812,0,0,1,155.5,9.547a5.252,5.252,0,0,1,1.509,3.555l.02.723a5.523,5.523,0,0,1-1.357,3.9,5.261,5.261,0,0,1-7.29,0,5.62,5.62,0,0,1-1.362-3.984Zm2.822.2a3.95,3.95,0,0,0,.566,2.3,2.035,2.035,0,0,0,3.223.01,4.322,4.322,0,0,0,.576-2.518,3.91,3.91,0,0,0-.576-2.289,1.873,1.873,0,0,0-1.621-.812,1.842,1.842,0,0,0-1.6.807A4.395,4.395,0,0,0,149.846,13.819Z" transform="translate(264.668 3960)" fill="#12263f"/>
    <g id="conferencia" transform="translate(322.313 3818.004)">
      <path id="Trazado_150940" data-name="Trazado 150940" d="M373.035,437.235V439.7h-28.86v-2.463c0-7.641,6.493-13.9,14.43-13.9a14.668,14.668,0,0,1,10.192,4.082A13.6,13.6,0,0,1,373.035,437.235Zm0,0" transform="translate(-261.257 -321.684)" fill="#3ca8f4"/>
      <path id="Trazado_150941" data-name="Trazado 150941" d="M386.169,346.274a8.368,8.368,0,1,0-8.362,8.052A8.211,8.211,0,0,0,386.169,346.274Zm0,0" transform="translate(-280.458 -257.006)" fill="#3ca8f4"/>
      <path id="Trazado_150942" data-name="Trazado 150942" d="M80.684,234.461h64.46v10.806H60.855V234.461Zm0,0" transform="translate(-45.972 -178.162)" fill="#cbba34"/>
      <path id="Trazado_150943" data-name="Trazado 150943" d="M359.079,156.323a3.362,3.362,0,1,1-3.362-3.362A3.362,3.362,0,0,1,359.079,156.323Zm0,0" transform="translate(-267.472 -116.233)" fill="#00acea"/>
      <path id="Trazado_150944" data-name="Trazado 150944" d="M302.258,326.274a8.368,8.368,0,1,0-8.362,8.052A8.211,8.211,0,0,0,302.258,326.274Zm0,0" transform="translate(-216.698 -241.809)" fill="#fedb41"/>
      <path id="Trazado_150945" data-name="Trazado 150945" d="M242.739,164.8h6.433a8.914,8.914,0,0,1,8.914,8.914v7.814h-22.5V169.256Zm0,0" transform="translate(-178.743 -125.229)" fill="#3ca8f4"/>
      <path id="Trazado_150946" data-name="Trazado 150946" d="M291.425,26.951a5.946,5.946,0,1,1-6.8,9.756V34.659a12.973,12.973,0,0,0-1.552-6.176A6.123,6.123,0,0,1,291.425,26.951Zm0,0" transform="translate(-214.828 -19.702)" fill="#091946"/>
      <path id="Trazado_150947" data-name="Trazado 150947" d="M205.125,437.235V439.7h-28.86v-2.463c0-7.641,6.493-13.9,14.43-13.9a14.674,14.674,0,0,1,10.192,4.082A13.6,13.6,0,0,1,205.125,437.235Zm0,0" transform="translate(-133.668 -321.684)" fill="#3ca8f4"/>
      <path id="Trazado_150948" data-name="Trazado 150948" d="M187.179,69.221a13.449,13.449,0,0,1-6.323-11.368V51.413c.8.2,14.619,3.58,20.565-6.69a11.173,11.173,0,0,0,5.533,6.661v6.47a13.47,13.47,0,0,1-5.8,11.027A12.663,12.663,0,0,1,187.179,69.221Zm0,0" transform="translate(-137.155 -33.986)" fill="#f7caa5"/>
      <path id="Trazado_150949" data-name="Trazado 150949" d="M205.4,14.831a12.973,12.973,0,0,1,1.551,6.176v2.44a11.173,11.173,0,0,1-5.533-6.661c-5.946,10.271-19.768,6.894-20.565,6.69V21.007A13.051,13.051,0,0,1,205.4,14.831Zm0,0" transform="translate(-137.155 -6.05)" fill="#091946"/>
      <path id="Trazado_150950" data-name="Trazado 150950" d="M221.16,149.883V150l-7.153,4.455L207.188,150v-4.337a12.663,12.663,0,0,0,13.973-.341Zm0,0" transform="translate(-157.164 -110.427)" fill="#edb288"/>
      <path id="Trazado_150951" data-name="Trazado 150951" d="M218.258,346.274a8.368,8.368,0,1,0-8.362,8.052A8.211,8.211,0,0,0,218.258,346.274Zm0,0" transform="translate(-152.869 -257.006)" fill="#3ca8f4"/>
      <path id="Trazado_150952" data-name="Trazado 150952" d="M158.737,164.8l6.82,4.455v12.273H143.426v-7.814a8.915,8.915,0,0,1,8.914-8.914Zm0,0" transform="translate(-108.714 -125.229)" fill="#3ca8f4"/>
      <path id="Trazado_150953" data-name="Trazado 150953" d="M134.258,326.274a8.368,8.368,0,1,0-8.362,8.052A8.211,8.211,0,0,0,134.258,326.274Zm0,0" transform="translate(-89.041 -241.809)" fill="#fedb41"/>
      <path id="Trazado_150954" data-name="Trazado 150954" d="M37.215,437.235V439.7H8.355v-2.463c0-7.641,6.493-13.9,14.43-13.9a14.668,14.668,0,0,1,10.192,4.082A13.6,13.6,0,0,1,37.215,437.235Zm0,0" transform="translate(-6.079 -321.684)" fill="#3ca8f4"/>
      <path id="Trazado_150955" data-name="Trazado 150955" d="M50.348,346.274a8.368,8.368,0,1,0-8.362,8.052A8.211,8.211,0,0,0,50.348,346.274Zm0,0" transform="translate(-25.28 -257.006)" fill="#3ca8f4"/>
      <g id="Grupo_88883" data-name="Grupo 88883" transform="translate(0.355 -0.004)">
        <path id="Trazado_150956" data-name="Trazado 150956" d="M203.818,350.168a9.977,9.977,0,1,0-10.283-9.973A10.142,10.142,0,0,0,203.818,350.168Zm0-16.1a6.138,6.138,0,1,1-6.441,6.13A6.3,6.3,0,0,1,203.818,334.065Zm0,0" transform="translate(-147.146 -250.923)"/>
        <path id="Trazado_150957" data-name="Trazado 150957" d="M170.254,435.6h28.86a1.955,1.955,0,0,0,1.9-1.981v-2.463a15.437,15.437,0,0,0-4.816-11.2,16.481,16.481,0,0,0-11.508-4.62,16.094,16.094,0,0,0-16.335,15.816v2.463A1.955,1.955,0,0,0,170.254,435.6Zm1.943-4.444a12.255,12.255,0,0,1,12.5-11.974,12.654,12.654,0,0,1,8.842,3.546,11.622,11.622,0,0,1,3.634,8.428v.6H172.2Zm0,0" transform="translate(-128.012 -315.6)"/>
        <path id="Trazado_150958" data-name="Trazado 150958" d="M361.445,340.195a10.288,10.288,0,1,0,10.283-9.972A10.143,10.143,0,0,0,361.445,340.195Zm16.723,0a6.448,6.448,0,1,1-6.441-6.13A6.3,6.3,0,0,1,378.169,340.195Zm0,0" transform="translate(-274.734 -250.923)"/>
        <path id="Trazado_150959" data-name="Trazado 150959" d="M336.354,431.156v2.463a1.937,1.937,0,0,0,1.878,1.981h28.86a1.973,1.973,0,0,0,1.921-1.981v-2.463a15.451,15.451,0,0,0-4.826-11.2,16.471,16.471,0,0,0-11.5-4.62A16.09,16.09,0,0,0,336.354,431.156Zm28.816,0v.6H340.2v-.6a12.245,12.245,0,0,1,12.487-11.974,12.667,12.667,0,0,1,8.848,3.546A11.626,11.626,0,0,1,365.17,431.156Zm0,0" transform="translate(-255.668 -315.6)"/>
        <path id="Trazado_150960" data-name="Trazado 150960" d="M35.908,350.168a9.977,9.977,0,1,0-10.283-9.973A10.142,10.142,0,0,0,35.908,350.168Zm0-16.1a6.138,6.138,0,1,1-6.441,6.13A6.3,6.3,0,0,1,35.908,334.065Zm0,0" transform="translate(-19.557 -250.923)"/>
        <path id="Trazado_150961" data-name="Trazado 150961" d="M2.277,435.6h28.86a1.937,1.937,0,0,0,1.878-1.981v-2.463a15.433,15.433,0,0,0-4.8-11.2,16.5,16.5,0,0,0-11.513-4.62A16.1,16.1,0,0,0,.355,431.156v2.463A1.973,1.973,0,0,0,2.277,435.6ZM4.2,431.156a12.264,12.264,0,0,1,12.509-11.974,12.645,12.645,0,0,1,8.837,3.546,11.616,11.616,0,0,1,3.628,8.428v.6H4.2Zm0,0" transform="translate(-0.355 -315.6)"/>
        <path id="Trazado_150962" data-name="Trazado 150962" d="M298.1,320.195a10.288,10.288,0,1,0-10.283,9.973A10.142,10.142,0,0,0,298.1,320.195Zm-16.723,0a6.448,6.448,0,1,1,6.441,6.131A6.3,6.3,0,0,1,281.377,320.195Zm0,0" transform="translate(-210.974 -235.726)"/>
        <path id="Trazado_150963" data-name="Trazado 150963" d="M119.818,310.223a9.977,9.977,0,1,0,10.283,9.972A10.143,10.143,0,0,0,119.818,310.223Zm0,16.1a6.138,6.138,0,1,1,6.441-6.131A6.3,6.3,0,0,1,119.818,326.326Zm0,0" transform="translate(-83.317 -235.726)"/>
        <path id="Trazado_150964" data-name="Trazado 150964" d="M54.4,69.087h84.288a1.875,1.875,0,0,0,1.8-1.981V56.3a1.772,1.772,0,0,0-1.8-1.861h-9.245V45.1a5.283,5.283,0,1,0-3.842-.189v9.529h-4.8V48.485a10.881,10.881,0,0,0-10.852-10.857h-4.517V35.853a18.629,18.629,0,0,0,1.415-1.293,15.235,15.235,0,0,0,4.349-10.694V19.853a7.866,7.866,0,1,0-3.1-14.071,15.057,15.057,0,0,0-26.92,9.176v8.909a15.161,15.161,0,0,0,6.484,12.387v1.375H83.139A10.881,10.881,0,0,0,72.287,48.485v5.953H54.4A1.978,1.978,0,0,0,52.355,56.3V67.105A2.079,2.079,0,0,0,54.4,69.087Zm73.362-30.437a1.441,1.441,0,1,1-1.441,1.441A1.441,1.441,0,0,1,127.758,38.649Zm-10.806,9.836v5.953H98.222V45.093l5.837-3.622h5.883A7.034,7.034,0,0,1,116.952,48.485ZM91.5,38.271a13.967,13.967,0,0,0,4.782.82,14.356,14.356,0,0,0,5.3-1.01V38.5L96.4,41.747l-4.9-3.215ZM115.011,8.825A4.021,4.021,0,0,1,113.4,16.09a4.1,4.1,0,0,1-2.207-.221v-.911a15,15,0,0,0-1.158-5.83A4.19,4.19,0,0,1,115.011,8.825ZM88.336,7.089a11.174,11.174,0,0,1,17.718,2.6h.008a11.093,11.093,0,0,1,1.2,3.612,9.035,9.035,0,0,1-1.617-3.035,1.921,1.921,0,0,0-1.595-1.436,2.009,2.009,0,0,0-1.991.94c-4.26,7.358-13.439,6.67-17.041,6.083v-.9A11.1,11.1,0,0,1,88.336,7.089ZM85.014,23.867V19.746a31.247,31.247,0,0,0,4.155.295c.8,0,1.677-.035,2.551-.12a17.519,17.519,0,0,0,11.652-5.432,12.244,12.244,0,0,0,3.975,4.023v5.355a11.551,11.551,0,0,1-4.94,9.446,10.773,10.773,0,0,1-6.15,1.936A10.977,10.977,0,0,1,90.488,33.6,11.607,11.607,0,0,1,85.014,23.867ZM76.129,48.485a7.034,7.034,0,0,1,7.01-7.015h5.825l5.415,3.595v9.373H76.129ZM56.2,58.28H73.737c.156,0,.319.065.488.065s.332-.065.488-.065H118.37c.156,0,.318.065.487.065s.332-.065.488-.065h7.705c.151,0,.307.06.469.06s.319-.06.469-.06h8.656v6.964H56.2Zm0,0" transform="translate(-39.868 0.004)"/>
        <path id="Trazado_150965" data-name="Trazado 150965" d="M203.031,92.823a1.921,1.921,0,1,0-3.842,0,.307.307,0,0,1-.307.307.293.293,0,0,1-.215-.09.3.3,0,0,1-.091-.216,1.921,1.921,0,1,0-3.842,0,4.148,4.148,0,0,0,8.3,0Zm0,0" transform="translate(-148.057 -69.072)"/>
        <path id="Trazado_150966" data-name="Trazado 150966" d="M245.258,96.972a4.154,4.154,0,0,0,4.147-4.149,1.921,1.921,0,1,0-3.842,0,.306.306,0,0,1-.3.307.3.3,0,0,1-.217-.09.3.3,0,0,1-.09-.216,1.921,1.921,0,1,0-3.842,0,4.151,4.151,0,0,0,4.15,4.15Zm0,0" transform="translate(-183.296 -69.072)"/>
      </g>
    </g>
  </g>
</svg>
