<svg xmlns="http://www.w3.org/2000/svg" width="400" height="295" viewBox="0 0 400 295">
  <g id="Grupo_89154" data-name="Grupo 89154" transform="translate(-179.668 -3115)">
    <path id="Trazado_151533" data-name="Trazado 151533" d="M20,0H380a20,20,0,0,1,20,20V275a20,20,0,0,1-20,20H20A20,20,0,0,1,0,275V20A20,20,0,0,1,20,0Z" transform="translate(179.668 3115)" fill="#8ad24a"/>
    <path id="Trazado_151543" data-name="Trazado 151543" d="M105.168,13.189H99.543V19h-2.93V4.781h9.258V7.154H99.543v3.672h5.625Zm1.572.43a6.266,6.266,0,0,1,.605-2.8,4.432,4.432,0,0,1,1.743-1.9,5.086,5.086,0,0,1,2.642-.674,4.812,4.812,0,0,1,3.491,1.309A5.252,5.252,0,0,1,116.73,13.1l.02.723a5.523,5.523,0,0,1-1.357,3.9,5.261,5.261,0,0,1-7.29,0,5.62,5.62,0,0,1-1.362-3.984Zm2.822.2a3.95,3.95,0,0,0,.566,2.3,2.035,2.035,0,0,0,3.223.01,4.322,4.322,0,0,0,.576-2.518,3.91,3.91,0,0,0-.576-2.289,1.873,1.873,0,0,0-1.621-.812,1.842,1.842,0,0,0-1.6.807A4.395,4.395,0,0,0,109.563,13.819Zm14.863-2.739A7.667,7.667,0,0,0,123.41,11a2.067,2.067,0,0,0-2.1,1.084V19h-2.822V8.434h2.666l.078,1.26a2.615,2.615,0,0,1,2.354-1.455,2.957,2.957,0,0,1,.879.127Zm.566,2.539a6.266,6.266,0,0,1,.605-2.8,4.432,4.432,0,0,1,1.743-1.9,5.086,5.086,0,0,1,2.642-.674,4.812,4.812,0,0,1,3.491,1.309,5.252,5.252,0,0,1,1.509,3.555l.02.723a5.523,5.523,0,0,1-1.357,3.9,5.261,5.261,0,0,1-7.29,0,5.62,5.62,0,0,1-1.362-3.984Zm2.822.2a3.95,3.95,0,0,0,.566,2.3,2.035,2.035,0,0,0,3.223.01,4.322,4.322,0,0,0,.576-2.518,3.91,3.91,0,0,0-.576-2.289,1.873,1.873,0,0,0-1.621-.812,1.842,1.842,0,0,0-1.6.807A4.395,4.395,0,0,0,127.814,13.819Z" transform="translate(264.668 3322)" fill="#12263f"/>
    <g id="grupo" transform="translate(319.668 3179.893)">
      <path id="Trazado_150849" data-name="Trazado 150849" d="M38.315,101.684H15.149a1.823,1.823,0,0,1-1.823-1.823V94.747A13.406,13.406,0,0,1,26.732,81.341h0A13.406,13.406,0,0,1,40.138,94.747v5.114A1.823,1.823,0,0,1,38.315,101.684Z" transform="translate(-10.203 -62.121)" fill="#fde947"/>
      <path id="Trazado_150850" data-name="Trazado 150850" d="M138.262,267.389a11.492,11.492,0,0,1-4.959-5.842,11.943,11.943,0,0,1-7.193-11.081,11.81,11.81,0,0,1,11.6-11.98h14.769a11.986,11.986,0,0,1,0,23.96H141.031a11.5,11.5,0,0,0,.118,3.061l.531,3.131a.5.5,0,0,1-.768.5Z" transform="translate(-96.553 -182.436)" fill="#3ca8f4"/>
      <path id="Trazado_150852" data-name="Trazado 150852" d="M213.353,214.212a14.046,14.046,0,0,0,.321-4.644H199.335a14.7,14.7,0,1,1-.223-29.389h18.536a14.827,14.827,0,0,1,14.9,14.518,14.64,14.64,0,0,1-9.121,13.774c-1.205,3.649-4.633,6.251-7.3,7.793l-2.751,1.589a.5.5,0,0,1-.737-.546Z" transform="translate(-141.195 -137.795)" fill="#fde947"/>
      <path id="Trazado_150854" data-name="Trazado 150854" d="M408.8,101.684H385.632a1.823,1.823,0,0,1-1.823-1.823V94.747a13.406,13.406,0,0,1,13.406-13.406h0a13.406,13.406,0,0,1,13.406,13.406v5.114A1.823,1.823,0,0,1,408.8,101.684Z" transform="translate(-293.854 -62.121)" fill="#3ca8f4"/>
      <path id="Trazado_150855" data-name="Trazado 150855" d="M38.315,407.212H15.149a1.823,1.823,0,0,1-1.823-1.823v-5.114a13.406,13.406,0,0,1,13.406-13.406h0a13.406,13.406,0,0,1,13.406,13.406v5.114A1.823,1.823,0,0,1,38.315,407.212Z" transform="translate(-10.203 -296.041)" fill="#3ca8f4"/>
      <path id="Trazado_150856" data-name="Trazado 150856" d="M408.8,407.212H385.632a1.823,1.823,0,0,1-1.823-1.823v-5.114a13.406,13.406,0,0,1,13.406-13.406h0a13.406,13.406,0,0,1,13.406,13.406v5.114A1.824,1.824,0,0,1,408.8,407.212Z" transform="translate(-293.854 -296.041)" fill="#fde947"/>
      <g id="Grupo_88874" data-name="Grupo 88874" transform="translate(7.726 9.477)">
        <path id="Trazado_150861" data-name="Trazado 150861" d="M41.651,57.146a8.688,8.688,0,1,1,8.688-8.688A8.7,8.7,0,0,1,41.651,57.146Z" transform="translate(-32.964 -39.771)" fill="#fad393"/>
        <path id="Trazado_150862" data-name="Trazado 150862" d="M412.133,57.146a8.688,8.688,0,1,1,8.688-8.688A8.7,8.7,0,0,1,412.133,57.146Z" transform="translate(-316.614 -39.771)" fill="#fad393"/>
        <path id="Trazado_150863" data-name="Trazado 150863" d="M41.651,362.675a8.688,8.688,0,1,1,8.688-8.688A8.7,8.7,0,0,1,41.651,362.675Z" transform="translate(-32.964 -273.692)" fill="#fad393"/>
        <path id="Trazado_150864" data-name="Trazado 150864" d="M412.133,362.675a8.688,8.688,0,1,1,8.688-8.688A8.7,8.7,0,0,1,412.133,362.675Z" transform="translate(-316.614 -273.692)" fill="#fad393"/>
      </g>
      <path id="Trazado_150869" data-name="Trazado 150869" d="M125.485,27.484a1.945,1.945,0,0,0,.978-.264,56.078,56.078,0,0,1,5.818-2.937,1.952,1.952,0,0,0-1.553-3.582,60.012,60.012,0,0,0-6.225,3.143,1.952,1.952,0,0,0,.982,3.641Z" transform="translate(-94.578 -15.569)"/>
      <path id="Trazado_150870" data-name="Trazado 150870" d="M291.9,7.729a55.952,55.952,0,0,1,6.348,1.487,1.952,1.952,0,0,0,1.112-3.743,59.877,59.877,0,0,0-6.793-1.592,1.952,1.952,0,0,0-.667,3.847Z" transform="translate(-222.245 -2.794)"/>
      <path id="Trazado_150871" data-name="Trazado 150871" d="M234.83,4.209c.039,0,.078,0,.117,0,1.108-.065,2.234-.1,3.346-.1h.006c1.057,0,2.124.03,3.173.088A1.952,1.952,0,0,0,241.69.3C240.569.235,239.428.2,238.3.2h-.007c-1.188,0-2.391.035-3.575.105a1.952,1.952,0,0,0,.113,3.9Z" transform="translate(-178.299)"/>
      <path id="Trazado_150872" data-name="Trazado 150872" d="M490.1,190.306a1.952,1.952,0,0,0-1.447,2.352,56.139,56.139,0,0,1,1.138,6.421,1.952,1.952,0,1,0,3.877-.456,60.016,60.016,0,0,0-1.218-6.869A1.952,1.952,0,0,0,490.1,190.306Z" transform="translate(-374.086 -145.507)"/>
      <path id="Trazado_150873" data-name="Trazado 150873" d="M480.59,312.732a1.952,1.952,0,1,0,3.669,1.335,59.815,59.815,0,0,0,2-6.689,1.952,1.952,0,0,0-3.8-.9A55.948,55.948,0,0,1,480.59,312.732Z" transform="translate(-367.861 -233.343)"/>
      <path id="Trazado_150874" data-name="Trazado 150874" d="M346.58,23.975a56.129,56.129,0,0,1,5.832,2.922,1.952,1.952,0,0,0,1.95-3.383,59.98,59.98,0,0,0-6.24-3.126,1.952,1.952,0,1,0-1.542,3.587Z" transform="translate(-264.446 -15.332)"/>
      <path id="Trazado_150875" data-name="Trazado 150875" d="M8.177,305.288a1.952,1.952,0,0,0-1.449,2.35,59.777,59.777,0,0,0,2,6.683,1.952,1.952,0,0,0,3.668-1.339,55.9,55.9,0,0,1-1.873-6.245A1.951,1.951,0,0,0,8.177,305.288Z" transform="translate(-5.11 -233.54)"/>
      <path id="Trazado_150876" data-name="Trazado 150876" d="M178.218,9.455a1.949,1.949,0,0,0,.563-.083,55.943,55.943,0,0,1,6.343-1.508,1.952,1.952,0,1,0-.679-3.845,59.839,59.839,0,0,0-6.788,1.614,1.953,1.953,0,0,0,.561,3.823Z" transform="translate(-134.954 -2.899)"/>
      <path id="Trazado_150877" data-name="Trazado 150877" d="M496.029,247.347a1.952,1.952,0,0,0-1.952,1.952v.124a56.982,56.982,0,0,1-.374,6.513,1.952,1.952,0,1,0,3.879.449,60.857,60.857,0,0,0,.4-6.961V249.3A1.953,1.953,0,0,0,496.029,247.347Z" transform="translate(-377.982 -189.22)"/>
      <path id="Trazado_150878" data-name="Trazado 150878" d="M270.515,491.83a56.459,56.459,0,0,1-6.479.753,1.952,1.952,0,0,0,.111,3.9c.038,0,.076,0,.115,0a60.282,60.282,0,0,0,6.928-.805,1.952,1.952,0,1,0-.675-3.845Z" transform="translate(-200.745 -376.379)"/>
      <path id="Trazado_150879" data-name="Trazado 150879" d="M213.566,492.62a56.5,56.5,0,0,1-6.479-.746,1.952,1.952,0,1,0-.672,3.846,60.377,60.377,0,0,0,6.929.8c.037,0,.075,0,.113,0a1.952,1.952,0,0,0,.109-3.9Z" transform="translate(-156.799 -376.414)"/>
      <path id="Trazado_150880" data-name="Trazado 150880" d="M158.552,477.8a55.822,55.822,0,0,1-6.131-2.228,1.952,1.952,0,0,0-1.546,3.585,59.83,59.83,0,0,0,6.561,2.384,1.952,1.952,0,1,0,1.116-3.741Z" transform="translate(-114.611 -363.829)"/>
      <path id="Trazado_150881" data-name="Trazado 150881" d="M3.349,201.562a1.972,1.972,0,0,0,.225.013,1.952,1.952,0,0,0,1.937-1.73,56.111,56.111,0,0,1,1.118-6.424,1.952,1.952,0,0,0-3.8-.893,60.086,60.086,0,0,0-1.2,6.873A1.952,1.952,0,0,0,3.349,201.562Z" transform="translate(-1.239 -146.095)"/>
      <path id="Trazado_150882" data-name="Trazado 150882" d="M326.337,475.471a55.95,55.95,0,0,1-6.126,2.233,1.952,1.952,0,1,0,1.12,3.741,59.819,59.819,0,0,0,6.556-2.39,1.952,1.952,0,0,0-1.55-3.584Z" transform="translate(-244.095 -363.754)"/>
      <path id="Trazado_150883" data-name="Trazado 150883" d="M2.572,258.764A1.952,1.952,0,0,0,4.285,256.6a56.923,56.923,0,0,1-.38-6.513,1.952,1.952,0,0,0-1.952-1.95h0A1.952,1.952,0,0,0,0,250.09a60.854,60.854,0,0,0,.407,6.961,1.952,1.952,0,0,0,1.936,1.726A1.99,1.99,0,0,0,2.572,258.764Z" transform="translate(0 -189.824)"/>
      <path id="Trazado_150884" data-name="Trazado 150884" d="M8.851,66.044H31.407a4.154,4.154,0,0,0,4.149-4.149v-4.7a14.1,14.1,0,0,0-.754-4.564,1.761,1.761,0,1,0-3.334,1.138,10.584,10.584,0,0,1,.565,3.427v4.7a.627.627,0,0,1-.627.627H8.851a.627.627,0,0,1-.627-.627v-4.7a10.622,10.622,0,0,1,3.531-7.9,10.31,10.31,0,1,0-1.634-3.221A14.146,14.146,0,0,0,4.7,57.191v4.7A4.154,4.154,0,0,0,8.851,66.044ZM20.013,36.28A6.809,6.809,0,1,1,13.2,43.089,6.817,6.817,0,0,1,20.013,36.28Z" transform="translate(-3.6 -24.925)"/>
      <path id="Trazado_150885" data-name="Trazado 150885" d="M375.652,57.192v4.7a4.154,4.154,0,0,0,4.149,4.149h22.556a4.154,4.154,0,0,0,4.149-4.149v-4.7a14.1,14.1,0,0,0-.754-4.564,1.761,1.761,0,1,0-3.334,1.138,10.59,10.59,0,0,1,.565,3.427v4.7a.627.627,0,0,1-.627.627H379.8a.627.627,0,0,1-.627-.627v-4.7a10.622,10.622,0,0,1,3.531-7.9,10.308,10.308,0,1,0-1.634-3.221A14.144,14.144,0,0,0,375.652,57.192Zm15.311-20.911a6.809,6.809,0,1,1-6.809,6.809A6.817,6.817,0,0,1,390.963,36.281Z" transform="translate(-287.609 -24.926)"/>
      <path id="Trazado_150886" data-name="Trazado 150886" d="M403.516,356.4a1.761,1.761,0,0,0-1.1,2.236,10.589,10.589,0,0,1,.565,3.427v4.7a.627.627,0,0,1-.627.627H379.8a.627.627,0,0,1-.627-.627v-4.7a10.622,10.622,0,0,1,3.531-7.9,10.308,10.308,0,1,0-1.634-3.221,14.146,14.146,0,0,0-5.42,11.121v4.7a4.154,4.154,0,0,0,4.149,4.149h22.556a4.154,4.154,0,0,0,4.149-4.149v-4.7a14.1,14.1,0,0,0-.754-4.564A1.762,1.762,0,0,0,403.516,356.4Zm-12.553-15.248a6.809,6.809,0,1,1-6.809,6.809A6.817,6.817,0,0,1,390.963,341.149Z" transform="translate(-287.609 -258.34)"/>
      <path id="Trazado_150887" data-name="Trazado 150887" d="M32.566,356.4a1.761,1.761,0,0,0-1.1,2.236,10.583,10.583,0,0,1,.565,3.427v4.7a.627.627,0,0,1-.627.627H8.851a.627.627,0,0,1-.627-.627v-4.7a10.622,10.622,0,0,1,3.531-7.9,10.308,10.308,0,1,0-1.634-3.221A14.147,14.147,0,0,0,4.7,362.06v4.7a4.154,4.154,0,0,0,4.149,4.149H31.407a4.154,4.154,0,0,0,4.149-4.149v-4.7A14.1,14.1,0,0,0,34.8,357.5,1.762,1.762,0,0,0,32.566,356.4ZM20.013,341.149a6.809,6.809,0,1,1-6.809,6.809A6.817,6.817,0,0,1,20.013,341.149Z" transform="translate(-3.6 -258.34)"/>
      <path id="Trazado_150888" data-name="Trazado 150888" d="M167.843,173.165H149.1a16.362,16.362,0,0,0-16.116,13.666h-.639A13.456,13.456,0,0,0,119.1,200.455a13.605,13.605,0,0,0,7.53,12.29c2.261,5.477,9.315,8.1,9.628,8.217a1.761,1.761,0,0,0,2.207-2.383,12.746,12.746,0,0,1-1.192-4.5h9.845a13.264,13.264,0,0,0,12.166-8.237h2.8a15.308,15.308,0,0,1-1.564,6.081,1.761,1.761,0,0,0,2.181,2.408c.391-.138,9.282-3.344,12.011-10a16.339,16.339,0,0,0-6.87-31.162Zm4.816,28.215a1.732,1.732,0,0,0-1.007,1.07c-.988,3.086-4,5.383-6.479,6.816a15.82,15.82,0,0,0,.348-5.371,1.767,1.767,0,0,0-1.751-1.576H149.1a12.724,12.724,0,0,1-4.773-.925,1.752,1.752,0,0,0-1.9.378l-.025.025a1.748,1.748,0,0,0,.585,2.856,16.23,16.23,0,0,0,6.111,1.188h6.235a9.648,9.648,0,0,1-8.222,4.715H135.556a1.757,1.757,0,0,0-1.749,1.556,13.29,13.29,0,0,0,.121,3.7,9.977,9.977,0,0,1-4.206-4.848,1.819,1.819,0,0,0-1.012-1.137,10.068,10.068,0,0,1-6.09-9.369,9.93,9.93,0,0,1,9.726-10.1h.44a16.2,16.2,0,0,0,1.155,5.233,1.748,1.748,0,0,0,2.858.592l.026-.026a1.748,1.748,0,0,0,.381-1.891,12.737,12.737,0,0,1-.917-5.044,12.934,12.934,0,0,1,12.994-12.53h18.345a13.03,13.03,0,0,1,13.031,12.857A12.768,12.768,0,0,1,172.658,201.38Z" transform="translate(-91.184 -132.424)"/>
    </g>
  </g>
</svg>
