<svg xmlns="http://www.w3.org/2000/svg" width="84.999" height="85" viewBox="0 0 84.999 85">
  <g id="ley" transform="translate(-0.003)">
    <g id="Grupo_89051" data-name="Grupo 89051" transform="translate(1.663 1.66)">
      <path id="Trazado_151264" data-name="Trazado 151264" d="M77.405,81.719l-.126-66.375A6.644,6.644,0,0,0,70.765,10H14.983A4.98,4.98,0,0,0,10,14.98v8.3h9.961V86.7a4.98,4.98,0,0,0,4.98,4.98H82.386a4.98,4.98,0,0,0,4.98-4.98v-4.98Z" transform="translate(-10.003 -10)" fill="#fff"/>
      <path id="Trazado_151265" data-name="Trazado 151265" d="M279.706,43.164a46.592,46.592,0,0,0-18.815-.737,30.825,30.825,0,0,0-13.021,5.415c-16.369,12.1-11.813,42-11.882,42.253a95.712,95.712,0,0,0,16.05-10.628l-3.211-6.42H259.08a85.09,85.09,0,0,0,6.35-7.4,140.922,140.922,0,0,0,14.277-22.485Z" transform="translate(-198.028 -36.523)" fill="#8ad24a"/>
      <path id="Trazado_151269" data-name="Trazado 151269" d="M8.3,0A8.3,8.3,0,1,1,0,8.3,8.3,8.3,0,0,1,8.3,0Z" transform="translate(17.1 9.961)" fill="#3ca8f4"/>
    </g>
    <g id="Grupo_89052" data-name="Grupo 89052" transform="translate(0.003 0)">
      <path id="Trazado_151266" data-name="Trazado 151266" d="M1.663,16.6h8.3V78.359A6.648,6.648,0,0,0,16.6,85H43.333a1.66,1.66,0,1,0,0-3.32H22.352a6.6,6.6,0,0,0,.893-3.32v-3.32H77.366v3.32a3.324,3.324,0,0,1-3.32,3.32H58.274a1.66,1.66,0,1,0,0,3.32H74.046a6.648,6.648,0,0,0,6.641-6.641v-4.98a1.66,1.66,0,0,0-1.66-1.66h-8.3V31.354A141.075,141.075,0,0,0,84.837,9.024a1.665,1.665,0,0,0-1.078-2.33l-.013,0A48.738,48.738,0,0,0,70.167,5.3,8.326,8.326,0,0,0,62.425,0H6.644A6.648,6.648,0,0,0,0,6.641v8.3a1.66,1.66,0,0,0,1.66,1.66ZM64.482,33.786c-.781.916-1.611,1.834-2.472,2.737H52.464a1.66,1.66,0,0,0-1.485,2.4l2.611,5.222a99.831,99.831,0,0,1-11.985,8.114,48.354,48.354,0,0,1,9.276-22.379h11.73a1.66,1.66,0,1,0,0-3.32H53.591a51.576,51.576,0,0,1,7.139-6.641h8.854a1.66,1.66,0,0,0,0-3.32H65.6a51.725,51.725,0,0,1,14.659-5.985A139.621,139.621,0,0,1,64.482,33.786ZM40.91,41.365c.5-8.089,2.461-17.962,8.431-24.276L48.028,28.025c-.006.049-.008.1-.01.146A52.438,52.438,0,0,0,40.91,41.365Zm11.01-17.9L53.067,13.9a28.118,28.118,0,0,1,8.5-3.958l-3.591,7.608a1.656,1.656,0,0,0-.131.413,54.9,54.9,0,0,0-5.924,5.5ZM71.93,8.591c1.043,0,2.042.036,2.983.1a55.231,55.231,0,0,0-11.659,5.46l2.4-5.086a40.636,40.636,0,0,1,6.275-.47ZM62.425,3.32A5,5,0,0,1,66.6,5.581a32.327,32.327,0,0,0-18.584,8.145C41.147,20.116,38.47,30.243,37.7,39.635a79.685,79.685,0,0,0,.261,15.648l-.32,4.482H18.265a1.66,1.66,0,1,0,0,3.32H45.823a1.66,1.66,0,1,0,0-3.32H40.965l.249-3.487A99.669,99.669,0,0,0,56.723,45.89a1.66,1.66,0,0,0,.436-2.03L55.15,39.844h7.565a1.66,1.66,0,0,0,1.19-.5c1.086-1.115,2.13-2.26,3.1-3.4.132-.156.264-.314.4-.471v36.25H21.585a1.66,1.66,0,0,0-1.66,1.66v4.98a3.32,3.32,0,1,1-6.641,0V6.641a6.6,6.6,0,0,0-.893-3.32Zm-59.1,3.32a3.32,3.32,0,1,1,6.641,0v6.641H3.323Z" transform="translate(-0.003 0)"/>
      <path id="Trazado_151267" data-name="Trazado 151267" d="M101.663,323.32H115.94a1.66,1.66,0,0,0,0-3.32H101.663a1.66,1.66,0,0,0,0,3.32Z" transform="translate(-83.401 -266.875)"/>
      <path id="Trazado_151268" data-name="Trazado 151268" d="M112.964,79.922A9.961,9.961,0,1,0,103,69.961,9.972,9.972,0,0,0,112.964,79.922Zm0-16.6a6.641,6.641,0,1,1-6.641,6.641A6.648,6.648,0,0,1,112.964,63.32Z" transform="translate(-85.903 -50.039)"/>
      <circle id="Elipse_4577" data-name="Elipse 4577" cx="1.66" cy="1.66" r="1.66" transform="translate(49.141 81.68)"/>
    </g>
  </g>
</svg>
