<svg xmlns="http://www.w3.org/2000/svg" width="199.947" height="174.378" viewBox="0 0 199.947 174.378">
  <g id="Grupo_89151" data-name="Grupo 89151" transform="translate(-495 -2036.623)">
    <g id="Grupo_88863" data-name="Grupo 88863" transform="translate(495 2036.623)">
      <g id="Grupo_88862" data-name="Grupo 88862">
        <path id="Trazado_150782" data-name="Trazado 150782" d="M437.344,281.828l-21.209-12.244a4.362,4.362,0,0,1-2.181-3.776V202.773a4.359,4.359,0,0,0-4.359-4.359H243.938a4.359,4.359,0,0,0-4.361,4.359V368.432a4.359,4.359,0,0,0,4.361,4.359H409.6a4.359,4.359,0,0,0,4.359-4.359V305.4a4.361,4.361,0,0,1,2.181-3.776l21.209-12.244A4.359,4.359,0,0,0,437.344,281.828Z" transform="translate(-239.577 -198.414)" fill="#3ca8f4"/>
        <path id="Trazado_150783" data-name="Trazado 150783" d="M434.438,286.445l-21.21,12.239a4.373,4.373,0,0,0-2.18,3.783V365.5a4.366,4.366,0,0,1-4.359,4.359H266.457L251.972,355.3a5.417,5.417,0,0,0,3.052.926H391.79a5.444,5.444,0,0,0,5.45-5.449V214.014a5.4,5.4,0,0,0-1-3.138l14.812,14.811v37.185a4.37,4.37,0,0,0,2.18,3.783l21.21,12.239A4.366,4.366,0,0,1,434.438,286.445Z" transform="translate(-236.665 -195.486)" fill="#4182af"/>
      </g>
      <path id="Trazado_150784" data-name="Trazado 150784" d="M397.7,214.454V351.221a5.444,5.444,0,0,1-5.45,5.449H255.48a5.463,5.463,0,0,1-5.449-5.449V214.454A5.451,5.451,0,0,1,255.48,209H392.246A5.463,5.463,0,0,1,397.7,214.454Z" transform="translate(-237.121 -195.926)" fill="#fff"/>
    </g>
  </g>
</svg>
