<svg xmlns="http://www.w3.org/2000/svg" width="400" height="295" viewBox="0 0 400 295">
  <g id="Grupo_89154" data-name="Grupo 89154" transform="translate(-1019.668 -3753)">
    <path id="Trazado_151541" data-name="Trazado 151541" d="M20,0H380a20,20,0,0,1,20,20V275a20,20,0,0,1-20,20H20A20,20,0,0,1,0,275V20A20,20,0,0,1,20,0Z" transform="translate(1019.668 3753)" fill="#8ad24a"/>
    <path id="Trazado_151550" data-name="Trazado 151550" d="M51.789,19V4.781h4.375a6.644,6.644,0,0,1,3.354.845,5.89,5.89,0,0,1,2.31,2.4,7.41,7.41,0,0,1,.83,3.54v.654a7.431,7.431,0,0,1-.815,3.525,5.84,5.84,0,0,1-2.3,2.393,6.694,6.694,0,0,1-3.35.859Zm2.93-11.846v9.492h1.416a3.181,3.181,0,0,0,2.627-1.123,5.075,5.075,0,0,0,.928-3.213v-.752a5.156,5.156,0,0,0-.9-3.286,3.171,3.171,0,0,0-2.627-1.118Zm15.82,3.926A7.667,7.667,0,0,0,69.523,11a2.067,2.067,0,0,0-2.1,1.084V19H64.6V8.434h2.666l.078,1.26A2.615,2.615,0,0,1,69.7,8.238a2.957,2.957,0,0,1,.879.127ZM77.727,19a3.134,3.134,0,0,1-.283-.947A3.415,3.415,0,0,1,74.777,19.2a3.752,3.752,0,0,1-2.573-.9,2.89,2.89,0,0,1-1.021-2.266,2.986,2.986,0,0,1,1.245-2.578,6.144,6.144,0,0,1,3.6-.908h1.3v-.605a1.741,1.741,0,0,0-.376-1.172,1.479,1.479,0,0,0-1.187-.439,1.682,1.682,0,0,0-1.118.342,1.161,1.161,0,0,0-.405.938H71.418a2.835,2.835,0,0,1,.566-1.7,3.744,3.744,0,0,1,1.6-1.226,5.837,5.837,0,0,1,2.324-.444,4.611,4.611,0,0,1,3.1.981,3.433,3.433,0,0,1,1.147,2.759v4.58a5.052,5.052,0,0,0,.42,2.275V19Zm-2.334-1.963a2.431,2.431,0,0,0,1.152-.278,1.828,1.828,0,0,0,.781-.747V14.2H76.271q-2.119,0-2.256,1.465l-.01.166a1.13,1.13,0,0,0,.371.869A1.441,1.441,0,0,0,75.393,17.037Zm9.58-8.6.088,1.182A3.713,3.713,0,0,1,88.1,8.238,2.818,2.818,0,0,1,90.9,9.85a3.628,3.628,0,0,1,3.174-1.611,3.152,3.152,0,0,1,2.559,1,4.6,4.6,0,0,1,.84,3.013V19H94.641V12.246a2.02,2.02,0,0,0-.352-1.316,1.556,1.556,0,0,0-1.24-.416,1.762,1.762,0,0,0-1.758,1.214L91.3,19H88.479V12.256a2,2,0,0,0-.361-1.331,1.571,1.571,0,0,0-1.23-.411,1.828,1.828,0,0,0-1.738,1V19H82.326V8.434ZM105.764,19a3.134,3.134,0,0,1-.283-.947,3.415,3.415,0,0,1-2.666,1.143,3.752,3.752,0,0,1-2.573-.9,2.89,2.89,0,0,1-1.021-2.266,2.986,2.986,0,0,1,1.245-2.578,6.144,6.144,0,0,1,3.6-.908h1.3v-.605a1.741,1.741,0,0,0-.376-1.172,1.479,1.479,0,0,0-1.187-.439,1.682,1.682,0,0,0-1.118.342,1.161,1.161,0,0,0-.405.938H99.455a2.835,2.835,0,0,1,.566-1.7,3.744,3.744,0,0,1,1.6-1.226,5.837,5.837,0,0,1,2.324-.444,4.611,4.611,0,0,1,3.1.981,3.433,3.433,0,0,1,1.147,2.759v4.58a5.052,5.052,0,0,0,.42,2.275V19Zm-2.334-1.963a2.431,2.431,0,0,0,1.152-.278,1.828,1.828,0,0,0,.781-.747V14.2h-1.055q-2.119,0-2.256,1.465l-.01.166a1.13,1.13,0,0,0,.371.869A1.441,1.441,0,0,0,103.43,17.037Zm10.313-11.2v2.6h1.807V10.5h-1.807v5.273a1.259,1.259,0,0,0,.225.84,1.128,1.128,0,0,0,.859.254,4.5,4.5,0,0,0,.83-.068v2.139a5.81,5.81,0,0,1-1.709.254q-2.969,0-3.027-3V10.5h-1.543V8.434h1.543v-2.6ZM120.1,19h-2.832V8.434H120.1Zm-3-13.3a1.39,1.39,0,0,1,.425-1.045,1.831,1.831,0,0,1,2.31,0,1.382,1.382,0,0,1,.43,1.045,1.386,1.386,0,0,1-.435,1.055,1.81,1.81,0,0,1-2.295,0A1.386,1.386,0,0,1,117.1,5.7Zm8.564,11.025h5.166V19h-8.77V17.281l4.971-6.572h-4.824V8.434h8.467V10.1ZM138.723,19a3.134,3.134,0,0,1-.283-.947,3.415,3.415,0,0,1-2.666,1.143,3.752,3.752,0,0,1-2.573-.9,2.889,2.889,0,0,1-1.021-2.266,2.986,2.986,0,0,1,1.245-2.578,6.144,6.144,0,0,1,3.6-.908h1.3v-.605a1.741,1.741,0,0,0-.376-1.172,1.479,1.479,0,0,0-1.187-.439,1.682,1.682,0,0,0-1.118.342,1.161,1.161,0,0,0-.405.938h-2.822a2.835,2.835,0,0,1,.566-1.7,3.744,3.744,0,0,1,1.6-1.226,5.837,5.837,0,0,1,2.324-.444,4.611,4.611,0,0,1,3.1.981,3.433,3.433,0,0,1,1.147,2.759v4.58a5.052,5.052,0,0,0,.42,2.275V19Zm-2.334-1.963a2.431,2.431,0,0,0,1.152-.278,1.828,1.828,0,0,0,.781-.747V14.2h-1.055q-2.119,0-2.256,1.465l-.01.166a1.13,1.13,0,0,0,.371.869A1.441,1.441,0,0,0,136.389,17.037Zm11.328-.117a1.851,1.851,0,0,0,1.27-.43,1.506,1.506,0,0,0,.508-1.143h2.646a3.62,3.62,0,0,1-.586,1.968,3.866,3.866,0,0,1-1.577,1.387,4.936,4.936,0,0,1-2.212.493,4.587,4.587,0,0,1-3.574-1.44,5.7,5.7,0,0,1-1.309-3.979V13.59a5.635,5.635,0,0,1,1.3-3.9,4.534,4.534,0,0,1,3.564-1.455,4.444,4.444,0,0,1,3.179,1.128,3.994,3.994,0,0,1,1.216,3h-2.646a1.939,1.939,0,0,0-.508-1.34,1.887,1.887,0,0,0-2.778.2,4.166,4.166,0,0,0-.5,2.333v.293a4.219,4.219,0,0,0,.5,2.347A1.721,1.721,0,0,0,147.717,16.92ZM156.73,19H153.9V8.434h2.832Zm-3-13.3a1.39,1.39,0,0,1,.425-1.045,1.831,1.831,0,0,1,2.31,0A1.382,1.382,0,0,1,156.9,5.7a1.386,1.386,0,0,1-.435,1.055,1.81,1.81,0,0,1-2.295,0A1.386,1.386,0,0,1,153.732,5.7Zm4.883,7.92a6.267,6.267,0,0,1,.605-2.8,4.432,4.432,0,0,1,1.743-1.9,5.086,5.086,0,0,1,2.642-.674A4.812,4.812,0,0,1,167.1,9.547a5.252,5.252,0,0,1,1.509,3.555l.02.723a5.523,5.523,0,0,1-1.357,3.9,5.261,5.261,0,0,1-7.29,0,5.62,5.62,0,0,1-1.362-3.984Zm2.822.2a3.95,3.95,0,0,0,.566,2.3,2.035,2.035,0,0,0,3.223.01,4.322,4.322,0,0,0,.576-2.518,3.91,3.91,0,0,0-.576-2.289,1.873,1.873,0,0,0-1.621-.812,1.842,1.842,0,0,0-1.6.807A4.395,4.395,0,0,0,161.438,13.819ZM164.162,4h3.076l-2.705,3.027h-2.295Zm8.8,4.434.088,1.221a3.689,3.689,0,0,1,3.037-1.416,3.066,3.066,0,0,1,2.5.986,4.6,4.6,0,0,1,.84,2.949V19H176.6V12.227a1.838,1.838,0,0,0-.391-1.307,1.746,1.746,0,0,0-1.3-.406,1.941,1.941,0,0,0-1.787,1.018V19H170.3V8.434Z" transform="translate(1104.668 3960)" fill="#12263f"/>
    <g id="superstar" transform="translate(1157.668 3816.002)">
      <path id="Trazado_150967" data-name="Trazado 150967" d="M91,73a8,8,0,0,1-8-8V35.9C83,18.674,69.756,3.848,52.545,3.036A32,32,0,0,0,19,35V69a4,4,0,0,1-4,4A11.962,11.962,0,0,0,3,84.808c-.036,6.388,1.762,11.644,8,12.14V101a8,8,0,0,0,8,8h9.5c6.57,0,12.3-5.064,12.5-11.63A12,12,0,0,0,29,85H41V61H61V85H79A12,12,0,0,1,91,97v10a8,8,0,0,0,8-8V81A8,8,0,0,0,91,73Z" transform="translate(1 1.002)" fill="#cbba34"/>
      <path id="Trazado_150968" data-name="Trazado 150968" d="M58.245,32a8,8,0,0,1-7.762-6.06L46,10,41.893,24.426A10,10,0,0,1,32.191,32H16V44a22,22,0,0,0,44,0V32Z" transform="translate(13.999 8.001)" fill="#fce0b9"/>
      <path id="Trazado_150969" data-name="Trazado 150969" d="M40,55,30,51A12,12,0,0,1,18,63H14V73H56V49Z" transform="translate(11.999 46.999)" fill="#3ca8f4"/>
      <path id="Trazado_150970" data-name="Trazado 150970" d="M15,60a8,8,0,0,1-8-8V70H21V60Z" transform="translate(5 49.999)" fill="#3ca8f4"/>
      <path id="Trazado_150971" data-name="Trazado 150971" d="M66,51.21H48V36.79a21.87,21.87,0,0,1-20,0V51.21H16A11.988,11.988,0,0,1,27.982,62.991L38,67.209,73.352,53.741A11.928,11.928,0,0,0,66,51.21Z" transform="translate(13.999 34.79)" fill="#fce0b9"/>
      <path id="Trazado_150972" data-name="Trazado 150972" d="M55,51,65,41H53L43,51Z" transform="translate(40.997 38.999)" fill="#fff"/>
      <path id="Trazado_150973" data-name="Trazado 150973" d="M61,51,71,41H59L49,51Z" transform="translate(46.997 38.999)"/>
      <path id="Trazado_150974" data-name="Trazado 150974" d="M51,51,61,41H35v1.112l.136.03L35,42.112V51Z" transform="translate(32.998 38.999)"/>
      <path id="Trazado_150975" data-name="Trazado 150975" d="M55,51H67V41H65Z" transform="translate(52.997 38.999)" fill="#fff"/>
      <path id="Trazado_150976" data-name="Trazado 150976" d="M57.708,29.424,46.44,33.554,58.9,39.5l11.638-4.128Z" transform="translate(44.437 27.424)"/>
      <path id="Trazado_150977" data-name="Trazado 150977" d="M48.317,33.553l-15.022,5.5,3.44,9.39L61.146,39.5Z" transform="translate(31.293 31.553)"/>
      <path id="Trazado_150978" data-name="Trazado 150978" d="M66.782,36.75,63.34,27.36,52.074,31.488l12.83,5.95Z" transform="translate(50.071 25.36)" fill="#fff"/>
      <path id="Trazado_150979" data-name="Trazado 150979" d="M52.074,31.489,40.806,35.617l12.83,5.948L64.9,37.437Z" transform="translate(38.803 29.489)" fill="#fff"/>
      <path id="Trazado_150980" data-name="Trazado 150980" d="M35,46H87V76H35Z" transform="translate(32.998 43.999)" fill="#fde947"/>
      <path id="Trazado_150981" data-name="Trazado 150981" d="M46,63l10-6L46,51Z" transform="translate(43.997 48.999)" fill="#46afda"/>
      <path id="Trazado_150988" data-name="Trazado 150988" d="M23.75,32.25a3.5,3.5,0,1,1,3.5-3.5A3.5,3.5,0,0,1,23.75,32.25Zm0-4a.5.5,0,0,0-.5.5c0,.55,1,.55,1,0A.5.5,0,0,0,23.75,28.25Z" transform="translate(18.249 23.25)"/>
      <path id="Trazado_150989" data-name="Trazado 150989" d="M33.75,32.25a3.5,3.5,0,1,1,3.5-3.5A3.5,3.5,0,0,1,33.75,32.25Zm0-4a.5.5,0,0,0-.5.5c0,.55,1,.55,1,0A.5.5,0,0,0,33.75,28.25Z" transform="translate(28.248 23.25)"/>
      <path id="Trazado_150990" data-name="Trazado 150990" d="M30.75,38.5a7.509,7.509,0,0,1-7.5-7.5h3a4.5,4.5,0,1,0,9,0h3A7.509,7.509,0,0,1,30.75,38.5Z" transform="translate(21.249 29)"/>
      <path id="Trazado_150991" data-name="Trazado 150991" d="M120,78H101.157a9.975,9.975,0,0,0-6.534-5.616l22.915-8.4a2,2,0,0,0,1.188-2.568l-3.442-9.39a2,2,0,0,0-2.564-1.19L86,60.636V36.9C86,18.209,71.786,2.9,53.638,2.04A34,34,0,0,0,18,36V70a2,2,0,0,1-2,2,13.988,13.988,0,0,0-6,26.629V120a2,2,0,0,0,2,2H120a2,2,0,0,0,2-2V80a2,2,0,0,0-2-2ZM30,112a14.024,14.024,0,0,0,13.71-11.162l7.548,3.02a2.019,2.019,0,0,0,1.446.016L66,98.885V118H28v-6Zm2-70H46.191a11.963,11.963,0,0,0,11.626-9.026l2.17-7.628,2.556,9.082A9.975,9.975,0,0,0,72,41.983V52a20,20,0,1,1-40,0ZM98.483,66.71l-5.954,2.182-7.7-3.57,5.954-2.182ZM96.1,61.194l5.956-2.182,7.7,3.57L103.8,64.764ZM79.521,67.268l7.7,3.57-18,6.6L67.154,71.8ZM64,74.818l2,5.46V84H64ZM44,86V74.6a23.556,23.556,0,0,0,16,0V86a2,2,0,0,0,2,2h4v6.614L52.022,99.855l-8.094-3.238A13.955,13.955,0,0,0,39.777,88H42A2,2,0,0,0,44,86Zm26-4H89.169l-6,6H70Zm24.827,0h6.344l-6,6H88.825Zm12,0h6.344l-6,6h-6.344ZM118,82.827V88h-5.172ZM92,76a6,6,0,0,1,4.466,2H79.3l8.3-3.042A9.988,9.988,0,0,0,92,76Zm22-15.857-6.636-3.076,4.856-1.78ZM14,99.839a14.051,14.051,0,0,0,2,.16H28V96H16a10,10,0,1,1,0-20,6.007,6.007,0,0,0,6-6V36A30,30,0,0,1,53.45,6.036C69.458,6.79,82,20.349,82,36.9V62.1l-10.51,3.852A23.841,23.841,0,0,0,76,52V42h2V38H72.244a6.012,6.012,0,0,1-5.836-4.6L61.924,17.459A2,2,0,0,0,60,16h0a2,2,0,0,0-1.924,1.452L53.952,31.941A7.989,7.989,0,0,1,46.191,38H26v4h2V52A23.989,23.989,0,0,0,40,72.752V84H24v4h6a10,10,0,0,1,0,20H20a6.007,6.007,0,0,1-6-6Zm0,10.108A9.9,9.9,0,0,0,20,112h4v6H14ZM70,118V92h48v26Z"/>
      <path id="Trazado_150992" data-name="Trazado 150992" d="M58.03,56.286l-10-6A2,2,0,0,0,45,52V64a2,2,0,0,0,3.03,1.714l10-6a2,2,0,0,0,0-3.428ZM49,60.468V55.532L53.114,58Z" transform="translate(42.997 47.999)"/>
    </g>
  </g>
</svg>
