<svg xmlns="http://www.w3.org/2000/svg" width="150" height="150" viewBox="0 0 150 150">
  <g id="Grupo_96862" data-name="Grupo 96862" transform="translate(-1140.668 -3214)">
    <circle id="Elipse_4555" data-name="Elipse 4555" cx="75" cy="75" r="75" transform="translate(1140.668 3214)" fill="#fff"/>
    <g id="ecosistema" transform="translate(1159.209 3232.541)">
      <g id="Grupo_89068" data-name="Grupo 89068" transform="translate(1.654 1.654)">
        <path id="Trazado_151308" data-name="Trazado 151308" d="M123.171,62.739c0,30.268-21.753,54.584-52.021,54.584-1.405,0-2.8.168-4.176.064q-1.55-.117-3.074-.319c-1.646-.217-3.268-3.292-4.865-3.652-2.086-.471-4.127,1.724-6.116,1.023A54.974,54.974,0,0,1,20.653,84.071c-2.773-6.557-1.523-13.766-1.523-21.332,0-12.193,1.2-23.455,7.931-32.559A54.741,54.741,0,0,1,66.974,8.091c1.379-.1,2.771.064,4.176.064C101.419,8.155,123.171,32.471,123.171,62.739Z" transform="translate(-16.346 -7.934)" fill="#55b2f4"/>
        <g id="Grupo_89067" data-name="Grupo 89067" transform="translate(0 16.55)">
          <path id="Trazado_151310" data-name="Trazado 151310" d="M7.5,120.8a54.627,54.627,0,0,0,4.273,21.25,4.339,4.339,0,0,0,8.335-1.692v-5.933a15.937,15.937,0,0,1,7.949-13.791l19.189-11.115a10.739,10.739,0,0,0,.179-18.48l-10.7-6.475A14,14,0,0,0,18.217,88.24,54.551,54.551,0,0,0,7.5,120.8Z" transform="translate(-7.5 -82.543)" fill="#7ae582"/>
          <path id="Trazado_151311" data-name="Trazado 151311" d="M162.576,292.93l-26.344-6.342a4.176,4.176,0,0,0-5.154,4.06v16.329a5.569,5.569,0,0,0,1.631,3.938l6.467,6.467a4.176,4.176,0,0,1,1.223,2.953v11.111a54.462,54.462,0,0,0,10.979,2.631V323.282a4.176,4.176,0,0,1,1.223-2.953l11.542-11.542a5.568,5.568,0,0,0,1.631-3.938V296.99a4.176,4.176,0,0,0-3.2-4.06Z" transform="translate(-103.824 -241.496)" fill="#7ae582"/>
          <path id="Trazado_151312" data-name="Trazado 151312" d="M258.671,99.032H252.2a4.959,4.959,0,1,1,0-9.917h6.475a4.959,4.959,0,1,1,0,9.917Z" transform="translate(-194.365 -87.666)" fill="#7ae582"/>
          <path id="Trazado_151313" data-name="Trazado 151313" d="M338.835,190.029c0-6.555,1.632-12.84-.479-18.666h-32.69a10.134,10.134,0,0,0,0,20.267,9.1,9.1,0,0,1,9.1,9.1v15.679c0,8.937,11.495,12.685,16.686,5.41C337.855,212.858,338.835,201.884,338.835,190.029Z" transform="translate(-232.009 -151.774)" fill="#7ae582"/>
        </g>
        <path id="Trazado_151315" data-name="Trazado 151315" d="M282.016,255.1a19.131,19.131,0,0,1-19.3,19.3c-.675,0-1.341.208-2,.141a19.544,19.544,0,0,1-.426-38.833,20.231,20.231,0,0,1,2.424.094A19.131,19.131,0,0,1,282.016,255.1Z" transform="translate(-191.199 -185.36)" fill="#eef5f6"/>
        <path id="Trazado_151317" data-name="Trazado 151317" d="M284.982,295.558a8.748,8.748,0,0,0-8.078-2.645,1.121,1.121,0,0,0-.9.9c-.069.375-.336.532-.36.911A9.576,9.576,0,0,0,285.783,304.9c.389-.024.557-.291.942-.362a1.122,1.122,0,0,0,.9-.9A8.747,8.747,0,0,0,284.982,295.558Z" transform="translate(-216.489 -229.843)" fill="#3bcd43"/>
        <path id="Trazado_151319" data-name="Trazado 151319" d="M334.586,294.558a9.554,9.554,0,0,1,7.357-2.787c.389.024.557.291.941.362a1.122,1.122,0,0,1,.9.9,9.4,9.4,0,0,1-10.724,10.724,1.121,1.121,0,0,1-.9-.9c-.069-.374-.336-.532-.36-.911A9.556,9.556,0,0,1,334.586,294.558Z" transform="translate(-260.263 -229.064)" fill="#3bcd43"/>
        <path id="Trazado_151321" data-name="Trazado 151321" d="M100.969,105.725a19.131,19.131,0,0,1-19.3,19.3c-.675,0-1.341.208-2,.141a19.544,19.544,0,0,1-.426-38.833,20.224,20.224,0,0,1,2.424.094,19.131,19.131,0,0,1,19.3,19.3Z" transform="translate(-50.08 -68.924)" fill="#eef5f6"/>
        <path id="Trazado_151323" data-name="Trazado 151323" d="M103.935,146.178a8.748,8.748,0,0,0-8.078-2.645,1.122,1.122,0,0,0-.9.9c-.069.374-.336.532-.36.911a9.577,9.577,0,0,0,10.142,10.175c.389-.024.557-.291.941-.362a1.121,1.121,0,0,0,.9-.9A8.747,8.747,0,0,0,103.935,146.178Z" transform="translate(-75.371 -113.408)" fill="#3bcd43"/>
        <path id="Trazado_151325" data-name="Trazado 151325" d="M153.539,145.178a9.554,9.554,0,0,1,7.357-2.787c.389.024.557.291.941.362a1.122,1.122,0,0,1,.9.9,9.4,9.4,0,0,1-10.724,10.723,1.122,1.122,0,0,1-.9-.9c-.069-.374-.336-.532-.36-.911A9.556,9.556,0,0,1,153.539,145.178Z" transform="translate(-119.145 -112.628)" fill="#3bcd43"/>
      </g>
      <g id="Grupo_89069" data-name="Grupo 89069" transform="translate(0 0)">
        <path id="Trazado_151327" data-name="Trazado 151327" d="M246.35,81.616a6.613,6.613,0,0,0,0,13.226h6.475a6.613,6.613,0,1,0,0-13.226Zm9.78,6.613a3.308,3.308,0,0,1-3.3,3.3H246.35a3.3,3.3,0,0,1,0-6.609h6.475A3.308,3.308,0,0,1,256.129,88.229Z" transform="translate(-186.865 -63.616)"/>
        <path id="Trazado_151328" data-name="Trazado 151328" d="M279.358,299.947a11.248,11.248,0,0,0,1.15-.061v5.645a1.654,1.654,0,0,0,3.308,0v-5.645a11.23,11.23,0,0,0,12.2-13.217,2.759,2.759,0,0,0-2.23-2.229,11.216,11.216,0,0,0-11.624,5.181,11.216,11.216,0,0,0-11.624-5.181,2.759,2.759,0,0,0-2.229,2.229,11.232,11.232,0,0,0,11.049,13.278Zm6.779-10.066a7.936,7.936,0,0,1,6.684-2.247,7.924,7.924,0,0,1-8.931,8.931A7.934,7.934,0,0,1,286.136,289.882ZM271.5,287.635a7.924,7.924,0,0,1,8.931,8.931,7.924,7.924,0,0,1-8.931-8.931Z" transform="translate(-208.99 -221.563)"/>
        <path id="Trazado_151329" data-name="Trazado 151329" d="M101.114,157.805a1.654,1.654,0,0,0,1.654-1.654v-5.645a11.23,11.23,0,0,0,12.2-13.217,2.759,2.759,0,0,0-2.23-2.229,11.217,11.217,0,0,0-11.624,5.181A11.217,11.217,0,0,0,89.49,135.06a2.76,2.76,0,0,0-2.229,2.23,11.22,11.22,0,0,0,12.2,13.216v5.645A1.654,1.654,0,0,0,101.114,157.805Zm3.974-17.3a7.935,7.935,0,0,1,6.684-2.247,7.924,7.924,0,0,1-8.931,8.931A7.934,7.934,0,0,1,105.088,140.5Zm-5.7,6.684a7.924,7.924,0,0,1-8.931-8.931,7.924,7.924,0,0,1,8.931,8.931Z" transform="translate(-67.87 -105.128)"/>
        <path id="Trazado_151330" data-name="Trazado 151330" d="M106.875,31.018A56.982,56.982,0,0,0,90.708,11.571,1.654,1.654,0,1,0,88.7,14.2a53.655,53.655,0,0,1,15.223,18.311c.6,1.194,1.154,2.4,1.662,3.628H75.311A11.787,11.787,0,0,0,64.306,52.149,21.288,21.288,0,0,0,52.655,66.072L34.449,61.689a5.83,5.83,0,0,0-7.195,5.668v4.4a1.654,1.654,0,0,0,3.308,0v-4.4a2.522,2.522,0,0,1,3.113-2.452l18.4,4.43c-.066.679-.1,1.368-.1,2.064a21.135,21.135,0,0,0,6.5,15.257l-9.212,9.212a5.792,5.792,0,0,0-1.708,4.123v8.878a52.745,52.745,0,0,1-7.671-1.884V97.044a5.793,5.793,0,0,0-1.708-4.123l-6.467-6.467a3.889,3.889,0,0,1-1.146-2.768V78.966a1.654,1.654,0,0,0-3.308,0v4.721a7.174,7.174,0,0,0,2.115,5.107l6.467,6.467a2.507,2.507,0,0,1,.739,1.784v8.733A53.55,53.55,0,0,1,9.835,82.021h0a6.384,6.384,0,0,0,1.266-.128,5.869,5.869,0,0,0,4.811-5.875V70.084A14.325,14.325,0,0,1,23.04,57.725l.629-.364A21.2,21.2,0,0,0,54.233,41.427a1.654,1.654,0,1,0-3.276-.46,17.889,17.889,0,1,1-17.713-20.4A17.689,17.689,0,0,1,44.436,24.5a17.964,17.964,0,0,1,6.226,9.864,1.654,1.654,0,1,0,3.221-.753A21.206,21.206,0,0,0,29.329,17.622c-.025-.011-.05-.024-.076-.034a15.539,15.539,0,0,0-8.14-.823,53.176,53.176,0,0,1,61.762-6.439,1.654,1.654,0,1,0,1.647-2.869,56.47,56.47,0,1,0,28.4,49,55.872,55.872,0,0,0-6.043-25.44ZM13.614,24.99c.03-.034.06-.067.088-.1a12.42,12.42,0,0,1,9.345-5.007A21.181,21.181,0,0,0,20.522,55.4a17.648,17.648,0,0,0-7.914,14.687v5.933A2.575,2.575,0,0,1,10.45,78.65a2.566,2.566,0,0,1-3-1.583,1.663,1.663,0,0,0-.093-.184A53.319,53.319,0,0,1,13.614,24.99ZM66.832,47.927a8.489,8.489,0,0,1,8.48-8.48H106.59a1.675,1.675,0,0,0,.237-.019,53.312,53.312,0,0,1-6.966,47.731,1.679,1.679,0,0,0-.106.134,7.282,7.282,0,0,1-6.469,3.136,7.8,7.8,0,0,1-5.926-3.3A21.193,21.193,0,0,0,67.408,51a8.426,8.426,0,0,1-.576-3.073ZM55.285,71.4A17.888,17.888,0,1,1,73.172,89.287,17.908,17.908,0,0,1,55.285,71.4Zm1.174,38.211a54.136,54.136,0,0,1-5.6-.292V99.991a2.5,2.5,0,0,1,.739-1.784l9.438-9.438a21.15,21.15,0,0,0,23.7.385,11.14,11.14,0,0,0,8.347,4.577q.345.021.686.021.282,0,.56-.014h.011c-.1.1-.2.2-.3.305A52.8,52.8,0,0,1,56.459,109.61Z" transform="translate(0 0)"/>
      </g>
    </g>
  </g>
</svg>
