<svg id="Grupo_88861" data-name="Grupo 88861" xmlns="http://www.w3.org/2000/svg" width="199.942" height="174.379" viewBox="0 0 199.942 174.379">
  <g id="Grupo_88860" data-name="Grupo 88860">
    <path id="Trazado_150778" data-name="Trazado 150778" d="M268.038,325.562,246.829,337.8a4.368,4.368,0,0,0-2.178,3.78V404.62a4.367,4.367,0,0,1-4.361,4.361H74.632a4.367,4.367,0,0,1-4.361-4.361V238.961a4.36,4.36,0,0,1,4.361-4.359H240.29a4.36,4.36,0,0,1,4.361,4.359v63.027a4.365,4.365,0,0,0,2.178,3.78l21.209,12.241A4.366,4.366,0,0,1,268.038,325.562Z" transform="translate(-70.271 -234.602)" fill="#8ad24a"/>
    <path id="Trazado_150779" data-name="Trazado 150779" d="M265.127,322.635l-21.209,12.239a4.368,4.368,0,0,0-2.178,3.78v63.038a4.367,4.367,0,0,1-4.361,4.361H97.148L82.663,391.492a5.427,5.427,0,0,0,3.052.926H222.481a5.445,5.445,0,0,0,5.45-5.45V250.2a5.4,5.4,0,0,0-1-3.138l14.812,14.811v37.186a4.365,4.365,0,0,0,2.178,3.78l21.209,12.241A4.366,4.366,0,0,1,265.127,322.635Z" transform="translate(-67.36 -231.674)" fill="#70bc2d"/>
  </g>
  <path id="Trazado_150780" data-name="Trazado 150780" d="M228.387,250.642V387.408a5.445,5.445,0,0,1-5.45,5.45H86.171a5.523,5.523,0,0,1-5.45-5.45V250.642a5.452,5.452,0,0,1,5.45-5.45H222.937A5.464,5.464,0,0,1,228.387,250.642Z" transform="translate(-67.816 -232.114)" fill="#fff"/>
  <path id="Trazado_150781" data-name="Trazado 150781" d="M199.734,247.315l-1.319-1.32A5.041,5.041,0,0,1,199.734,247.315Z" transform="translate(-40.166 -231.925)" fill="#fff"/>
</svg>
