<svg xmlns="http://www.w3.org/2000/svg" width="86.5" height="83.465" viewBox="0 0 86.5 83.465">
  <g id="proteger" transform="translate(0 -8.983)">
    <g id="Grupo_89060" data-name="Grupo 89060" transform="translate(1.267 10.144)">
      <g id="Grupo_89059" data-name="Grupo 89059" transform="translate(0 0)">
        <g id="Grupo_89058" data-name="Grupo 89058">
          <g id="Grupo_89057" data-name="Grupo 89057">
            <g id="Grupo_89056" data-name="Grupo 89056">
              <g id="Grupo_89055" data-name="Grupo 89055">
                <g id="Grupo_89054" data-name="Grupo 89054">
                  <g id="Grupo_89053" data-name="Grupo 89053">
                    <circle id="Elipse_4578" data-name="Elipse 4578" cx="37.418" cy="37.418" r="37.418" fill="#3ca8f4"/>
                    <path id="Trazado_151271" data-name="Trazado 151271" d="M23.288,26.817A37.444,37.444,0,0,1,83.7,37.535l-15.414-1.46a2.11,2.11,0,0,0-1.932.9l-3.791,5.436a2.094,2.094,0,0,1-.882.727L52.04,47.372a2.115,2.115,0,0,1-1.795-.045L45.529,44.97a2.109,2.109,0,0,1-1.165-1.819l-.079-2.357a2.112,2.112,0,0,1,1.265-2.005l2.561-1.121a2.11,2.11,0,0,0,.96-3.029L46.805,30.9a2.111,2.111,0,0,0-2.97-.667L35.7,35.618a2.106,2.106,0,0,0-.945,1.784l.1,9.23a2.111,2.111,0,0,1-1.9,2.124l-13.8,1.409a2.111,2.111,0,0,1-1.817-.727l-4.03-4.7a37.266,37.266,0,0,1,9.978-17.917Z" transform="translate(-12.328 -15.857)" fill="#8ad24a"/>
                  </g>
                </g>
              </g>
            </g>
          </g>
        </g>
        <path id="Trazado_151273" data-name="Trazado 151273" d="M107.269,307.062l3.1-1.366a1.9,1.9,0,0,1,1.939.246l2.363,1.863a1.9,1.9,0,0,0,1.175.407h7.005a1.9,1.9,0,0,1,1.786,1.256l1.028,2.864a1.9,1.9,0,0,1-.052,1.412l-2.964,6.669a1.9,1.9,0,0,1-2.323,1.033l-8.873-2.9a1.9,1.9,0,0,1-1.308-1.765l-.067-3.29a1.9,1.9,0,0,0-1.423-1.8l-1.073-.277a1.9,1.9,0,0,1-1.423-1.778l-.024-.785A1.9,1.9,0,0,1,107.269,307.062Z" transform="translate(-89.472 -256.596)" fill="#8ad24a"/>
      </g>
    </g>
    <path id="Trazado_151274" data-name="Trazado 151274" d="M290.6,210.248l-17.8,4.312a1.9,1.9,0,0,0-1.45,1.843v13.884c0,16.02,14.829,25.605,18.752,27.861a1.89,1.89,0,0,0,1.886,0c3.923-2.256,18.752-11.841,18.752-27.861V216.4a1.9,1.9,0,0,0-1.45-1.843l-17.8-4.312A1.9,1.9,0,0,0,290.6,210.248Z" transform="translate(-225.506 -167.218)" fill="#fde947"/>
    <path id="Trazado_151276" data-name="Trazado 151276" d="M319.034,280.571a39.832,39.832,0,0,1-7.554-6.461c-4.281-4.773-6.451-9.918-6.451-15.293v-9.408a1.9,1.9,0,0,1,1.45-1.843l12.555-3.042,12.555,3.042a1.9,1.9,0,0,1,1.45,1.843v9.408c0,5.375-2.17,10.52-6.451,15.293A39.829,39.829,0,0,1,319.034,280.571Z" transform="translate(-253.496 -195.747)" fill="#8ad24a"/>
    <path id="Trazado_151278" data-name="Trazado 151278" d="M387.925,244.524l12.555,3.042a1.9,1.9,0,0,1,1.45,1.843v9.408c0,5.374-2.17,10.52-6.451,15.293a39.83,39.83,0,0,1-7.554,6.461Z" transform="translate(-322.387 -195.748)" fill="#faf7f7"/>
    <g id="Grupo_89061" data-name="Grupo 89061" transform="translate(0 8.983)">
      <path id="Trazado_151280" data-name="Trazado 151280" d="M119.6,302.8a3.173,3.173,0,0,0-2.979-2.1h-7.005a.633.633,0,0,1-.39-.136l-2.363-1.863a3.158,3.158,0,0,0-3.235-.411l-3.1,1.366a3.151,3.151,0,0,0-1.888,3l.025.785a3.181,3.181,0,0,0,2.372,2.966l1.073.277a.632.632,0,0,1,.473.6l.067,3.29a3.168,3.168,0,0,0,2.182,2.944l8.873,2.9a3.157,3.157,0,0,0,3.874-1.723l2.964-6.669a3.151,3.151,0,0,0,.087-2.355Zm-1.374,4.189-2.964,6.669a.629.629,0,0,1-.772.343l-8.873-2.9a.631.631,0,0,1-.435-.587l-.067-3.29a3.175,3.175,0,0,0-2.373-3l-1.073-.277a.634.634,0,0,1-.473-.591l-.024-.785a.628.628,0,0,1,.376-.6l3.1-1.366a.63.63,0,0,1,.645.082l2.363,1.862a3.176,3.176,0,0,0,1.959.68h7.005a.632.632,0,0,1,.594.417l1.028,2.864A.629.629,0,0,1,118.223,306.992Z" transform="translate(-81.971 -249.196)"/>
      <path id="Trazado_151281" data-name="Trazado 151281" d="M298.121,94.592a1.267,1.267,0,0,0,1.792,0l1.049-1.049a1.267,1.267,0,1,0-1.792-1.792l-.153.153-.153-.153a1.267,1.267,0,0,0-1.792,1.792Z" transform="translate(-246.575 -77.459)"/>
      <path id="Trazado_151282" data-name="Trazado 151282" d="M182.632,236.945a1.267,1.267,0,0,0,1.792,0l1.049-1.049a1.267,1.267,0,1,0-1.792-1.792l-.153.153-.153-.153a1.267,1.267,0,1,0-1.792,1.792Z" transform="translate(-150.597 -195.763)"/>
      <path id="Trazado_151283" data-name="Trazado 151283" d="M169.514,342.674l-.153.153-.153-.153a1.267,1.267,0,0,0-1.792,1.792l1.049,1.049a1.267,1.267,0,0,0,1.792,0l1.049-1.049a1.267,1.267,0,1,0-1.792-1.792Z" transform="translate(-138.824 -285.99)"/>
      <path id="Trazado_151284" data-name="Trazado 151284" d="M257.565,60.046a1.263,1.263,0,0,0,.9-.371l1.049-1.049a1.267,1.267,0,0,0-1.792-1.792l-.153.153-.153-.153a1.267,1.267,0,0,0-1.792,1.792l1.049,1.049a1.264,1.264,0,0,0,.9.371Z" transform="translate(-212.126 -48.441)"/>
      <path id="Trazado_151285" data-name="Trazado 151285" d="M77.213,155.455l-.153.153-.153-.153a1.267,1.267,0,0,0-1.792,1.792l1.049,1.049a1.267,1.267,0,0,0,1.792,0L79,157.247a1.267,1.267,0,0,0-1.792-1.792Z" transform="translate(-62.117 -130.401)"/>
      <path id="Trazado_151286" data-name="Trazado 151286" d="M84.081,46.111l-6.838-1.657A38.678,38.678,0,0,0,42.064,9.027a1.267,1.267,0,0,0-.22,2.525A36.15,36.15,0,0,1,70.473,30.343L57.348,29.1a3.379,3.379,0,0,0-3.091,1.432l-3.794,5.44a.826.826,0,0,1-.35.288L40.469,40.5a.843.843,0,0,1-.719-.018l-4.716-2.357a.842.842,0,0,1-.465-.728L34.49,35.04a.843.843,0,0,1,.506-.8l2.559-1.121a3.378,3.378,0,0,0,1.537-4.847l-2.265-3.738a3.378,3.378,0,0,0-4.752-1.067l-8.139,5.384A3.359,3.359,0,0,0,22.423,31.7l.1,9.23a.841.841,0,0,1-.759.85l-13.8,1.41a.849.849,0,0,1-.726-.291l-3.589-4.19-.005-.006A36.119,36.119,0,0,1,35.979,11.514a1.267,1.267,0,0,0-.189-2.527,38.688,38.688,0,1,0,17.4,74.446,47.582,47.582,0,0,0,10.772,8.6,3.17,3.17,0,0,0,3.148,0,47.412,47.412,0,0,0,11.159-9.022c5.46-6.089,8.228-12.8,8.228-19.938V49.186a3.155,3.155,0,0,0-2.419-3.075ZM83.966,63.07c0,15.167-13.867,24.319-18.116,26.762a.628.628,0,0,1-.623,0c-4.25-2.444-18.117-11.6-18.117-26.762V60.04a1.267,1.267,0,1,0-2.534,0v3.03A28.785,28.785,0,0,0,51.438,81.4,36.144,36.144,0,0,1,3,41.851l2.313,2.7a3.383,3.383,0,0,0,2.565,1.18,3.321,3.321,0,0,0,.342-.018l13.8-1.409a3.362,3.362,0,0,0,3.037-3.4l-.1-9.232a.836.836,0,0,1,.377-.711l8.14-5.384a.843.843,0,0,1,1.186.268l2.265,3.737a.843.843,0,0,1-.385,1.212l-2.561,1.122a3.365,3.365,0,0,0-2.022,3.208l.079,2.356A3.375,3.375,0,0,0,33.9,40.39l4.716,2.357a3.372,3.372,0,0,0,2.871.072l9.644-4.238a3.35,3.35,0,0,0,1.414-1.163l3.792-5.438a.844.844,0,0,1,.772-.357l14.669,1.389a36.09,36.09,0,0,1,2.862,10.811L66.283,41.8a3.177,3.177,0,0,0-1.49,0l-17.8,4.312a3.155,3.155,0,0,0-2.419,3.075V53.97a1.267,1.267,0,0,0,2.534,0V49.185a.628.628,0,0,1,.481-.612l17.8-4.312a.633.633,0,0,1,.3,0l17.8,4.312a.628.628,0,0,1,.481.612Z" transform="translate(0 -8.983)"/>
      <path id="Trazado_151287" data-name="Trazado 151287" d="M325.654,240.1,313.1,237.06a1.268,1.268,0,0,0-.6,0L299.948,240.1a3.155,3.155,0,0,0-2.419,3.075v9.408c0,5.7,2.279,11.126,6.775,16.139a41.182,41.182,0,0,0,7.8,6.672,1.267,1.267,0,0,0,1.4,0,42.84,42.84,0,0,0,5.539-4.369,1.267,1.267,0,0,0-1.733-1.85,39.356,39.356,0,0,1-3.238,2.713v-24.4l11.471,2.779v2.316a20.408,20.408,0,0,1-4.326,12.24,1.267,1.267,0,1,0,2.039,1.505,22.883,22.883,0,0,0,4.821-13.746v-9.408A3.156,3.156,0,0,0,325.654,240.1Zm-25.11,2.463,10.989-2.663v4.98l-11.471,2.779v-4.484A.628.628,0,0,1,300.544,242.565Zm5.646,24.467c-4.066-4.533-6.127-9.394-6.127-14.447v-2.316l11.471-2.779v24.4A37.39,37.39,0,0,1,306.19,267.031Zm7.878-22.15V239.9l10.989,2.662a.628.628,0,0,1,.482.612v4.484Z" transform="translate(-247.263 -198.498)"/>
      <path id="Trazado_151288" data-name="Trazado 151288" d="M419.915,321.48a1.267,1.267,0,0,0-1.789-.1l-.981.879a1.267,1.267,0,1,0,1.692,1.887l.981-.879A1.267,1.267,0,0,0,419.915,321.48Z" transform="translate(-346.32 -268.335)"/>
      <path id="Trazado_151289" data-name="Trazado 151289" d="M412.992,349.777l-.981.879a1.267,1.267,0,1,0,1.692,1.887l.981-.879a1.267,1.267,0,1,0-1.692-1.887Z" transform="translate(-342.054 -291.932)"/>
      <path id="Trazado_151290" data-name="Trazado 151290" d="M407.86,378.171l-.981.879a1.267,1.267,0,1,0,1.692,1.887l.981-.879a1.267,1.267,0,1,0-1.692-1.887Z" transform="translate(-337.789 -315.529)"/>
      <path id="Trazado_151291" data-name="Trazado 151291" d="M339.745,324.473a1.267,1.267,0,0,0,.846-2.21l-.981-.879a1.267,1.267,0,1,0-1.692,1.887l.981.879a1.261,1.261,0,0,0,.845.324Z" transform="translate(-280.479 -268.336)"/>
      <path id="Trazado_151292" data-name="Trazado 151292" d="M344.878,352.867a1.267,1.267,0,0,0,.846-2.21l-.981-.879a1.267,1.267,0,1,0-1.692,1.887l.981.879A1.262,1.262,0,0,0,344.878,352.867Z" transform="translate(-284.745 -291.933)"/>
      <path id="Trazado_151293" data-name="Trazado 151293" d="M350.856,379.05l-.981-.879a1.267,1.267,0,1,0-1.692,1.887l.981.879a1.267,1.267,0,1,0,1.692-1.887Z" transform="translate(-289.01 -315.53)"/>
    </g>
  </g>
</svg>
