<svg xmlns="http://www.w3.org/2000/svg" width="84.999" height="85" viewBox="0 0 84.999 85">
  <g id="rendimiento" transform="translate(-25.069)">
    <g id="Grupo_88981" data-name="Grupo 88981" transform="translate(36.693 33.315)">
      <path id="Trazado_151136" data-name="Trazado 151136" d="M102.176,251.11H91.658V202a1.366,1.366,0,0,1,1.4-1.33h7.72a1.366,1.366,0,0,1,1.4,1.33Z" transform="translate(-91.658 -200.672)" fill="#fde947"/>
    </g>
    <g id="Grupo_88982" data-name="Grupo 88982" transform="translate(48.593 9.866)">
      <path id="Trazado_151137" data-name="Trazado 151137" d="M162.429,133.317H151.911V60.761a1.366,1.366,0,0,1,1.4-1.33h7.72a1.366,1.366,0,0,1,1.4,1.33v72.556Z" transform="translate(-151.911 -59.431)" fill="#3ca8f4"/>
    </g>
    <g id="Grupo_88983" data-name="Grupo 88983" transform="translate(59.764 17.385)">
      <path id="Trazado_151138" data-name="Trazado 151138" d="M222.565,171.088h-10.4V106.05a1.366,1.366,0,0,1,1.4-1.33h7.6a1.366,1.366,0,0,1,1.4,1.33v65.037Z" transform="translate(-212.165 -104.72)" fill="#70bc2d"/>
    </g>
    <g id="Grupo_88984" data-name="Grupo 88984" transform="translate(70.942 1.247)">
      <path id="Trazado_151139" data-name="Trazado 151139" d="M282.936,90.018H272.418V8.843a1.366,1.366,0,0,1,1.4-1.33h7.72a1.366,1.366,0,0,1,1.4,1.33V90.018Z" transform="translate(-272.418 -7.513)" fill="#4182af"/>
    </g>
    <g id="Grupo_88998" data-name="Grupo 88998" transform="translate(25.069 0)">
      <g id="Grupo_88992" data-name="Grupo 88992" transform="translate(56.338 49.696)">
        <g id="Grupo_88989" data-name="Grupo 88989" transform="translate(6.885)">
          <ellipse id="Elipse_4568" data-name="Elipse 4568" cx="6.787" cy="6.455" rx="6.787" ry="6.455" fill="#3ca8f4"/>
        </g>
        <g id="Grupo_88991" data-name="Grupo 88991" transform="translate(0 17.915)">
          <g id="Grupo_88990" data-name="Grupo 88990">
            <path id="Trazado_151144" data-name="Trazado 151144" d="M340.043,407.259a9.807,9.807,0,0,1,10.044,9.552V423.4h-27.35v-6.542a9.807,9.807,0,0,1,10.044-9.552Z" transform="translate(-322.737 -407.259)" fill="#3ca8f4"/>
          </g>
        </g>
      </g>
      <g id="Grupo_88997" data-name="Grupo 88997" transform="translate(0)">
        <path id="Trazado_151147" data-name="Trazado 151147" d="M362.766,307.239a7.712,7.712,0,1,0-8.1-7.7A7.917,7.917,0,0,0,362.766,307.239Zm0-12.909a5.214,5.214,0,1,1-5.475,5.207A5.352,5.352,0,0,1,362.766,294.329Z" transform="translate(-292.756 -243.386)"/>
        <path id="Trazado_151148" data-name="Trazado 151148" d="M108.686,79.77a1.32,1.32,0,0,0-1.383,1.247v1.488h-4.66V77.662a1.39,1.39,0,0,0-2.765,0v4.844H88.659V77.662a1.39,1.39,0,0,0-2.765,0v4.844h-4.66V77.211c0-4.579,4.13-8.3,9.216-8.3l7.648-.047c4.355,0,8.148,2.788,9.019,6.63a1.385,1.385,0,0,0,1.631.972,1.257,1.257,0,0,0,1.077-1.472c-1.133-5-6.066-8.624-11.738-8.624l-7.648.047a12.75,12.75,0,0,0-7.378,2.3V2.578A2.732,2.732,0,0,0,80.2,0H72.065a2.731,2.731,0,0,0-2.858,2.578v13.57c-.072,0-.143-.01-.216-.01H60.976c-.031,0-.061,0-.092,0V11.2a2.731,2.731,0,0,0-2.857-2.578H49.887A2.731,2.731,0,0,0,47.03,11.2v7.518a1.39,1.39,0,0,0,2.765,0V11.2a.088.088,0,0,1,.092-.083h8.139a.088.088,0,0,1,.092.083V82.505H49.8V24.589a1.39,1.39,0,0,0-2.765,0v7.482c-.031,0-.061,0-.092,0H38.8a2.731,2.731,0,0,0-2.857,2.578v47.86H27.834V1.247a1.39,1.39,0,0,0-2.765,0V83.753A1.32,1.32,0,0,0,26.452,85h82.234a1.32,1.32,0,0,0,1.383-1.247V81.018A1.32,1.32,0,0,0,108.686,79.77ZM47.03,82.505H38.706V34.645a.088.088,0,0,1,.092-.083h8.139a.088.088,0,0,1,.092.083Zm22.054,0h-8.2V18.715a.088.088,0,0,1,.092-.083h8.015a.088.088,0,0,1,.092.083v63.79ZM80.3,71.485a9.975,9.975,0,0,0-1.829,5.726v5.295h-6.5V2.578a.088.088,0,0,1,.092-.083H80.2a.088.088,0,0,1,.092.083Z" transform="translate(-25.069 0)"/>
      </g>
    </g>
  </g>
</svg>
