<svg xmlns="http://www.w3.org/2000/svg" width="400" height="295" viewBox="0 0 400 295">
  <g id="Grupo_89153" data-name="Grupo 89153" transform="translate(-599.668 -129)">
    <rect id="Rectángulo_34587" data-name="Rectángulo 34587" width="400" height="295" rx="20" transform="translate(599.668 129)" fill="#fde947"/>
    <path id="Trazado_151532" data-name="Trazado 151532" d="M69.333,13.99V19H66.4V4.781H71.95a6.417,6.417,0,0,1,2.817.586,4.318,4.318,0,0,1,1.87,1.665,4.643,4.643,0,0,1,.654,2.456,4.083,4.083,0,0,1-1.431,3.3A5.959,5.959,0,0,1,71.9,13.99Zm0-2.373H71.95a2.573,2.573,0,0,0,1.772-.547,1.989,1.989,0,0,0,.61-1.562,2.345,2.345,0,0,0-.615-1.689,2.3,2.3,0,0,0-1.7-.664H69.333ZM81.872,9.586a3.522,3.522,0,0,1,2.822-1.348q3.437,0,3.486,3.994V19H85.358V12.3a1.971,1.971,0,0,0-.391-1.346,1.672,1.672,0,0,0-1.3-.436,1.92,1.92,0,0,0-1.8.959V19H79.05V4h2.822ZM93.288,19H90.456V8.434h2.832Zm-3-13.3a1.39,1.39,0,0,1,.425-1.045,1.831,1.831,0,0,1,2.31,0,1.382,1.382,0,0,1,.43,1.045,1.386,1.386,0,0,1-.435,1.055,1.81,1.81,0,0,1-2.295,0A1.386,1.386,0,0,1,90.29,5.7Zm8.3,13.3H95.759V4h2.832Zm5.3,0h-2.832V8.434h2.832Zm-3-13.3a1.39,1.39,0,0,1,.425-1.045,1.831,1.831,0,0,1,2.31,0,1.382,1.382,0,0,1,.43,1.045,1.386,1.386,0,0,1-.435,1.055,1.81,1.81,0,0,1-2.295,0A1.386,1.386,0,0,1,100.9,5.7Zm14.834,8.115a6.337,6.337,0,0,1-1.108,3.911,3.554,3.554,0,0,1-2.993,1.47,3.292,3.292,0,0,1-2.588-1.113v4.98h-2.822V8.434h2.617l.1,1.035a3.317,3.317,0,0,1,2.676-1.23,3.578,3.578,0,0,1,3.037,1.445,6.509,6.509,0,0,1,1.084,3.984Zm-2.822-.215a4.182,4.182,0,0,0-.522-2.282,1.7,1.7,0,0,0-1.519-.8,1.847,1.847,0,0,0-1.826,1.019v4.339a1.879,1.879,0,0,0,1.846,1.048Q112.907,16.92,112.907,13.6Zm14.082.215a6.337,6.337,0,0,1-1.108,3.911,3.554,3.554,0,0,1-2.993,1.47,3.292,3.292,0,0,1-2.588-1.113v4.98h-2.822V8.434h2.617l.1,1.035a3.317,3.317,0,0,1,2.676-1.23,3.578,3.578,0,0,1,3.037,1.445,6.509,6.509,0,0,1,1.084,3.984Zm-2.822-.215a4.182,4.182,0,0,0-.522-2.282,1.7,1.7,0,0,0-1.519-.8,1.847,1.847,0,0,0-1.826,1.019v4.339a1.879,1.879,0,0,0,1.846,1.048Q124.167,16.92,124.167,13.6ZM134.46,16.08a.909.909,0,0,0-.513-.815,5.824,5.824,0,0,0-1.646-.532q-3.77-.791-3.77-3.2A2.9,2.9,0,0,1,129.7,9.181a4.708,4.708,0,0,1,3.052-.942,5.067,5.067,0,0,1,3.218.947,2.985,2.985,0,0,1,1.206,2.461h-2.822a1.366,1.366,0,0,0-.391-1,1.653,1.653,0,0,0-1.221-.4,1.689,1.689,0,0,0-1.1.322,1.017,1.017,0,0,0-.391.82.87.87,0,0,0,.444.757,4.571,4.571,0,0,0,1.5.5,12.244,12.244,0,0,1,1.777.474,2.92,2.92,0,0,1,2.236,2.842,2.756,2.756,0,0,1-1.24,2.339,5.35,5.35,0,0,1-3.2.894,5.588,5.588,0,0,1-2.358-.474,3.957,3.957,0,0,1-1.616-1.3,3.018,3.018,0,0,1-.586-1.782h2.676a1.473,1.473,0,0,0,.557,1.152,2.208,2.208,0,0,0,1.387.4,2.044,2.044,0,0,0,1.226-.308A.957.957,0,0,0,134.46,16.08ZM151.54,4.635V6.959h-.273a4.8,4.8,0,0,0-3.081,1,4.047,4.047,0,0,0-1.4,2.686,3.844,3.844,0,0,1,2.861-1.152,3.622,3.622,0,0,1,2.949,1.328,5.324,5.324,0,0,1,1.094,3.5,5.237,5.237,0,0,1-.6,2.51,4.307,4.307,0,0,1-1.7,1.748,4.937,4.937,0,0,1-2.485.625,4.611,4.611,0,0,1-3.628-1.562,6.065,6.065,0,0,1-1.382-4.17V12.447a9.127,9.127,0,0,1,.874-4.087,6.409,6.409,0,0,1,2.51-2.744,7.354,7.354,0,0,1,3.794-.981Zm-2.754,7.129a2.255,2.255,0,0,0-1.24.356,2.143,2.143,0,0,0-.82.941v.858a3.8,3.8,0,0,0,.557,2.208,1.8,1.8,0,0,0,1.563.794,1.779,1.779,0,0,0,1.47-.716,2.922,2.922,0,0,0,.562-1.857,2.916,2.916,0,0,0-.566-1.871A1.846,1.846,0,0,0,148.786,11.764Zm14.229-7.129V6.959h-.273a4.8,4.8,0,0,0-3.081,1,4.047,4.047,0,0,0-1.4,2.686,3.844,3.844,0,0,1,2.861-1.152,3.622,3.622,0,0,1,2.949,1.328,5.324,5.324,0,0,1,1.094,3.5,5.237,5.237,0,0,1-.6,2.51,4.307,4.307,0,0,1-1.7,1.748,4.937,4.937,0,0,1-2.485.625,4.611,4.611,0,0,1-3.628-1.562,6.065,6.065,0,0,1-1.382-4.17V12.447a9.127,9.127,0,0,1,.874-4.087,6.409,6.409,0,0,1,2.51-2.744,7.354,7.354,0,0,1,3.794-.981Zm-2.754,7.129a2.255,2.255,0,0,0-1.24.356,2.143,2.143,0,0,0-.82.941v.858a3.8,3.8,0,0,0,.557,2.208,1.8,1.8,0,0,0,1.563.794,1.779,1.779,0,0,0,1.47-.716,2.922,2.922,0,0,0,.562-1.857,2.916,2.916,0,0,0-.566-1.871A1.846,1.846,0,0,0,160.261,11.764Z" transform="translate(684.668 336)" fill="#12263f"/>
    <g id="salon-de-clases" transform="translate(739.668 193.922)">
      <g id="Grupo_88871" data-name="Grupo 88871" transform="translate(2.344 2.344)">
        <path id="Trazado_150827" data-name="Trazado 150827" d="M176.976,113.434a9.377,9.377,0,0,0,9.375-9.375V99.372a9.375,9.375,0,1,0-18.75,0v4.687a9.377,9.377,0,0,0,9.375,9.375Z" transform="translate(-130.663 -71.247)" fill="#ffdcd5" fill-rule="evenodd"/>
        <path id="Trazado_150828" data-name="Trazado 150828" d="M147.831,158.937a9.374,9.374,0,0,1-18.274,0,21.16,21.16,0,0,0-11.957,19h9.375v16.407h23.437V177.935h9.375A21.159,21.159,0,0,0,147.831,158.937Z" transform="translate(-92.381 -124.03)" fill="#90d1ff" fill-rule="evenodd"/>
        <path id="Trazado_150829" data-name="Trazado 150829" d="M126.975,256.4V240H117.6V256.4a4.7,4.7,0,0,0,4.687,4.687h4.687Z" transform="translate(-92.381 -186.091)" fill="#ffdcd5" fill-rule="evenodd"/>
        <path id="Trazado_150830" data-name="Trazado 150830" d="M257.6,240V261.09h4.687a4.7,4.7,0,0,0,4.688-4.687V240Z" transform="translate(-199.569 -186.091)" fill="#ffdcd5" fill-rule="evenodd"/>
        <path id="Trazado_150831" data-name="Trazado 150831" d="M181.037,310H157.6v42.188h23.437V310Z" transform="translate(-123.006 -239.687)" fill="#636363" fill-rule="evenodd"/>
        <path id="Trazado_150832" data-name="Trazado 150832" d="M44.264,385.478a6.589,6.589,0,0,0-13.178,0v3.295a6.589,6.589,0,0,0,13.178,0Z" transform="translate(-26.144 -292.431)" fill="#ffdcd5" fill-rule="evenodd"/>
        <path id="Trazado_150833" data-name="Trazado 150833" d="M26.43,439.81a6.565,6.565,0,0,1-9.8,0A11.568,11.568,0,0,0,10,450.241v4.145H33.062v-4.145A11.568,11.568,0,0,0,26.43,439.81Z" transform="translate(-10 -339.073)" fill="#3ca8f4" fill-rule="evenodd"/>
        <path id="Trazado_150834" data-name="Trazado 150834" d="M142.664,385.478a6.589,6.589,0,1,0-13.178,0v3.295a6.589,6.589,0,0,0,13.178,0Z" transform="translate(-101.482 -292.431)" fill="#ffdcd5" fill-rule="evenodd"/>
        <path id="Trazado_150835" data-name="Trazado 150835" d="M124.83,439.81a6.565,6.565,0,0,1-9.8,0,11.568,11.568,0,0,0-6.632,10.431v4.145h23.062v-4.145a11.568,11.568,0,0,0-6.632-10.431Z" transform="translate(-85.338 -339.073)" fill="#8ad24a" fill-rule="evenodd"/>
        <path id="Trazado_150836" data-name="Trazado 150836" d="M241.064,385.478a6.589,6.589,0,0,0-13.178,0v3.295a6.589,6.589,0,0,0,13.178,0Z" transform="translate(-176.819 -292.431)" fill="#ffdcd5" fill-rule="evenodd"/>
        <path id="Trazado_150837" data-name="Trazado 150837" d="M223.23,439.81a6.565,6.565,0,0,1-9.8,0,11.568,11.568,0,0,0-6.632,10.431v4.145h23.062v-4.145A11.567,11.567,0,0,0,223.23,439.81Z" transform="translate(-160.675 -339.073)" fill="#0f2771" fill-rule="evenodd"/>
        <path id="Trazado_150838" data-name="Trazado 150838" d="M339.465,385.478a6.589,6.589,0,1,0-13.178,0v3.295a6.589,6.589,0,0,0,13.178,0Z" transform="translate(-252.157 -292.431)" fill="#ffdcd5" fill-rule="evenodd"/>
        <path id="Trazado_150839" data-name="Trazado 150839" d="M321.631,439.81a6.565,6.565,0,0,1-9.8,0,11.568,11.568,0,0,0-6.632,10.431v4.145h23.063v-4.145A11.568,11.568,0,0,0,321.631,439.81Z" transform="translate(-236.013 -339.073)" fill="#8ad24a" fill-rule="evenodd"/>
        <path id="Trazado_150840" data-name="Trazado 150840" d="M437.865,385.478a6.589,6.589,0,0,0-13.178,0v3.295a6.589,6.589,0,0,0,13.178,0Z" transform="translate(-327.495 -292.431)" fill="#ffdcd5" fill-rule="evenodd"/>
        <path id="Trazado_150841" data-name="Trazado 150841" d="M420.031,439.81a6.565,6.565,0,0,1-9.8,0,11.568,11.568,0,0,0-6.632,10.431v4.145h23.062v-4.145A11.568,11.568,0,0,0,420.031,439.81Z" transform="translate(-311.351 -339.073)" fill="#3ca8f4" fill-rule="evenodd"/>
        <path id="Trazado_150842" data-name="Trazado 150842" d="M85.75,94.531a21.159,21.159,0,0,1,11.956-19,9.321,9.321,0,0,1-.238-2.1V68.749a9.375,9.375,0,0,1,18.75,0v4.688a9.323,9.323,0,0,1-.238,2.1,21.16,21.16,0,0,1,11.956,19V106.25h32.437V50H76v56.25h9.75V94.531Z" transform="translate(-60.531 -40.625)" fill="#70bc2d" fill-rule="evenodd"/>
        <path id="Trazado_150843" data-name="Trazado 150843" d="M55.125,75.624h-9.75V19.374H129.75v56.25H97.312v4.688A4.7,4.7,0,0,1,92.625,85h44.156a2.351,2.351,0,0,0,2.344-2.344V12.343A2.351,2.351,0,0,0,136.781,10H38.344A2.351,2.351,0,0,0,36,12.343V82.655A2.351,2.351,0,0,0,38.344,85H59.812a4.7,4.7,0,0,1-4.687-4.687V75.624Z" transform="translate(-29.906 -9.999)" fill="#3ca8f4" fill-rule="evenodd"/>
      </g>
      <g id="Grupo_88872" data-name="Grupo 88872" transform="translate(0 0)">
        <path id="Trazado_150844" data-name="Trazado 150844" d="M114.289,102.3a8.877,8.877,0,0,0,.769-3.619V95.391a8.933,8.933,0,1,0-17.866,0v3.295a8.877,8.877,0,0,0,.771,3.624,13.858,13.858,0,0,0-3.369,3.479,13.868,13.868,0,0,0-3.369-3.479A8.878,8.878,0,0,0,92,98.686V95.391a8.933,8.933,0,0,0-17.866,0v3.295a8.881,8.881,0,0,0,.771,3.624,13.868,13.868,0,0,0-3.37,3.479,13.872,13.872,0,0,0-3.369-3.479,8.878,8.878,0,0,0,.771-3.624V95.391a8.948,8.948,0,0,0-6.215-8.509v-7.2h46.5A4.693,4.693,0,0,0,113.906,75V4.687A4.693,4.693,0,0,0,109.219,0H10.781A4.693,4.693,0,0,0,6.094,4.687V75a4.693,4.693,0,0,0,4.687,4.687H34.594v7.085A8.947,8.947,0,0,0,28,95.391v3.295a8.877,8.877,0,0,0,.771,3.624,13.858,13.858,0,0,0-3.369,3.479,13.868,13.868,0,0,0-3.369-3.479,8.878,8.878,0,0,0,.771-3.624V95.391a8.933,8.933,0,0,0-17.866,0v3.295a8.879,8.879,0,0,0,.769,3.618A13.79,13.79,0,0,0,0,113.512v4.145A2.344,2.344,0,0,0,2.344,120H117.656A2.344,2.344,0,0,0,120,117.656v-4.145a13.793,13.793,0,0,0-5.711-11.207ZM9.629,95.391a4.246,4.246,0,0,1,8.491,0v3.295a4.246,4.246,0,0,1-8.491,0Zm13.433,19.921H4.687v-1.8a9.277,9.277,0,0,1,4-7.563,8.9,8.9,0,0,0,10.388,0,9.139,9.139,0,0,1,3.992,7.566v1.8ZM101.88,95.391a4.245,4.245,0,1,1,8.491,0v3.295a4.245,4.245,0,1,1-8.491,0Zm-23.062,0a4.245,4.245,0,0,1,8.491,0v3.295a4.245,4.245,0,1,1-8.491,0Zm-.947,10.557a8.9,8.9,0,0,0,10.387,0,9.139,9.139,0,0,1,3.992,7.566v1.8H73.875v-1.8a9.276,9.276,0,0,1,4-7.564Zm-8.683,9.364H50.813v-1.8a9.277,9.277,0,0,1,4-7.563,8.9,8.9,0,0,0,10.387,0,9.139,9.139,0,0,1,3.992,7.566ZM39.281,86.772V75h18.75v11.68a8.946,8.946,0,0,0-6.964,8.712v3.295a8.881,8.881,0,0,0,.771,3.624,13.863,13.863,0,0,0-3.369,3.479A13.872,13.872,0,0,0,45.1,102.31a8.878,8.878,0,0,0,.771-3.624V95.391a8.948,8.948,0,0,0-6.589-8.619ZM29.906,72.656V58.593h4.687V75H32.25A2.346,2.346,0,0,1,29.906,72.656Zm.145-18.75A18.649,18.649,0,0,1,38.3,40.637a11.757,11.757,0,0,0,8.01,6V70.312H39.281V56.249A2.344,2.344,0,0,0,36.937,53.9Zm18.6-11.719a7.039,7.039,0,0,1-7.031-7.031V30.468a7.039,7.039,0,0,1,7.031-7.031h0a7.039,7.039,0,0,1,7.031,7.031v4.687A7.039,7.039,0,0,1,48.656,42.187Zm15.589,53.2v3.295a4.246,4.246,0,0,1-8.491,0V95.391a4.246,4.246,0,0,1,8.491,0Zm-3.87-41.486h0a2.344,2.344,0,0,0-2.344,2.344V70.312H51V46.638a11.756,11.756,0,0,0,8.009-6,18.663,18.663,0,0,1,8.252,13.268Zm2.344,4.688h4.688V72.656A2.346,2.346,0,0,1,65.063,75H62.719ZM10.781,4.687h98.437V75H71.69a7,7,0,0,0,.4-2.344V70.312h30.094a2.344,2.344,0,0,0,2.344-2.344V11.719a2.344,2.344,0,0,0-2.344-2.344H70.546a2.344,2.344,0,1,0,0,4.687h29.3V65.625H72.094V56.25a23.3,23.3,0,0,0-3.6-12.454,23.653,23.653,0,0,0-8.145-7.839c.018-.265.03-.532.03-.8V30.468a11.719,11.719,0,1,0-23.437,0v4.687c0,.269.012.536.03.8a23.646,23.646,0,0,0-8.127,7.811,23.3,23.3,0,0,0-3.622,12.482v9.375H20.156V14.062h29.3a2.344,2.344,0,1,0,0-4.687H17.812a2.344,2.344,0,0,0-2.344,2.344v56.25a2.344,2.344,0,0,0,2.344,2.344h7.406v2.344a7,7,0,0,0,.4,2.344H10.781Zm21.911,90.7a4.246,4.246,0,0,1,8.491,0v3.295a4.246,4.246,0,0,1-8.491,0Zm-4.942,18.12a9.277,9.277,0,0,1,4-7.564,8.9,8.9,0,0,0,10.387,0,9.139,9.139,0,0,1,3.992,7.566v1.8H27.75Zm87.563,1.8H96.938v-1.8a9.277,9.277,0,0,1,4-7.564,8.9,8.9,0,0,0,10.387,0,9.139,9.139,0,0,1,3.992,7.566Z" transform="translate(0 0)"/>
        <path id="Trazado_150845" data-name="Trazado 150845" d="M248.341,44.687a2.344,2.344,0,1,0,0-4.687h0a2.344,2.344,0,0,0,0,4.687Z" transform="translate(-188.342 -30.625)"/>
        <path id="Trazado_150846" data-name="Trazado 150846" d="M293.341,84.685h22.266a2.344,2.344,0,1,0,0-4.687H293.341a2.344,2.344,0,1,0,0,4.687Z" transform="translate(-222.795 -61.249)"/>
        <path id="Trazado_150847" data-name="Trazado 150847" d="M329.678,120H311.72a2.344,2.344,0,1,0,0,4.687h17.958a2.344,2.344,0,1,0,0-4.687Z" transform="translate(-236.866 -91.874)"/>
        <path id="Trazado_150848" data-name="Trazado 150848" d="M350.35,160H338.72a2.344,2.344,0,1,0,0,4.687h11.63a2.344,2.344,0,1,0,0-4.687Z" transform="translate(-257.538 -122.501)"/>
      </g>
    </g>
  </g>
</svg>
