<svg xmlns="http://www.w3.org/2000/svg" width="120" height="116.667" viewBox="0 0 120 116.667">
  <g id="hoja" transform="translate(0 -2.559)">
    <path id="Trazado_150730" data-name="Trazado 150730" d="M29.97,53.354C21.412,44.615,14.823,6.235,14.823,6.235,37.233,4.248,53.1,13.668,61.658,22.406A22.147,22.147,0,0,1,29.97,53.354Z" transform="translate(-5.173 -1.189)" fill="#7ae582"/>
    <path id="Trazado_150731" data-name="Trazado 150731" d="M44.626,61.027a24.329,24.329,0,0,1-17.434-7.311h0c-8.938-9.13-15.475-46.7-15.748-48.3a2.217,2.217,0,0,1,1.99-2.583C40.14.473,56.328,13.817,62.053,19.665A24.338,24.338,0,0,1,44.626,61.027ZM30.366,50.616a19.991,19.991,0,0,0,28.2.314,19.895,19.895,0,0,0,.314-28.163c-5.11-5.22-19.34-16.91-42.627-15.684,2.213,11.922,7.95,37.237,14.113,43.532Z" transform="translate(-3.982)"/>
    <path id="Trazado_150732" data-name="Trazado 150732" d="M66.376,73.623a2.223,2.223,0,0,1-2.058-1.385,115.891,115.891,0,0,1-4.465-14.919,104.614,104.614,0,0,0-4.29-14.273c-5.445-13.1-23.971-22.79-24.157-22.888a2.217,2.217,0,1,1,2.042-3.936c.82.423,20.156,10.547,26.217,25.122A109.389,109.389,0,0,1,64.16,56.239a112.75,112.75,0,0,0,4.275,14.337,2.213,2.213,0,0,1-1.225,2.885A2.242,2.242,0,0,1,66.376,73.623Z" transform="translate(-10.541 -4.68)"/>
    <path id="Trazado_150733" data-name="Trazado 150733" d="M64.244,64.463a1.984,1.984,0,0,1-.256-.016l-21-2.44a2.216,2.216,0,1,1,.512-4.4L63.086,59.88l5.036-8.261a2.219,2.219,0,0,1,3.794,2.3L66.14,63.4A2.213,2.213,0,0,1,64.244,64.463Z" transform="translate(-14.317 -16.748)"/>
    <path id="Trazado_150734" data-name="Trazado 150734" d="M52.239,36.388h-.05l-13.32-.3a2.217,2.217,0,0,1,.05-4.434h.05l11.624.264,1.7-5.714a2.22,2.22,0,0,1,4.258,1.26L54.367,34.8A2.219,2.219,0,0,1,52.239,36.388Z" transform="translate(-12.806 -7.696)"/>
    <path id="Trazado_150735" data-name="Trazado 150735" d="M60.311,49.588a2.16,2.16,0,0,1-.346-.028L42.9,46.865a2.217,2.217,0,1,1,.695-4.378l15.338,2.423,3.4-8.124a2.22,2.22,0,0,1,4.1,1.71l-4.074,9.731A2.227,2.227,0,0,1,60.311,49.588Z" transform="translate(-14.318 -11.468)"/>
    <path id="Trazado_150736" data-name="Trazado 150736" d="M32.5,119.787a5.888,5.888,0,0,0-2.025,8.105l10.231,17a3.8,3.8,0,0,0,5.214,1.3l6.885-4.131L40.619,121.807A5.906,5.906,0,0,0,32.5,119.787Z" transform="translate(-10.338 -40.611)" fill="#ffdd95"/>
    <path id="Trazado_150737" data-name="Trazado 150737" d="M42.79,147.773a6.1,6.1,0,0,1-1.468-.182,5.994,5.994,0,0,1-3.7-2.737l-10.23-17.006A8.13,8.13,0,0,1,30.171,116.7h0a8.155,8.155,0,0,1,11.165,2.778l13.33,22.157-8.786,5.273A5.96,5.96,0,0,1,42.79,147.773Zm-8.434-27.8a3.671,3.671,0,0,0-1.9.528h0a3.692,3.692,0,0,0-1.264,5.063l10.23,17a1.582,1.582,0,0,0,2.168.539l4.982-2.988L37.528,121.762A3.7,3.7,0,0,0,34.357,119.975Z" transform="translate(-9.153 -39.427)"/>
    <path id="Trazado_150738" data-name="Trazado 150738" d="M100.068,124.432,75.3,124.377s-31.7-17.49-36.428-11.641S51.5,126.942,51.5,126.942l-6.915,4.346-22.743.411-9.973-5.257a5.973,5.973,0,0,0-8.018,2.441l.249-.465a5.916,5.916,0,0,0,2.437,8l14.074,7.562,25.6,3.379s9.808,6.358,52.877-2.023" transform="translate(-1.188 -38.03)" fill="#ebc6a9"/>
    <path id="Trazado_150739" data-name="Trazado 150739" d="M60.779,150.782c-10.48,0-14.971-1.66-16.454-2.4L18.732,145,4.3,137.247A8.149,8.149,0,0,1,.724,126.719l-.016-.009h0l.243-.454s0-.007.007-.011l.016.007a8.182,8.182,0,0,1,10.747-2.895l9.469,4.988,21.553-.392,3.148-1.977c-4.087-2.349-10.1-6.475-11.087-10.863a5.6,5.6,0,0,1,1.158-4.9c5.229-6.482,28.434,5.174,38.728,10.818l24.2.055-.009,4.434-25.335-.059-.5-.275C51.619,113.371,40.454,111.7,39.415,113a1.205,1.205,0,0,0-.282,1.141c.663,2.953,7.5,7.439,12.144,9.679l3.608,1.741-10.827,6.807-23.934.436-10.48-5.522a3.739,3.739,0,0,0-4.891,1.294A3.712,3.712,0,0,0,6.4,133.341l13.717,7.369,25.7,3.392.421.272c.05.025,10.357,5.622,51.243-2.338l.85,4.351C81.093,149.744,69.065,150.782,60.779,150.782Z" transform="translate(0 -36.901)"/>
    <path id="Trazado_150741" data-name="Trazado 150741" d="M0,0H19.968V37.726H0Z" transform="translate(97.812 79.283)" fill="#fb0"/>
    <path id="Trazado_150740" data-name="Trazado 150740" d="M169.018,159.163H149.049a2.217,2.217,0,0,1-2.22-2.217V119.22a2.218,2.218,0,0,1,2.22-2.217h19.969a2.217,2.217,0,0,1,2.22,2.217v37.726A2.217,2.217,0,0,1,169.018,159.163Zm-17.749-4.433H166.8V121.438H151.269Z" transform="translate(-51.237 -39.936)"/>
  </g>
</svg>
