<svg id="estadisticas" xmlns="http://www.w3.org/2000/svg" width="85" height="79.709" viewBox="0 0 85 79.709">
  <path id="Trazado_151172" data-name="Trazado 151172" d="M146.367,12.07V67.694a4.452,4.452,0,0,1-4.453,4.453H79.551A4.452,4.452,0,0,1,75.1,67.694V12.07a4.452,4.452,0,0,1,4.453-4.453h62.363A4.452,4.452,0,0,1,146.367,12.07Zm0,0" transform="translate(-62.63 -6.353)" fill="#f6f6f6"/>
  <path id="Trazado_151173" data-name="Trazado 151173" d="M146.367,12.07v5.32H75.1V12.07a4.452,4.452,0,0,1,4.453-4.453h62.363A4.452,4.452,0,0,1,146.367,12.07Zm0,0" transform="translate(-62.63 -6.353)" fill="#90d1ff"/>
  <path id="Trazado_151174" data-name="Trazado 151174" d="M208.4,128.3a20.217,20.217,0,1,1-20.218-20.216V128.3l15.961-12.41A20.128,20.128,0,0,1,208.4,128.3Zm0,0" transform="translate(-140.08 -90.142)" fill="#70bc2d"/>
  <path id="Trazado_151175" data-name="Trazado 151175" d="M309.962,167.516a20.191,20.191,0,0,1-8.373,16.386l-11.843-16.386,15.959-12.41A20.128,20.128,0,0,1,309.962,167.516Zm0,0" transform="translate(-241.644 -129.356)" fill="#3ca8f4"/>
  <path id="Trazado_151176" data-name="Trazado 151176" d="M332.667,59.54l-15.96,12.368V51.762A20.21,20.21,0,0,1,332.667,59.54Zm0,0" transform="translate(-264.129 -43.168)" fill="#fde947"/>
  <g id="Grupo_89004" data-name="Grupo 89004" transform="translate(1.263 32.095)">
    <path id="Trazado_151177" data-name="Trazado 151177" d="M7.609,245.082h5.825V282.84H7.609Zm0,0" transform="translate(-7.609 -236.49)" fill="#fde947"/>
    <path id="Trazado_151178" data-name="Trazado 151178" d="M75.1,193.328h5.825v46.35H75.1Zm0,0" transform="translate(-63.894 -193.328)" fill="#70bc2d"/>
    <path id="Trazado_151179" data-name="Trazado 151179" d="M145.121,340.984h5.826v21.837h-5.826Zm0,0" transform="translate(-122.292 -316.471)" fill="#3ca8f4"/>
    <path id="Trazado_151180" data-name="Trazado 151180" d="M214.633,280.094h5.826v31.946h-5.826Zm0,0" transform="translate(-180.264 -265.689)" fill="#fde947"/>
  </g>
  <path id="Trazado_151181" data-name="Trazado 151181" d="M105.449,32.33a1.263,1.263,0,1,0-.528,1.574A1.274,1.274,0,0,0,105.449,32.33Zm0,0" transform="translate(-85.919 -26.326)"/>
  <path id="Trazado_151182" data-name="Trazado 151182" d="M157.2,32.333a1.263,1.263,0,1,0-.519,1.569A1.274,1.274,0,0,0,157.2,32.333Zm0,0" transform="translate(-129.081 -26.329)"/>
  <path id="Trazado_151183" data-name="Trazado 151183" d="M131.321,32.248a1.263,1.263,0,1,0-.476,1.541A1.276,1.276,0,0,0,131.321,32.248Zm0,0" transform="translate(-107.494 -26.244)"/>
  <path id="Trazado_151184" data-name="Trazado 151184" d="M135.564,0H73.2a5.723,5.723,0,0,0-5.717,5.717V27.883a1.264,1.264,0,0,0,2.527,0V12.3H107.6V28.74a1.264,1.264,0,0,0,2.038,1l15.96-12.368a1.264,1.264,0,0,0,.222-1.777,21.7,21.7,0,0,0-3.187-3.294h16.126V61.341a3.193,3.193,0,0,1-3.189,3.189H99V58.96a21.5,21.5,0,0,0,26.479-24.854,1.264,1.264,0,1,0-2.482.475,19.122,19.122,0,0,1,.337,3.579,18.921,18.921,0,0,1-6.857,14.58L106.122,38.409l13.967-10.86a18.885,18.885,0,0,1,1.84,3.429,1.264,1.264,0,1,0,2.338-.959,21.487,21.487,0,0,0-2.927-5.045,1.263,1.263,0,0,0-1.772-.221L105.646,35.577V17.944a1.264,1.264,0,0,0-1.263-1.264,21.481,21.481,0,0,0-13.733,38V64.53H87.463V56.609A1.264,1.264,0,0,0,86.2,55.345H80.374a1.264,1.264,0,0,0-1.264,1.264V64.53H75.838V32.1a1.263,1.263,0,0,0-1.263-1.264H68.748A1.263,1.263,0,0,0,67.485,32.1v46.35a1.263,1.263,0,0,0,1.263,1.263h5.826a1.263,1.263,0,0,0,1.263-1.263V67.057H79.11V78.446a1.263,1.263,0,0,0,1.264,1.263H86.2a1.263,1.263,0,0,0,1.264-1.263V67.057H90.65V78.446a1.263,1.263,0,0,0,1.264,1.263h5.825A1.263,1.263,0,0,0,99,78.446V67.057h36.561a5.723,5.723,0,0,0,5.717-5.717V5.717A5.724,5.724,0,0,0,135.564,0ZM70.012,77.182V33.359h3.3V77.182Zm11.625,0V57.873h3.3V77.182ZM85.43,38.16a18.979,18.979,0,0,1,17.689-18.912V38.16a1.259,1.259,0,0,0,.243.739l0,0,11.074,15.321A18.953,18.953,0,0,1,99,56.337V46.5a1.263,1.263,0,0,0-1.264-1.264H91.914A1.263,1.263,0,0,0,90.65,46.5v4.726A18.83,18.83,0,0,1,85.43,38.16Zm7.748,39.021V47.764h3.3V77.182Zm16.946-51.019V9.9a18.838,18.838,0,0,1,12.887,6.278Zm8.731-16.39a21.48,21.48,0,0,0-9.995-2.443A1.264,1.264,0,0,0,107.6,8.593V9.772H70.012V5.717A3.193,3.193,0,0,1,73.2,2.527h62.363a3.193,3.193,0,0,1,3.189,3.189V9.772Zm0,0" transform="translate(-56.281)"/>
  <path id="Trazado_151185" data-name="Trazado 151185" d="M7.089,237.469H1.264A1.264,1.264,0,0,0,0,238.733v37.758a1.263,1.263,0,0,0,1.264,1.263H7.089a1.264,1.264,0,0,0,1.264-1.263V266.279a1.264,1.264,0,0,0-2.528,0v8.948h-3.3V240h3.3v22.07a1.264,1.264,0,1,0,2.528,0V238.733A1.264,1.264,0,0,0,7.089,237.469Zm0,0" transform="translate(0 -198.045)"/>
  <path id="Trazado_151186" data-name="Trazado 151186" d="M404.431,351.887H391.037a1.264,1.264,0,1,0,0,2.528h13.394a1.264,1.264,0,0,0,0-2.528Zm0,0" transform="translate(-325.065 -293.468)"/>
  <path id="Trazado_151187" data-name="Trazado 151187" d="M424.747,319.672H415.4a1.264,1.264,0,0,0,0,2.527h9.351a1.264,1.264,0,0,0,0-2.527Zm0,0" transform="translate(-345.38 -266.601)"/>
</svg>
