<svg xmlns="http://www.w3.org/2000/svg" width="100" height="100" viewBox="0 0 100 100">
  <g id="Grupo_96863" data-name="Grupo 96863" transform="translate(-566 -4241)">
    <g id="Grupo_89086" data-name="Grupo 89086" transform="translate(0.285 75.197)">
      <path id="Rectángulo_34471" data-name="Rectángulo 34471" d="M50,0h0a50,50,0,0,1,50,50v0a50,50,0,0,1-50,50h0A50,50,0,0,1,0,50v0A50,50,0,0,1,50,0Z" transform="translate(565.715 4265.803) rotate(-90)" fill="#3ca8f4"/>
      <path id="Trazado_151041" data-name="Trazado 151041" d="M40.358,0A40.358,40.358,0,1,1,0,40.358,40.358,40.358,0,0,1,40.358,0Z" transform="translate(575.383 4175.977)" fill="#fff"/>
    </g>
    <g id="sombrero-de-policia" transform="translate(565.182 4160.473)">
      <path id="Trazado_151383" data-name="Trazado 151383" d="M78.969,120.855,55.835,114.01l-22.913,6.845L21.91,137.8l10.848,7.015.084.025,46.132.063,11.006-7.127Z" transform="translate(-5.126 -5.128)" fill="#55b2f4"/>
      <path id="Trazado_151385" data-name="Trazado 151385" d="M223.88,155.133l-3.293,3.209.778,4.532-4.07-2.14-4.07,2.14.778-4.532-3.293-3.209,4.551-.662,2.034-4.122,2.034,4.122Z" transform="translate(-166.475 -36.185)" fill="#fb0"/>
      <path id="Trazado_151386" data-name="Trazado 151386" d="M142.646,265.108l1.595,5.179-8.436-1.979a62.758,62.758,0,0,0-28.675,0l-8.551,2.005,1.509-5.205,8-1.876a58.147,58.147,0,0,1,26.567,0Z" transform="translate(-70.649 -131.341)" fill="#fb0"/>
      <path id="Trazado_151387" data-name="Trazado 151387" d="M134.379,300.232l1.58,5.131-12.79,3.617a43.618,43.618,0,0,1-23.832-.025l-12.6-3.593,1.506-5.194.215-.74,8.551-2.005a62.757,62.757,0,0,1,28.675,0l8.436,1.979Z" transform="translate(-60.53 -160.457)" fill="#3c9aef"/>
      <g id="Grupo_89090" data-name="Grupo 89090" transform="translate(15.912 108.009)">
        <path id="Trazado_151390" data-name="Trazado 151390" d="M201.064,313.189a63.678,63.678,0,0,0-16.362.212.872.872,0,0,0,.122,1.736.9.9,0,0,0,.125-.009,61.939,61.939,0,0,1,15.914-.206.872.872,0,1,0,.2-1.733Z" transform="translate(-159.519 -282.991)"/>
        <path id="Trazado_151391" data-name="Trazado 151391" d="M148.958,321.371c-.634.128-1.274.268-1.9.416a.872.872,0,1,0,.4,1.7c.611-.143,1.234-.28,1.85-.4a.872.872,0,0,0-.346-1.71Z" transform="translate(-127.412 -290.334)"/>
        <path id="Trazado_151392" data-name="Trazado 151392" d="M218.876,149.14l-4.1-.6-1.832-3.712a.872.872,0,0,0-1.565,0l-1.832,3.712-4.1.6a.872.872,0,0,0-.484,1.488l2.964,2.889-.7,4.079a.872.872,0,0,0,1.265.92l3.664-1.926,3.664,1.926a.872.872,0,0,0,1.266-.92l-.7-4.079,2.964-2.889a.872.872,0,0,0-.484-1.488Zm-4.027,3.448a.872.872,0,0,0-.251.772l.478,2.789-2.5-1.317a.872.872,0,0,0-.812,0l-2.5,1.317.478-2.789a.872.872,0,0,0-.251-.772l-2.027-1.975,2.8-.407a.872.872,0,0,0,.657-.477l1.252-2.537,1.252,2.538a.872.872,0,0,0,.657.477l2.8.407Z" transform="translate(-177.259 -139.064)"/>
        <path id="Trazado_151393" data-name="Trazado 151393" d="M85.586,132.173,74.574,115.251a.872.872,0,0,0-.484-.361l-23.134-6.845a.872.872,0,0,0-.5,0l-22.913,6.846a.873.873,0,0,0-.482.361L16.053,132.2a.872.872,0,0,0,.258,1.208l10.38,6.711-1.319,4.546a.872.872,0,0,0,.6,1.082l12.6,3.592a44.462,44.462,0,0,0,24.308.026l12.79-3.618a.872.872,0,0,0,.6-1.1l-1.387-4.5,10.452-6.768a.872.872,0,0,0,.257-1.208ZM62.4,147.685a42.719,42.719,0,0,1-23.355-.025l-11.755-3.352,1.335-4.6,8.055-1.89a62.225,62.225,0,0,1,28.277,0l7.949,1.865,1.426,4.629Zm11.941-9.269-1.511-4.905a.872.872,0,0,0-.635-.592l-8-1.876a59.377,59.377,0,0,0-24.454-.53.87.87,0,0,0-.706.857h0a.871.871,0,0,0,1.032.856,57.625,57.625,0,0,1,23.728.514l7.508,1.761,1,3.247-6.956-1.632a63.977,63.977,0,0,0-29.074,0l-7.1,1.665.952-3.283,4.161-.976a.872.872,0,0,0-.4-1.7l-4.658,1.093a.872.872,0,0,0-.639.606L27.2,138.368l-9.206-5.952,10.361-15.944,22.358-6.679,22.577,6.68,10.36,15.919Z" transform="translate(-15.912 -108.009)"/>
      </g>
    </g>
  </g>
</svg>
