<svg xmlns="http://www.w3.org/2000/svg" width="150" height="150" viewBox="0 0 150 150">
  <g id="Grupo_96861" data-name="Grupo 96861" transform="translate(-724.668 -3214)">
    <circle id="Elipse_4556" data-name="Elipse 4556" cx="75" cy="75" r="75" transform="translate(724.668 3214)" fill="#fff"/>
    <g id="Grupo_89066" data-name="Grupo 89066">
      <g id="uml" transform="translate(731.242 3238.857)">
        <g id="Grupo_89063" data-name="Grupo 89063" transform="translate(46.08 1.959)">
          <path id="Trazado_151304" data-name="Trazado 151304" d="M378.641,342h19.587v19.587H378.641Z" transform="translate(-331.773 -276.972)" fill="#55b2f4"/>
          <path id="Trazado_151307" data-name="Trazado 151307" d="M9.793,0A9.793,9.793,0,1,1,0,9.793,9.793,9.793,0,0,1,9.793,0Z" transform="translate(13.711 37.113)" fill="#ffd152"/>
          <path id="Trazado_151305" data-name="Trazado 151305" d="M210.432,382h-13.57l-6.785,11.752,6.785,11.752h13.57l6.785-11.752Z" transform="translate(-180.143 -309.137)" fill="#fb0"/>
        </g>
        <g id="Grupo_89064" data-name="Grupo 89064" transform="translate(23.359)">
          <circle id="Elipse_4580" data-name="Elipse 4580" cx="1.949" cy="1.949" r="1.949" transform="translate(44.288 0.258)"/>
          <path id="Trazado_151306" data-name="Trazado 151306" d="M112.534,65.028H104.7V48.865a1.959,1.959,0,0,0-1.959-1.959H81.169a11.778,11.778,0,0,0-9.627-9.627V27.421C94.169,27.421,78.4,0,78.4,0a1.959,1.959,0,1,0,0,3.917H60.77A1.959,1.959,0,0,0,60.77,0C45,0,44.121.877,44.121,11.752h-18.8a1.959,1.959,0,0,0-1.959,1.959V86.573a1.959,1.959,0,0,0,1.959,1.959H41.2l-1.2,1.1A1.959,1.959,0,1,0,42.65,92.52l4.9-4.5a1.959,1.959,0,0,0,0-2.883l-4.9-4.5A1.959,1.959,0,0,0,40,83.51l1.2,1.1H27.276V15.669H44.121c0,5.459,12.236,11.752,23.5,11.752v9.858a11.75,11.75,0,0,0,0,23.171V72.863H62.8a1.959,1.959,0,0,0-1.7.979L54.317,85.594a1.959,1.959,0,0,0,0,1.959L61.1,99.3a1.959,1.959,0,0,0,1.7.979h13.57a1.959,1.959,0,0,0,1.7-.979L84.85,87.553a1.959,1.959,0,0,0,0-1.959L78.065,73.842a1.959,1.959,0,0,0-1.7-.979H71.542V60.45a11.778,11.778,0,0,0,9.627-9.627h19.612v14.2H92.947a1.959,1.959,0,0,0-1.959,1.959V86.573a1.959,1.959,0,0,0,1.959,1.959h19.587a1.959,1.959,0,0,0,1.959-1.959V66.987a1.959,1.959,0,0,0-1.959-1.959ZM80.892,86.573l-5.654,9.793H63.93l-5.654-9.793L63.93,76.78H75.238ZM69.584,56.7a7.835,7.835,0,1,1,7.835-7.835A7.844,7.844,0,0,1,69.584,56.7Zm40.992,27.915H94.906V68.945h15.669Z" transform="translate(-23.359)"/>
        </g>
      </g>
      <g id="Grupo_89065" data-name="Grupo 89065" transform="translate(3904.938 4727.082) rotate(131)">
        <path id="Trazado_150730" data-name="Trazado 150730" d="M28.145,47.645C20.618,39.959,14.823,6.2,14.823,6.2c19.71-1.748,33.665,6.537,41.192,14.223a19.478,19.478,0,0,1-27.87,27.219Z" transform="translate(883.239 3280.985)" fill="#7ae582"/>
        <path id="Trazado_150731" data-name="Trazado 150731" d="M40.624,53.982a21.4,21.4,0,0,1-15.334-6.43h0C17.429,39.523,11.68,6.479,11.439,5.076A1.95,1.95,0,0,1,13.19,2.8C36.678.724,50.916,12.46,55.951,17.6A21.405,21.405,0,0,1,40.624,53.982ZM28.082,44.826a17.582,17.582,0,0,0,24.8.277,17.5,17.5,0,0,0,.277-24.77C48.666,15.741,36.151,5.46,15.669,6.539c1.946,10.486,6.992,32.75,12.413,38.287Z" transform="translate(884.698 3282.441)"/>
        <path id="Trazado_150732" data-name="Trazado 150732" d="M62.019,66.676a1.955,1.955,0,0,1-1.81-1.218,101.927,101.927,0,0,1-3.927-13.121,92.01,92.01,0,0,0-3.773-12.554C47.719,28.264,31.425,19.74,31.262,19.653a1.95,1.95,0,1,1,1.8-3.461c.721.372,17.727,9.277,23.058,22.1a96.209,96.209,0,0,1,3.953,13.1A99.164,99.164,0,0,0,63.829,64a1.947,1.947,0,0,1-1.077,2.538A1.972,1.972,0,0,1,62.019,66.676Z" transform="translate(876.664 3276.709)"/>
        <path id="Trazado_150733" data-name="Trazado 150733" d="M61.446,62.787a1.745,1.745,0,0,1-.225-.014L42.755,60.627a1.949,1.949,0,1,1,.451-3.872l17.223,2,4.429-7.266a1.952,1.952,0,0,1,3.337,2.026L63.114,61.85A1.946,1.946,0,0,1,61.446,62.787Z" transform="translate(872.04 3261.928)"/>
        <path id="Trazado_150734" data-name="Trazado 150734" d="M50.366,34.969h-.044L38.607,34.7a1.95,1.95,0,0,1,.044-3.9H38.7l10.224.232L50.41,26.01a1.953,1.953,0,0,1,3.745,1.109l-1.916,6.455A1.952,1.952,0,0,1,50.366,34.969Z" transform="translate(873.89 3273.016)"/>
        <path id="Trazado_150735" data-name="Trazado 150735" d="M57.988,47.881a1.9,1.9,0,0,1-.3-.025L42.678,45.486a1.949,1.949,0,1,1,.611-3.851l13.49,2.131,2.991-7.145a1.953,1.953,0,0,1,3.6,1.5l-3.583,8.559A1.959,1.959,0,0,1,57.988,47.881Z" transform="translate(872.038 3268.395)"/>
      </g>
    </g>
  </g>
</svg>
