<svg xmlns="http://www.w3.org/2000/svg" width="400" height="295" viewBox="0 0 400 295">
  <g id="Grupo_96858" data-name="Grupo 96858" transform="translate(-599.668 -3753)">
    <path id="Trazado_155919" data-name="Trazado 155919" d="M20,0H380a20,20,0,0,1,20,20V275a20,20,0,0,1-20,20H20A20,20,0,0,1,0,275V20A20,20,0,0,1,20,0Z" transform="translate(599.668 3753)" fill="#a6daff"/>
    <path id="Trazado_155924" data-name="Trazado 155924" d="M19.366,21V6.781h4.375a6.644,6.644,0,0,1,3.354.845,5.89,5.89,0,0,1,2.31,2.4,7.41,7.41,0,0,1,.83,3.54v.654a7.431,7.431,0,0,1-.815,3.525,5.84,5.84,0,0,1-2.3,2.393,6.694,6.694,0,0,1-3.35.859ZM22.3,9.154v9.492h1.416a3.181,3.181,0,0,0,2.627-1.123,5.075,5.075,0,0,0,.928-3.213v-.752a5.156,5.156,0,0,0-.9-3.286,3.171,3.171,0,0,0-2.627-1.118ZM37.042,21.2a5.187,5.187,0,0,1-3.784-1.426,5.068,5.068,0,0,1-1.46-3.8V15.7a6.383,6.383,0,0,1,.615-2.847,4.515,4.515,0,0,1,1.743-1.934,4.893,4.893,0,0,1,2.573-.679,4.385,4.385,0,0,1,3.413,1.367,5.555,5.555,0,0,1,1.245,3.877v1.152H34.659a2.622,2.622,0,0,0,.825,1.66,2.5,2.5,0,0,0,1.743.625,3.046,3.046,0,0,0,2.549-1.182l1.387,1.553a4.237,4.237,0,0,1-1.719,1.4A5.639,5.639,0,0,1,37.042,21.2Zm-.322-8.672a1.767,1.767,0,0,0-1.362.566,2.926,2.926,0,0,0-.669,1.621h3.926v-.225a2.086,2.086,0,0,0-.508-1.45A1.824,1.824,0,0,0,36.72,12.523Zm15.791,3.291a6.4,6.4,0,0,1-1.084,3.96A3.591,3.591,0,0,1,48.4,21.2a3.3,3.3,0,0,1-2.744-1.318L45.528,21H42.989V6h2.822v5.381a3.214,3.214,0,0,1,2.568-1.143,3.62,3.62,0,0,1,3.032,1.421,6.408,6.408,0,0,1,1.1,4Zm-2.822-.205a4.2,4.2,0,0,0-.508-2.339,1.717,1.717,0,0,0-1.514-.737,1.862,1.862,0,0,0-1.855,1.1v4.17a1.887,1.887,0,0,0,1.875,1.113,1.742,1.742,0,0,0,1.8-1.348A6.952,6.952,0,0,0,49.688,15.609ZM60.372,21a3.134,3.134,0,0,1-.283-.947A3.415,3.415,0,0,1,57.423,21.2a3.752,3.752,0,0,1-2.573-.9,2.89,2.89,0,0,1-1.021-2.266,2.986,2.986,0,0,1,1.245-2.578,6.144,6.144,0,0,1,3.6-.908h1.3v-.605a1.741,1.741,0,0,0-.376-1.172,1.479,1.479,0,0,0-1.187-.439,1.682,1.682,0,0,0-1.118.342,1.161,1.161,0,0,0-.405.938H54.063a2.835,2.835,0,0,1,.566-1.7,3.744,3.744,0,0,1,1.6-1.226,5.837,5.837,0,0,1,2.324-.444,4.611,4.611,0,0,1,3.1.981A3.433,3.433,0,0,1,62.8,13.979v4.58a5.052,5.052,0,0,0,.42,2.275V21Zm-2.334-1.963a2.431,2.431,0,0,0,1.152-.278,1.828,1.828,0,0,0,.781-.747V16.2H58.917q-2.119,0-2.256,1.465l-.01.166a1.13,1.13,0,0,0,.371.869A1.441,1.441,0,0,0,58.038,19.037Zm10.313-11.2v2.6h1.807V12.5H68.351v5.273a1.259,1.259,0,0,0,.225.84,1.128,1.128,0,0,0,.859.254,4.5,4.5,0,0,0,.83-.068v2.139a5.81,5.81,0,0,1-1.709.254q-2.969,0-3.027-3V12.5H63.985v-2.07h1.543v-2.6ZM76.593,21.2a5.187,5.187,0,0,1-3.784-1.426,5.068,5.068,0,0,1-1.46-3.8V15.7a6.383,6.383,0,0,1,.615-2.847,4.515,4.515,0,0,1,1.743-1.934,4.893,4.893,0,0,1,2.573-.679,4.385,4.385,0,0,1,3.413,1.367,5.555,5.555,0,0,1,1.245,3.877v1.152H74.21a2.622,2.622,0,0,0,.825,1.66,2.5,2.5,0,0,0,1.743.625,3.046,3.046,0,0,0,2.549-1.182l1.387,1.553A4.237,4.237,0,0,1,79,20.692,5.639,5.639,0,0,1,76.593,21.2Zm-.322-8.672a1.767,1.767,0,0,0-1.362.566,2.926,2.926,0,0,0-.669,1.621h3.926v-.225a2.086,2.086,0,0,0-.508-1.45A1.824,1.824,0,0,0,76.271,12.523Zm10.811,3.1a6.266,6.266,0,0,1,.605-2.8,4.432,4.432,0,0,1,1.743-1.9,5.086,5.086,0,0,1,2.642-.674,4.812,4.812,0,0,1,3.491,1.309A5.252,5.252,0,0,1,97.071,15.1l.02.723a5.523,5.523,0,0,1-1.357,3.9,5.261,5.261,0,0,1-7.29,0,5.62,5.62,0,0,1-1.362-3.984Zm2.822.205a3.939,3.939,0,0,0,.566,2.3,2.037,2.037,0,0,0,3.223.01,4.31,4.31,0,0,0,.576-2.515,3.9,3.9,0,0,0-.576-2.285,1.874,1.874,0,0,0-1.621-.811,1.843,1.843,0,0,0-1.6.806A4.383,4.383,0,0,0,89.9,15.824Zm13.467-.186a6.368,6.368,0,0,1,1.108-3.936,3.6,3.6,0,0,1,3.032-1.465,3.236,3.236,0,0,1,2.549,1.152V6h2.832V21h-2.549l-.137-1.123a3.321,3.321,0,0,1-2.715,1.318,3.587,3.587,0,0,1-2.993-1.47A6.573,6.573,0,0,1,103.37,15.639Zm2.822.205a4.16,4.16,0,0,0,.518,2.275,1.687,1.687,0,0,0,1.5.791,1.889,1.889,0,0,0,1.846-1.1v-4.17a1.862,1.862,0,0,0-1.826-1.1Q106.192,12.533,106.192,15.844ZM118.058,21h-2.832V10.434h2.832Zm-3-13.3a1.39,1.39,0,0,1,.425-1.045,1.831,1.831,0,0,1,2.31,0,1.382,1.382,0,0,1,.43,1.045,1.386,1.386,0,0,1-.435,1.055,1.81,1.81,0,0,1-2.295,0A1.386,1.386,0,0,1,115.06,7.7ZM126.1,18.08a.909.909,0,0,0-.513-.815,5.824,5.824,0,0,0-1.646-.532q-3.77-.791-3.77-3.2a2.9,2.9,0,0,1,1.167-2.349,4.707,4.707,0,0,1,3.052-.942,5.067,5.067,0,0,1,3.218.947,2.985,2.985,0,0,1,1.206,2.461H126a1.366,1.366,0,0,0-.391-1,1.653,1.653,0,0,0-1.221-.4,1.689,1.689,0,0,0-1.1.322,1.017,1.017,0,0,0-.391.82.87.87,0,0,0,.444.757,4.571,4.571,0,0,0,1.5.5,12.244,12.244,0,0,1,1.777.474,2.92,2.92,0,0,1,2.236,2.842,2.756,2.756,0,0,1-1.24,2.339,5.35,5.35,0,0,1-3.2.894,5.588,5.588,0,0,1-2.358-.474,3.957,3.957,0,0,1-1.616-1.3,3.018,3.018,0,0,1-.586-1.782h2.676a1.473,1.473,0,0,0,.557,1.152,2.208,2.208,0,0,0,1.387.4,2.044,2.044,0,0,0,1.226-.308A.957.957,0,0,0,126.1,18.08Zm8.955.84a1.851,1.851,0,0,0,1.27-.43,1.506,1.506,0,0,0,.508-1.143h2.646a3.62,3.62,0,0,1-.586,1.968A3.866,3.866,0,0,1,137.32,20.7a4.936,4.936,0,0,1-2.212.493,4.587,4.587,0,0,1-3.574-1.44,5.7,5.7,0,0,1-1.309-3.979V15.59a5.635,5.635,0,0,1,1.3-3.9,4.534,4.534,0,0,1,3.564-1.455,4.444,4.444,0,0,1,3.179,1.128,3.994,3.994,0,0,1,1.216,3h-2.646a1.923,1.923,0,0,0-.508-1.333,1.892,1.892,0,0,0-2.778.205,4.155,4.155,0,0,0-.5,2.329v.293a4.207,4.207,0,0,0,.5,2.344A1.722,1.722,0,0,0,135.06,18.92Zm12.363,1.006a3.539,3.539,0,0,1-2.891,1.27,3.338,3.338,0,0,1-2.593-.977,4.169,4.169,0,0,1-.913-2.861V10.434h2.822V17.26q0,1.65,1.5,1.65a2.038,2.038,0,0,0,1.973-1v-7.48h2.832V21H147.5Zm10.586-1.846a.909.909,0,0,0-.513-.815,5.824,5.824,0,0,0-1.646-.532q-3.77-.791-3.77-3.2a2.9,2.9,0,0,1,1.167-2.349,4.707,4.707,0,0,1,3.052-.942,5.067,5.067,0,0,1,3.218.947,2.985,2.985,0,0,1,1.206,2.461H157.9a1.366,1.366,0,0,0-.391-1,1.653,1.653,0,0,0-1.221-.4,1.689,1.689,0,0,0-1.1.322,1.017,1.017,0,0,0-.391.82.87.87,0,0,0,.444.757,4.571,4.571,0,0,0,1.5.5,12.244,12.244,0,0,1,1.777.474,2.92,2.92,0,0,1,2.236,2.842,2.756,2.756,0,0,1-1.24,2.339,5.35,5.35,0,0,1-3.2.894,5.588,5.588,0,0,1-2.358-.474,3.957,3.957,0,0,1-1.616-1.3,3.018,3.018,0,0,1-.586-1.782h2.676a1.473,1.473,0,0,0,.557,1.152,2.208,2.208,0,0,0,1.387.4,2.044,2.044,0,0,0,1.226-.308A.957.957,0,0,0,158.009,18.08ZM165.548,21h-2.832V10.434h2.832Zm-3-13.3a1.39,1.39,0,0,1,.425-1.045,1.831,1.831,0,0,1,2.31,0,1.382,1.382,0,0,1,.43,1.045,1.386,1.386,0,0,1-.435,1.055,1.81,1.81,0,0,1-2.295,0A1.386,1.386,0,0,1,162.55,7.7Zm4.883,7.92a6.267,6.267,0,0,1,.605-2.8,4.432,4.432,0,0,1,1.743-1.9,5.086,5.086,0,0,1,2.642-.674,4.812,4.812,0,0,1,3.491,1.309,5.252,5.252,0,0,1,1.509,3.555l.02.723a5.523,5.523,0,0,1-1.357,3.9,5.261,5.261,0,0,1-7.29,0,5.62,5.62,0,0,1-1.362-3.984Zm2.822.205a3.939,3.939,0,0,0,.566,2.3,2.037,2.037,0,0,0,3.223.01,4.31,4.31,0,0,0,.576-2.515,3.9,3.9,0,0,0-.576-2.285,1.874,1.874,0,0,0-1.621-.811,1.843,1.843,0,0,0-1.6.806A4.383,4.383,0,0,0,170.255,15.824ZM172.979,6h3.076l-2.705,3.027h-2.295Zm8.8,4.434.088,1.221a3.689,3.689,0,0,1,3.037-1.416,3.066,3.066,0,0,1,2.5.986,4.6,4.6,0,0,1,.84,2.949V21h-2.822V14.242a1.831,1.831,0,0,0-.391-1.3,1.749,1.749,0,0,0-1.3-.405,1.942,1.942,0,0,0-1.787,1.016V21h-2.822V10.434Zm13.174,5.205a6.193,6.193,0,0,1,1.157-3.916,3.75,3.75,0,0,1,3.12-1.484,3.289,3.289,0,0,1,2.705,1.191l.117-1h2.559V20.648a4.516,4.516,0,0,1-.63,2.412,4.045,4.045,0,0,1-1.772,1.563,6.231,6.231,0,0,1-2.676.537,5.794,5.794,0,0,1-2.266-.464,4.021,4.021,0,0,1-1.67-1.2l1.25-1.719a3.306,3.306,0,0,0,2.559,1.182,2.42,2.42,0,0,0,1.748-.6,2.253,2.253,0,0,0,.625-1.7v-.566a3.264,3.264,0,0,1-2.568,1.1,3.74,3.74,0,0,1-3.081-1.489,6.191,6.191,0,0,1-1.177-3.95Zm2.822.205a3.846,3.846,0,0,0,.576,2.251,1.834,1.834,0,0,0,1.582.815,1.961,1.961,0,0,0,1.846-.967V13.5a1.956,1.956,0,0,0-1.826-.967,1.845,1.845,0,0,0-1.6.83A4.334,4.334,0,0,0,197.774,15.844Zm15.332,4.082a3.539,3.539,0,0,1-2.891,1.27,3.338,3.338,0,0,1-2.593-.977,4.169,4.169,0,0,1-.913-2.861V10.434h2.822V17.26q0,1.65,1.5,1.65a2.038,2.038,0,0,0,1.973-1v-7.48h2.832V21h-2.656ZM220.948,21h-2.832V10.434h2.832Zm-3-13.3a1.39,1.39,0,0,1,.425-1.045,1.831,1.831,0,0,1,2.31,0,1.382,1.382,0,0,1,.43,1.045,1.386,1.386,0,0,1-.435,1.055,1.81,1.81,0,0,1-2.295,0A1.386,1.386,0,0,1,217.95,7.7ZM229.4,21a3.134,3.134,0,0,1-.283-.947,3.415,3.415,0,0,1-2.666,1.143,3.752,3.752,0,0,1-2.573-.9,2.889,2.889,0,0,1-1.021-2.266,2.986,2.986,0,0,1,1.245-2.578,6.144,6.144,0,0,1,3.6-.908H229v-.605a1.741,1.741,0,0,0-.376-1.172,1.479,1.479,0,0,0-1.187-.439,1.682,1.682,0,0,0-1.118.342,1.161,1.161,0,0,0-.405.938h-2.822a2.835,2.835,0,0,1,.566-1.7,3.744,3.744,0,0,1,1.6-1.226,5.837,5.837,0,0,1,2.324-.444,4.611,4.611,0,0,1,3.1.981,3.433,3.433,0,0,1,1.147,2.759v4.58a5.052,5.052,0,0,0,.42,2.275V21Zm-2.334-1.963a2.431,2.431,0,0,0,1.152-.278,1.828,1.828,0,0,0,.781-.747V16.2H227.94q-2.119,0-2.256,1.465l-.01.166a1.13,1.13,0,0,0,.371.869A1.441,1.441,0,0,0,227.062,19.037Zm6.494-3.4a6.368,6.368,0,0,1,1.108-3.936,3.6,3.6,0,0,1,3.032-1.465,3.236,3.236,0,0,1,2.549,1.152V6h2.832V21h-2.549l-.137-1.123a3.321,3.321,0,0,1-2.715,1.318,3.587,3.587,0,0,1-2.993-1.47A6.573,6.573,0,0,1,233.556,15.639Zm2.822.205a4.16,4.16,0,0,0,.518,2.275,1.687,1.687,0,0,0,1.5.791,1.889,1.889,0,0,0,1.846-1.1v-4.17a1.862,1.862,0,0,0-1.826-1.1Q236.378,12.533,236.378,15.844ZM251.388,21a3.134,3.134,0,0,1-.283-.947,3.415,3.415,0,0,1-2.666,1.143,3.752,3.752,0,0,1-2.573-.9,2.889,2.889,0,0,1-1.021-2.266,2.986,2.986,0,0,1,1.245-2.578,6.144,6.144,0,0,1,3.6-.908h1.3v-.605a1.741,1.741,0,0,0-.376-1.172,1.479,1.479,0,0,0-1.187-.439,1.682,1.682,0,0,0-1.118.342,1.161,1.161,0,0,0-.405.938h-2.822a2.835,2.835,0,0,1,.566-1.7,3.744,3.744,0,0,1,1.6-1.226,5.837,5.837,0,0,1,2.324-.444,4.611,4.611,0,0,1,3.1.981,3.433,3.433,0,0,1,1.147,2.759v4.58a5.052,5.052,0,0,0,.42,2.275V21Zm-2.334-1.963a2.431,2.431,0,0,0,1.152-.278,1.828,1.828,0,0,0,.781-.747V16.2h-1.055q-2.119,0-2.256,1.465l-.01.166a1.13,1.13,0,0,0,.371.869A1.441,1.441,0,0,0,249.054,19.037Z" transform="translate(663.668 3960)" fill="#12263f"/>
    <g id="XMLID_1142_" transform="translate(739.668 3818)">
      <path id="XMLID_1160_" d="M0,0H57.656V11.25H0Z" transform="translate(2.344 48.75)" fill="#fb0"/>
      <path id="XMLID_1159_" d="M0,0H43.125V57.656H0Z" transform="translate(9.814 60)" fill="#6dcc74"/>
      <path id="XMLID_1179_" d="M0,0H57.656V11.25H0Z" transform="translate(60 48.75)" fill="#fb0"/>
      <path id="XMLID_1171_" d="M0,0H43.125V57.656H0Z" transform="translate(67.47 60)" fill="#6dcc74"/>
      <g id="XMLID_1253_" transform="translate(63.968 2.344)">
        <path id="XMLID_1265_" d="M302.854,130.952H311.8A10.852,10.852,0,0,1,322.65,141.8v7.279H272.929V141.8a10.852,10.852,0,0,1,10.853-10.853h8.944" transform="translate(-272.929 -102.604)" fill="#fb0"/>
        <rect id="XMLID_1022_" width="9.756" height="20.781" transform="translate(20.169 25.698)" fill="#fff"/>
        <path id="XMLID_1260_" d="M351.15,76.036h-.764a8.261,8.261,0,0,1-8.261-8.261V61.11h17.285v6.666A8.261,8.261,0,0,1,351.15,76.036Z" transform="translate(-325.908 -49.131)" fill="#fccd9d"/>
        <path id="XMLID_1255_" d="M362.526,10H348.753a6.626,6.626,0,0,0-6.626,6.626v5.353H358.08a4.446,4.446,0,0,0,4.446-4.446V10Z" transform="translate(-325.909 -10)" fill="#3ca8f4"/>
      </g>
      <g id="XMLID_1479_" transform="translate(6.705 2.344)">
        <path id="XMLID_1511_" d="M56.648,137.081l13.112,2.691a6.806,6.806,0,0,1,5.438,6.667v7.336H28.607v-7.336a6.806,6.806,0,0,1,5.438-6.667l13.112-2.691" transform="translate(-28.607 -107.296)" fill="#a6ffac"/>
        <path id="XMLID_1504_" d="M117.487,137.081l-4.638,16.695-4.638-16.695Z" transform="translate(-89.554 -107.296)" fill="#72d8ff"/>
        <rect id="XMLID_973_" width="9.276" height="16.695" transform="translate(18.657 29.785)" fill="#fff"/>
        <path id="XMLID_1499_" d="M83.387,39.785h2.688a6.732,6.732,0,0,0,6.732-6.732V25.526A15.527,15.527,0,0,0,77.28,10h0A15.526,15.526,0,0,0,61.754,25.526v7.526a6.732,6.732,0,0,0,6.732,6.732h14.9Z" transform="translate(-53.985 -10)" fill="#091946"/>
        <path id="XMLID_1485_" d="M102.114,85.622h-1.138a7.529,7.529,0,0,1-7.53-7.53V71.635h16.2v6.457A7.529,7.529,0,0,1,102.114,85.622Z" transform="translate(-78.25 -57.189)" fill="#fccd9d"/>
      </g>
      <g id="XMLID_1374_">
        <path id="XMLID_1519_" d="M117.656,46.406h-1.624V41.544a13.211,13.211,0,0,0-13.2-13.2H96.615a10.951,10.951,0,0,0,3.2-7.742V15.581a6.789,6.789,0,0,0,3.114-5.7V2.344A2.344,2.344,0,0,0,100.585,0H86.812a8.98,8.98,0,0,0-8.97,8.97V20.607a10.95,10.95,0,0,0,3.2,7.742H74.82a13.211,13.211,0,0,0-13.2,13.2v4.862H55.639v-4.92a9.183,9.183,0,0,0-7.311-8.963l-3.181-.653A9.048,9.048,0,0,0,47.87,25.4V17.87a17.87,17.87,0,1,0-35.74,0V25.4a9.049,9.049,0,0,0,2.723,6.474l-3.181.653a9.183,9.183,0,0,0-7.311,8.963v4.92H2.344A2.344,2.344,0,0,0,0,48.75V60a2.344,2.344,0,0,0,2.344,2.344H7.47v55.313A2.344,2.344,0,0,0,9.814,120H52.939a2.344,2.344,0,0,0,2.344-2.344V62.344h9.844v55.313A2.344,2.344,0,0,0,67.47,120H110.6a2.344,2.344,0,0,0,2.344-2.344V98.2a2.344,2.344,0,0,0-4.687,0v17.109H69.814V62.344h38.438V79.453a2.344,2.344,0,0,0,4.688,0V62.344h4.717A2.344,2.344,0,0,0,120,60V48.75A2.344,2.344,0,0,0,117.656,46.406Zm-6.312-4.862v4.862H95.863V33.036h6.972A8.518,8.518,0,0,1,111.345,41.544ZM95.127,20.606a6.3,6.3,0,1,1-12.6,0v-3.94h12.6v3.94ZM86.48,31.337a10.928,10.928,0,0,0,4.7,0V46.406h-4.7V31.337ZM82.53,8.97a4.287,4.287,0,0,1,4.282-4.282H98.241v5.19a2.1,2.1,0,0,1-2.1,2.1H82.53V8.97ZM66.312,41.544a8.518,8.518,0,0,1,8.509-8.509h6.972V46.406H66.312Zm-15.36-.058v4.92H36.982V34.98l10.4,2.135A4.479,4.479,0,0,1,50.952,41.486Zm-15.2-18.809a5.755,5.755,0,1,1-11.509,0V19.133H35.754v3.545ZM27.6,32.838a10.367,10.367,0,0,0,4.7.025V46.406H27.6V32.838ZM16.817,17.87a13.183,13.183,0,1,1,26.365,0V25.4a4.393,4.393,0,0,1-4.388,4.389H37.641a10.4,10.4,0,0,0,2.8-7.107V16.789A2.344,2.344,0,0,0,38.1,14.446H21.9a2.344,2.344,0,0,0-2.344,2.344v5.888a10.4,10.4,0,0,0,2.8,7.107H21.206A4.393,4.393,0,0,1,16.817,25.4V17.87ZM9.048,41.486a4.478,4.478,0,0,1,3.566-4.372L22.911,35v11.4H9.048ZM4.688,51.094H57.656v6.563H4.688ZM50.6,115.313H12.158V71.731H28.564a2.344,2.344,0,0,0,0-4.687H12.158v-4.7H50.6Zm64.717-57.656H62.344V51.094h52.969Z"/>
        <path id="XMLID_1596_" d="M154.214,290.74a2.345,2.345,0,1,0-1.657-.687A2.36,2.36,0,0,0,154.214,290.74Z" transform="translate(-116.275 -219.009)"/>
        <path id="XMLID_1597_" d="M464.214,369a2.345,2.345,0,1,0,1.657.687A2.351,2.351,0,0,0,464.214,369Z" transform="translate(-353.619 -282.517)"/>
      </g>
    </g>
  </g>
</svg>
