<svg xmlns="http://www.w3.org/2000/svg" width="84.509" height="84.509" viewBox="0 0 84.509 84.509">
  <g id="formacion" transform="translate(-1 -1)">
    <g id="Grupo_88979" data-name="Grupo 88979" transform="translate(2.363 2.363)">
      <g id="Grupo_88953" data-name="Grupo 88953" transform="translate(27.261 70.878)">
        <path id="Trazado_151107" data-name="Trazado 151107" d="M49.261,64.9H22A10.9,10.9,0,0,1,32.9,54h5.452A10.9,10.9,0,0,1,49.261,64.9Z" transform="translate(-22 -54)" fill="#fde947"/>
      </g>
      <g id="Grupo_88954" data-name="Grupo 88954" transform="translate(0 70.878)">
        <path id="Trazado_151108" data-name="Trazado 151108" d="M29.261,64.9H2A10.89,10.89,0,0,1,12.9,54h5.452A10.9,10.9,0,0,1,29.261,64.9Z" transform="translate(-2 -54)" fill="#3ca8f4"/>
      </g>
      <g id="Grupo_88955" data-name="Grupo 88955" transform="translate(54.522 70.933)">
        <path id="Trazado_151109" data-name="Trazado 151109" d="M51.541,55.349a4.089,4.089,0,0,0,8.178,0,3.692,3.692,0,0,0-.218-1.295l.014-.014a10.917,10.917,0,0,1,9.746,10.85H42a10.917,10.917,0,0,1,9.746-10.85l.014.014A3.691,3.691,0,0,0,51.541,55.349Z" transform="translate(-42 -54.04)" fill="#0f2771"/>
      </g>
      <g id="Grupo_88956" data-name="Grupo 88956" transform="translate(64.063 70.101)">
        <path id="Trazado_151110" data-name="Trazado 151110" d="M57.178,55.57a4.089,4.089,0,0,1-8.178,0,4.163,4.163,0,0,1,.613-2.14,8.163,8.163,0,0,0,6.952,0,4.163,4.163,0,0,1,.613,2.14Z" transform="translate(-49 -53.43)" fill="#f0d0b4"/>
      </g>
      <g id="Grupo_88957" data-name="Grupo 88957" transform="translate(59.974 54.522)">
        <path id="Trazado_151111" data-name="Trazado 151111" d="M62.357,48.815v1.363a8.176,8.176,0,0,1-4.7,7.4,8.163,8.163,0,0,1-6.952,0,8.176,8.176,0,0,1-4.7-7.4V48.815A6.818,6.818,0,0,1,52.815,42h2.726A6.818,6.818,0,0,1,62.357,48.815Z" transform="translate(-46 -42)" fill="#636363"/>
      </g>
      <g id="Grupo_88958" data-name="Grupo 88958" transform="translate(32.713 54.522)">
        <path id="Trazado_151112" data-name="Trazado 151112" d="M42.357,48.815v1.363a8.178,8.178,0,0,1-16.357,0V48.815A6.818,6.818,0,0,1,32.815,42h2.726A6.818,6.818,0,0,1,42.357,48.815Z" transform="translate(-26 -42)" fill="#0f2771"/>
      </g>
      <g id="Grupo_88959" data-name="Grupo 88959" transform="translate(49.07 0)">
        <path id="Trazado_151113" data-name="Trazado 151113" d="M48.9,11.541l-1.322.327a5.479,5.479,0,0,0-4.13,5.125H42.089a4.007,4.007,0,0,0-2.712,1.05l-.014-.014s-.341-.941-.682-2.222A17.764,17.764,0,0,1,38,11.541a5.243,5.243,0,0,1,3.966-5.084l1.486-.368A9.2,9.2,0,0,1,51.1,2h3.612a10.564,10.564,0,0,1,10.55,10.55,10.269,10.269,0,0,1-.545,3.339l-.736,2.222a4.1,4.1,0,0,0-2.808-1.118H59.809a2.734,2.734,0,0,0-2.726-2.726H51.63A2.746,2.746,0,0,1,48.9,11.541Z" transform="translate(-38 -2)" fill="#091946"/>
      </g>
      <g id="Grupo_88960" data-name="Grupo 88960" transform="translate(5.452 54.522)">
        <path id="Trazado_151114" data-name="Trazado 151114" d="M22.357,47.452v2.726A8.178,8.178,0,0,1,6,50.178V43.363A1.367,1.367,0,0,1,7.363,42H16.9A5.451,5.451,0,0,1,22.357,47.452Z" transform="translate(-6 -42)" fill="#cbba34"/>
      </g>
      <g id="Grupo_88961" data-name="Grupo 88961" transform="translate(43.617 34.826)">
        <path id="Trazado_151115" data-name="Trazado 151115" d="M46.54,33.4l3.817,8.4H34V37.35a9.562,9.562,0,0,1,7.674-9.364l2.208-.436Z" transform="translate(-34 -27.55)" fill="#3ca8f4"/>
      </g>
      <g id="Grupo_88962" data-name="Grupo 88962" transform="translate(65.426 34.826)">
        <path id="Trazado_151116" data-name="Trazado 151116" d="M66.357,37.35v4.444H50l3.817-8.4,2.658-5.847,2.208.436a9.559,9.559,0,0,1,7.674,9.364Z" transform="translate(-50 -27.55)" fill="#3ca8f4"/>
      </g>
      <g id="Grupo_88963" data-name="Grupo 88963" transform="translate(59.974 40.891)">
        <path id="Trazado_151117" data-name="Trazado 151117" d="M50.089,32l1.363,8.178H46L47.363,32Z" transform="translate(-46 -32)" fill="#70bc2d"/>
      </g>
      <g id="Grupo_88964" data-name="Grupo 88964" transform="translate(60.192 35.439)">
        <path id="Trazado_151118" data-name="Trazado 151118" d="M51.176,30l-1.145,3.449H47.3L46.16,30l2.508-2Z" transform="translate(-46.16 -28)" fill="#70bc2d"/>
      </g>
      <g id="Grupo_88965" data-name="Grupo 88965" transform="translate(56.157 37.443)">
        <path id="Trazado_151119" data-name="Trazado 151119" d="M48.38,32.919,47.017,41.1,43.2,32.7l4.035-3.23Z" transform="translate(-43.2 -29.47)" fill="#fff"/>
      </g>
      <g id="Grupo_88966" data-name="Grupo 88966" transform="translate(64.063 37.443)">
        <path id="Trazado_151120" data-name="Trazado 151120" d="M50.145,29.47,54.18,32.7l-3.817,8.4L49,32.919Z" transform="translate(-49 -29.47)" fill="#fff"/>
      </g>
      <g id="Grupo_88967" data-name="Grupo 88967" transform="translate(53.5 32.727)">
        <path id="Trazado_151121" data-name="Trazado 151121" d="M45.012,26.01l5.439,2.712-2.508,2-4.035,3.23L41.25,28.109l1.077-.218a4.1,4.1,0,0,0,2.685-1.881Z" transform="translate(-41.25 -26.01)" fill="#fff"/>
      </g>
      <g id="Grupo_88968" data-name="Grupo 88968" transform="translate(62.7 32.727)">
        <path id="Trazado_151122" data-name="Trazado 151122" d="M48,28.722l5.439-2.712a4.1,4.1,0,0,0,2.685,1.881l1.077.218-2.658,5.847-4.035-3.23Z" transform="translate(-48 -26.01)" fill="#fff"/>
      </g>
      <g id="Grupo_88969" data-name="Grupo 88969" transform="translate(35.439 38.165)">
        <path id="Trazado_151123" data-name="Trazado 151123" d="M38.7,30a9.486,9.486,0,0,0-2.522,6.461V40.9H30.726L28,30Z" transform="translate(-28 -30)" fill="#cbba34"/>
      </g>
      <g id="Grupo_88970" data-name="Grupo 88970" transform="translate(13.63 38.165)">
        <path id="Trazado_151124" data-name="Trazado 151124" d="M21.541,30,18.815,40.9H12L14.726,30Z" transform="translate(-12 -30)" fill="#cbba34"/>
      </g>
      <g id="Grupo_88971" data-name="Grupo 88971" transform="translate(2.726 5.452)">
        <path id="Trazado_151125" data-name="Trazado 151125" d="M56.259,23.72a8.161,8.161,0,0,0,1.936,3.053,7.485,7.485,0,0,0,1.649,1.268l-.014.014-.777,3.9a4,4,0,0,1-.518,1.322,4.1,4.1,0,0,1-2.685,1.881l-1.077.218-2.208.436a9.519,9.519,0,0,0-5.152,2.9H4V6H52.306a5.259,5.259,0,0,0-1.963,4.089,17.764,17.764,0,0,0,.682,4.266c.341,1.281.682,2.222.682,2.222l.014.014a4,4,0,0,0-1.377,3.04,4.1,4.1,0,0,0,4.089,4.089Z" transform="translate(-4 -6)" fill="#e6e9ed"/>
      </g>
      <g id="Grupo_88972" data-name="Grupo 88972" transform="translate(29.987 13.63)">
        <path id="Trazado_151126" data-name="Trazado 151126" d="M37.63,12V22.9h-10.9V17.452H24V12Z" transform="translate(-24 -12)" fill="#fde947"/>
      </g>
      <g id="Grupo_88973" data-name="Grupo 88973" transform="translate(16.357 19.083)">
        <path id="Trazado_151127" data-name="Trazado 151127" d="M30.357,21.452V29.63H14V21.452h5.452V16h10.9Z" transform="translate(-14 -16)" fill="#3ca8f4"/>
      </g>
      <g id="Grupo_88974" data-name="Grupo 88974" transform="translate(8.178 10.904)">
        <path id="Trazado_151128" data-name="Trazado 151128" d="M21.63,18.178V23.63H8V10H21.63Z" transform="translate(-8 -10)" fill="#8ad24a"/>
      </g>
      <g id="Grupo_88975" data-name="Grupo 88975" transform="translate(57.262 27.493)">
        <path id="Trazado_151129" data-name="Trazado 151129" d="M54.887,27.4l-5.439,2.712L44.01,27.4a4,4,0,0,0,.518-1.322l.777-3.9.014-.014a8.1,8.1,0,0,0,8.26,0l.014.014.777,3.9a4,4,0,0,0,.518,1.322Z" transform="translate(-44.01 -22.17)" fill="#f0d0b4"/>
      </g>
      <g id="Grupo_88976" data-name="Grupo 88976" transform="translate(70.415 14.993)">
        <path id="Trazado_151130" data-name="Trazado 151130" d="M58.376,19.979a4.079,4.079,0,0,1-2.89,1.2H53.66a8.236,8.236,0,0,0,.463-2.726V13h1.363a4.087,4.087,0,0,1,2.89,6.979Z" transform="translate(-53.66 -13)" fill="#f0d0b4"/>
      </g>
      <g id="Grupo_88977" data-name="Grupo 88977" transform="translate(54.522 9.541)">
        <path id="Trazado_151131" data-name="Trazado 151131" d="M58.357,14.452V19.9a8.119,8.119,0,0,1-4.048,7.047,8.1,8.1,0,0,1-8.26,0A7.485,7.485,0,0,1,44.4,25.684,8.1,8.1,0,0,1,42,19.9V14.452a5.479,5.479,0,0,1,4.13-5.125L47.452,9a2.746,2.746,0,0,0,2.726,2.726H55.63A2.734,2.734,0,0,1,58.357,14.452Z" transform="translate(-42 -9)" fill="#f0d0b4"/>
      </g>
      <g id="Grupo_88978" data-name="Grupo 88978" transform="translate(49.07 14.993)">
        <path id="Trazado_151132" data-name="Trazado 151132" d="M43.452,18.452a8.237,8.237,0,0,0,.463,2.726H42.089A4.1,4.1,0,0,1,38,17.089,4.127,4.127,0,0,1,42.089,13h1.363v5.452Z" transform="translate(-38 -13)" fill="#f0d0b4"/>
      </g>
    </g>
    <g id="Grupo_88980" data-name="Grupo 88980" transform="translate(1 1)">
      <path id="Trazado_151133" data-name="Trazado 151133" d="M76.743,36.3l-3.288-.657A2.719,2.719,0,0,1,71.317,33.5l-.6-3.019A9.6,9.6,0,0,0,73.671,26.9H74.6a5.458,5.458,0,0,0,5.452-5.452,5.392,5.392,0,0,0-1.111-3.262l.5-1.5A11.919,11.919,0,0,0,68.138,1H64.525a10.523,10.523,0,0,0-8.462,4.253l-.994.249a6.563,6.563,0,0,0-2.109.95H3.726V41.891H16.974L14.929,50.07H1V52.8H85.509V46.986A10.932,10.932,0,0,0,76.743,36.3Zm-40.005,5.6,2.045,8.178H24.555L26.6,41.891Zm2.811,0H45.9a10.838,10.838,0,0,0-1.281,5.1V50.07H41.593Zm7.8,5.1a8.2,8.2,0,0,1,6.574-8.019l1.152-.23L60.22,50.07H47.344ZM60.012,36.8l2.537,1.268-3.511,2.809L57.8,38.146A5.422,5.422,0,0,0,60.012,36.8Zm5.432,5.091h-.761l-.537-1.61.917-.733.917.733ZM62.3,43.365,61.728,46.8,60.2,43.438,61.878,42.1Zm2.554,1.253h.417l.909,5.452H63.945Zm2.971-1.253.423-1.268,1.677,1.341L68.4,46.8Zm4.5-5.218-1.242,2.732-3.511-2.809L70.115,36.8a5.452,5.452,0,0,0,2.216,1.345Zm-3.687-4.114c.027.136.074.266.11.4l-3.691,1.847-3.692-1.846c.037-.132.083-.262.11-.4l.446-2.224a9.371,9.371,0,0,0,6.273,0Zm3.235-11.225a6.815,6.815,0,0,1-13.63,0V17.524a4.085,4.085,0,0,1,3.078-3.962,4.093,4.093,0,0,0,3.737,2.432h5.452a1.364,1.364,0,0,1,1.363,1.363ZM74.6,24.172H74.5a9.576,9.576,0,0,0,.109-1.363V18.72a2.726,2.726,0,0,1,0,5.452ZM55.73,8.145l2-.5.292-.438a7.807,7.807,0,0,1,6.507-3.483h3.613a9.192,9.192,0,0,1,8.721,12.1l-.194.579a5.433,5.433,0,0,0-2.061-.41h-.251a4.084,4.084,0,0,0-3.838-2.726H65.063a1.363,1.363,0,1,1,0-2.726h1.363V7.815H65.063A4.1,4.1,0,0,0,61.125,10.8l-.442.11a6.79,6.79,0,0,0-4.967,5.081h-.195a5.418,5.418,0,0,0-1.938.372A17.832,17.832,0,0,1,52.8,11.9,3.87,3.87,0,0,1,55.73,8.145ZM55.522,18.72v4.089a9.576,9.576,0,0,0,.109,1.363h-.109a2.726,2.726,0,1,1,0-5.452ZM6.452,9.178H50.68A6.561,6.561,0,0,0,50.07,11.9a22.785,22.785,0,0,0,1.187,6.187,5.4,5.4,0,0,0-1.187,3.354A5.458,5.458,0,0,0,55.522,26.9h.934a9.6,9.6,0,0,0,2.958,3.582l-.6,3.019a2.721,2.721,0,0,1-2.139,2.139l-3.288.657a10.853,10.853,0,0,0-5.434,2.869H6.452ZM19.784,41.891h4L21.744,50.07h-4Zm63,8.178H69.906l5.151-11.332,1.152.23a8.2,8.2,0,0,1,6.574,8.019Z" transform="translate(-1 -1)"/>
      <path id="Trazado_151134" data-name="Trazado 151134" d="M45.165,11.726H28.809v5.452H23.357V9H7V25.357h8.178v8.178H34.261V25.357h10.9Zm-35.439,0h10.9v10.9H9.726ZM31.535,30.809H17.9V25.357h5.452V19.9h8.178Zm10.9-8.178H34.261V17.178H31.535V14.452h10.9Z" transform="translate(1.178 1.904)"/>
      <path id="Trazado_151135" data-name="Trazado 151135" d="M76.634,57.836a9.572,9.572,0,0,0,3.423-7.3V49.178A8.187,8.187,0,0,0,71.878,41H69.152a8.187,8.187,0,0,0-8.178,8.178v1.363a9.573,9.573,0,0,0,3.421,7.3,12.215,12.215,0,0,0-7.52,6.175,12.314,12.314,0,0,0-7.5-6.165,9.522,9.522,0,0,0,3.416-7.3V49.178A8.186,8.186,0,0,0,44.617,41H41.891a8.186,8.186,0,0,0-8.178,8.178v1.363a9.522,9.522,0,0,0,3.416,7.3,12.308,12.308,0,0,0-7.5,6.175,12.324,12.324,0,0,0-7.5-6.183,9.521,9.521,0,0,0,3.406-7.3V47.815A6.823,6.823,0,0,0,18.72,41H9.178a2.729,2.729,0,0,0-2.726,2.726v6.815a9.522,9.522,0,0,0,3.416,7.3A12.281,12.281,0,0,0,1,69.624v1.363H85.509V69.624A12.231,12.231,0,0,0,76.634,57.836Zm-3.393,2.246a2.726,2.726,0,0,1-5.452,0,2.685,2.685,0,0,1,.053-.394,9.265,9.265,0,0,0,5.346,0A2.685,2.685,0,0,1,73.241,60.083ZM63.7,50.541V49.178a5.458,5.458,0,0,1,5.452-5.452h2.726a5.458,5.458,0,0,1,5.452,5.452v1.363a6.815,6.815,0,0,1-13.63,0Zm-27.261,0V49.178a5.458,5.458,0,0,1,5.452-5.452h2.726a5.458,5.458,0,0,1,5.452,5.452v1.363a6.815,6.815,0,1,1-13.63,0Zm4.089,9.541H45.98a9.549,9.549,0,0,1,9.432,8.178H31.1a9.549,9.549,0,0,1,9.432-8.178ZM9.178,50.541V43.726H18.72a4.094,4.094,0,0,1,4.089,4.089v2.726a6.815,6.815,0,0,1-13.63,0ZM3.823,68.261a9.556,9.556,0,0,1,9.445-8.178H18.72a9.556,9.556,0,0,1,9.445,8.178Zm54.531,0A9.5,9.5,0,0,1,65.1,60.467a5.425,5.425,0,0,0,10.827,0,9.509,9.509,0,0,1,6.758,7.791Z" transform="translate(-1 13.522)"/>
    </g>
  </g>
</svg>
