<svg xmlns="http://www.w3.org/2000/svg" width="400" height="295" viewBox="0 0 400 295">
  <g id="Grupo_96856" data-name="Grupo 96856" transform="translate(-1019.668 -3434)">
    <path id="Trazado_155916" data-name="Trazado 155916" d="M20,0H380a20,20,0,0,1,20,20V275a20,20,0,0,1-20,20H20A20,20,0,0,1,0,275V20A20,20,0,0,1,20,0Z" transform="translate(1019.668 3434)" fill="#7ae582"/>
    <path id="Trazado_155921" data-name="Trazado 155921" d="M19.719,21V6.781h4.375a6.644,6.644,0,0,1,3.354.845,5.89,5.89,0,0,1,2.31,2.4,7.41,7.41,0,0,1,.83,3.54v.654a7.431,7.431,0,0,1-.815,3.525,5.84,5.84,0,0,1-2.3,2.393,6.694,6.694,0,0,1-3.35.859Zm2.93-11.846v9.492h1.416a3.181,3.181,0,0,0,2.627-1.123,5.075,5.075,0,0,0,.928-3.213v-.752a5.156,5.156,0,0,0-.9-3.286,3.171,3.171,0,0,0-2.627-1.118ZM35.51,21H32.678V10.434H35.51Zm-3-13.3a1.39,1.39,0,0,1,.425-1.045,1.831,1.831,0,0,1,2.31,0,1.382,1.382,0,0,1,.43,1.045,1.386,1.386,0,0,1-.435,1.055,1.81,1.81,0,0,1-2.295,0A1.386,1.386,0,0,1,32.512,7.7ZM43.957,21a3.134,3.134,0,0,1-.283-.947A3.415,3.415,0,0,1,41.008,21.2a3.752,3.752,0,0,1-2.573-.9,2.89,2.89,0,0,1-1.021-2.266,2.986,2.986,0,0,1,1.245-2.578,6.144,6.144,0,0,1,3.6-.908h1.3v-.605a1.741,1.741,0,0,0-.376-1.172,1.479,1.479,0,0,0-1.187-.439,1.682,1.682,0,0,0-1.118.342,1.161,1.161,0,0,0-.405.938H37.648a2.835,2.835,0,0,1,.566-1.7,3.744,3.744,0,0,1,1.6-1.226,5.837,5.837,0,0,1,2.324-.444,4.611,4.611,0,0,1,3.1.981,3.433,3.433,0,0,1,1.147,2.759v4.58a5.052,5.052,0,0,0,.42,2.275V21Zm-2.334-1.963a2.431,2.431,0,0,0,1.152-.278,1.828,1.828,0,0,0,.781-.747V16.2H42.5q-2.119,0-2.256,1.465l-.01.166a1.13,1.13,0,0,0,.371.869A1.441,1.441,0,0,0,41.623,19.037ZM42.7,6h3.076L43.068,9.027H40.773Zm8.838,15H48.7V6h2.832Zm1.885-5.381a6.267,6.267,0,0,1,.605-2.8,4.432,4.432,0,0,1,1.743-1.9,5.086,5.086,0,0,1,2.642-.674A4.812,4.812,0,0,1,61.9,11.547,5.252,5.252,0,0,1,63.41,15.1l.02.723a5.523,5.523,0,0,1-1.357,3.9,5.261,5.261,0,0,1-7.29,0,5.62,5.62,0,0,1-1.362-3.984Zm2.822.205a3.939,3.939,0,0,0,.566,2.3,2.037,2.037,0,0,0,3.223.01,4.31,4.31,0,0,0,.576-2.515,3.9,3.9,0,0,0-.576-2.285,1.874,1.874,0,0,0-1.621-.811,1.843,1.843,0,0,0-1.6.806A4.383,4.383,0,0,0,56.242,15.824Zm8.516-.186a6.193,6.193,0,0,1,1.157-3.916,3.75,3.75,0,0,1,3.12-1.484A3.289,3.289,0,0,1,71.74,11.43l.117-1h2.559V20.648a4.516,4.516,0,0,1-.63,2.412,4.045,4.045,0,0,1-1.772,1.563,6.231,6.231,0,0,1-2.676.537,5.794,5.794,0,0,1-2.266-.464,4.021,4.021,0,0,1-1.67-1.2l1.25-1.719a3.306,3.306,0,0,0,2.559,1.182,2.42,2.42,0,0,0,1.748-.6,2.253,2.253,0,0,0,.625-1.7v-.566a3.264,3.264,0,0,1-2.568,1.1,3.74,3.74,0,0,1-3.081-1.489,6.191,6.191,0,0,1-1.177-3.95Zm2.822.205a3.845,3.845,0,0,0,.576,2.251,1.834,1.834,0,0,0,1.582.815,1.961,1.961,0,0,0,1.846-.967V13.5a1.956,1.956,0,0,0-1.826-.967,1.845,1.845,0,0,0-1.6.83A4.334,4.334,0,0,0,67.58,15.844Zm8.564-.225a6.266,6.266,0,0,1,.605-2.8,4.432,4.432,0,0,1,1.743-1.9,5.086,5.086,0,0,1,2.642-.674,4.812,4.812,0,0,1,3.491,1.309A5.252,5.252,0,0,1,86.135,15.1l.02.723a5.523,5.523,0,0,1-1.357,3.9,5.261,5.261,0,0,1-7.29,0,5.62,5.62,0,0,1-1.362-3.984Zm2.822.205a3.939,3.939,0,0,0,.566,2.3,2.037,2.037,0,0,0,3.223.01,4.31,4.31,0,0,0,.576-2.515,3.9,3.9,0,0,0-.576-2.285,1.874,1.874,0,0,0-1.621-.811,1.843,1.843,0,0,0-1.6.806A4.383,4.383,0,0,0,78.967,15.824ZM93.615,18.08a.909.909,0,0,0-.513-.815,5.824,5.824,0,0,0-1.646-.532q-3.77-.791-3.77-3.2a2.9,2.9,0,0,1,1.167-2.349,4.707,4.707,0,0,1,3.052-.942,5.067,5.067,0,0,1,3.218.947,2.985,2.985,0,0,1,1.206,2.461H93.508a1.366,1.366,0,0,0-.391-1,1.653,1.653,0,0,0-1.221-.4,1.689,1.689,0,0,0-1.1.322,1.017,1.017,0,0,0-.391.82.87.87,0,0,0,.444.757,4.571,4.571,0,0,0,1.5.5,12.244,12.244,0,0,1,1.777.474,2.92,2.92,0,0,1,2.236,2.842,2.756,2.756,0,0,1-1.24,2.339,5.35,5.35,0,0,1-3.2.894,5.588,5.588,0,0,1-2.358-.474,3.957,3.957,0,0,1-1.616-1.3,3.018,3.018,0,0,1-.586-1.782h2.676a1.473,1.473,0,0,0,.557,1.152,2.208,2.208,0,0,0,1.387.4,2.044,2.044,0,0,0,1.226-.308A.957.957,0,0,0,93.615,18.08Zm15.264,0a.909.909,0,0,0-.513-.815,5.824,5.824,0,0,0-1.646-.532q-3.77-.791-3.77-3.2a2.9,2.9,0,0,1,1.167-2.349,4.707,4.707,0,0,1,3.052-.942,5.067,5.067,0,0,1,3.218.947,2.985,2.985,0,0,1,1.206,2.461h-2.822a1.366,1.366,0,0,0-.391-1,1.653,1.653,0,0,0-1.221-.4,1.689,1.689,0,0,0-1.1.322,1.017,1.017,0,0,0-.391.82.87.87,0,0,0,.444.757,4.571,4.571,0,0,0,1.5.5,12.244,12.244,0,0,1,1.777.474,2.92,2.92,0,0,1,2.236,2.842,2.756,2.756,0,0,1-1.24,2.339,5.35,5.35,0,0,1-3.2.894,5.588,5.588,0,0,1-2.358-.474,3.957,3.957,0,0,1-1.616-1.3,3.018,3.018,0,0,1-.586-1.782h2.676a1.473,1.473,0,0,0,.557,1.152,2.208,2.208,0,0,0,1.387.4,2.044,2.044,0,0,0,1.226-.308A.957.957,0,0,0,108.879,18.08ZM116.418,21h-2.832V10.434h2.832Zm-3-13.3a1.39,1.39,0,0,1,.425-1.045,1.831,1.831,0,0,1,2.31,0,1.382,1.382,0,0,1,.43,1.045,1.386,1.386,0,0,1-.435,1.055,1.81,1.81,0,0,1-2.295,0A1.386,1.386,0,0,1,113.42,7.7Zm7.969,2.734.088,1.182a3.713,3.713,0,0,1,3.037-1.377,2.818,2.818,0,0,1,2.8,1.611,3.628,3.628,0,0,1,3.174-1.611,3.152,3.152,0,0,1,2.559,1,4.6,4.6,0,0,1,.84,3.013V21h-2.832V14.262a2.012,2.012,0,0,0-.352-1.313,1.558,1.558,0,0,0-1.24-.415,1.761,1.761,0,0,0-1.758,1.211l.01,7.256h-2.822V14.271a1.988,1.988,0,0,0-.361-1.328,1.573,1.573,0,0,0-1.23-.41,1.829,1.829,0,0,0-1.738,1V21h-2.822V10.434Zm21,9.492a3.539,3.539,0,0,1-2.891,1.27,3.338,3.338,0,0,1-2.593-.977,4.169,4.169,0,0,1-.913-2.861V10.434h2.822V17.26q0,1.65,1.5,1.65a2.038,2.038,0,0,0,1.973-1v-7.48h2.832V21h-2.656ZM150.227,21h-2.832V6h2.832Zm5.7-13.164v2.6h1.807V12.5H155.93v5.273a1.259,1.259,0,0,0,.225.84,1.128,1.128,0,0,0,.859.254,4.5,4.5,0,0,0,.83-.068v2.139a5.81,5.81,0,0,1-1.709.254q-2.969,0-3.027-3V12.5h-1.543v-2.07h1.543v-2.6ZM165.432,21a3.134,3.134,0,0,1-.283-.947,3.415,3.415,0,0,1-2.666,1.143,3.752,3.752,0,0,1-2.573-.9,2.889,2.889,0,0,1-1.021-2.266,2.986,2.986,0,0,1,1.245-2.578,6.144,6.144,0,0,1,3.6-.908h1.3v-.605a1.741,1.741,0,0,0-.376-1.172,1.479,1.479,0,0,0-1.187-.439,1.682,1.682,0,0,0-1.118.342,1.161,1.161,0,0,0-.405.938h-2.822a2.835,2.835,0,0,1,.566-1.7,3.744,3.744,0,0,1,1.6-1.226,5.837,5.837,0,0,1,2.324-.444,4.611,4.611,0,0,1,3.1.981,3.433,3.433,0,0,1,1.147,2.759v4.58a5.052,5.052,0,0,0,.42,2.275V21ZM163.1,19.037a2.431,2.431,0,0,0,1.152-.278,1.828,1.828,0,0,0,.781-.747V16.2h-1.055q-2.119,0-2.256,1.465l-.01.166a1.13,1.13,0,0,0,.371.869A1.441,1.441,0,0,0,163.1,19.037ZM164.172,6h3.076l-2.705,3.027h-2.295Zm8.457,4.434.088,1.221a3.689,3.689,0,0,1,3.037-1.416,3.066,3.066,0,0,1,2.5.986,4.6,4.6,0,0,1,.84,2.949V21h-2.822V14.242a1.831,1.831,0,0,0-.391-1.3,1.749,1.749,0,0,0-1.3-.405,1.942,1.942,0,0,0-1.787,1.016V21h-2.822V10.434ZM186.1,21.2a5.187,5.187,0,0,1-3.784-1.426,5.068,5.068,0,0,1-1.46-3.8V15.7a6.383,6.383,0,0,1,.615-2.847,4.515,4.515,0,0,1,1.743-1.934,4.893,4.893,0,0,1,2.573-.679,4.385,4.385,0,0,1,3.413,1.367,5.555,5.555,0,0,1,1.245,3.877v1.152h-6.729a2.622,2.622,0,0,0,.825,1.66,2.5,2.5,0,0,0,1.743.625,3.046,3.046,0,0,0,2.549-1.182l1.387,1.553a4.237,4.237,0,0,1-1.719,1.4A5.639,5.639,0,0,1,186.1,21.2Zm-.322-8.672a1.767,1.767,0,0,0-1.362.566,2.926,2.926,0,0,0-.669,1.621h3.926v-.225a2.086,2.086,0,0,0-.508-1.45A1.824,1.824,0,0,0,185.773,12.523Zm5.83,3.1a6.267,6.267,0,0,1,.605-2.8,4.432,4.432,0,0,1,1.743-1.9,5.086,5.086,0,0,1,2.642-.674,4.812,4.812,0,0,1,3.491,1.309,5.252,5.252,0,0,1,1.509,3.555l.02.723a5.523,5.523,0,0,1-1.357,3.9,5.261,5.261,0,0,1-7.29,0,5.62,5.62,0,0,1-1.362-3.984Zm2.822.205a3.939,3.939,0,0,0,.566,2.3,2.037,2.037,0,0,0,3.223.01,4.31,4.31,0,0,0,.576-2.515,3.9,3.9,0,0,0-.576-2.285,1.874,1.874,0,0,0-1.621-.811,1.843,1.843,0,0,0-1.6.806A4.383,4.383,0,0,0,194.426,15.824Zm14.648,2.256a.909.909,0,0,0-.513-.815,5.824,5.824,0,0,0-1.646-.532q-3.77-.791-3.77-3.2a2.9,2.9,0,0,1,1.167-2.349,4.707,4.707,0,0,1,3.052-.942,5.067,5.067,0,0,1,3.218.947,2.985,2.985,0,0,1,1.206,2.461h-2.822a1.366,1.366,0,0,0-.391-1,1.653,1.653,0,0,0-1.221-.4,1.689,1.689,0,0,0-1.1.322,1.017,1.017,0,0,0-.391.82.87.87,0,0,0,.444.757,4.571,4.571,0,0,0,1.5.5,12.244,12.244,0,0,1,1.777.474,2.92,2.92,0,0,1,2.236,2.842,2.756,2.756,0,0,1-1.24,2.339,5.35,5.35,0,0,1-3.2.894,5.588,5.588,0,0,1-2.358-.474,3.957,3.957,0,0,1-1.616-1.3,3.018,3.018,0,0,1-.586-1.782h2.676a1.473,1.473,0,0,0,.557,1.152,2.208,2.208,0,0,0,1.387.4,2.044,2.044,0,0,0,1.226-.308A.957.957,0,0,0,209.074,18.08Z" transform="translate(1104.668 3641)" fill="#12263f"/>
    <g id="grupo-2" transform="translate(1159.668 3474.998)">
      <g id="Grupo_88881" data-name="Grupo 88881" transform="translate(2.344 28.345)">
        <path id="Trazado_150925" data-name="Trazado 150925" d="M115.189,77.72h7.78a2.352,2.352,0,0,0,2.344-2.344V38.345A2.356,2.356,0,0,0,122.969,36H12.344A2.353,2.353,0,0,0,10,38.345V75.377a2.351,2.351,0,0,0,2.344,2.344h7.78l4,4a2.351,2.351,0,0,0,3.315,0l4-4H48.038l4,4a2.351,2.351,0,0,0,3.315,0l4-4H75.953l4,4a2.351,2.351,0,0,0,3.315,0l4-4h16.592l4,4a2.351,2.351,0,0,0,3.315,0Z" transform="translate(-10 -36.001)" fill="#ffda73" fill-rule="evenodd"/>
        <path id="Trazado_150926" data-name="Trazado 150926" d="M389.8,390.869a8.987,8.987,0,0,1-13.412,0,15.835,15.835,0,0,0-9.079,14.279v5.674h31.569v-5.674A15.834,15.834,0,0,0,389.8,390.869Z" transform="translate(-283.563 -307.697)" fill="#3ca8f4" fill-rule="evenodd"/>
        <path id="Trazado_150927" data-name="Trazado 150927" d="M56.9,316.5a9.02,9.02,0,1,0-18.039,0v4.51a9.02,9.02,0,0,0,18.039,0Z" transform="translate(-32.099 -243.849)" fill="#ffdcd5" fill-rule="evenodd"/>
        <path id="Trazado_150928" data-name="Trazado 150928" d="M32.491,390.869a8.987,8.987,0,0,1-13.412,0A15.835,15.835,0,0,0,10,405.148v5.674H41.569v-5.674A15.834,15.834,0,0,0,32.491,390.869Z" transform="translate(-10 -307.697)" fill="#7ae582" fill-rule="evenodd"/>
        <path id="Trazado_150929" data-name="Trazado 150929" d="M176.005,316.5a9.02,9.02,0,1,0-18.039,0v4.51a9.02,9.02,0,0,0,18.039,0Z" transform="translate(-123.287 -243.849)" fill="#ffdcd5" fill-rule="evenodd"/>
        <path id="Trazado_150930" data-name="Trazado 150930" d="M151.593,390.869a8.987,8.987,0,0,1-13.412,0,15.835,15.835,0,0,0-9.079,14.279v5.674h31.569v-5.674A15.834,15.834,0,0,0,151.593,390.869Z" transform="translate(-101.188 -307.697)" fill="#fb0" fill-rule="evenodd"/>
        <path id="Trazado_150931" data-name="Trazado 150931" d="M295.106,316.5a9.02,9.02,0,1,0-18.039,0v4.51a9.02,9.02,0,0,0,18.04,0V316.5Z" transform="translate(-214.474 -243.849)" fill="#ffdcd5" fill-rule="evenodd"/>
        <path id="Trazado_150932" data-name="Trazado 150932" d="M270.695,390.869a8.987,8.987,0,0,1-13.412,0,15.835,15.835,0,0,0-9.079,14.279v5.674h31.569v-5.674a15.835,15.835,0,0,0-9.078-14.279Z" transform="translate(-192.375 -307.697)" fill="#29b39d" fill-rule="evenodd"/>
        <path id="Trazado_150933" data-name="Trazado 150933" d="M414.209,316.5a9.02,9.02,0,1,0-18.039,0v4.51a9.02,9.02,0,0,0,18.039,0Z" transform="translate(-305.662 -243.849)" fill="#ffdcd5" fill-rule="evenodd"/>
      </g>
      <g id="Grupo_88882" data-name="Grupo 88882" transform="translate(0 26.001)">
        <path id="Trazado_150934" data-name="Trazado 150934" d="M111.949,318.592a11.29,11.29,0,0,0,1.286-5.242v-4.51a11.364,11.364,0,0,0-22.727,0v4.51a11.29,11.29,0,0,0,1.288,5.245,18.185,18.185,0,0,0-3.869,3.5,18.215,18.215,0,0,0-3.892-3.5,11.29,11.29,0,0,0,1.286-5.242v-4.51a11.363,11.363,0,0,0-22.727,0v4.51a11.289,11.289,0,0,0,1.286,5.242,18.2,18.2,0,0,0-3.892,3.5,18.141,18.141,0,0,0-3.87-3.494,11.289,11.289,0,0,0,1.288-5.245v-4.51a11.364,11.364,0,0,0-22.727,0v4.51a11.29,11.29,0,0,0,1.286,5.242,18.2,18.2,0,0,0-3.89,3.5,18.136,18.136,0,0,0-3.871-3.493,11.29,11.29,0,0,0,1.287-5.244v-4.51a11.363,11.363,0,0,0-22.727,0v4.51a11.29,11.29,0,0,0,1.286,5.242A18.025,18.025,0,0,0,0,333.644v5.673a2.344,2.344,0,0,0,2.344,2.344H117.656A2.344,2.344,0,0,0,120,339.317v-5.673a18.024,18.024,0,0,0-8.051-15.052ZM95.2,308.84a6.676,6.676,0,0,1,13.352,0v4.51a6.676,6.676,0,0,1-13.352,0Zm-27.914,0a6.676,6.676,0,0,1,13.352,0v4.51a6.676,6.676,0,0,1-13.352,0Zm-27.914,0a6.676,6.676,0,0,1,13.352,0v4.51a6.676,6.676,0,0,1-13.352,0Zm-27.914,0a6.676,6.676,0,0,1,13.352,0v4.51a6.676,6.676,0,0,1-13.352,0Zm-6.765,24.8a13.374,13.374,0,0,1,6.366-11.411,11.328,11.328,0,0,0,14.148,0,13.5,13.5,0,0,1,4.221,4.154,18.1,18.1,0,0,0-1.509,7.256v3.33H4.688Zm27.914,0a13.374,13.374,0,0,1,6.366-11.411,11.329,11.329,0,0,0,14.148,0,13.509,13.509,0,0,1,4.221,4.155,18.1,18.1,0,0,0-1.508,7.255v3.33H32.6Zm27.914,0a13.374,13.374,0,0,1,6.366-11.411,11.329,11.329,0,0,0,14.149,0A13.377,13.377,0,0,1,87.4,333.644v3.33H60.516Zm54.8,3.33H92.085v-3.33a18.1,18.1,0,0,0-1.508-7.255,13.534,13.534,0,0,1,4.221-4.156,11.328,11.328,0,0,0,14.148,0,13.374,13.374,0,0,1,6.366,11.411Z" transform="translate(0 -233.849)"/>
        <path id="Trazado_150935" data-name="Trazado 150935" d="M115.312,26H4.687A4.693,4.693,0,0,0,0,30.688V67.72a4.693,4.693,0,0,0,4.687,4.687H11.5l3.318,3.318a4.693,4.693,0,0,0,6.629,0l3.317-3.318h14.65l3.317,3.318a4.693,4.693,0,0,0,6.629,0l3.317-3.318h14.65l3.317,3.318a4.693,4.693,0,0,0,6.629,0l3.317-3.318h14.65l3.318,3.318a4.693,4.693,0,0,0,6.629,0l3.317-3.318h6.809A4.693,4.693,0,0,0,120,67.72V30.688A4.693,4.693,0,0,0,115.312,26ZM115.3,67.72h-7.771a2.344,2.344,0,0,0-1.657.686l-4,4-4-4a2.344,2.344,0,0,0-1.657-.686H79.618a2.344,2.344,0,0,0-1.657.686l-4,4-4-4A2.344,2.344,0,0,0,68.3,67.72H51.7a2.344,2.344,0,0,0-1.657.686l-4,4-4-4a2.344,2.344,0,0,0-1.657-.686H23.79a2.344,2.344,0,0,0-1.657.686l-4,4-4-4a2.344,2.344,0,0,0-1.657-.686H4.687V30.688H115.312Zm.009,2.344V67.72h0Z" transform="translate(0 -26.001)"/>
        <path id="Trazado_150936" data-name="Trazado 150936" d="M50.9,75.694h92.554a2.344,2.344,0,0,0,0-4.687H50.9a2.344,2.344,0,0,0,0,4.687Z" transform="translate(-37.173 -60.459)"/>
        <path id="Trazado_150937" data-name="Trazado 150937" d="M50.9,119.69h92.554a2.344,2.344,0,0,0,0-4.687H50.9a2.344,2.344,0,0,0,0,4.687Z" transform="translate(-37.173 -94.143)"/>
        <path id="Trazado_150938" data-name="Trazado 150938" d="M50.9,163.686H86.625a2.344,2.344,0,1,0,0-4.687H50.9a2.344,2.344,0,0,0,0,4.687Z" transform="translate(-37.173 -127.828)"/>
        <path id="Trazado_150939" data-name="Trazado 150939" d="M248.342,159h0a2.344,2.344,0,1,0,2.345,2.344A2.343,2.343,0,0,0,248.341,159Z" transform="translate(-188.343 -127.828)"/>
      </g>
    </g>
  </g>
</svg>
