<svg xmlns="http://www.w3.org/2000/svg" width="400" height="295" viewBox="0 0 400 295">
  <g id="Grupo_96853" data-name="Grupo 96853" transform="translate(-1019.668 -3115)">
    <path id="Trazado_155917" data-name="Trazado 155917" d="M20,0H380a20,20,0,0,1,20,20V275a20,20,0,0,1-20,20H20A20,20,0,0,1,0,275V20A20,20,0,0,1,20,0Z" transform="translate(1019.668 3115)" fill="#a6daff"/>
    <path id="Trazado_155922" data-name="Trazado 155922" d="M54.25,14.838H48.625v3.809h6.6V21H45.7V6.781h9.512V9.154H48.625v3.389H54.25Zm8.232,3.242a.909.909,0,0,0-.513-.815,5.824,5.824,0,0,0-1.646-.532q-3.77-.791-3.77-3.2a2.9,2.9,0,0,1,1.167-2.349,4.707,4.707,0,0,1,3.052-.942,5.067,5.067,0,0,1,3.218.947A2.985,2.985,0,0,1,65.2,13.646H62.375a1.366,1.366,0,0,0-.391-1,1.653,1.653,0,0,0-1.221-.4,1.689,1.689,0,0,0-1.1.322,1.017,1.017,0,0,0-.391.82.87.87,0,0,0,.444.757,4.571,4.571,0,0,0,1.5.5,12.244,12.244,0,0,1,1.777.474,2.92,2.92,0,0,1,2.236,2.842,2.756,2.756,0,0,1-1.24,2.339,5.35,5.35,0,0,1-3.2.894,5.588,5.588,0,0,1-2.358-.474,3.957,3.957,0,0,1-1.616-1.3,3.018,3.018,0,0,1-.586-1.782H58.9a1.473,1.473,0,0,0,.557,1.152,2.208,2.208,0,0,0,1.387.4,2.044,2.044,0,0,0,1.226-.308A.957.957,0,0,0,62.482,18.08ZM70.422,7.836v2.6h1.807V12.5H70.422v5.273a1.259,1.259,0,0,0,.225.84,1.128,1.128,0,0,0,.859.254,4.5,4.5,0,0,0,.83-.068v2.139a5.81,5.81,0,0,1-1.709.254q-2.969,0-3.027-3V12.5H66.057v-2.07H67.6v-2.6Zm9.707,12.09a3.539,3.539,0,0,1-2.891,1.27,3.338,3.338,0,0,1-2.593-.977,4.169,4.169,0,0,1-.913-2.861V10.434h2.822V17.26q0,1.65,1.5,1.65a2.038,2.038,0,0,0,1.973-1v-7.48h2.832V21H80.207Zm4.424-4.287A6.368,6.368,0,0,1,85.661,11.7a3.6,3.6,0,0,1,3.032-1.465,3.236,3.236,0,0,1,2.549,1.152V6h2.832V21H91.525l-.137-1.123A3.321,3.321,0,0,1,88.674,21.2a3.587,3.587,0,0,1-2.993-1.47A6.573,6.573,0,0,1,84.553,15.639Zm2.822.205a4.16,4.16,0,0,0,.518,2.275,1.687,1.687,0,0,0,1.5.791,1.889,1.889,0,0,0,1.846-1.1v-4.17a1.862,1.862,0,0,0-1.826-1.1Q87.375,12.533,87.375,15.844ZM99.24,21H96.408V10.434H99.24Zm-3-13.3a1.39,1.39,0,0,1,.425-1.045,1.831,1.831,0,0,1,2.31,0,1.382,1.382,0,0,1,.43,1.045,1.386,1.386,0,0,1-.435,1.055,1.81,1.81,0,0,1-2.295,0A1.386,1.386,0,0,1,96.242,7.7Zm4.883,7.92a6.266,6.266,0,0,1,.605-2.8,4.432,4.432,0,0,1,1.743-1.9,5.086,5.086,0,0,1,2.642-.674,4.812,4.812,0,0,1,3.491,1.309,5.252,5.252,0,0,1,1.509,3.555l.02.723a5.523,5.523,0,0,1-1.357,3.9,5.261,5.261,0,0,1-7.29,0,5.62,5.62,0,0,1-1.362-3.984Zm2.822.205a3.939,3.939,0,0,0,.566,2.3,2.037,2.037,0,0,0,3.223.01,4.31,4.31,0,0,0,.576-2.515,3.9,3.9,0,0,0-.576-2.285,1.874,1.874,0,0,0-1.621-.811,1.843,1.843,0,0,0-1.6.806A4.383,4.383,0,0,0,103.947,15.824Zm13.467-.186a6.368,6.368,0,0,1,1.108-3.936,3.6,3.6,0,0,1,3.032-1.465,3.236,3.236,0,0,1,2.549,1.152V6h2.832V21h-2.549l-.137-1.123a3.321,3.321,0,0,1-2.715,1.318,3.587,3.587,0,0,1-2.993-1.47A6.573,6.573,0,0,1,117.414,15.639Zm2.822.205a4.16,4.16,0,0,0,.518,2.275,1.687,1.687,0,0,0,1.5.791,1.889,1.889,0,0,0,1.846-1.1v-4.17a1.862,1.862,0,0,0-1.826-1.1Q120.236,12.533,120.236,15.844Zm13.75,5.352A5.187,5.187,0,0,1,130.2,19.77a5.068,5.068,0,0,1-1.46-3.8V15.7a6.383,6.383,0,0,1,.615-2.847,4.515,4.515,0,0,1,1.743-1.934,4.893,4.893,0,0,1,2.573-.679,4.385,4.385,0,0,1,3.413,1.367,5.555,5.555,0,0,1,1.245,3.877v1.152H131.6a2.622,2.622,0,0,0,.825,1.66,2.5,2.5,0,0,0,1.743.625,3.046,3.046,0,0,0,2.549-1.182l1.387,1.553a4.237,4.237,0,0,1-1.719,1.4A5.639,5.639,0,0,1,133.986,21.2Zm-.322-8.672a1.767,1.767,0,0,0-1.362.566,2.926,2.926,0,0,0-.669,1.621h3.926v-.225a2.086,2.086,0,0,0-.508-1.45A1.824,1.824,0,0,0,133.664,12.523Zm15.645,6.4a1.851,1.851,0,0,0,1.27-.43,1.506,1.506,0,0,0,.508-1.143h2.646a3.62,3.62,0,0,1-.586,1.968,3.866,3.866,0,0,1-1.577,1.387,4.936,4.936,0,0,1-2.212.493,4.587,4.587,0,0,1-3.574-1.44,5.7,5.7,0,0,1-1.309-3.979V15.59a5.635,5.635,0,0,1,1.3-3.9,4.534,4.534,0,0,1,3.564-1.455,4.444,4.444,0,0,1,3.179,1.128,3.994,3.994,0,0,1,1.216,3h-2.646a1.923,1.923,0,0,0-.508-1.333,1.892,1.892,0,0,0-2.778.205,4.155,4.155,0,0,0-.5,2.329v.293a4.207,4.207,0,0,0,.5,2.344A1.722,1.722,0,0,0,149.309,18.92ZM161.467,21a3.134,3.134,0,0,1-.283-.947,3.415,3.415,0,0,1-2.666,1.143,3.752,3.752,0,0,1-2.573-.9,2.889,2.889,0,0,1-1.021-2.266,2.986,2.986,0,0,1,1.245-2.578,6.144,6.144,0,0,1,3.6-.908h1.3v-.605a1.741,1.741,0,0,0-.376-1.172,1.479,1.479,0,0,0-1.187-.439,1.682,1.682,0,0,0-1.118.342,1.161,1.161,0,0,0-.405.938h-2.822a2.835,2.835,0,0,1,.566-1.7,3.744,3.744,0,0,1,1.6-1.226,5.837,5.837,0,0,1,2.324-.444,4.611,4.611,0,0,1,3.1.981,3.433,3.433,0,0,1,1.147,2.759v4.58a5.052,5.052,0,0,0,.42,2.275V21Zm-2.334-1.963a2.431,2.431,0,0,0,1.152-.278,1.828,1.828,0,0,0,.781-.747V16.2h-1.055q-2.119,0-2.256,1.465l-.01.166a1.13,1.13,0,0,0,.371.869A1.441,1.441,0,0,0,159.133,19.037Zm12.656-.957a.909.909,0,0,0-.513-.815,5.824,5.824,0,0,0-1.646-.532q-3.77-.791-3.77-3.2a2.9,2.9,0,0,1,1.167-2.349,4.707,4.707,0,0,1,3.052-.942,5.067,5.067,0,0,1,3.218.947,2.985,2.985,0,0,1,1.206,2.461h-2.822a1.366,1.366,0,0,0-.391-1,1.653,1.653,0,0,0-1.221-.4,1.689,1.689,0,0,0-1.1.322,1.017,1.017,0,0,0-.391.82.87.87,0,0,0,.444.757,4.571,4.571,0,0,0,1.5.5,12.244,12.244,0,0,1,1.777.474,2.92,2.92,0,0,1,2.236,2.842,2.756,2.756,0,0,1-1.24,2.339,5.35,5.35,0,0,1-3.2.894,5.588,5.588,0,0,1-2.358-.474,3.957,3.957,0,0,1-1.616-1.3,3.018,3.018,0,0,1-.586-1.782h2.676a1.473,1.473,0,0,0,.557,1.152,2.208,2.208,0,0,0,1.387.4,2.044,2.044,0,0,0,1.226-.308A.957.957,0,0,0,171.789,18.08Zm4.121-2.461a6.267,6.267,0,0,1,.605-2.8,4.432,4.432,0,0,1,1.743-1.9,5.086,5.086,0,0,1,2.642-.674,4.812,4.812,0,0,1,3.491,1.309A5.252,5.252,0,0,1,185.9,15.1l.02.723a5.523,5.523,0,0,1-1.357,3.9,5.261,5.261,0,0,1-7.29,0,5.62,5.62,0,0,1-1.362-3.984Zm2.822.205a3.939,3.939,0,0,0,.566,2.3,2.037,2.037,0,0,0,3.223.01,4.31,4.31,0,0,0,.576-2.515,3.9,3.9,0,0,0-.576-2.285,1.874,1.874,0,0,0-1.621-.811,1.843,1.843,0,0,0-1.6.806A4.383,4.383,0,0,0,178.732,15.824Z" transform="translate(1104.668 3322)" fill="#12263f"/>
    <g id="investigacion" transform="translate(1159.668 3180)">
      <path id="Trazado_143937" data-name="Trazado 143937" d="M408.614,281.146a3.517,3.517,0,0,1-4.972,0l-23.037-23.037,4.972-4.972,23.037,23.037A3.517,3.517,0,0,1,408.614,281.146Zm0,0" transform="translate(-291.401 -193.807)" fill="#ffda73"/>
      <path id="Trazado_143938" data-name="Trazado 143938" d="M7.5,62.5H81.328V166.094H7.5Zm0,0" transform="translate(-5.742 -47.851)" fill="#f6f6f6"/>
      <path id="Trazado_143939" data-name="Trazado 143939" d="M40,307.727H54.063V345.7H40Zm0,0" transform="translate(-30.625 -235.602)" fill="#fb0"/>
      <path id="Trazado_143940" data-name="Trazado 143940" d="M134,247.727h14.063v52.031H134Zm0,0" transform="translate(-102.594 -189.665)" fill="#80ffeb"/>
      <path id="Trazado_143941" data-name="Trazado 143941" d="M230,269.727h14.063V316.6H230Zm0,0" transform="translate(-176.094 -206.509)" fill="#ffda73"/>
      <path id="Trazado_143945" data-name="Trazado 143945" d="M200.529,18.419a37.265,37.265,0,1,0,0,52.7A37.265,37.265,0,0,0,200.529,18.419Zm0,0" transform="translate(-104.824 -5.744)" fill="#73c5ff"/>
      <path id="Trazado_143946" data-name="Trazado 143946" d="M218.572,89.161a30.234,30.234,0,1,1,0-42.758A30.269,30.269,0,0,1,218.572,89.161Zm0,0" transform="translate(-127.838 -28.757)" fill="#80ffeb"/>
      <path id="Trazado_143948" data-name="Trazado 143948" d="M118.459,80.662,100.425,62.625a39.036,39.036,0,0,0,1.564-45.031,1.758,1.758,0,1,0-2.937,1.933A35.541,35.541,0,1,1,94.461,13.9l.1.1a1.758,1.758,0,0,0,2.495-2.477l-.1-.1a39.066,39.066,0,0,0-55.189,0q-.717.717-1.388,1.461H1.758A1.758,1.758,0,0,0,0,14.633v7.775a1.758,1.758,0,1,0,3.516,0V16.391H37.554a38.722,38.722,0,0,0-3.466,5.914h-21.9a1.758,1.758,0,1,0,0,3.516H32.633a38.943,38.943,0,0,0-1.262,4.3H12.188a1.758,1.758,0,0,0,0,3.516H30.721a39.28,39.28,0,0,0-.354,4.3H12.188a1.758,1.758,0,0,0,0,3.517H30.429a39.063,39.063,0,0,0,3.935,14.847H31.407a1.758,1.758,0,0,0-1.758,1.759v52.039a1.758,1.758,0,0,0,1.758,1.759H45.47a1.758,1.758,0,0,0,1.758-1.759V71.163a38.731,38.731,0,0,0,4.922,2.882v36.047a1.758,1.758,0,0,0,1.758,1.759H67.97a1.758,1.758,0,0,0,1.758-1.759V78.019a39.662,39.662,0,0,0,4.1-.253V104.92a1.758,1.758,0,1,0,3.516,0V77.2a38.76,38.76,0,0,0,15.623-7.115L111,88.12a5.275,5.275,0,0,0,7.461-7.458ZM43.712,108.334H33.165V59.811h3.167a39.048,39.048,0,0,0,5.43,6.8q.95.95,1.95,1.819Zm11.954,0V75.558a39.129,39.129,0,0,0,10.547,2.337v30.44Zm60.308-22.7a1.758,1.758,0,0,1-2.487,0L95.678,67.824c.431-.395.856-.8,1.273-1.214s.82-.84,1.215-1.273l17.806,17.81A1.76,1.76,0,0,1,115.974,85.633Zm0,0" transform="translate(0 0)"/>
      <path id="Trazado_143949" data-name="Trazado 143949" d="M75.588,203.083a1.758,1.758,0,0,0-1.758,1.758v3.985H3.516V122.367a1.758,1.758,0,1,0-3.516,0v88.217a1.758,1.758,0,0,0,1.758,1.758h73.83a1.757,1.757,0,0,0,1.758-1.758v-5.743A1.757,1.757,0,0,0,75.588,203.083Zm0,0" transform="translate(0 -92.341)"/>
      <path id="Trazado_143950" data-name="Trazado 143950" d="M32.5,301.953v37.975a1.758,1.758,0,0,0,1.758,1.758H48.321a1.758,1.758,0,0,0,1.758-1.758V301.953a1.758,1.758,0,0,0-1.758-1.758H34.258A1.758,1.758,0,0,0,32.5,301.953Zm3.516,1.759H46.563V338.17H36.016Zm0,0" transform="translate(-24.883 -229.836)"/>
      <path id="Trazado_143951" data-name="Trazado 143951" d="M59.4,198.7a1.758,1.758,0,0,0,0-3.517H46.258a1.758,1.758,0,0,0,0,3.517Zm0,0" transform="translate(-34.07 -149.434)"/>
      <path id="Trazado_143952" data-name="Trazado 143952" d="M191.456,29.988a31.946,31.946,0,1,0,22.623,9.358A31.775,31.775,0,0,0,191.456,29.988ZM211.592,82.11a28.518,28.518,0,1,1,8.327-20.139A28.281,28.281,0,0,1,211.592,82.11Zm0,0" transform="translate(-122.099 -22.959)"/>
    </g>
  </g>
</svg>
