<svg id="voluntario" xmlns="http://www.w3.org/2000/svg" width="107.347" height="120" viewBox="0 0 107.347 120">
  <path id="Trazado_143863" data-name="Trazado 143863" d="M263.93,380.266V343h37.5v37.266" transform="translate(-202.071 -262.609)" fill="#3ca8f4"/>
  <path id="Trazado_143864" data-name="Trazado 143864" d="M49.141,433.082v-21.1H84.421v21.1" transform="translate(-37.623 -315.426)" fill="#fb0"/>
  <path id="Trazado_143865" data-name="Trazado 143865" d="M264.518,75.561l3.5-3.488A24.533,24.533,0,0,0,275.227,54.7V24.967a5,5,0,0,0-10-.35V19.864a5.089,5.089,0,0,0-4.333-5.091,5,5,0,0,0-5.662,4.613V15.124a5.217,5.217,0,0,0-4.556-5.1,5.007,5.007,0,0,0-5.457,4.986v4.379a5,5,0,0,0-5.662-4.613,5.089,5.089,0,0,0-4.333,5.091V47.39a.737.737,0,0,1-1.453.175l-1.325-5.4a5.206,5.206,0,0,0-5.861-3.95,5.117,5.117,0,0,0-4.159,6.034l2.622,13.293A24.53,24.53,0,0,0,231.8,70.164l5.413,5.4V88.048h27.308Zm0,0" transform="translate(-170.223 -7.657)" fill="#fcc49d"/>
  <path id="Trazado_143866" data-name="Trazado 143866" d="M49.7,164.355l3.291-3.282a23.078,23.078,0,0,0,6.783-16.343V116.755a4.708,4.708,0,0,0-9.4-.329v-4.472a4.788,4.788,0,0,0-4.077-4.79,4.708,4.708,0,0,0-5.327,4.341v-4.01a4.908,4.908,0,0,0-4.286-4.8,4.71,4.71,0,0,0-5.134,4.691v4.12a4.709,4.709,0,0,0-5.327-4.341,4.788,4.788,0,0,0-4.077,4.79v25.9a.694.694,0,0,1-1.368.166l-1.246-5.084a4.9,4.9,0,0,0-5.514-3.717,4.814,4.814,0,0,0-3.913,5.676L12.564,147.4a23.082,23.082,0,0,0,6.347,11.878L24,164.354v10.815H49.7Zm0,0" transform="translate(-7.661 -78.61)" fill="#fcc49d"/>
  <path id="Trazado_143867" data-name="Trazado 143867" d="M107.347,17.31a7.347,7.347,0,0,0-10.163-6.79,7.346,7.346,0,0,0-10.11-5.182,7.348,7.348,0,0,0-14.136,0,7.346,7.346,0,0,0-10.277,6.74V30.493a7.454,7.454,0,0,0-11.589.887c-.123.179-.235.363-.341.549a7.033,7.033,0,0,0-5.88-.362,7.047,7.047,0,0,0-9.52-4.875,7.054,7.054,0,0,0-13.48,0,7.049,7.049,0,0,0-9.717,6.53V50.21a7.155,7.155,0,0,0-12,6.525L2.6,69.242A25.33,25.33,0,0,0,9.6,82.326L14,86.717v7.5H11.517a2.344,2.344,0,0,0-2.344,2.344v21.1a2.344,2.344,0,1,0,4.688,0V98.9H44.454v18.754a2.344,2.344,0,1,0,4.687,0v-21.1A2.344,2.344,0,0,0,46.8,94.215h-2.42v-7.5l2.6-2.595a25.254,25.254,0,0,0,7.472-18V56.306a26.812,26.812,0,0,0,5.467,7.86l4.724,4.71v9.171H61.859a2.344,2.344,0,0,0-2.344,2.344v37.266a2.344,2.344,0,1,0,4.687,0V92.109H75.545a2.344,2.344,0,0,0,0-4.687H64.2V82.734H97.015v34.922a2.344,2.344,0,1,0,4.688,0V80.391a2.344,2.344,0,0,0-2.344-2.344h-2.72V68.876l2.81-2.8a26.7,26.7,0,0,0,7.9-19.031V44.61a2.344,2.344,0,0,0-4.687,0v2.434a22.04,22.04,0,0,1-6.52,15.711l-3.5,3.488a2.343,2.343,0,0,0-.689,1.66V78.047H69.331V67.9a2.342,2.342,0,0,0-.689-1.66l-5.413-5.4a22.111,22.111,0,0,1-6.1-11.418L54.506,36.134a2.773,2.773,0,0,1,5.414-1.2l1.355,5.525a3.082,3.082,0,0,0,6.075-.734V12.079a2.662,2.662,0,0,1,5.307-.3V27.189a2.282,2.282,0,0,0,.017.276V28.97a2.344,2.344,0,1,0,4.687,0V12.079c0-.162-.007-.323-.017-.483V7.35a2.662,2.662,0,1,1,5.325,0V11.6c-.01.16-.017.321-.017.483V27.189a2.488,2.488,0,0,0,.017.276V28.97a2.344,2.344,0,0,0,4.688,0V11.782a2.662,2.662,0,0,1,5.307.3v4.748c-.01.16-.017.32-.017.483v9.879a2.488,2.488,0,0,0,.017.276V28.97a2.344,2.344,0,0,0,4.688,0V17.012a2.662,2.662,0,0,1,5.308.3v8.549a2.344,2.344,0,0,0,4.688,0V17.31ZM49.765,66.119A20.6,20.6,0,0,1,43.672,80.8L40.38,84.085a2.342,2.342,0,0,0-.689,1.66v8.47h-21v-8.47A2.342,2.342,0,0,0,18,84.085l-5.091-5.078A20.66,20.66,0,0,1,7.2,68.335L4.737,55.828a2.471,2.471,0,0,1,1.994-2.91,2.476,2.476,0,0,1,2.828,1.845l1.274,5.2a3.038,3.038,0,0,0,5.988-.724V33.223a2.366,2.366,0,0,1,4.716-.269V47.439a2.345,2.345,0,0,0,.016.268v1.408a2.344,2.344,0,1,0,4.688,0V33.223c0-.154-.006-.306-.016-.458V28.774a2.367,2.367,0,0,1,4.733,0v3.988c-.01.153-.016.306-.016.461V47.439a2.39,2.39,0,0,0,.016.27v1.406a2.344,2.344,0,1,0,4.688,0V32.952a2.366,2.366,0,0,1,4.716.271v4.461c-.01.152-.016.306-.016.461v9.294a2.389,2.389,0,0,0,.016.27v1.406a2.344,2.344,0,1,0,4.687,0V37.874a2.366,2.366,0,0,1,4.716.271Zm0,0" transform="translate(0)"/>
  <path id="Trazado_143868" data-name="Trazado 143868" d="M440.355,140.328a2.348,2.348,0,1,0,1.656.688A2.358,2.358,0,0,0,440.355,140.328Zm0,0" transform="translate(-335.353 -107.439)"/>
  <path id="Trazado_143869" data-name="Trazado 143869" d="M354.67,373a2.344,2.344,0,1,0,1.659.687A2.367,2.367,0,0,0,354.67,373Zm0,0" transform="translate(-269.751 -285.578)"/>
</svg>
