<svg xmlns="http://www.w3.org/2000/svg" width="86.441" height="85" viewBox="0 0 86.441 85">
  <g id="Fill_out_line" data-name="Fill out line" transform="translate(-16 -24)">
    <path id="Trazado_151195" data-name="Trazado 151195" d="M5.763,0c3.183,0,5.763.256,5.763,3.438V54.246c0,3.183-2.58,1.94-5.763,1.94S0,57.429,0,54.246V3.438C0,.256,2.58,0,5.763,0Z" transform="translate(23.203 41.288)" fill="#8ad24a"/>
    <path id="Trazado_151196" data-name="Trazado 151196" d="M5.763,0c3.183,0,5.763.837,5.763,4.02V33.136A5.763,5.763,0,0,1,5.763,38.9C2.58,38.9,0,39.3,0,36.117V2.9C0-.284,2.58,0,5.763,0Z" transform="translate(43.373 58.576)" fill="#8ad24a"/>
    <path id="Trazado_151197" data-name="Trazado 151197" d="M5.763,0c3.183,0,5.763.242,5.763,3.425v47A5.763,5.763,0,1,1,0,50.424v-47C0,.242,2.58,0,5.763,0Z" transform="translate(63.542 41.288)" fill="#8ad24a"/>
    <path id="Trazado_151198" data-name="Trazado 151198" d="M5.763,0c3.183,0,5.763.164,5.763,3.347V66.271A5.763,5.763,0,1,1,0,66.271V3.347C0,.164,2.58,0,5.763,0Z" transform="translate(83.712 25.441)" fill="#8ad24a"/>
    <path id="Trazado_151200" data-name="Trazado 151200" d="M2.161,0H81.4a2.161,2.161,0,1,1,0,4.322H2.161A2.161,2.161,0,0,1,2.161,0Z" transform="translate(17.441 103.237)" fill="#0f2771"/>
    <path id="Trazado_151199" data-name="Trazado 151199" d="M14.407,0A14.407,14.407,0,1,1,0,14.407,14.407,14.407,0,0,1,14.407,0Z" transform="translate(59.22 65.78)" fill="#fde947"/>
    <path id="Trazado_151188" data-name="Trazado 151188" d="M211.128,184a27.393,27.393,0,0,0-25.515,36.652,2.886,2.886,0,0,0,4.156,1.528l2.543-1.469a2.878,2.878,0,0,0,1.292-3.4,18.73,18.73,0,1,1,35.529.022,2.866,2.866,0,0,0,1.3,3.382l2.542,1.468a2.882,2.882,0,0,0,4.152-1.517,27.392,27.392,0,0,0-26-36.664Z" transform="translate(-137.746 -131.187)" fill="#3ca8f4"/>
    <path id="Trazado_151189" data-name="Trazado 151189" d="M237.678,406.862a18.677,18.677,0,0,1-14.009-6.3,2.888,2.888,0,0,0-3.606-.6l-2.542,1.467a2.887,2.887,0,0,0-.747,4.372,27.375,27.375,0,0,0,41.807,0,2.887,2.887,0,0,0-.747-4.372l-2.542-1.467a2.888,2.888,0,0,0-3.606.6,18.677,18.677,0,0,1-14.009,6.3Z" transform="translate(-164.051 -307.947)" fill="#3ca8f4"/>
    <path id="Trazado_151190" data-name="Trazado 151190" d="M299.424,331.233h0l3.743-2.161,1.441,2.5-3.743,2.161h0a.771.771,0,0,1-.717,1.155l-2.592-.167a.771.771,0,0,1-.642-1.111l1.151-2.328a.771.771,0,0,1,1.359-.044Z" transform="translate(-230.26 -250.133)" fill="#3ca8f4"/>
    <path id="Trazado_151191" data-name="Trazado 151191" d="M325.761,286.342a2.881,2.881,0,1,1-4.322-2.5v-4.707a.769.769,0,0,1-.641-1.2l1.441-2.161a.771.771,0,0,1,1.282,0l1.441,2.161a.771.771,0,0,1-.641,1.2v4.707A2.88,2.88,0,0,1,325.761,286.342Z" transform="translate(-249.253 -206.155)" fill="#8ad24a"/>
    <circle id="Elipse_4573" data-name="Elipse 4573" cx="1.441" cy="1.441" r="1.441" transform="translate(72.186 78.746)"/>
    <path id="Trazado_151192" data-name="Trazado 151192" d="M302.769,280.18v-3.786a1.493,1.493,0,0,0,.52-2.134l-1.44-2.16a1.491,1.491,0,0,0-2.482,0l-1.44,2.161a1.488,1.488,0,0,0,.52,2.134v3.787a3.617,3.617,0,0,0-1.414,2.451l-.784.453a1.492,1.492,0,0,0-2.108.616l-1.151,2.328a1.491,1.491,0,0,0,1.241,2.149l2.592.167.1,0a1.492,1.492,0,0,0,1.491-1.521l.785-.453a3.6,3.6,0,0,0,3.575-6.193Zm-5.808,6.65a.044.044,0,0,1,0,.052.043.043,0,0,1-.046.024l-2.592-.167a.05.05,0,0,1-.042-.073l1.151-2.328a.044.044,0,0,1,.044-.028.051.051,0,0,1,.046.025.72.72,0,0,0,.984.264l.689-.4a3.6,3.6,0,0,0,.723,1.246l-.692.4A.72.72,0,0,0,296.961,286.83Zm3.647-1.608a2.161,2.161,0,0,1-1.081-4.033.72.72,0,0,0,.36-.624v-4.708a.72.72,0,0,0-.72-.72.054.054,0,0,1-.052-.052.047.047,0,0,1,.01-.027l1.441-2.162a.05.05,0,0,1,.083,0l1.441,2.161a.045.045,0,0,1,0,.053.043.043,0,0,1-.045.027.72.72,0,0,0-.72.72v4.708a.72.72,0,0,0,.36.624,2.161,2.161,0,0,1-1.081,4.033Z" transform="translate(-226.98 -202.875)"/>
    <path id="Trazado_151193" data-name="Trazado 151193" d="M52.322,171.068h5.763a4.327,4.327,0,0,0,4.322-4.322V116.322A4.327,4.327,0,0,0,58.085,112H52.322A4.327,4.327,0,0,0,48,116.322v50.424A4.327,4.327,0,0,0,52.322,171.068Zm-2.161-54.746a2.163,2.163,0,0,1,2.161-2.161h5.763a2.163,2.163,0,0,1,2.161,2.161v50.424a2.163,2.163,0,0,1-2.161,2.161H52.322a2.163,2.163,0,0,1-2.161-2.161Z" transform="translate(-26.237 -72.153)"/>
    <path id="Trazado_151194" data-name="Trazado 151194" d="M98.839,101.8H92.685a28.929,28.929,0,0,0,2.945-3.006,4.315,4.315,0,0,0,.981-3.452,4.257,4.257,0,0,0,.067-.746V92.821a4.321,4.321,0,0,0,4.06-2.854A28.859,28.859,0,0,0,96.678,62.9V28.322A4.327,4.327,0,0,0,92.356,24H86.593a4.327,4.327,0,0,0-4.322,4.322V52.694a28.691,28.691,0,0,0-5.763-1.177V44.169a4.327,4.327,0,0,0-4.322-4.322H66.424A4.327,4.327,0,0,0,62.1,44.169v9.621a28.763,28.763,0,0,0-7.153,4.5,4.328,4.328,0,0,0-2.931-1.152H46.254a4.327,4.327,0,0,0-4.322,4.322V94.593a4.327,4.327,0,0,0,4.322,4.322H51.73a28.907,28.907,0,0,0,2.839,2.881H19.6a3.6,3.6,0,0,0,0,7.2H98.839a3.6,3.6,0,1,0,0-7.2ZM73.388,53.535a26.672,26.672,0,0,1,25.317,35.7,2.162,2.162,0,0,1-3.115,1.137L93.049,88.9a2.149,2.149,0,0,1-.978-2.529,19.463,19.463,0,0,0-18.36-25.636h-.084A19.463,19.463,0,0,0,55.175,86.351a2.165,2.165,0,0,1-.969,2.552l-2.543,1.469a2.151,2.151,0,0,1-1.819.158,2.174,2.174,0,0,1-1.3-1.309A26.673,26.673,0,0,1,73.388,53.535ZM88.6,103.958H98.839a1.441,1.441,0,0,1,0,2.881H82.516A28.014,28.014,0,0,0,88.6,103.958Zm-6.3-8.816a17.191,17.191,0,0,1-6.82,2.233,4.315,4.315,0,0,0,.85-1.573,15.73,15.73,0,0,0,5.936-2.334v1.125a4.324,4.324,0,0,0,.035.548Zm-8.679-1.269A13.686,13.686,0,1,1,87.314,80.186,13.686,13.686,0,0,1,73.627,93.873ZM56.339,89.919a4.3,4.3,0,0,0,.886-4.253A17.275,17.275,0,0,1,62.1,67.324v1.989a15.838,15.838,0,0,0,0,21.747v2.013A17.4,17.4,0,0,1,60.7,91.661a4.35,4.35,0,0,0-4.357-1.319ZM76.508,64.6V63.139a17.35,17.35,0,0,1,5.763,2.072v1.693a15.726,15.726,0,0,0-5.763-2.3Zm-2.161.476c-.239-.011-.479-.018-.72-.018a15.049,15.049,0,0,0-9.364,3.26V65.1a1.078,1.078,0,0,0-.034-.26,17.825,17.825,0,0,1,9.4-2.658h.078c.215,0,.429.007.642.015Zm-9.732,30.7a2.141,2.141,0,0,1-.353-1.182v-2.54a15.049,15.049,0,0,0,9.364,3.26c.2,0,.4-.007.6-.015a2.163,2.163,0,0,1-2.041,1.456h-5.61a18.053,18.053,0,0,1-1.961-.979ZM84.432,94.59V90.759a15.1,15.1,0,0,0-.094-21.243,1.078,1.078,0,0,0,.094-.438V65.8a18.009,18.009,0,0,1,6.273,20.12,3.593,3.593,0,0,0,1.623,4.235l2.189,1.264v1.7a3.616,3.616,0,0,0-.373-.249L91.6,91.4a3.624,3.624,0,0,0-4.5.742,17.989,17.989,0,0,1-2.665,2.451ZM56.373,92.644a2.133,2.133,0,0,1,1.069-.285,2.192,2.192,0,0,1,1.638.736,19.448,19.448,0,0,0,29.1,0,2.178,2.178,0,0,1,2.707-.451l2.542,1.467a2.147,2.147,0,0,1,1.045,1.495,2.182,2.182,0,0,1-.488,1.788,26.654,26.654,0,0,1-40.707,0,2.182,2.182,0,0,1-.488-1.788,2.147,2.147,0,0,1,1.045-1.495Zm2.28,11.313a28.014,28.014,0,0,0,6.086,2.881H19.6a1.441,1.441,0,1,1,0-2.881Zm25.78-75.636a2.163,2.163,0,0,1,2.161-2.161h5.763a2.163,2.163,0,0,1,2.161,2.161V61.4q-.538-.6-1.112-1.169a28.064,28.064,0,0,0-8.976-6,.192.192,0,0,0,0-.027ZM66.424,42.008h5.763a2.163,2.163,0,0,1,2.161,2.161V52.1c-.323-.008-.647-.012-.972-.009a27.851,27.851,0,0,0-9.113,1.612V44.169a2.163,2.163,0,0,1,2.161-2.161ZM44.093,94.593V61.458A2.163,2.163,0,0,1,46.254,59.3h5.763a2.166,2.166,0,0,1,1.814,1,28.056,28.056,0,0,0-6.642,29.411,3.606,3.606,0,0,0,5.2,1.91l1.794-1.036V92.04a1.073,1.073,0,0,0,.02.2l-1.088.628A3.6,3.6,0,0,0,51.4,96.754H46.254a2.163,2.163,0,0,1-2.161-2.161Z"/>
  </g>
</svg>
