<svg xmlns="http://www.w3.org/2000/svg" width="400" height="295" viewBox="0 0 400 295">
  <g id="Grupo_96848" data-name="Grupo 96848" transform="translate(-179.668 -2796)">
    <rect id="Rectángulo_34406" data-name="Rectángulo 34406" width="400" height="295" rx="20" transform="translate(179.668 2796)" fill="#7ae582"/>
    <path id="Trazado_155905" data-name="Trazado 155905" d="M56.5,6.781l3.652,10.313L63.786,6.781h3.848V21H64.694V17.113l.293-6.709L61.149,21H59.138L55.31,10.414l.293,6.7V21h-2.93V6.781ZM74.87,21.2a5.187,5.187,0,0,1-3.784-1.426,5.068,5.068,0,0,1-1.46-3.8V15.7a6.383,6.383,0,0,1,.615-2.847,4.515,4.515,0,0,1,1.743-1.934,4.893,4.893,0,0,1,2.573-.679,4.385,4.385,0,0,1,3.413,1.367,5.555,5.555,0,0,1,1.245,3.877v1.152H72.487a2.622,2.622,0,0,0,.825,1.66,2.5,2.5,0,0,0,1.743.625A3.046,3.046,0,0,0,77.6,17.738l1.387,1.553a4.237,4.237,0,0,1-1.719,1.4A5.639,5.639,0,0,1,74.87,21.2Zm-.322-8.672a1.767,1.767,0,0,0-1.362.566,2.926,2.926,0,0,0-.669,1.621h3.926v-.225a2.086,2.086,0,0,0-.508-1.45A1.824,1.824,0,0,0,74.548,12.523ZM86.54,18.08a.909.909,0,0,0-.513-.815,5.824,5.824,0,0,0-1.646-.532q-3.77-.791-3.77-3.2a2.9,2.9,0,0,1,1.167-2.349,4.707,4.707,0,0,1,3.052-.942,5.067,5.067,0,0,1,3.218.947,2.985,2.985,0,0,1,1.206,2.461H86.433a1.366,1.366,0,0,0-.391-1,1.653,1.653,0,0,0-1.221-.4,1.689,1.689,0,0,0-1.1.322,1.017,1.017,0,0,0-.391.82.87.87,0,0,0,.444.757,4.571,4.571,0,0,0,1.5.5,12.244,12.244,0,0,1,1.777.474,2.92,2.92,0,0,1,2.236,2.842,2.756,2.756,0,0,1-1.24,2.339,5.35,5.35,0,0,1-3.2.894,5.588,5.588,0,0,1-2.358-.474,3.957,3.957,0,0,1-1.616-1.3,3.018,3.018,0,0,1-.586-1.782h2.676a1.473,1.473,0,0,0,.557,1.152,2.208,2.208,0,0,0,1.387.4,2.044,2.044,0,0,0,1.226-.308A.957.957,0,0,0,86.54,18.08ZM97.224,21a3.134,3.134,0,0,1-.283-.947A3.415,3.415,0,0,1,94.274,21.2a3.752,3.752,0,0,1-2.573-.9,2.89,2.89,0,0,1-1.021-2.266,2.986,2.986,0,0,1,1.245-2.578,6.144,6.144,0,0,1,3.6-.908h1.3v-.605a1.741,1.741,0,0,0-.376-1.172,1.479,1.479,0,0,0-1.187-.439,1.682,1.682,0,0,0-1.118.342,1.161,1.161,0,0,0-.405.938H90.915a2.835,2.835,0,0,1,.566-1.7,3.744,3.744,0,0,1,1.6-1.226,5.837,5.837,0,0,1,2.324-.444,4.611,4.611,0,0,1,3.1.981,3.433,3.433,0,0,1,1.147,2.759v4.58a5.052,5.052,0,0,0,.42,2.275V21ZM94.89,19.037a2.431,2.431,0,0,0,1.152-.278,1.828,1.828,0,0,0,.781-.747V16.2H95.769q-2.119,0-2.256,1.465l-.01.166a1.13,1.13,0,0,0,.371.869A1.441,1.441,0,0,0,94.89,19.037Zm17.852-5.957A7.667,7.667,0,0,0,111.726,13a2.067,2.067,0,0,0-2.1,1.084V21H106.8V10.434h2.666l.078,1.26a2.615,2.615,0,0,1,2.354-1.455,2.957,2.957,0,0,1,.879.127Zm6.221,8.115a5.187,5.187,0,0,1-3.784-1.426,5.068,5.068,0,0,1-1.46-3.8V15.7a6.383,6.383,0,0,1,.615-2.847,4.515,4.515,0,0,1,1.743-1.934,4.893,4.893,0,0,1,2.573-.679,4.385,4.385,0,0,1,3.413,1.367,5.555,5.555,0,0,1,1.245,3.877v1.152h-6.729a2.622,2.622,0,0,0,.825,1.66,2.5,2.5,0,0,0,1.743.625,3.046,3.046,0,0,0,2.549-1.182l1.387,1.553a4.237,4.237,0,0,1-1.719,1.4A5.639,5.639,0,0,1,118.962,21.2Zm-.322-8.672a1.767,1.767,0,0,0-1.362.566,2.926,2.926,0,0,0-.669,1.621h3.926v-.225a2.086,2.086,0,0,0-.508-1.45A1.824,1.824,0,0,0,118.64,12.523Zm5.83,3.115a6.368,6.368,0,0,1,1.108-3.936,3.6,3.6,0,0,1,3.032-1.465,3.236,3.236,0,0,1,2.549,1.152V6h2.832V21h-2.549l-.137-1.123a3.321,3.321,0,0,1-2.715,1.318,3.587,3.587,0,0,1-2.993-1.47A6.573,6.573,0,0,1,124.47,15.639Zm2.822.205a4.16,4.16,0,0,0,.518,2.275,1.687,1.687,0,0,0,1.5.791,1.889,1.889,0,0,0,1.846-1.1v-4.17a1.862,1.862,0,0,0-1.826-1.1Q127.292,12.533,127.292,15.844Zm8.447-.225a6.267,6.267,0,0,1,.605-2.8,4.432,4.432,0,0,1,1.743-1.9,5.086,5.086,0,0,1,2.642-.674,4.812,4.812,0,0,1,3.491,1.309,5.252,5.252,0,0,1,1.509,3.555l.02.723a5.523,5.523,0,0,1-1.357,3.9,5.261,5.261,0,0,1-7.29,0,5.62,5.62,0,0,1-1.362-3.984Zm2.822.205a3.939,3.939,0,0,0,.566,2.3,2.037,2.037,0,0,0,3.223.01,4.31,4.31,0,0,0,.576-2.515,3.9,3.9,0,0,0-.576-2.285,1.874,1.874,0,0,0-1.621-.811,1.843,1.843,0,0,0-1.6.806A4.383,4.383,0,0,0,138.562,15.824Zm11.523-5.391.088,1.221a3.689,3.689,0,0,1,3.037-1.416,3.066,3.066,0,0,1,2.5.986,4.6,4.6,0,0,1,.84,2.949V21h-2.822V14.242a1.831,1.831,0,0,0-.391-1.3,1.749,1.749,0,0,0-1.3-.405,1.942,1.942,0,0,0-1.787,1.016V21h-2.822V10.434Zm8.164,5.205a6.368,6.368,0,0,1,1.108-3.936,3.6,3.6,0,0,1,3.032-1.465,3.236,3.236,0,0,1,2.549,1.152V6h2.832V21h-2.549l-.137-1.123A3.321,3.321,0,0,1,162.37,21.2a3.587,3.587,0,0,1-2.993-1.47A6.573,6.573,0,0,1,158.249,15.639Zm2.822.205a4.16,4.16,0,0,0,.518,2.275,1.687,1.687,0,0,0,1.5.791,1.889,1.889,0,0,0,1.846-1.1v-4.17a1.862,1.862,0,0,0-1.826-1.1Q161.071,12.533,161.071,15.844ZM176.081,21a3.134,3.134,0,0,1-.283-.947,3.415,3.415,0,0,1-2.666,1.143,3.752,3.752,0,0,1-2.573-.9,2.889,2.889,0,0,1-1.021-2.266,2.986,2.986,0,0,1,1.245-2.578,6.144,6.144,0,0,1,3.6-.908h1.3v-.605a1.741,1.741,0,0,0-.376-1.172,1.479,1.479,0,0,0-1.187-.439A1.682,1.682,0,0,0,173,12.67a1.161,1.161,0,0,0-.405.938h-2.822a2.835,2.835,0,0,1,.566-1.7,3.744,3.744,0,0,1,1.6-1.226,5.837,5.837,0,0,1,2.324-.444,4.611,4.611,0,0,1,3.1.981,3.433,3.433,0,0,1,1.147,2.759v4.58a5.052,5.052,0,0,0,.42,2.275V21Zm-2.334-1.963a2.431,2.431,0,0,0,1.152-.278,1.828,1.828,0,0,0,.781-.747V16.2h-1.055q-2.119,0-2.256,1.465l-.01.166a1.13,1.13,0,0,0,.371.869A1.441,1.441,0,0,0,173.747,19.037Z" transform="translate(264.668 3003)" fill="#12263f"/>
    <g id="mesa-redonda" transform="translate(319.668 2861.002)">
      <path id="Trazado_150795" data-name="Trazado 150795" d="M135.759,135.719a46.955,46.955,0,1,1,0-66.4A46.961,46.961,0,0,1,135.759,135.719Zm0,0" transform="translate(-42.566 -42.542)" fill="#fb0"/>
      <path id="Trazado_150797" data-name="Trazado 150797" d="M374.2,46.167,362.455,57.912q-.945-2.034-2.1-3.985a46.97,46.97,0,0,0-6.36-8.4q-.427-.455-.875-.9c-.117-.12-.237-.24-.36-.355-.42-.411-.849-.816-1.281-1.209a46.914,46.914,0,0,0-8.159-5.957q-1.873-1.073-3.813-1.961l11.833-11.832Zm0,0" transform="translate(-259.931 -17.846)" fill="#636363"/>
      <path id="Trazado_150798" data-name="Trazado 150798" d="M332.444,43.44l-8.334,8.333a46.5,46.5,0,0,0-2.31-5.964q-.946-2.033-2.1-3.983l4.451-4.451a4.906,4.906,0,0,0,0-6.937l-9.992-9.991a4.907,4.907,0,0,0-6.939,0L295.073,32.594a5.076,5.076,0,1,1-7.179-7.179l13.261-13.26a15.889,15.889,0,0,1,21.556-.843q.466.4.909.843l8.823,8.823c.325.325.635.663.926,1.009A15.88,15.88,0,0,1,332.444,43.44Zm0,0" transform="translate(-219.276 -5.744)" fill="#80ffeb"/>
      <path id="Trazado_150801" data-name="Trazado 150801" d="M417.61,30.45l-3.259-3.259a5.239,5.239,0,0,1,0-7.41l6.394-6.394a5.24,5.24,0,0,1,7.409,0l3.259,3.259a5.238,5.238,0,0,1,0,7.409l-6.4,6.394A5.237,5.237,0,0,1,417.61,30.45Zm0,0" transform="translate(-316.056 -9.076)" fill="#fecbaa"/>
      <path id="Trazado_150802" data-name="Trazado 150802" d="M432.806,26.889l-3.26-3.259a5.238,5.238,0,0,1,0-7.409l2.833-2.833a5.24,5.24,0,0,1,7.409,0l3.259,3.259a5.238,5.238,0,0,1,0,7.409l-2.833,2.833A5.239,5.239,0,0,1,432.806,26.889Zm0,0" transform="translate(-327.69 -9.076)" fill="#091946"/>
      <path id="Trazado_150803" data-name="Trazado 150803" d="M59.215,363.786,47.381,375.615,24.523,352.759l11.746-11.748q.945,2.035,2.1,3.986a46.915,46.915,0,0,0,6.358,8.4q.427.455.874.9c.12.119.24.239.36.354.421.411.849.816,1.282,1.209a46.98,46.98,0,0,0,8.161,5.958C56.649,362.537,57.924,363.193,59.215,363.786Zm0,0" transform="translate(-18.775 -261.084)" fill="#636363"/>
      <path id="Trazado_150804" data-name="Trazado 150804" d="M14.022,323.907l8.334-8.333a46.551,46.551,0,0,0,2.31,5.964q.946,2.033,2.1,3.983l-4.451,4.45a4.907,4.907,0,0,0,0,6.938l9.993,9.991a4.905,4.905,0,0,0,6.938,0l12.147-12.146a5.076,5.076,0,1,1,7.179,7.178l-13.261,13.26a15.888,15.888,0,0,1-21.556.843q-.466-.4-.909-.843l-8.823-8.822c-.325-.325-.635-.664-.926-1.009A15.88,15.88,0,0,1,14.022,323.907Zm0,0" transform="translate(-7.172 -241.608)" fill="#80ffeb"/>
      <path id="Trazado_150807" data-name="Trazado 150807" d="M28.673,415.747l3.259,3.259a5.238,5.238,0,0,1,0,7.409l-6.4,6.4a5.239,5.239,0,0,1-7.408,0l-3.259-3.259a5.239,5.239,0,0,1,0-7.41l6.394-6.394A5.24,5.24,0,0,1,28.673,415.747Zm0,0" transform="translate(-10.209 -317.128)" fill="#fecbaa"/>
      <path id="Trazado_150808" data-name="Trazado 150808" d="M25.153,430.763l3.26,3.259a5.24,5.24,0,0,1,0,7.409l-2.877,2.876a5.239,5.239,0,0,1-7.408,0l-3.259-3.259a5.239,5.239,0,0,1,0-7.41l2.876-2.875A5.239,5.239,0,0,1,25.153,430.763Zm0,0" transform="translate(-10.209 -328.624)" fill="#091946"/>
      <path id="Trazado_150809" data-name="Trazado 150809" d="M375.656,351.27,352.8,374.128l-11.747-11.745q2.031-.948,3.984-2.1a46.749,46.749,0,0,0,8.4-6.358c.3-.284.6-.578.9-.874.12-.12.24-.237.358-.36.411-.42.816-.849,1.206-1.281a46.867,46.867,0,0,0,5.958-8.158q1.073-1.873,1.963-3.813Zm0,0" transform="translate(-261.112 -259.879)" fill="#636363"/>
      <path id="Trazado_150810" data-name="Trazado 150810" d="M323.935,332.371l-8.334-8.332a46.646,46.646,0,0,0,5.965-2.311q2.033-.946,3.983-2.1L330,324.078a4.907,4.907,0,0,0,6.938,0l9.993-9.991a4.907,4.907,0,0,0,0-6.938L334.784,295a5.076,5.076,0,0,1,7.179-7.178l13.261,13.259a15.885,15.885,0,0,1,.843,21.554q-.4.467-.843.909l-8.824,8.822c-.325.325-.663.635-1.009.925A15.882,15.882,0,0,1,323.935,332.371Zm0,0" transform="translate(-241.628 -219.225)" fill="#ccffd0"/>
      <path id="Trazado_150813" data-name="Trazado 150813" d="M415.788,417.53l3.26-3.259a5.239,5.239,0,0,1,7.408,0l6.4,6.394a5.238,5.238,0,0,1,0,7.409l-3.26,3.259a5.239,5.239,0,0,1-7.408,0l-6.4-6.394A5.238,5.238,0,0,1,415.788,417.53Zm0,0" transform="translate(-317.157 -315.997)" fill="#fecbaa"/>
      <path id="Trazado_150814" data-name="Trazado 150814" d="M430.981,432.721l3.26-3.259a5.239,5.239,0,0,1,7.408,0l2.835,2.834a5.24,5.24,0,0,1,0,7.409l-3.26,3.259a5.239,5.239,0,0,1-7.408,0l-2.835-2.834A5.24,5.24,0,0,1,430.981,432.721Zm0,0" transform="translate(-328.79 -327.628)" fill="#091946"/>
      <path id="Trazado_150815" data-name="Trazado 150815" d="M57.915,36.218q-2.035.949-3.983,2.1a46.677,46.677,0,0,0-8.406,6.357c-.306.285-.6.576-.9.874-.12.12-.237.237-.355.36-.411.423-.816.851-1.206,1.284A46.844,46.844,0,0,0,37.1,55.35q-1.073,1.872-1.961,3.812L23.309,47.331l22.86-22.858Zm0,0" transform="translate(-17.845 -18.737)" fill="#636363"/>
      <path id="Trazado_150816" data-name="Trazado 150816" d="M43.445,13.982l8.334,8.333a46.513,46.513,0,0,0-5.965,2.31q-2.033.946-3.983,2.1L37.38,22.274a4.907,4.907,0,0,0-6.938,0l-9.993,9.992a4.906,4.906,0,0,0,0,6.937L32.6,51.349a5.076,5.076,0,0,1-7.179,7.179L12.156,45.268a15.885,15.885,0,0,1-.843-21.554c.268-.31.548-.614.843-.908l8.823-8.823c.325-.324.664-.635,1.01-.925A15.883,15.883,0,0,1,43.445,13.982Zm0,0" transform="translate(-5.744 -7.144)" fill="#ccffd0"/>
      <path id="Trazado_150819" data-name="Trazado 150819" d="M30.455,28.63l-3.26,3.259a5.239,5.239,0,0,1-7.408,0l-6.4-6.394a5.241,5.241,0,0,1,0-7.41l3.26-3.259a5.237,5.237,0,0,1,7.408,0l6.4,6.394A5.24,5.24,0,0,1,30.455,28.63Zm0,0" transform="translate(-9.078 -10.177)" fill="#fecbaa"/>
      <path id="Trazado_150820" data-name="Trazado 150820" d="M26.357,24.535,23.1,27.794a5.239,5.239,0,0,1-7.408,0l-2.3-2.3a5.239,5.239,0,0,1,0-7.41l3.259-3.259a5.238,5.238,0,0,1,7.409,0l2.3,2.3A5.24,5.24,0,0,1,26.357,24.535Zm0,0" transform="translate(-9.075 -10.177)" fill="#091946"/>
      <path id="Trazado_150821" data-name="Trazado 150821" d="M141.437,299.59l-8.627,7.648a1.543,1.543,0,0,1-2.177-.132l-3.409-3.846-2.339-2.638-3.593-4.053a1.539,1.539,0,0,1,.132-2.174l8.628-7.648a1.54,1.54,0,0,1,2.174.132l3.522,3.971,2.339,2.641,3.48,3.923A1.544,1.544,0,0,1,141.437,299.59Zm0,0" transform="translate(-92.565 -219.241)" fill="#fff"/>
      <path id="Trazado_150822" data-name="Trazado 150822" d="M312.132,150.5l-12.375,10.969a1.812,1.812,0,0,1-2.556-.154l-8.983-10.133a1.811,1.811,0,0,1,.154-2.556l12.376-10.969a1.809,1.809,0,0,1,2.555.154l8.984,10.133A1.811,1.811,0,0,1,312.132,150.5Zm0,0" transform="translate(-220.314 -105.042)" fill="#fff"/>
      <path id="Trazado_150823" data-name="Trazado 150823" d="M118.211,276.434a17.642,17.642,0,0,0-1.939-22.648l-7.843-7.843a48.586,48.586,0,0,0,1.408-18.2,1.758,1.758,0,0,0-3.494.388,45.083,45.083,0,0,1-.817,14.907l-2.516-2.516a6.835,6.835,0,1,0-9.666,9.666l6.6,6.6a45.266,45.266,0,0,1-48.393,20.461l2.52-2.52a6.834,6.834,0,0,0-9.667-9.664L37.8,271.682a45.538,45.538,0,0,1-15.2-15.382c-.018-.038-.032-.077-.054-.113-.744-1.262-1.424-2.551-2.023-3.839a44.645,44.645,0,0,1-2.223-5.735,1.79,1.79,0,0,0-.1-.252,45.134,45.134,0,0,1-1.784-17.316,1.758,1.758,0,0,0-3.5-.317,48.607,48.607,0,0,0,1.7,17.924l-7.57,7.57a17.635,17.635,0,0,0-2.014,22.54l-.176.176a7,7,0,0,0,0,9.9l3.259,3.259a7,7,0,0,0,9.894,0l.157-.158a17.523,17.523,0,0,0,10.148,3.231,17.881,17.881,0,0,0,3.252-.3,1.758,1.758,0,0,0-.639-3.457A14.071,14.071,0,0,1,20.7,287.4l3.7-3.7a6.951,6.951,0,0,0,1.839-3.237,6.673,6.673,0,0,0,8.51-.762l4.554-4.553.009-.009,7.583-7.582a3.326,3.326,0,0,1,4.7,0,3.319,3.319,0,0,1,0,4.69L46.9,276.936l-.019.019-8.555,8.554a14.382,14.382,0,0,1-1.484,1.294,1.758,1.758,0,1,0,2.12,2.8A17.715,17.715,0,0,0,40.814,288l7.84-7.838a48.683,48.683,0,0,0,26.24-.2l7.6,7.6a17.59,17.59,0,0,0,11.764,5.153q.358.015.715.015a17.569,17.569,0,0,0,10.063-3.156l.178.178a7,7,0,0,0,9.894,0l3.259-3.259a6.995,6.995,0,0,0,0-9.895ZM5.4,266.128a14.084,14.084,0,0,1,4.127-9.419l6.324-6.323a48.406,48.406,0,0,0,2.974,6.413l-3.49,3.489a6.668,6.668,0,0,0-.83,8.417,6.957,6.957,0,0,0-3.259,1.839l-3.684,3.684A14.072,14.072,0,0,1,5.4,266.128Zm16.515,15.086-5.11,5.109,0,0-1.284,1.284a3.486,3.486,0,0,1-4.923,0l-3.259-3.259a3.48,3.48,0,0,1,0-4.923l1.257-1.257.013-.013,5.125-5.124a3.483,3.483,0,0,1,4.912-.009l3.114,3.112.157.157a3.482,3.482,0,0,1,0,4.923Zm10.35-4a3.145,3.145,0,0,1-4.452,0l-3.395-3.394L24.4,273.8l-1.518-1.518-1.741-1.741-.012-.011-3.309-3.308a3.145,3.145,0,0,1,0-4.452L20.7,259.89a49,49,0,0,0,5.441,6.84l-.9.9a1.758,1.758,0,0,0,2.487,2.486l.933-.933a48.8,48.8,0,0,0,6.588,5.044Zm63.568-34.206a3.323,3.323,0,0,1,4.693,0l13.261,13.262a14.2,14.2,0,0,1,1.892,17.628l-3.7-3.7a6.962,6.962,0,0,0-3.237-1.834,6.663,6.663,0,0,0-.76-8.515L95.831,247.7A3.324,3.324,0,0,1,95.832,243.009Zm-.84,25.432.916.916a1.758,1.758,0,1,0,2.486-2.487l-.947-.947a48.929,48.929,0,0,0,5.049-6.584l3,3a3.148,3.148,0,0,1,0,4.452l-3.4,3.4-.009.008-3.259,3.259-.009.009L95.5,276.779a3.154,3.154,0,0,1-4.453,0l-2.905-2.906A48.7,48.7,0,0,0,94.992,268.441ZM94.4,289.2a14.087,14.087,0,0,1-9.419-4.126L78.64,278.73c1.177-.443,2.339-.932,3.476-1.464.987-.461,1.974-.964,2.945-1.5l3.5,3.5a6.675,6.675,0,0,0,8.413.83,6.957,6.957,0,0,0,1.845,3.259l3.682,3.682A14.1,14.1,0,0,1,94.4,289.2Zm21.483-5.2-3.26,3.259a3.484,3.484,0,0,1-4.922,0l-6.394-6.394a3.479,3.479,0,0,1,0-4.918l3.269-3.269a3.485,3.485,0,0,1,4.918,0l5.14,5.14,0,0,1.253,1.253a3.48,3.48,0,0,1,0,4.923Zm0,0" transform="translate(-1.433 -173.168)"/>
      <path id="Trazado_150824" data-name="Trazado 150824" d="M18.431,52.628a6.834,6.834,0,0,0,9.664-9.666l-6.634-6.633a45.317,45.317,0,0,1,6.058-7.787,1.9,1.9,0,0,0,.145-.129,1.76,1.76,0,0,0,.157-.184l.208-.211a45.374,45.374,0,0,1,8.691-6.8,1.778,1.778,0,0,0,.263-.127c1.251-.739,2.539-1.419,3.834-2.023a44.984,44.984,0,0,1,5.738-2.222,1.728,1.728,0,0,0,.293-.125,45.161,45.161,0,0,1,23.076-.845l-2.548,2.548a6.833,6.833,0,1,0,9.663,9.663l6.626-6.625a45.556,45.556,0,0,1,15.521,15.98,65.935,65.935,0,0,1,3.921,8.911,1.728,1.728,0,0,0,.119.378.023.023,0,0,1,0,.006c.353,1.167,1.053,1.043,1.605,1.043h0a1.757,1.757,0,0,0,1.242-.515l8.334-8.332A17.638,17.638,0,0,0,116.423,16.4l.176-.176a7,7,0,0,0,0-9.895L113.34,3.069a7.005,7.005,0,0,0-9.895,0l-.157.157A17.648,17.648,0,0,0,80.635,5.168l-7.812,7.812a48.673,48.673,0,0,0-26.317.181L38.943,5.6A17.642,17.642,0,0,0,16.4,3.583l-.176-.177a7.006,7.006,0,0,0-9.895,0L3.071,6.666a6.995,6.995,0,0,0,0,9.895l.158.158A17.641,17.641,0,0,0,5.168,39.367ZM96.977,19.285c.024.024.048.049.072.073l6.58,6.577a3.146,3.146,0,0,1,0,4.452l-2.89,2.89A49.014,49.014,0,0,0,95.3,26.432l.9-.9a1.758,1.758,0,0,0-2.486-2.486l-.929.929a48.764,48.764,0,0,0-6.581-5.052l2.974-2.974a3.154,3.154,0,0,1,4.454,0Zm19.074,7.75a14.077,14.077,0,0,1-4.126,9.418l-6.371,6.368a63,63,0,0,0-2.946-6.438l3.507-3.508a6.667,6.667,0,0,0,.83-8.417,6.953,6.953,0,0,0,3.259-1.84l3.683-3.683A14.068,14.068,0,0,1,116.051,27.035Zm-7.659-22.5a3.469,3.469,0,0,1,2.461,1.018l3.26,3.259a3.482,3.482,0,0,1,0,4.923l-1.279,1.279-.011.011-5.105,5.1a3.485,3.485,0,0,1-4.922,0l-3.259-3.259a3.485,3.485,0,0,1,0-4.923l6.4-6.394A3.466,3.466,0,0,1,108.393,4.537ZM83.122,7.653a14.2,14.2,0,0,1,17.632-1.892l-3.7,3.7A6.949,6.949,0,0,0,95.216,12.7a6.676,6.676,0,0,0-8.516.759L74.554,25.606a3.323,3.323,0,0,1-4.694,0,3.316,3.316,0,0,1,0-4.691ZM15.949,30.817a3.148,3.148,0,0,1,0-4.452l9.993-9.991a3.151,3.151,0,0,1,4.452,0l2.871,2.87a49.026,49.026,0,0,0-6.846,5.438l-.887-.887a1.758,1.758,0,1,0-2.486,2.487l.914.913a48.722,48.722,0,0,0-5.047,6.587ZM27.038,3.955a14.081,14.081,0,0,1,9.419,4.126L42.773,14.4a48.6,48.6,0,0,0-6.415,2.97L32.88,13.888a6.674,6.674,0,0,0-8.414-.828A6.95,6.95,0,0,0,22.62,9.8L18.937,6.118A14.077,14.077,0,0,1,27.038,3.955ZM5.557,9.151,8.817,5.892a3.487,3.487,0,0,1,4.923,0l1.274,1.274.019.018,5.1,5.1a3.482,3.482,0,0,1,0,4.923l-3.26,3.259a3.485,3.485,0,0,1-4.923,0L5.557,14.074a3.48,3.48,0,0,1,0-4.923Zm.207,10.1,3.7,3.7A6.959,6.959,0,0,0,12.7,24.789a6.661,6.661,0,0,0,.76,8.514L25.609,45.448a3.319,3.319,0,0,1-4.692,4.694L7.654,36.88A14.2,14.2,0,0,1,5.764,19.253Zm0,0" transform="translate(0 0)"/>
      <path id="Trazado_150825" data-name="Trazado 150825" d="M123.151,279.695l-8.627,7.647a3.3,3.3,0,0,0-.281,4.658L119,297.361a.146.146,0,0,1,.015.018l.013.012,4.56,5.144a3.3,3.3,0,0,0,4.657.28l8.627-7.648a3.3,3.3,0,0,0,.281-4.658l-9.34-10.536A3.3,3.3,0,0,0,123.151,279.695Zm2.17,2.774,3.389,3.823-8.251,7.422-3.443-3.884Zm.749,17.573-3.278-3.7,8.25-7.421,3.332,3.757Zm0,0" transform="translate(-86.831 -213.504)"/>
      <path id="Trazado_150826" data-name="Trazado 150826" d="M293.838,130.6l-12.376,10.969a3.569,3.569,0,0,0-.3,5.037l8.984,10.134a3.545,3.545,0,0,0,2.456,1.195c.073,0,.146.006.219.006a3.541,3.541,0,0,0,2.362-.9l12.376-10.969a3.568,3.568,0,0,0,.3-5.037l-8.983-10.133A3.573,3.573,0,0,0,293.838,130.6Zm11.4,12.806a.042.042,0,0,1-.017.036h0l-12.376,10.969a.039.039,0,0,1-.038.014.048.048,0,0,1-.037-.017l-8.983-10.134a.047.047,0,0,1-.014-.038.052.052,0,0,1,.017-.037l12.376-10.969a.053.053,0,0,1,.035-.014.049.049,0,0,1,.039.017l8.984,10.134A.044.044,0,0,1,305.241,143.41Zm0,0" transform="translate(-214.571 -99.306)"/>
    </g>
  </g>
</svg>
