<svg xmlns="http://www.w3.org/2000/svg" width="400" height="295" viewBox="0 0 400 295">
  <g id="Grupo_96854" data-name="Grupo 96854" transform="translate(-179.668 -3434)">
    <path id="Trazado_155911" data-name="Trazado 155911" d="M20,0H380a20,20,0,0,1,20,20V275a20,20,0,0,1-20,20H20A20,20,0,0,1,0,275V20A20,20,0,0,1,20,0Z" transform="translate(179.668 3434)" fill="#7ae582"/>
    <path id="Trazado_155914" data-name="Trazado 155914" d="M76.413,14.838H70.788v3.809h6.6V21H67.858V6.781H77.37V9.154H70.788v3.389h5.625Zm6.533-1.25,1.777-3.154h3.018l-3.008,5.176L87.868,21H84.841l-1.885-3.32L81.081,21H78.044l3.135-5.391-3-5.176h3.027ZM98.61,15.814A6.337,6.337,0,0,1,97.5,19.726a3.554,3.554,0,0,1-2.993,1.47,3.292,3.292,0,0,1-2.588-1.113v4.98H89.1V10.434h2.617l.1,1.035a3.317,3.317,0,0,1,2.676-1.23,3.578,3.578,0,0,1,3.037,1.445,6.509,6.509,0,0,1,1.084,3.984Zm-2.822-.205a4.159,4.159,0,0,0-.522-2.275,1.7,1.7,0,0,0-1.519-.8,1.848,1.848,0,0,0-1.826,1.016v4.326a1.879,1.879,0,0,0,1.846,1.045Q95.788,18.92,95.788,15.609Zm4.131.01a6.266,6.266,0,0,1,.605-2.8,4.432,4.432,0,0,1,1.743-1.9,5.086,5.086,0,0,1,2.642-.674,4.812,4.812,0,0,1,3.491,1.309,5.252,5.252,0,0,1,1.509,3.555l.02.723a5.523,5.523,0,0,1-1.357,3.9,5.261,5.261,0,0,1-7.29,0,5.62,5.62,0,0,1-1.362-3.984Zm2.822.205a3.939,3.939,0,0,0,.566,2.3,2.037,2.037,0,0,0,3.223.01,4.31,4.31,0,0,0,.576-2.515,3.9,3.9,0,0,0-.576-2.285,1.874,1.874,0,0,0-1.621-.811,1.843,1.843,0,0,0-1.6.806A4.383,4.383,0,0,0,102.741,15.824ZM117.39,18.08a.909.909,0,0,0-.513-.815,5.824,5.824,0,0,0-1.646-.532q-3.77-.791-3.77-3.2a2.9,2.9,0,0,1,1.167-2.349,4.707,4.707,0,0,1,3.052-.942,5.067,5.067,0,0,1,3.218.947,2.985,2.985,0,0,1,1.206,2.461h-2.822a1.366,1.366,0,0,0-.391-1,1.653,1.653,0,0,0-1.221-.4,1.689,1.689,0,0,0-1.1.322,1.017,1.017,0,0,0-.391.82.87.87,0,0,0,.444.757,4.571,4.571,0,0,0,1.5.5,12.244,12.244,0,0,1,1.777.474,2.92,2.92,0,0,1,2.236,2.842,2.756,2.756,0,0,1-1.24,2.339,5.35,5.35,0,0,1-3.2.894,5.588,5.588,0,0,1-2.358-.474,3.957,3.957,0,0,1-1.616-1.3,3.018,3.018,0,0,1-.586-1.782h2.676a1.473,1.473,0,0,0,.557,1.152,2.208,2.208,0,0,0,1.387.4,2.044,2.044,0,0,0,1.226-.308A.957.957,0,0,0,117.39,18.08ZM124.929,21H122.1V10.434h2.832Zm-3-13.3a1.39,1.39,0,0,1,.425-1.045,1.831,1.831,0,0,1,2.31,0,1.382,1.382,0,0,1,.43,1.045,1.386,1.386,0,0,1-.435,1.055,1.81,1.81,0,0,1-2.295,0A1.386,1.386,0,0,1,121.931,7.7Zm9.717,11.221a1.851,1.851,0,0,0,1.27-.43,1.506,1.506,0,0,0,.508-1.143h2.646a3.62,3.62,0,0,1-.586,1.968,3.866,3.866,0,0,1-1.577,1.387,4.936,4.936,0,0,1-2.212.493,4.587,4.587,0,0,1-3.574-1.44,5.7,5.7,0,0,1-1.309-3.979V15.59a5.635,5.635,0,0,1,1.3-3.9,4.534,4.534,0,0,1,3.564-1.455,4.444,4.444,0,0,1,3.179,1.128,3.994,3.994,0,0,1,1.216,3h-2.646a1.923,1.923,0,0,0-.508-1.333,1.892,1.892,0,0,0-2.778.205,4.155,4.155,0,0,0-.5,2.329v.293a4.207,4.207,0,0,0,.5,2.344A1.722,1.722,0,0,0,131.647,18.92ZM140.661,21h-2.832V10.434h2.832Zm-3-13.3a1.39,1.39,0,0,1,.425-1.045,1.831,1.831,0,0,1,2.31,0,1.382,1.382,0,0,1,.43,1.045,1.386,1.386,0,0,1-.435,1.055,1.81,1.81,0,0,1-2.295,0A1.386,1.386,0,0,1,137.663,7.7Zm4.883,7.92a6.267,6.267,0,0,1,.605-2.8,4.432,4.432,0,0,1,1.743-1.9,5.086,5.086,0,0,1,2.642-.674,4.812,4.812,0,0,1,3.491,1.309,5.252,5.252,0,0,1,1.509,3.555l.02.723a5.523,5.523,0,0,1-1.357,3.9,5.261,5.261,0,0,1-7.29,0,5.62,5.62,0,0,1-1.362-3.984Zm2.822.205a3.939,3.939,0,0,0,.566,2.3,2.037,2.037,0,0,0,3.223.01,4.31,4.31,0,0,0,.576-2.515,3.9,3.9,0,0,0-.576-2.285,1.874,1.874,0,0,0-1.621-.811,1.843,1.843,0,0,0-1.6.806A4.383,4.383,0,0,0,145.368,15.824ZM148.093,6h3.076l-2.705,3.027h-2.295Zm8.8,4.434.088,1.221a3.689,3.689,0,0,1,3.037-1.416,3.066,3.066,0,0,1,2.5.986,4.6,4.6,0,0,1,.84,2.949V21h-2.822V14.242a1.831,1.831,0,0,0-.391-1.3,1.749,1.749,0,0,0-1.3-.405,1.942,1.942,0,0,0-1.787,1.016V21h-2.822V10.434Z" transform="translate(264.668 3641)" fill="#12263f"/>
    <g id="educacion" transform="translate(319.668 3499)">
      <path id="Trazado_150900" data-name="Trazado 150900" d="M202.687,68.125h61.875a4.687,4.687,0,0,0,4.688-4.687V14.688A4.687,4.687,0,0,0,264.563,10H202.687A4.687,4.687,0,0,0,198,14.688v48.75A4.687,4.687,0,0,0,202.687,68.125Z" transform="translate(-151.594 -7.656)" fill="#fb0"/>
      <g id="Grupo_88880" data-name="Grupo 88880" transform="translate(2.344 44.766)">
        <rect id="Rectángulo_34585" data-name="Rectángulo 34585" width="18.75" height="16.758" transform="translate(8.92 13.125)" fill="#7ae582"/>
        <path id="Trazado_150901" data-name="Trazado 150901" d="M17.084,228.5h-2.4A4.687,4.687,0,0,1,10,223.812v-17.5A15.309,15.309,0,0,1,25.309,191H32.8a15.309,15.309,0,0,1,13.017,7.251l1.1,1.772,9.961-5.859,4.672,5.524L49.681,211.554a5.2,5.2,0,0,1-7.344.014l-4.665-4.63" transform="translate(-10 -191)" fill="#7ae582"/>
      </g>
      <path id="Trazado_150902" data-name="Trazado 150902" d="M48.063,308.5v45.352h9.362V318.461h.026v35.391h9.362V308.5Z" transform="translate(-36.798 -236.195)" fill="#266999"/>
      <path id="Trazado_150903" data-name="Trazado 150903" d="M63.5,135.875h0a7.5,7.5,0,0,1-7.5-7.5V126.5a7.5,7.5,0,0,1,7.5-7.5h0a7.5,7.5,0,0,1,7.5,7.5v1.875A7.5,7.5,0,0,1,63.5,135.875Z" transform="translate(-42.875 -91.109)" fill="#feda9b"/>
      <path id="Trazado_150904" data-name="Trazado 150904" d="M118.747,379.187a2.345,2.345,0,1,0,1.657-.687A2.361,2.361,0,0,0,118.747,379.187Z" transform="translate(-90.39 -289.789)"/>
      <path id="Trazado_150905" data-name="Trazado 150905" d="M112.969,0H51.094a7.039,7.039,0,0,0-7.031,7.031V48.244l-4.019,2.364a17.522,17.522,0,0,0-11.277-7.815,9.786,9.786,0,0,0,1.7-5.527V35.391a9.844,9.844,0,1,0-19.687,0v1.875a9.792,9.792,0,0,0,1.941,5.862A17.681,17.681,0,0,0,0,60.075v17.5a7.039,7.039,0,0,0,7.031,7.031h1.89v33.047A2.344,2.344,0,0,0,11.265,120h18.75a2.344,2.344,0,0,0,2.344-2.344V100.664a2.344,2.344,0,0,0-4.688,0v14.648H23v-27.3a2.344,2.344,0,0,0-.026-.334v-2.1a2.344,2.344,0,0,0-4.687,0v29.736H13.609V76.992H27.671v5.273a2.344,2.344,0,0,0,4.688,0V66.331l.671.666a7.561,7.561,0,0,0,10.653-.02L55.549,55.111a2.344,2.344,0,0,0,.132-3.171l-.917-1.084,10.7-10.7a2.344,2.344,0,1,0-3.315-3.315L51.726,47.264l-.717-.848a2.343,2.343,0,0,0-2.258-.781V7.031a2.346,2.346,0,0,1,2.344-2.344h61.875a2.346,2.346,0,0,1,2.344,2.344v48.75a2.346,2.346,0,0,1-2.344,2.344H69.492a2.344,2.344,0,1,0,0,4.687h43.477A7.039,7.039,0,0,0,120,55.781V7.031A7.039,7.039,0,0,0,112.969,0Zm-97.5,35.391a5.156,5.156,0,1,1,10.313,0v1.875a5.156,5.156,0,0,1-10.313,0Zm35.24,17.93L40.367,63.662a2.865,2.865,0,0,1-4.036.008l-3.973-3.942V57.539a2.344,2.344,0,0,0-4.688,0V72.3H13.609V57.539a2.344,2.344,0,0,0-4.687,0V79.922H7.031a2.346,2.346,0,0,1-2.344-2.344v-17.5A12.98,12.98,0,0,1,17.653,47.109h7.491A12.884,12.884,0,0,1,36.168,53.25l1.1,1.772a2.344,2.344,0,0,0,3.181.786L48.7,50.951Z"/>
      <path id="Trazado_150906" data-name="Trazado 150906" d="M247.3,248a2.345,2.345,0,1,0,1.655.687A2.37,2.37,0,0,0,247.3,248Z" transform="translate(-187.54 -189.875)"/>
      <path id="Trazado_150907" data-name="Trazado 150907" d="M260.324,84.855a2.344,2.344,0,0,0,2.344-2.344v-15a2.344,2.344,0,0,0-4.023-1.635l-4.981,5.117a2.344,2.344,0,0,0,3.359,3.27l.957-.983v9.232A2.344,2.344,0,0,0,260.324,84.855Z" transform="translate(-193.703 -49.894)"/>
      <path id="Trazado_150908" data-name="Trazado 150908" d="M413.074,84.855a2.344,2.344,0,0,0,2.344-2.344v-15a2.344,2.344,0,0,0-4.023-1.635l-4.98,5.117a2.344,2.344,0,1,0,3.359,3.27l.957-.983v9.232A2.344,2.344,0,0,0,413.074,84.855Z" transform="translate(-310.652 -49.894)"/>
      <path id="Trazado_150909" data-name="Trazado 150909" d="M324.351,73.667a2.344,2.344,0,0,0-2.344,2.344v3.164h-3.164a2.344,2.344,0,0,0,0,4.688h3.164v3.164a2.344,2.344,0,0,0,4.688,0V83.863h3.164a2.344,2.344,0,0,0,0-4.687h-3.164V76.011A2.344,2.344,0,0,0,324.351,73.667Z" transform="translate(-242.32 -56.401)"/>
    </g>
  </g>
</svg>
