<svg xmlns="http://www.w3.org/2000/svg" width="400" height="295" viewBox="0 0 400 295">
  <g id="Grupo_96849" data-name="Grupo 96849" transform="translate(-1019.668 -2796)">
    <rect id="Rectángulo_34408" data-name="Rectángulo 34408" width="400" height="295" rx="20" transform="translate(1019.668 2796)" fill="#7ae582"/>
    <path id="Trazado_155906" data-name="Trazado 155906" d="M56.208,6.781h2.93v9.844a4.707,4.707,0,0,1-.6,2.4,4.076,4.076,0,0,1-1.694,1.606,5.293,5.293,0,0,1-2.471.566,5.031,5.031,0,0,1-3.516-1.147A4.169,4.169,0,0,1,49.6,16.8h2.949a2.286,2.286,0,0,0,.439,1.543,1.758,1.758,0,0,0,1.387.5,1.679,1.679,0,0,0,1.338-.576,2.434,2.434,0,0,0,.5-1.641ZM67.79,19.926A3.539,3.539,0,0,1,64.9,21.2a3.338,3.338,0,0,1-2.593-.977,4.169,4.169,0,0,1-.913-2.861V10.434h2.822V17.26q0,1.65,1.5,1.65a2.038,2.038,0,0,0,1.973-1v-7.48h2.832V21H67.868Zm9.727,1.27a5.187,5.187,0,0,1-3.784-1.426,5.068,5.068,0,0,1-1.46-3.8V15.7a6.383,6.383,0,0,1,.615-2.847,4.515,4.515,0,0,1,1.743-1.934,4.893,4.893,0,0,1,2.573-.679,4.385,4.385,0,0,1,3.413,1.367,5.555,5.555,0,0,1,1.245,3.877v1.152H75.134a2.622,2.622,0,0,0,.825,1.66,2.5,2.5,0,0,0,1.743.625,3.046,3.046,0,0,0,2.549-1.182l1.387,1.553a4.237,4.237,0,0,1-1.719,1.4A5.639,5.639,0,0,1,77.517,21.2Zm-.322-8.672a1.767,1.767,0,0,0-1.362.566,2.926,2.926,0,0,0-.669,1.621h3.926v-.225a2.086,2.086,0,0,0-.508-1.45A1.824,1.824,0,0,0,77.194,12.523Zm5.859,3.115a6.193,6.193,0,0,1,1.157-3.916,3.75,3.75,0,0,1,3.12-1.484,3.289,3.289,0,0,1,2.705,1.191l.117-1h2.559V20.648a4.516,4.516,0,0,1-.63,2.412,4.045,4.045,0,0,1-1.772,1.563,6.231,6.231,0,0,1-2.676.537,5.794,5.794,0,0,1-2.266-.464,4.021,4.021,0,0,1-1.67-1.2l1.25-1.719a3.306,3.306,0,0,0,2.559,1.182,2.42,2.42,0,0,0,1.748-.6,2.253,2.253,0,0,0,.625-1.7v-.566a3.264,3.264,0,0,1-2.568,1.1,3.74,3.74,0,0,1-3.081-1.489,6.191,6.191,0,0,1-1.177-3.95Zm2.822.205a3.845,3.845,0,0,0,.576,2.251,1.834,1.834,0,0,0,1.582.815,1.961,1.961,0,0,0,1.846-.967V13.5a1.956,1.956,0,0,0-1.826-.967,1.845,1.845,0,0,0-1.6.83A4.334,4.334,0,0,0,85.876,15.844Zm8.564-.225a6.266,6.266,0,0,1,.605-2.8,4.432,4.432,0,0,1,1.743-1.9,5.086,5.086,0,0,1,2.642-.674,4.812,4.812,0,0,1,3.491,1.309,5.252,5.252,0,0,1,1.509,3.555l.02.723a5.523,5.523,0,0,1-1.357,3.9,5.261,5.261,0,0,1-7.29,0,5.62,5.62,0,0,1-1.362-3.984Zm2.822.205a3.939,3.939,0,0,0,.566,2.3,2.037,2.037,0,0,0,3.223.01,4.31,4.31,0,0,0,.576-2.515,3.9,3.9,0,0,0-.576-2.285,1.874,1.874,0,0,0-1.621-.811,1.843,1.843,0,0,0-1.6.806A4.383,4.383,0,0,0,97.263,15.824Zm13.467-.186a6.368,6.368,0,0,1,1.108-3.936,3.6,3.6,0,0,1,3.032-1.465,3.236,3.236,0,0,1,2.549,1.152V6h2.832V21H117.7l-.137-1.123a3.321,3.321,0,0,1-2.715,1.318,3.587,3.587,0,0,1-2.993-1.47A6.573,6.573,0,0,1,110.729,15.639Zm2.822.205a4.16,4.16,0,0,0,.518,2.275,1.687,1.687,0,0,0,1.5.791,1.889,1.889,0,0,0,1.846-1.1v-4.17a1.862,1.862,0,0,0-1.826-1.1Q113.552,12.533,113.552,15.844ZM127.3,21.2a5.187,5.187,0,0,1-3.784-1.426,5.068,5.068,0,0,1-1.46-3.8V15.7a6.383,6.383,0,0,1,.615-2.847,4.515,4.515,0,0,1,1.743-1.934,4.893,4.893,0,0,1,2.573-.679,4.385,4.385,0,0,1,3.413,1.367,5.555,5.555,0,0,1,1.245,3.877v1.152h-6.729a2.622,2.622,0,0,0,.825,1.66,2.5,2.5,0,0,0,1.743.625,3.046,3.046,0,0,0,2.549-1.182l1.387,1.553a4.237,4.237,0,0,1-1.719,1.4A5.639,5.639,0,0,1,127.3,21.2Zm-.322-8.672a1.767,1.767,0,0,0-1.362.566,2.926,2.926,0,0,0-.669,1.621h3.926v-.225a2.086,2.086,0,0,0-.508-1.45A1.824,1.824,0,0,0,126.979,12.523Zm17.188.557A7.667,7.667,0,0,0,143.151,13a2.067,2.067,0,0,0-2.1,1.084V21h-2.822V10.434H140.9l.078,1.26a2.615,2.615,0,0,1,2.354-1.455,2.957,2.957,0,0,1,.879.127Zm.566,2.539a6.267,6.267,0,0,1,.605-2.8,4.432,4.432,0,0,1,1.743-1.9,5.086,5.086,0,0,1,2.642-.674,4.812,4.812,0,0,1,3.491,1.309,5.252,5.252,0,0,1,1.509,3.555l.02.723a5.523,5.523,0,0,1-1.357,3.9,5.261,5.261,0,0,1-7.29,0,5.62,5.62,0,0,1-1.362-3.984Zm2.822.205a3.939,3.939,0,0,0,.566,2.3,2.037,2.037,0,0,0,3.223.01,4.31,4.31,0,0,0,.576-2.515,3.9,3.9,0,0,0-.576-2.285,1.874,1.874,0,0,0-1.621-.811,1.843,1.843,0,0,0-1.6.806A4.383,4.383,0,0,0,147.556,15.824ZM159.46,21h-2.832V6h2.832Zm7.188.2a5.187,5.187,0,0,1-3.784-1.426,5.068,5.068,0,0,1-1.46-3.8V15.7a6.383,6.383,0,0,1,.615-2.847,4.515,4.515,0,0,1,1.743-1.934,4.893,4.893,0,0,1,2.573-.679,4.385,4.385,0,0,1,3.413,1.367,5.555,5.555,0,0,1,1.245,3.877v1.152h-6.729a2.622,2.622,0,0,0,.825,1.66,2.5,2.5,0,0,0,1.743.625,3.046,3.046,0,0,0,2.549-1.182l1.387,1.553a4.237,4.237,0,0,1-1.719,1.4A5.639,5.639,0,0,1,166.647,21.2Zm-.322-8.672a1.767,1.767,0,0,0-1.362.566,2.926,2.926,0,0,0-.669,1.621h3.926v-.225a2.086,2.086,0,0,0-.508-1.45A1.824,1.824,0,0,0,166.325,12.523Zm11.992,5.557a.909.909,0,0,0-.513-.815,5.824,5.824,0,0,0-1.646-.532q-3.77-.791-3.77-3.2a2.9,2.9,0,0,1,1.167-2.349,4.707,4.707,0,0,1,3.052-.942,5.067,5.067,0,0,1,3.218.947,2.985,2.985,0,0,1,1.206,2.461H178.21a1.366,1.366,0,0,0-.391-1,1.653,1.653,0,0,0-1.221-.4,1.689,1.689,0,0,0-1.1.322,1.017,1.017,0,0,0-.391.82.87.87,0,0,0,.444.757,4.571,4.571,0,0,0,1.5.5,12.244,12.244,0,0,1,1.777.474,2.92,2.92,0,0,1,2.236,2.842,2.756,2.756,0,0,1-1.24,2.339,5.35,5.35,0,0,1-3.2.894,5.588,5.588,0,0,1-2.358-.474,3.957,3.957,0,0,1-1.616-1.3,3.018,3.018,0,0,1-.586-1.782h2.676a1.473,1.473,0,0,0,.557,1.152,2.208,2.208,0,0,0,1.387.4,2.044,2.044,0,0,0,1.226-.308A.957.957,0,0,0,178.317,18.08Z" transform="translate(1104.668 3003)" fill="#12263f"/>
    <g id="rol" transform="translate(1160.168 2861)">
      <path id="Trazado_148256" data-name="Trazado 148256" d="M6,27H29.226V50.226H6Z" transform="translate(3.677 23.323)" fill="#cf9e76"/>
      <path id="Trazado_148257" data-name="Trazado 148257" d="M46.381,35.043l-2.748,2.729.813,4.49L40.71,44.855V52.6l3.735,2.594-.813,4.49,2.748,2.748-1.51,1.49L13.439,83.333a58.068,58.068,0,0,1,0-69.213L44.871,33.533Z" transform="translate(-0.065 11.274)" fill="#fb0"/>
      <path id="Trazado_148258" data-name="Trazado 148258" d="M6,27H29.226V50.226H6Z" transform="translate(3.677 23.323)" fill="#3ca8f4"/>
      <g id="Grupo_85748" data-name="Grupo 85748" transform="translate(25.394 1.935)">
        <path id="Trazado_148259" data-name="Trazado 148259" d="M63.92,44.871l-1.49,1.51-2.748-2.748-4.49.813L52.6,40.71H44.856l-2.594,3.735-4.49-.813-2.729,2.748-1.51-1.51L14.12,13.439a58.068,58.068,0,0,1,69.213,0Z" transform="translate(-14.12 -2)" fill="#fb0"/>
        <path id="Trazado_148260" data-name="Trazado 148260" d="M63.92,40.57l-1.49-1.49-2.748,2.729L55.191,41,52.6,44.732H44.856L42.262,41l-4.49.813L35.043,39.08l-1.51,1.49L14.12,72A57.567,57.567,0,0,0,40.985,82.919H56.468A57.567,57.567,0,0,0,83.333,72Z" transform="translate(-14.12 32.688)" fill="#fb0"/>
        <path id="Trazado_148261" data-name="Trazado 148261" d="M41.809,59.681,41,55.191,44.732,52.6V44.855L41,42.262l.813-4.49L39.08,35.043l1.49-1.51L72,14.12a58.068,58.068,0,0,1,0,69.213L40.57,63.92l-1.49-1.49Z" transform="translate(9.23 9.338)" fill="#fb0"/>
      </g>
      <path id="Trazado_148262" data-name="Trazado 148262" d="M49,36H60.613v7.742H49Z" transform="translate(43.903 31.742)" fill="#7ae582"/>
      <path id="Trazado_148263" data-name="Trazado 148263" d="M43.484,58v7.219a57.61,57.61,0,0,1-15.484,0V58Z" transform="translate(24.258 52.323)" fill="#3ca8f4"/>
      <path id="Trazado_148264" data-name="Trazado 148264" d="M54.968,54v3.871A3.882,3.882,0,0,1,51.1,61.742H27.871A3.882,3.882,0,0,1,24,57.871V54Z" transform="translate(20.516 48.581)" fill="#3ca8f4"/>
      <path id="Trazado_148265" data-name="Trazado 148265" d="M54.968,49.871V61.484H24V49.871A3.882,3.882,0,0,1,27.871,46H51.1A3.882,3.882,0,0,1,54.968,49.871Z" transform="translate(20.516 41.097)" fill="#7ae582"/>
      <path id="Trazado_148266" data-name="Trazado 148266" d="M10,35h7.742v7.742H10Z" transform="translate(7.419 30.806)" fill="#7ae582"/>
      <path id="Trazado_148267" data-name="Trazado 148267" d="M10,27h7.742v7.742H10Z" transform="translate(7.419 23.323)" fill="#7ae582"/>
      <path id="Trazado_148268" data-name="Trazado 148268" d="M49.226,29.23H26a6.213,6.213,0,0,1,3.465-5.594l4.277-2.148v-1.51a5.779,5.779,0,0,1-1.935-4.3V11.81A5.812,5.812,0,0,1,37.923,6a6.055,6.055,0,0,1,5.5,6.135v3.542a5.779,5.779,0,0,1-1.935,4.3v1.51l4.277,2.148A6.213,6.213,0,0,1,49.226,29.23Z" transform="translate(22.387 3.674)" fill="#3ca8f4"/>
      <path id="Trazado_148269" data-name="Trazado 148269" d="M58.548,48.161H52.742C48.174,45.994,45,41.948,45,36.548a13.548,13.548,0,0,1,27.1,0c0,5.4-3.174,9.445-7.742,11.613Z" transform="translate(40.161 19.581)" fill="#3ca8f4"/>
      <circle id="Elipse_4376" data-name="Elipse 4376" cx="3.473" cy="3.473" r="3.473" transform="translate(95.487 53.101)" fill="#fb0"/>
      <path id="Trazado_148270" data-name="Trazado 148270" d="M60.71,37.484v7.742l-3.735,2.594.813,4.49-2.729,2.748L52.31,57.787l-4.49-.813L45.226,60.71H37.484L34.89,56.974l-4.49.813-2.729-2.729L24.923,52.31l.813-4.49L22,45.226V37.484l3.735-2.594-.813-4.49,2.748-2.729L30.4,24.923l4.49.813L37.484,22h7.742l2.594,3.735,4.49-.813,2.748,2.748L57.787,30.4l-.813,4.49ZM49.1,41.355A7.742,7.742,0,1,0,41.355,49.1,7.74,7.74,0,0,0,49.1,41.355Z" transform="translate(18.645 18.645)" fill="#ffda73"/>
      <path id="Trazado_148271" data-name="Trazado 148271" d="M52.1,32.1V30.161a8.152,8.152,0,0,0-4.533-7.334l-2.928-1.463a7.712,7.712,0,0,0,1.655-4.752V13.071a7.913,7.913,0,0,0-7.328-8.059A7.671,7.671,0,0,0,33.22,7.125a7.773,7.773,0,0,0-2.414,5.617v3.871a7.722,7.722,0,0,0,1.653,4.752l-2.928,1.463A8.154,8.154,0,0,0,25,30.161V32.1ZM31.263,26.29l5.35-2.675V20.05l-.641-.577a3.815,3.815,0,0,1-1.295-2.861V12.741a3.872,3.872,0,0,1,4.08-3.865,4.1,4.1,0,0,1,3.662,4.194v3.542a3.815,3.815,0,0,1-1.295,2.861l-.641.577v3.565l5.35,2.675a4.319,4.319,0,0,1,1.941,1.935H29.324a4.305,4.305,0,0,1,1.939-1.935Z" transform="translate(21.452 2.742)"/>
      <path id="Trazado_148272" data-name="Trazado 148272" d="M109.18,25.24l-1.061-1.425L82.136,39.865,98.185,13.881,96.76,12.82a60,60,0,0,0-71.52,0l-1.425,1.061L39.865,39.865,13.881,23.815,12.82,25.24a60,60,0,0,0,0,71.52l1.061,1.425L39.865,82.135,23.815,108.119l1.425,1.061a60,60,0,0,0,71.52,0l1.425-1.061L82.136,82.135l25.984,16.049,1.061-1.425a60,60,0,0,0,0-71.52ZM28.991,14.891a56.137,56.137,0,0,1,64.018,0L74.68,44.57,72.6,42.493l-4.252.763-2.47-3.546H56.117l-2.468,3.546L49.4,42.493,47.32,44.57Zm46.349,56.4L71.295,75.34l-4.707-.846-2.727,3.925H58.141L55.412,74.5l-4.707.846L46.66,71.3l.846-4.707-3.925-2.729V58.141L47.5,55.41l-.846-4.705L50.7,46.662l4.707.844,2.729-3.925h5.719L66.588,47.5l4.707-.844L75.34,50.7l-.846,4.705,3.925,2.731v5.719L74.5,66.588ZM14.893,93.009a56.131,56.131,0,0,1,0-64.02L44.572,47.32,42.495,49.4l.763,4.252L39.71,56.119v9.765l3.546,2.468L42.493,72.6,44.57,74.68Zm40.3,23.789v-3.54H66.806v3.54a57.222,57.222,0,0,1-5.806.331A57.222,57.222,0,0,1,55.194,116.8Zm19.355-15.153h-27.1V91.968a1.936,1.936,0,0,1,1.935-1.935H72.613a1.936,1.936,0,0,1,1.935,1.935Zm-27.1,3.871h27.1v1.935a1.936,1.936,0,0,1-1.935,1.935H49.387a1.936,1.936,0,0,1-1.935-1.935Zm45.557,1.591a55.459,55.459,0,0,1-22.332,9.163v-3.012h1.935a5.814,5.814,0,0,0,5.806-5.806V91.968a5.814,5.814,0,0,0-5.806-5.806H49.387a5.814,5.814,0,0,0-5.806,5.806v15.484a5.814,5.814,0,0,0,5.806,5.806h1.935v3.014a55.514,55.514,0,0,1-22.332-9.163L47.32,77.432,49.4,79.509l4.252-.763,2.47,3.544h9.765l2.468-3.546,4.252.763L74.68,77.43Zm14.1-14.1L77.43,74.68,79.507,72.6l-.763-4.252,3.546-2.47V56.117l-3.546-2.468.763-4.252L77.43,47.318l29.679-18.331a56.138,56.138,0,0,1,0,64.022Z" transform="translate(-1 -1)"/>
      <path id="Trazado_148273" data-name="Trazado 148273" d="M36.677,27a9.677,9.677,0,1,0,9.677,9.677A9.688,9.688,0,0,0,36.677,27Zm0,15.484a5.806,5.806,0,1,1,5.806-5.806A5.814,5.814,0,0,1,36.677,42.484Z" transform="translate(23.323 23.323)"/>
      <path id="Trazado_148274" data-name="Trazado 148274" d="M59.484,22A15.5,15.5,0,0,0,44,37.484a14.346,14.346,0,0,0,7.742,12.79v8.5H67.226v-8.5a14.348,14.348,0,0,0,7.742-12.79A15.5,15.5,0,0,0,59.484,22ZM55.613,54.9V51.032h7.742V54.9Zm1.935-17.419a1.935,1.935,0,1,1,1.935,1.935A1.937,1.937,0,0,1,57.548,37.484Zm7.268,9.677h-3.4V42.934a5.807,5.807,0,1,0-3.871,0v4.227h-3.4a10.645,10.645,0,0,1-6.281-9.677,11.613,11.613,0,0,1,23.226,0A10.645,10.645,0,0,1,64.816,47.161Z" transform="translate(39.226 18.645)"/>
      <path id="Trazado_148275" data-name="Trazado 148275" d="M5,53.1H32.1V26H5Zm15.484-3.871H16.613V45.355h3.871ZM16.613,29.871h3.871v3.871H16.613Zm-7.742,0h3.871v7.742H24.355V29.871h3.871V49.226H24.355V41.484H12.742v7.742H8.871Z" transform="translate(2.742 22.387)"/>
    </g>
  </g>
</svg>
