<svg xmlns="http://www.w3.org/2000/svg" width="150" height="150" viewBox="0 0 150 150">
  <g id="Grupo_96860" data-name="Grupo 96860" transform="translate(-310.668 -3214)">
    <circle id="Elipse_4557" data-name="Elipse 4557" cx="75" cy="75" r="75" transform="translate(310.668 3214)" fill="#fff"/>
    <g id="ambiental" transform="translate(336.666 3239.346)">
      <path id="Trazado_151294" data-name="Trazado 151294" d="M297.631,387.12s-10.808,10.808-24.7,10.808a29.508,29.508,0,0,1-21.615-9.264l1.451-1.544,7.5-8.013h.016a29.712,29.712,0,0,1,12.645-2.795C286.823,376.312,297.631,387.12,297.631,387.12Zm0,0" transform="translate(-199.814 -300.477)" fill="#7ae582"/>
      <path id="Trazado_151295" data-name="Trazado 151295" d="M56.179,387.12l1.451,1.544a29.508,29.508,0,0,1-21.615,9.264c-13.9,0-24.7-10.808-24.7-10.808s10.808-10.808,24.7-10.808a29.715,29.715,0,0,1,12.645,2.795h.015Zm0,0" transform="translate(-9.129 -300.477)" fill="#7ae582"/>
      <path id="Trazado_151296" data-name="Trazado 151296" d="M60.627,93.044l-1.5,1.6-1.5-1.6-7.747-8.3h-.016L18.1,50.758a24.944,24.944,0,0,1-5.036-7.977A25.228,25.228,0,0,1,36.448,8.312h.813A25.139,25.139,0,0,1,48.5,10.967l10.631,5.339L69.76,10.967A25.138,25.138,0,0,1,81,8.312h.813a25.18,25.18,0,0,1,25.136,25.212,25.233,25.233,0,0,1-6.79,17.234L68.39,84.747h-.016Zm0,0" transform="translate(-9.129 -6.456)" fill="#55b2f4"/>
      <g id="Grupo_89062" data-name="Grupo 89062" transform="translate(28.385 19.884)">
        <path id="Trazado_151297" data-name="Trazado 151297" d="M173.064,208.312l18.713,10.808a21.6,21.6,0,0,1-37.425,0Zm0,0" transform="translate(-151.449 -186.697)" fill="#fb0"/>
        <path id="Trazado_151298" data-name="Trazado 151298" d="M272.928,117.928a21.4,21.4,0,0,1-2.9,10.808l-18.713-10.808V96.312A21.619,21.619,0,0,1,272.928,117.928Zm0,0" transform="translate(-229.697 -96.312)" fill="#fb0"/>
        <path id="Trazado_151299" data-name="Trazado 151299" d="M160.928,96.312v21.615l-18.713,10.808a21.4,21.4,0,0,1-2.9-10.808A21.619,21.619,0,0,1,160.928,96.312Zm0,0" transform="translate(-139.312 -96.312)" fill="#fb0"/>
      </g>
      <path id="Trazado_151300" data-name="Trazado 151300" d="M98.875,85.136C98.4,84.662,87.1,73.528,72.283,73.528a32.505,32.505,0,0,0-7.489.872l27.33-29.151A26.686,26.686,0,0,0,72.655.312h-.817A26.816,26.816,0,0,0,59.905,3.13L50,8.083,40.093,3.13A26.819,26.819,0,0,0,28.159.312h-.816A26.686,26.686,0,0,0,7.876,45.249L35.206,74.4a32.426,32.426,0,0,0-7.489-.874C12.9,73.528,1.6,84.662,1.125,85.136L0,86.261l1.125,1.125C1.6,87.861,12.9,98.994,27.717,98.994a32.167,32.167,0,0,0,22.268-8.829L50,90.18l.014-.014a32.169,32.169,0,0,0,22.269,8.829c14.815,0,26.118-11.134,26.592-11.608L100,86.261ZM3.842,27a23.529,23.529,0,0,1,23.5-23.5h.816A23.629,23.629,0,0,1,38.672,5.977L50,11.642,61.33,5.977A23.616,23.616,0,0,1,71.841,3.5h.816A23.5,23.5,0,0,1,89.8,43.072L50,85.526,10.2,43.07A23.418,23.418,0,0,1,3.842,27ZM4.623,86.26c3.207-2.746,12.253-9.548,23.094-9.548a29,29,0,0,1,12.122,2.631l4.995,5.327H37.747L28.6,78.57l-1.765,2.649,5.176,3.451H23.471l-5.94-4.457-1.91,2.547,2.547,1.91H11.8v3.183H25.466l-3.65,3.65,2.251,2.251,5.9-5.9H47.783a29.354,29.354,0,0,1-20.066,7.958C16.905,95.811,7.839,89,4.623,86.26Zm67.66,9.551a29.356,29.356,0,0,1-20.066-7.958H70.032l5.9,5.9L78.183,91.5l-3.65-3.65H88.2V84.67H81.831l2.547-1.91-1.909-2.547L76.528,84.67h-8.54l5.176-3.451L71.4,78.57l-9.149,6.1H55.165l5-5.331a29.043,29.043,0,0,1,12.121-2.628c10.812,0,19.878,6.807,23.093,9.551C92.169,89.009,83.124,95.811,72.283,95.811Zm0,0" transform="translate(0 0)"/>
      <path id="Trazado_151301" data-name="Trazado 151301" d="M177.631,111.472a23.159,23.159,0,1,0-23.159,23.159A23.185,23.185,0,0,0,177.631,111.472Zm-3.088,0a19.938,19.938,0,0,1-1.99,8.657l-16.537-9.549v-19.1A20.084,20.084,0,0,1,174.543,111.472ZM152.928,91.479v19.1l-16.537,9.548a20.005,20.005,0,0,1,16.537-28.65Zm-15,31.33,16.547-9.554,16.546,9.554a20.04,20.04,0,0,1-33.093,0Zm0,0" transform="translate(-104.472 -70)"/>
      <path id="Trazado_151302" data-name="Trazado 151302" d="M380.3,52.384h3.088a20.094,20.094,0,0,0-20.071-20.071V35.4A17,17,0,0,1,380.3,52.384Zm0,0" transform="translate(-290.199 -25.824)"/>
    </g>
  </g>
</svg>
