<svg xmlns="http://www.w3.org/2000/svg" width="84.174" height="85" viewBox="0 0 84.174 85">
  <g id="regulacion" transform="translate(-3.224 -2)">
    <g id="Grupo_89010" data-name="Grupo 89010" transform="translate(18.702 78.941)">
      <path id="Trazado_151225" data-name="Trazado 151225" d="M52.8,230.108H98.638a3.692,3.692,0,1,1,0,7.384H52.8a3.692,3.692,0,0,1,0-7.384Z" transform="translate(-49.11 -230.108)" fill="#7ae582"/>
    </g>
    <g id="Grupo_89011" data-name="Grupo 89011" transform="translate(27.588 68.427)">
      <path id="Trazado_151226" data-name="Trazado 151226" d="M110.9,209.45H75.455v-6.807a3.707,3.707,0,0,1,3.707-3.707H107.2a3.707,3.707,0,0,1,3.707,3.707v6.807Z" transform="translate(-75.455 -198.936)" fill="#cbba34"/>
    </g>
    <g id="Grupo_89012" data-name="Grupo 89012" transform="translate(10.749 19.964)">
      <path id="Trazado_151227" data-name="Trazado 151227" d="M25.532,57.7a2.446,2.446,0,0,1,2.446-2.446H92.211a2.446,2.446,0,1,1,0,4.892H27.978A2.446,2.446,0,0,1,25.532,57.7Z" transform="translate(-25.532 -55.257)" fill="#7ae582"/>
    </g>
    <g id="Grupo_89013" data-name="Grupo 89013" transform="translate(64.339 47.326)">
      <path id="Trazado_151228" data-name="Trazado 151228" d="M203.088,143.964H188.117a3.707,3.707,0,0,1-3.707-3.707v-3.879H206.8v3.879A3.707,3.707,0,0,1,203.088,143.964Z" transform="translate(-184.41 -136.378)" fill="#cbba34"/>
    </g>
    <g id="Grupo_89018" data-name="Grupo 89018" transform="translate(42.866 2.675)">
      <path id="Trazado_151233" data-name="Trazado 151233" d="M123.195,4a2.446,2.446,0,0,1,2.446,2.446V69.752h-4.892V6.446A2.446,2.446,0,0,1,123.195,4Z" transform="translate(-120.749 -4)" fill="#7ae582"/>
    </g>
    <g id="Grupo_89021" data-name="Grupo 89021" transform="translate(42.191 2)">
      <path id="Trazado_151236" data-name="Trazado 151236" d="M124.315,69.1h-4.892a.675.675,0,0,1-.675-.675V5.12a3.12,3.12,0,0,1,6.241,0V68.426a.675.675,0,0,1-.675.675ZM120.1,67.752h3.542V5.12a1.771,1.771,0,0,0-3.542,0Z" transform="translate(-118.749 -2)"/>
    </g>
    <g id="Grupo_89022" data-name="Grupo 89022" transform="translate(10.074 19.289)">
      <path id="Trazado_151237" data-name="Trazado 151237" d="M90.886,59.5H26.652a3.12,3.12,0,1,1,0-6.241H90.886a3.12,3.12,0,1,1,0,6.241ZM26.652,54.606a1.771,1.771,0,0,0,0,3.542H90.886a1.771,1.771,0,1,0,0-3.542Z" transform="translate(-23.532 -53.257)"/>
    </g>
    <g id="Grupo_89023" data-name="Grupo 89023" transform="translate(40.215 17.313)">
      <circle id="Elipse_4574" data-name="Elipse 4574" cx="5.097" cy="5.097" r="5.097" transform="translate(0 0)" fill="#fcc24c"/>
    </g>
    <g id="Grupo_89024" data-name="Grupo 89024" transform="translate(3.899 47.326)">
      <path id="Trazado_151238" data-name="Trazado 151238" d="M23.9,143.964H8.932a3.707,3.707,0,0,1-3.707-3.707v-3.879H27.61v3.879A3.707,3.707,0,0,1,23.9,143.964Z" transform="translate(-5.225 -136.378)" fill="#cbba34"/>
    </g>
    <g id="Grupo_89027" data-name="Grupo 89027" transform="translate(26.913 67.752)">
      <path id="Trazado_151241" data-name="Trazado 151241" d="M109.577,208.8H74.13a.675.675,0,0,1-.675-.675v-6.808a4.386,4.386,0,0,1,4.382-4.382H105.87a4.386,4.386,0,0,1,4.381,4.382v6.808A.675.675,0,0,1,109.577,208.8ZM74.8,207.45h34.1v-6.133a3.036,3.036,0,0,0-3.032-3.032H77.837a3.036,3.036,0,0,0-3.032,3.032Z" transform="translate(-73.455 -196.935)"/>
    </g>
    <g id="Grupo_89028" data-name="Grupo 89028" transform="translate(18.027 78.267)">
      <path id="Trazado_151242" data-name="Trazado 151242" d="M97.312,236.842H51.477a4.367,4.367,0,1,1,0-8.733H97.312a4.367,4.367,0,1,1,0,8.733Zm-45.835-7.384a3.018,3.018,0,1,0,0,6.035H97.312a3.017,3.017,0,1,0,0-6.035H51.477Z" transform="translate(-47.11 -228.109)"/>
    </g>
    <g id="Grupo_89029" data-name="Grupo 89029" transform="translate(39.54 16.638)">
      <path id="Trazado_151243" data-name="Trazado 151243" d="M116.661,56.94a5.771,5.771,0,1,1,5.771-5.771,5.777,5.777,0,0,1-5.771,5.771Zm0-10.193a4.422,4.422,0,1,0,4.422,4.422,4.427,4.427,0,0,0-4.422-4.422Z" transform="translate(-110.89 -45.398)" fill="#690589"/>
    </g>
    <g id="Grupo_89030" data-name="Grupo 89030" transform="translate(3.225 46.651)">
      <path id="Trazado_151244" data-name="Trazado 151244" d="M22.578,143.313H7.607a4.386,4.386,0,0,1-4.382-4.382v-3.879a.675.675,0,0,1,.675-.675H26.285a.675.675,0,0,1,.675.675v3.879A4.386,4.386,0,0,1,22.578,143.313Zm-18-7.586v3.2a3.036,3.036,0,0,0,3.032,3.032H22.578a3.036,3.036,0,0,0,3.032-3.032v-3.2Z" transform="translate(-3.225 -134.378)"/>
    </g>
    <g id="Grupo_89031" data-name="Grupo 89031" transform="translate(3.224 24.181)">
      <path id="Trazado_151245" data-name="Trazado 151245" d="M26.285,91.579a.675.675,0,0,1-.6-.374L15.092,69.946,4.5,91.205A.675.675,0,0,1,3.3,90.6L14.488,68.133a.675.675,0,0,1,1.208,0L26.888,90.6a.675.675,0,0,1-.6.975Z" transform="translate(-3.224 -67.759)"/>
    </g>
    <g id="Grupo_89032" data-name="Grupo 89032" transform="translate(63.664 46.651)">
      <path id="Trazado_151246" data-name="Trazado 151246" d="M201.763,143.313H186.792a4.386,4.386,0,0,1-4.382-4.382v-3.879a.675.675,0,0,1,.675-.675H205.47a.675.675,0,0,1,.675.675v3.879A4.386,4.386,0,0,1,201.763,143.313Zm-18-7.586v3.2a3.036,3.036,0,0,0,3.032,3.032h14.971a3.036,3.036,0,0,0,3.032-3.032v-3.2Z" transform="translate(-182.41 -134.378)"/>
    </g>
    <g id="Grupo_89033" data-name="Grupo 89033" transform="translate(63.664 24.181)">
      <path id="Trazado_151247" data-name="Trazado 151247" d="M205.47,91.579a.675.675,0,0,1-.6-.374L194.277,69.947,183.688,91.205a.675.675,0,1,1-1.208-.6l11.193-22.471a.675.675,0,0,1,1.208,0L206.073,90.6a.675.675,0,0,1-.6.975Z" transform="translate(-182.409 -67.759)"/>
    </g>
    <g id="Grupo_89034" data-name="Grupo 89034" transform="translate(30.286 71.466)">
      <path id="Trazado_151248" data-name="Trazado 151248" d="M84.13,213.342a.675.675,0,0,1-.675-.675V208.62a.675.675,0,1,1,1.349,0v4.048A.675.675,0,0,1,84.13,213.342Z" transform="translate(-83.455 -207.945)"/>
    </g>
    <g id="Grupo_89035" data-name="Grupo 89035" transform="translate(26.656 10.5)">
      <circle id="Elipse_4575" data-name="Elipse 4575" cx="18.655" cy="18.655" r="18.655" fill="#29b39d"/>
    </g>
    <g id="Grupo_89038" data-name="Grupo 89038" transform="translate(25.981 9.825)">
      <path id="Trazado_151251" data-name="Trazado 151251" d="M90.022,63.859a19.33,19.33,0,1,1,19.33-19.33A19.352,19.352,0,0,1,90.022,63.859Zm0-37.311A17.981,17.981,0,1,0,108,44.529,18,18,0,0,0,90.022,26.548Z" transform="translate(-70.692 -25.199)"/>
    </g>
    <g id="Grupo_89039" data-name="Grupo 89039" transform="translate(43.497 16.194)">
      <path id="Trazado_151252" data-name="Trazado 151252" d="M129.38,55.744,122.621,44.08h6.407a1.2,1.2,0,0,1,1.038.6l4.681,8.092Z" transform="translate(-122.621 -44.08)" fill="#fff"/>
    </g>
    <g id="Grupo_89040" data-name="Grupo 89040" transform="translate(42.823 15.519)">
      <path id="Trazado_151253" data-name="Trazado 151253" d="M128.055,55.092a.674.674,0,0,1-.584-.336l-6.759-11.664a.675.675,0,0,1,.584-1.013H127.7a1.879,1.879,0,0,1,1.622.935l4.681,8.091a.674.674,0,0,1-.257.928l-5.368,2.974a.667.667,0,0,1-.327.085Zm-5.589-11.664,5.84,10.079,4.188-2.32-4.337-7.5a.525.525,0,0,0-.454-.262Z" transform="translate(-120.622 -42.079)"/>
    </g>
    <g id="Grupo_89041" data-name="Grupo 89041" transform="translate(44.309 34.23)">
      <path id="Trazado_151254" data-name="Trazado 151254" d="M125.027,97.552h13.114l-3.208,5.605a1.2,1.2,0,0,1-1.041.6h-8.865Z" transform="translate(-125.027 -97.552)" fill="#fff"/>
    </g>
    <g id="Grupo_89042" data-name="Grupo 89042" transform="translate(43.634 33.556)">
      <path id="Trazado_151255" data-name="Trazado 151255" d="M132.566,103.111H123.7a.675.675,0,0,1-.675-.675V96.228a.675.675,0,0,1,.675-.675h13.113a.674.674,0,0,1,.585,1.01l-3.208,5.605A1.875,1.875,0,0,1,132.566,103.111Zm-8.19-1.349h8.19a.526.526,0,0,0,.455-.264l2.631-4.6H124.377v4.86Z" transform="translate(-123.027 -95.553)"/>
    </g>
    <g id="Grupo_89043" data-name="Grupo 89043" transform="translate(33.196 32.507)">
      <path id="Trazado_151256" data-name="Trazado 151256" d="M92.081,94.167l3.213,5.606a1.2,1.2,0,0,0,1.04.6h5.1v1.078a.6.6,0,0,0,1.018.429l4.332-4.219a.6.6,0,0,0,0-.86l-4.332-4.19a.6.6,0,0,0-1.016.431v1.122Z" transform="translate(-92.081 -92.444)" fill="#fff"/>
    </g>
    <g id="Grupo_89044" data-name="Grupo 89044" transform="translate(31.648 21.907)">
      <path id="Trazado_151257" data-name="Trazado 151257" d="M89.04,73.342l-1.4-2.516a1.2,1.2,0,0,1,.012-1.186l5.023-8.621,5.333,3.109-5.35,9.214H89.04Z" transform="translate(-87.493 -61.019)" fill="#fff"/>
    </g>
    <g id="Grupo_89045" data-name="Grupo 89045" transform="translate(32.521 31.833)">
      <path id="Trazado_151258" data-name="Trazado 151258" d="M100.707,101.4a1.275,1.275,0,0,1-1.275-1.274v-.4H95.009a1.877,1.877,0,0,1-1.625-.942l-3.213-5.606a.675.675,0,0,1,.585-1.01h8.676v-.448a1.274,1.274,0,0,1,2.16-.916L105.924,95a1.274,1.274,0,0,1,0,1.829l-4.332,4.219A1.272,1.272,0,0,1,100.707,101.4ZM91.92,93.518l2.634,4.6a.526.526,0,0,0,.455.263h5.1a.675.675,0,0,1,.675.675v.9l4.149-4.041L100.782,91.9v.946a.675.675,0,0,1-.675.675H91.92Z" transform="translate(-90.081 -90.446)"/>
    </g>
    <g id="Grupo_89046" data-name="Grupo 89046" transform="translate(30.975 21.232)">
      <path id="Trazado_151259" data-name="Trazado 151259" d="M91.34,72.69H87.718a.674.674,0,0,1-.59-.347l-1.4-2.516a1.882,1.882,0,0,1,.019-1.852l5.023-8.622a.675.675,0,0,1,.923-.243l5.333,3.109a.674.674,0,0,1,.244.921l-5.35,9.214a.673.673,0,0,1-.583.336Zm-3.225-1.349h2.836l4.817-8.3L91.6,60.615l-4.683,8.039a.528.528,0,0,0-.005.518Z" transform="translate(-85.498 -59.018)"/>
    </g>
    <g id="Grupo_89047" data-name="Grupo 89047" transform="translate(34.999 16.193)">
      <path id="Trazado_151260" data-name="Trazado 151260" d="M109.561,44.079h-6.55a1.2,1.2,0,0,0-1.046.613l-2.4,4.293-1.239-.7a.6.6,0,0,0-.874.676l1.7,6.4a.6.6,0,0,0,.748.421l6.179-1.813a.6.6,0,0,0,.137-1.091l-1.246-.739Z" transform="translate(-97.426 -44.079)" fill="#fff"/>
    </g>
    <g id="Grupo_89048" data-name="Grupo 89048" transform="translate(34.325 15.519)">
      <path id="Trazado_151261" data-name="Trazado 151261" d="M98.4,55.156a1.277,1.277,0,0,1-1.229-.948l-1.7-6.4a1.274,1.274,0,0,1,1.857-1.437l.649.366,2.074-3.7a1.875,1.875,0,0,1,1.635-.958h6.55a.674.674,0,0,1,.586,1.009l-4.267,7.484.676.4a1.274,1.274,0,0,1-.291,2.319L98.763,55.1a1.286,1.286,0,0,1-.361.052Zm-1.58-7.518,1.635,6.15,5.939-1.743-1.1-.65a.674.674,0,0,1-.242-.914l4.02-7.051h-5.389a.525.525,0,0,0-.457.268l-2.4,4.293a.674.674,0,0,1-.92.258Z" transform="translate(-95.429 -42.079)"/>
    </g>
    <g id="Grupo_89049" data-name="Grupo 89049" transform="translate(49.06 22.561)">
      <path id="Trazado_151262" data-name="Trazado 151262" d="M148.887,71.033l-2.413-4.538.985-.591a.6.6,0,0,0-.132-1.087l-5.967-1.832a.6.6,0,0,0-.759.432l-1.471,6.07a.6.6,0,0,0,.881.661l1.026-.589,4.659,8.172,3.171-5.54a1.2,1.2,0,0,0,.018-1.159Z" transform="translate(-139.113 -62.958)" fill="#fff"/>
    </g>
    <g id="Grupo_89050" data-name="Grupo 89050" transform="translate(48.386 21.887)">
      <path id="Trazado_151263" data-name="Trazado 151263" d="M144.376,77.082h0a.674.674,0,0,1-.585-.341l-4.325-7.585-.44.252A1.274,1.274,0,0,1,137.153,68l1.471-6.07a1.274,1.274,0,0,1,1.613-.918l5.966,1.832a1.274,1.274,0,0,1,.281,2.311l-.436.261,2.112,3.972h0a1.864,1.864,0,0,1-.028,1.81l-3.171,5.539a.675.675,0,0,1-.586.34Zm-4.66-9.522a.674.674,0,0,1,.586.34l4.075,7.146,2.584-4.514a.522.522,0,0,0,.008-.507l-2.413-4.538a.675.675,0,0,1,.249-.9l.841-.5-5.729-1.759L138.5,68.151l.875-.5A.675.675,0,0,1,139.716,67.56Z" transform="translate(-137.117 -60.96)"/>
    </g>
  </g>
</svg>
